<svg width="957" height="273" viewBox="0 0 957 273" fill="none" xmlns="http://www.w3.org/2000/svg">
<path d="M567.361 137.943H527.825" stroke="#1B458F" stroke-width="1.29" stroke-miterlimit="10"/>
<path d="M511.894 145.486H527.825V130.408H511.894" fill="#1B458F"/>
<path d="M352.384 137.148H391.914" stroke="#1B458F" stroke-width="1.29" stroke-miterlimit="10"/>
<path d="M407.85 144.685H391.914V129.607H407.85" fill="#1B458F"/>
<path d="M585.592 137.943H586.424" stroke="#1B458F" stroke-width="3.86" stroke-miterlimit="10"/>
<path d="M590.496 137.943H599.86" stroke="#1B458F" stroke-width="3.86" stroke-miterlimit="10" stroke-dasharray="2.53 6.32 2.53 6.32"/>
<path d="M601.896 137.943H736.706" stroke="#1B458F" stroke-width="3.86" stroke-miterlimit="10" stroke-dasharray="2.53 6.32 2.53 6.32 2.53 6.32"/>
<path d="M738.742 137.943H739.574" stroke="#1B458F" stroke-width="3.86" stroke-miterlimit="10"/>
<path d="M732.581 147.184L736.5 137.944L732.581 128.703L754.441 137.944L732.581 147.184Z" fill="#1B458F"/>
<path d="M947.965 228.302L947.694 228.199C947.636 228.199 941.675 225.887 938.891 220.702C936.107 215.516 937.467 209.278 937.48 209.214L937.544 208.93L937.815 209.033C937.873 209.033 943.828 211.345 946.618 216.524C949.408 221.702 948.042 227.953 948.029 228.011L947.965 228.302ZM939.336 220.463C941.694 224.847 946.425 227.094 947.591 227.605C947.817 226.313 948.532 221.147 946.173 216.769C943.815 212.391 939.085 210.137 937.918 209.627C937.654 210.906 936.951 216.085 939.31 220.463H939.336Z" stroke="#5770BE" stroke-width="0.96" stroke-miterlimit="10"/>
<path d="M940.992 218.906C946.006 221.928 947.939 227.946 947.939 227.946C947.939 227.946 941.74 229.051 936.726 226.009C931.712 222.968 929.785 216.969 929.785 216.969C929.785 216.969 935.978 215.865 940.992 218.906Z" fill="#5770BE" stroke="#5770BE" stroke-width="0.96" stroke-miterlimit="10"/>
<path d="M860.283 144.452C860.741 143.745 861.46 143.248 862.283 143.072C863.105 142.895 863.965 143.052 864.672 143.51C864.773 143.573 864.87 143.645 864.962 143.723C865.072 143.813 865.176 143.913 865.271 144.02L877.76 142.199L878.45 132.79C878.461 132.422 878.547 132.061 878.702 131.727C878.857 131.393 879.078 131.094 879.351 130.847C879.624 130.601 879.944 130.413 880.292 130.294C880.639 130.174 881.008 130.127 881.374 130.154C881.741 130.181 882.098 130.282 882.424 130.451C882.751 130.62 883.04 130.853 883.274 131.137C883.509 131.42 883.683 131.748 883.788 132.101C883.892 132.454 883.924 132.825 883.882 133.191V133.242L882.664 146.441V146.474C882.505 146.981 882.187 147.423 881.758 147.734C881.328 148.046 880.81 148.211 880.28 148.204L865.593 147.952L865.413 148.204C865.129 148.552 864.775 148.835 864.375 149.035C863.974 149.236 863.535 149.349 863.088 149.367C862.64 149.385 862.194 149.309 861.778 149.141C861.363 148.974 860.987 148.721 860.676 148.398C860.612 148.334 860.552 148.268 860.496 148.198C860.075 147.673 859.829 147.031 859.791 146.359C859.753 145.688 859.925 145.021 860.283 144.452Z" fill="#FFB7B7"/>
<path d="M885.455 224.667H881.891L880.196 210.906H885.455V224.667Z" fill="#FFB7B7"/>
<path d="M886.363 228.127H874.879V227.979C874.879 226.792 875.35 225.654 876.187 224.815C877.025 223.975 878.161 223.504 879.345 223.504H886.363V228.127Z" fill="#2F2E41"/>
<path d="M910.336 221.431L906.966 222.58L900.928 210.105L905.903 208.406L910.336 221.431Z" fill="#FFB7B7"/>
<path d="M912.308 224.415L901.443 228.128L901.398 227.986C901.208 227.43 901.13 226.842 901.167 226.255C901.204 225.668 901.357 225.095 901.615 224.567C901.874 224.039 902.233 223.568 902.674 223.179C903.114 222.791 903.627 222.493 904.182 222.304L910.82 220.037L912.308 224.415Z" fill="#2F2E41"/>
<path d="M889.373 104.326C889.373 104.326 885.828 103.157 883.573 107.845C881.848 111.248 879.911 114.54 877.773 117.699L879.796 118.17C879.796 118.17 880.306 114.883 881.569 114.412L881.066 118.635C881.066 118.635 896.255 123.562 903.093 118.17L902.835 116.524C903.167 116.639 903.449 116.867 903.633 117.167C903.818 117.466 903.893 117.821 903.847 118.17L904.607 117.466C903.794 116.202 902.767 115.09 901.572 114.18C900.077 112.946 899.561 110.602 899.387 109.143C899.248 107.901 898.718 106.736 897.873 105.817C896.313 104.19 893.549 102.466 889.373 104.326Z" fill="#2F2E41"/>
<path d="M890.681 120.722C894.258 120.722 897.158 117.816 897.158 114.232C897.158 110.648 894.258 107.742 890.681 107.742C887.104 107.742 884.205 110.648 884.205 114.232C884.205 117.816 887.104 120.722 890.681 120.722Z" fill="#FFB7B7"/>
<path d="M882.052 126.062L880.873 125.668C880.873 125.668 878.521 126.649 878.521 128.419C878.521 130.188 878.127 137.265 878.127 137.265L883.425 137.853L882.052 126.062Z" fill="#CBCBCB"/>
<path d="M903.119 164.722C902.629 164.175 902.353 163.47 902.34 162.736C902.327 162.002 902.578 161.288 903.048 160.724L899.742 133.022C899.74 132.388 899.982 131.777 900.418 131.316C900.853 130.855 901.449 130.58 902.081 130.546C902.713 130.513 903.334 130.725 903.815 131.138C904.296 131.55 904.601 132.133 904.665 132.764V132.796L907.617 160.563C907.724 160.672 907.823 160.788 907.913 160.912C908.151 161.24 908.321 161.611 908.415 162.005C908.509 162.4 908.524 162.808 908.46 163.209C908.396 163.609 908.254 163.992 908.042 164.337C907.83 164.682 907.552 164.982 907.224 165.219L907.121 165.29C906.745 165.538 906.319 165.701 905.874 165.767C905.429 165.833 904.974 165.8 904.543 165.671C903.986 165.499 903.492 165.169 903.119 164.722Z" fill="#FFB7B7"/>
<path d="M900.09 137.265L905.387 136.678C905.387 136.678 904.994 129.574 904.994 127.831C904.994 126.087 902.642 125.08 902.642 125.08L901.462 125.474L900.09 137.265Z" fill="#CBCBCB"/>
<path d="M882.832 147.079C879.98 152.762 878.438 159.014 878.321 165.373C878.321 175.395 877.928 221.391 877.928 221.391C877.928 221.391 883.818 224.149 887.343 220.804L890.488 169.893L902.854 219.822C902.854 219.822 908.738 221.004 911.49 219.034L906.193 184.242C906.193 184.242 904.034 151.612 898.15 149.256C892.266 146.899 882.832 147.079 882.832 147.079Z" fill="#2F2E41"/>
<path d="M883.682 114.296C885.893 112.777 887.731 110.774 889.057 108.439C889.057 108.439 893.265 113.121 895.837 113.36C898.408 113.599 896.069 107.735 896.069 107.735L891.396 106.566L886.956 107.038L883.45 109.375L883.682 114.296Z" fill="#2F2E41"/>
<path d="M897.151 123.899C897.151 123.899 897.338 123.802 886.196 124.209L881.517 125.5L880.873 125.668C880.873 125.668 881.459 137.459 883.032 139.623C884.604 141.786 884.204 142.967 883.818 143.161C883.431 143.355 882.439 142.967 883.032 143.949C883.624 144.931 884.404 144.343 883.618 144.931C882.832 145.518 882.439 147.681 882.439 147.681L899.703 150.045C899.703 150.045 900.296 142.373 901.862 138.421C902.615 136.625 903.261 134.786 903.795 132.913L902.622 125.055L897.151 123.899Z" fill="#CBCBCB"/>
<path d="M864.336 90.4031H863.344V63.1206C863.344 61.0492 862.937 58.9981 862.145 57.0845C861.354 55.1709 860.194 53.4323 858.732 51.9679C857.27 50.5035 855.535 49.3421 853.625 48.5501C851.715 47.758 849.668 47.3507 847.6 47.3516H789.988C787.921 47.3507 785.874 47.758 783.964 48.5501C782.054 49.3421 780.318 50.5035 778.856 51.9679C777.394 53.4323 776.234 55.1709 775.443 57.0845C774.652 58.9981 774.244 61.0492 774.244 63.1206V212.616C774.244 214.687 774.652 216.739 775.443 218.652C776.234 220.566 777.394 222.304 778.856 223.769C780.318 225.233 782.054 226.395 783.964 227.187C785.874 227.979 787.921 228.386 789.988 228.385H847.6C849.668 228.386 851.715 227.979 853.625 227.187C855.535 226.395 857.27 225.233 858.732 223.769C860.194 222.304 861.354 220.566 862.145 218.652C862.937 216.739 863.344 214.687 863.344 212.616V109.775H864.336V90.4031Z" fill="#3F3D56"/>
<path d="M859.993 63.2314V212.507C859.995 215.628 858.759 218.622 856.559 220.831C854.358 223.04 851.372 224.282 848.258 224.286H790.342C787.227 224.286 784.239 223.047 782.035 220.841C779.831 218.634 778.591 215.642 778.588 212.52V63.2314C778.587 61.6855 778.89 60.1546 779.48 58.7261C780.069 57.2975 780.934 55.9993 782.024 54.9056C783.114 53.8119 784.409 52.9441 785.834 52.3517C787.259 51.7593 788.787 51.454 790.329 51.4531H797.367C797.02 52.3016 796.887 53.2225 796.979 54.1346C797.071 55.0468 797.386 55.9222 797.895 56.6839C798.405 57.4455 799.093 58.07 799.9 58.5024C800.707 58.9348 801.607 59.1617 802.522 59.1633H835.53C836.445 59.1601 837.344 58.9322 838.15 58.4994C838.956 58.0666 839.644 57.4422 840.153 56.681C840.662 55.9199 840.976 55.0451 841.069 54.1336C841.162 53.2221 841.031 52.3017 840.686 51.4531H848.206C851.321 51.4514 854.309 52.6891 856.513 54.8942C858.717 57.0992 859.957 60.0911 859.961 63.2121L859.993 63.2314Z" fill="white"/>
<path d="M859.993 85.3158V80.2338H852.311V52.1828C851.008 51.699 849.629 51.4519 848.238 51.4531H847.24V80.2338H820.599V59.1633H815.527V80.2338H793.197V51.4531H790.342C789.605 51.4521 788.869 51.5213 788.145 51.6598V80.2274H778.607V85.3093H788.145V97.0683L778.614 102.583V108.485L788.145 102.97V137.963H778.607V143.045H788.145V193.639H778.607V198.721H788.145V224.073C788.875 224.215 789.618 224.286 790.362 224.286H793.217V198.702H815.546V224.286H820.618V198.702H847.259V224.286H848.258C849.648 224.287 851.027 224.04 852.331 223.556V198.702H860.012V193.62H852.331V171.496H859.941V166.414H852.331V143.026H860.012V137.944H852.331V106.948H860.012V101.86H852.331V85.3158H859.993ZM808.438 85.3158L793.184 94.1431V85.3158H808.438ZM793.184 100.013L815.514 87.0981V137.944H793.184V100.013ZM793.184 193.645V143.026H815.514V193.62L793.184 193.645ZM847.227 193.645H820.586V171.496H847.227V193.645ZM847.227 166.44H820.586V143.026H847.227V166.44ZM847.227 137.97H820.586V106.974H847.227V137.97ZM847.227 101.866H820.586V85.3158H847.227V101.866Z" fill="#E5E5E5"/>
<path d="M864.233 101.937C864.233 118.081 835.06 154.055 835.06 154.055C835.06 154.055 805.88 118.081 805.88 101.937C805.822 98.0615 806.534 94.2128 807.975 90.6153C809.415 87.0177 811.555 83.7431 814.27 80.9818C816.985 78.2206 820.221 76.0278 823.79 74.5311C827.358 73.0344 831.188 72.2637 835.056 72.2637C838.925 72.2637 842.755 73.0344 846.323 74.5311C849.892 76.0278 853.128 78.2206 855.843 80.9818C858.558 83.7431 860.698 87.0177 862.138 90.6153C863.579 94.2128 864.291 98.0615 864.233 101.937Z" fill="#1B458F"/>
<path d="M852.311 100.665C852.311 104.084 851.299 107.427 849.404 110.269C847.508 113.112 844.814 115.328 841.662 116.636C838.509 117.944 835.041 118.287 831.694 117.62C828.348 116.953 825.274 115.306 822.861 112.889C820.448 110.471 818.805 107.391 818.14 104.038C817.474 100.685 817.816 97.2088 819.121 94.0502C820.427 90.8915 822.638 88.1917 825.475 86.2922C828.312 84.3927 831.648 83.3789 835.06 83.3789C839.632 83.3772 844.018 85.1952 847.253 88.4333C850.488 91.6713 852.308 96.0642 852.311 100.646V100.665Z" fill="white"/>
<path d="M835.002 107.484C838.55 107.484 841.427 104.601 841.427 101.045C841.427 97.4898 838.55 94.6074 835.002 94.6074C831.453 94.6074 828.577 97.4898 828.577 101.045C828.577 104.601 831.453 107.484 835.002 107.484Z" fill="#1B458F"/>
<path d="M835.06 175.151C839.402 175.151 842.922 171.623 842.922 167.273C842.922 162.922 839.402 159.395 835.06 159.395C830.718 159.395 827.198 162.922 827.198 167.273C827.198 171.623 830.718 175.151 835.06 175.151Z" fill="#1B458F"/>
<path d="M956.742 228.541H787.977C787.94 228.547 787.903 228.544 787.867 228.534C787.831 228.524 787.798 228.506 787.769 228.482C787.741 228.458 787.718 228.428 787.703 228.394C787.687 228.36 787.679 228.323 787.679 228.286C787.679 228.248 787.687 228.211 787.703 228.177C787.718 228.143 787.741 228.113 787.769 228.089C787.798 228.065 787.831 228.047 787.867 228.037C787.903 228.027 787.94 228.025 787.977 228.031H956.742C956.779 228.025 956.817 228.027 956.853 228.037C956.888 228.047 956.922 228.065 956.95 228.089C956.978 228.113 957.001 228.143 957.017 228.177C957.032 228.211 957.041 228.248 957.041 228.286C957.041 228.323 957.032 228.36 957.017 228.394C957.001 228.428 956.978 228.458 956.95 228.482C956.922 228.506 956.888 228.524 956.853 228.534C956.817 228.544 956.779 228.547 956.742 228.541Z" fill="#CBCBCB"/>
<path d="M344.212 140.501C346.401 140.501 348.176 138.723 348.176 136.53C348.176 134.337 346.401 132.559 344.212 132.559C342.024 132.559 340.249 134.337 340.249 136.53C340.249 138.723 342.024 140.501 344.212 140.501Z" fill="#1B458F"/>
<path d="M136.762 48.7793L339.817 131.654" stroke="#1B458F" stroke-width="3.86" stroke-miterlimit="10" stroke-dasharray="2.58 6.44 2.58 6.44 2.58 6.44"/>
<path d="M335.132 140.842L136.137 233.073" stroke="#1B458F" stroke-width="3.86" stroke-miterlimit="10" stroke-dasharray="2.58 6.44 2.58 6.44 2.58 6.44"/>
<path d="M460.752 190.158C489.969 190.158 513.654 166.426 513.654 137.15C513.654 107.874 489.969 84.1406 460.752 84.1406C431.535 84.1406 407.85 107.874 407.85 137.15C407.85 166.426 431.535 190.158 460.752 190.158Z" fill="white" stroke="#1B458F" stroke-width="3.86" stroke-miterlimit="10"/>
<path d="M477.385 128.504C477.385 131.863 476.391 135.147 474.529 137.94C472.666 140.733 470.019 142.909 466.922 144.195C463.825 145.48 460.418 145.816 457.13 145.161C453.842 144.506 450.822 142.888 448.452 140.513C446.082 138.138 444.467 135.112 443.813 131.818C443.159 128.523 443.495 125.109 444.778 122.005C446.061 118.902 448.233 116.25 451.02 114.384C453.807 112.518 457.084 111.521 460.436 111.521C462.662 111.521 464.867 111.959 466.923 112.813C468.98 113.666 470.849 114.917 472.423 116.494C473.997 118.071 475.245 119.944 476.097 122.004C476.948 124.065 477.386 126.274 477.385 128.504Z" fill="white"/>
<path d="M469.555 124.99C469.555 124.112 469.343 123.557 468.685 123.557C466.932 123.557 465.186 127.431 464.451 130.77C467.177 130.628 469.555 127.935 469.555 124.99Z" fill="#E71C2C"/>
<path d="M460.436 111.52C460.249 111.52 460.063 111.52 459.876 111.52L455.004 133.682C454.916 134.048 454.87 134.423 454.868 134.799C454.868 135.781 455.326 136.091 456.299 136.091C457.272 136.091 458.335 135.29 458.973 134.121C458.973 134.05 458.973 133.992 458.973 133.915C458.973 129.885 461.248 121.446 468.414 121.446C471.527 121.446 472.281 123.053 472.281 124.81C472.281 128.872 468.414 131.958 464.239 132.204C464.197 132.551 464.173 132.9 464.168 133.25C464.168 135.458 465.108 136.162 466.339 136.162C467.57 136.162 469.342 135.284 470.457 134.302C469.729 138.299 467.235 139.468 464.413 139.468C461.906 139.468 460.05 138.493 459.328 136.239C457.395 139.01 455.049 139.468 453.605 139.468C451.504 139.468 449.868 138.209 449.868 135.264C449.884 134.497 449.977 133.734 450.145 132.985L454.656 112.515C450.69 113.98 447.416 116.882 445.479 120.647C443.543 124.412 443.084 128.767 444.194 132.854C445.304 136.941 447.902 140.463 451.475 142.726C455.049 144.988 459.339 145.827 463.499 145.076C467.659 144.326 471.388 142.041 473.95 138.672C476.512 135.303 477.721 131.094 477.339 126.876C476.957 122.658 475.011 118.736 471.886 115.884C468.761 113.032 464.683 111.457 460.456 111.469" fill="#E71C2C"/>
<path d="M449.655 149.517C449.519 149.378 449.356 149.268 449.177 149.194C448.998 149.119 448.805 149.082 448.611 149.084H437.739C437.546 149.082 437.355 149.119 437.176 149.194C436.998 149.268 436.836 149.378 436.702 149.517C436.565 149.653 436.456 149.815 436.382 149.993C436.308 150.172 436.27 150.363 436.27 150.556C436.27 150.75 436.308 150.941 436.382 151.119C436.456 151.298 436.565 151.46 436.702 151.596C436.836 151.735 436.998 151.845 437.176 151.919C437.355 151.994 437.546 152.031 437.739 152.029H441.709V165.654C441.708 165.847 441.745 166.038 441.819 166.217C441.892 166.395 441.999 166.558 442.135 166.694C442.271 166.831 442.433 166.94 442.611 167.014C442.788 167.088 442.979 167.126 443.172 167.126C443.365 167.127 443.557 167.089 443.735 167.016C443.914 166.942 444.076 166.834 444.213 166.697C444.349 166.56 444.458 166.397 444.531 166.218C444.605 166.039 444.642 165.847 444.641 165.654V152.029H448.611C448.805 152.031 448.998 151.993 449.177 151.919C449.356 151.845 449.519 151.735 449.655 151.596C449.928 151.319 450.081 150.946 450.081 150.556C450.081 150.167 449.928 149.794 449.655 149.517Z" fill="#1B458F"/>
<path d="M462.64 165.064L456.84 150.07C456.738 149.784 456.549 149.536 456.3 149.361C456.052 149.186 455.755 149.092 455.452 149.092C455.148 149.092 454.851 149.186 454.603 149.361C454.354 149.536 454.166 149.784 454.063 150.07L448.263 165.006C448.17 165.209 448.121 165.429 448.121 165.652C448.118 165.845 448.154 166.037 448.227 166.216C448.3 166.395 448.409 166.557 448.547 166.692C448.679 166.831 448.84 166.941 449.017 167.016C449.194 167.09 449.385 167.127 449.578 167.124C449.771 167.127 449.962 167.089 450.141 167.015C450.319 166.941 450.481 166.831 450.615 166.692C450.752 166.558 450.863 166.4 450.944 166.227L452.877 161.261H458.033L459.966 166.227C460.045 166.398 460.154 166.553 460.288 166.685C460.42 166.827 460.58 166.939 460.757 167.014C460.935 167.09 461.126 167.128 461.319 167.124C461.708 167.123 462.081 166.967 462.356 166.691C462.631 166.416 462.787 166.042 462.789 165.652C462.788 165.451 462.751 165.252 462.679 165.064H462.64ZM453.58 158.607L455.468 153.725L457.356 158.607H453.58Z" fill="#1B458F"/>
<path d="M478.564 164.743L473.409 158.111L478.564 151.434C478.74 151.182 478.832 150.882 478.829 150.575C478.831 150.382 478.795 150.191 478.723 150.012C478.651 149.833 478.544 149.67 478.409 149.533C478.273 149.396 478.111 149.287 477.934 149.214C477.756 149.14 477.565 149.102 477.372 149.103C477.175 149.096 476.979 149.132 476.798 149.209C476.616 149.286 476.454 149.402 476.322 149.549L471.527 155.709L466.726 149.549C466.594 149.4 466.431 149.283 466.248 149.206C466.065 149.129 465.867 149.094 465.669 149.103C465.28 149.105 464.907 149.26 464.632 149.536C464.357 149.812 464.202 150.185 464.2 150.575C464.197 150.882 464.29 151.182 464.464 151.434L469.62 158.111L464.464 164.743C464.258 165.006 464.147 165.332 464.148 165.666C464.145 165.86 464.181 166.052 464.255 166.231C464.33 166.41 464.44 166.572 464.58 166.706C464.855 166.981 465.229 167.136 465.618 167.136C466.007 167.136 466.38 166.981 466.655 166.706L471.463 160.546L476.238 166.603C476.429 166.839 476.689 167.01 476.982 167.092C477.274 167.174 477.585 167.164 477.871 167.062C478.157 166.96 478.405 166.771 478.58 166.523C478.755 166.274 478.848 165.977 478.848 165.673C478.851 165.342 478.745 165.019 478.545 164.756" fill="#1B458F"/>
<path d="M484.177 149.515C484.041 149.378 483.879 149.269 483.7 149.195C483.521 149.12 483.33 149.082 483.137 149.082C482.943 149.082 482.752 149.12 482.573 149.195C482.394 149.269 482.232 149.378 482.096 149.515C481.958 149.65 481.849 149.812 481.776 149.991C481.703 150.17 481.667 150.362 481.67 150.555V165.652C481.67 165.846 481.707 166.038 481.781 166.217C481.854 166.396 481.962 166.558 482.099 166.695C482.236 166.832 482.398 166.94 482.577 167.014C482.755 167.088 482.947 167.125 483.14 167.124C483.332 167.124 483.523 167.086 483.701 167.012C483.879 166.938 484.041 166.83 484.177 166.693C484.312 166.556 484.42 166.394 484.493 166.215C484.566 166.037 484.604 165.845 484.603 165.652V150.555C484.606 150.362 484.57 150.17 484.497 149.991C484.424 149.812 484.315 149.65 484.177 149.515Z" fill="#1B458F"/>
<path d="M575.668 141.915C577.857 141.915 579.631 140.137 579.631 137.944C579.631 135.751 577.857 133.973 575.668 133.973C573.479 133.973 571.705 135.751 571.705 137.944C571.705 140.137 573.479 141.915 575.668 141.915Z" fill="#1B458F"/>
<path d="M66.6798 197.5L63.6896 200.096H66.6798V197.5Z" fill="#546389"/>
<path d="M80.0195 197.5L83.0033 200.096H80.0195V197.5Z" fill="#546389"/>
<path d="M98.7146 217.157H100.042V214.116C100.042 214.116 107.389 212.669 108.349 214.116C109.309 215.562 108.349 218.397 108.349 218.397H100.281L98.7146 217.157Z" fill="#2F3133"/>
<path d="M51.4517 246.905H49.0995C48.2924 246.935 47.5065 246.643 46.9135 246.094C46.3205 245.545 45.9688 244.782 45.9353 243.974V238.924C45.9688 238.115 46.3205 237.353 46.9135 236.804C47.5065 236.254 48.2924 235.963 49.0995 235.992H51.4517C52.2587 235.963 53.0447 236.254 53.6377 236.804C54.2306 237.353 54.5823 238.115 54.6159 238.924V243.954C54.6017 244.356 54.5086 244.752 54.3419 245.118C54.1752 245.484 53.9381 245.813 53.6443 246.087C53.3504 246.361 53.0055 246.574 52.6293 246.715C52.253 246.855 51.8529 246.92 51.4517 246.905Z" fill="#2F3133"/>
<path d="M96.2722 246.905H93.6945C91.7611 246.905 90.1887 245.614 90.1887 243.974V238.924C90.1887 237.31 91.7611 235.992 93.6945 235.992H96.2722C98.2055 235.992 99.7779 237.284 99.7779 238.924V243.954C99.7779 245.588 98.2055 246.905 96.2722 246.905Z" fill="#2F3133"/>
<path d="M98.6373 219.811H47.5464L52.9145 206.134C53.9972 203.325 57.2838 201.439 61.0795 201.439H85.1299C88.9321 201.439 92.2187 203.325 93.3013 206.134L98.6373 219.811Z" fill="white" stroke="#5770BE" stroke-width="4.36" stroke-miterlimit="10"/>
<path d="M105.088 229.342V234.604H41.0957V229.342C41.0957 224.079 44.8914 219.811 49.57 219.811H96.6138C101.286 219.811 105.088 224.072 105.088 229.342Z" fill="#5770BE"/>
<path d="M106.602 236.845C106.602 238.402 105.024 239.667 103.071 239.667H43.1384C41.2051 239.667 39.6069 238.376 39.6069 236.845C39.6069 235.289 41.1858 234.023 43.1384 234.023H103.071C105.043 234.023 106.602 235.289 106.602 236.845Z" fill="#546389"/>
<path d="M99.8296 231.782V226.422L91.7935 228.14V231.782H99.8296Z" fill="white"/>
<path d="M46.4509 231.782V226.422L54.4935 228.14V231.782H46.4509Z" fill="white"/>
<path d="M47.2435 217.292L45.9546 217.182L46.1995 214.147C46.1995 214.147 38.9947 212.106 37.9185 213.469C36.8423 214.831 37.5705 217.737 37.5705 217.737L45.6131 218.383L47.2435 217.292Z" fill="#2F3133"/>
<path d="M98.6373 219.811H47.5464L52.9145 206.134C53.9972 203.325 57.2838 201.439 61.0795 201.439H85.1299C88.9321 201.439 92.2187 203.325 93.3013 206.134L98.6373 219.811Z" fill="white" stroke="#5770BE" stroke-width="3.05" stroke-miterlimit="10"/>
<path d="M61.5307 202.389C57.8832 202.389 54.7255 204.087 53.6815 206.612L48.526 218.881H55.6663L62.246 202.363L61.5307 202.389Z" fill="#CCDCFF"/>
<path d="M92.4765 206.637C91.4326 204.112 88.2813 202.414 84.6338 202.414H67.234L61.4341 218.932H97.5869L92.4765 206.637Z" fill="#CCDCFF"/>
<path d="M86.0515 229.857H60.1387V230.613H86.0515V229.857Z" fill="white"/>
<path d="M80.5995 198.553H73.6654C73.5595 198.528 73.449 198.528 73.3432 198.553H66.3768C66.2522 198.551 66.1299 198.519 66.0207 198.459C65.9115 198.399 65.8188 198.312 65.7506 198.208C65.6825 198.103 65.6411 197.983 65.6301 197.859C65.619 197.734 65.6387 197.609 65.6873 197.494L66.3317 196.035C66.3899 195.898 66.487 195.782 66.6108 195.701C66.7346 195.619 66.8796 195.576 67.0277 195.576H68.961C69.1228 195.576 69.2803 195.524 69.4102 195.428C69.5402 195.331 69.6358 195.196 69.6828 195.04L70.0823 193.749C70.1275 193.593 70.2225 193.456 70.3529 193.359C70.4833 193.262 70.6418 193.211 70.8041 193.213H76.2302C76.392 193.213 76.5495 193.265 76.6795 193.361C76.8095 193.458 76.905 193.594 76.952 193.749L77.3516 195.04C77.3976 195.196 77.493 195.332 77.6231 195.429C77.7533 195.526 77.9113 195.577 78.0733 195.576H80.0066C80.1548 195.576 80.2998 195.619 80.4235 195.701C80.5473 195.782 80.6444 195.898 80.7026 196.035L81.3471 197.494C81.3979 197.614 81.4174 197.745 81.4036 197.874C81.3898 198.003 81.3432 198.127 81.2683 198.233C81.1933 198.339 81.0925 198.424 80.9755 198.48C80.8584 198.536 80.729 198.561 80.5995 198.553Z" fill="#000091"/>
<path d="M71.6419 194.795H71.1006V194.602H72.3895V194.795H71.8481V196.371H71.6226L71.6419 194.795Z" fill="white"/>
<path d="M72.6923 195.816L72.5119 196.371H72.2734L72.8728 194.602H73.1499L73.7492 196.371H73.5108L73.3174 195.816H72.6923ZM73.2723 195.635L73.0983 195.125C73.0596 195.015 73.0339 194.905 73.0081 194.808C73.0081 194.912 72.9565 195.015 72.9179 195.125L72.7503 195.635H73.2723Z" fill="white"/>
<path d="M74.9415 196.371L74.7159 195.977L74.5097 195.628C74.4581 195.732 74.4066 195.828 74.3164 195.983L74.1037 196.371H73.8395L74.3808 195.473L73.8653 194.602H74.1101L74.3421 195.015C74.4066 195.131 74.4581 195.221 74.5032 195.318C74.5548 195.209 74.5999 195.131 74.6644 195.015L74.9028 194.602H75.167L74.6321 195.46L75.1799 196.371H74.9415Z" fill="white"/>
<path d="M75.696 194.602V196.371H75.4698V194.602H75.696Z" fill="white"/>
<path d="M68.7162 197.867L67.9751 200.45C67.9751 200.561 68.0192 200.668 68.0978 200.747C68.1763 200.826 68.2829 200.87 68.394 200.87H70.4175C70.5281 200.868 70.6337 200.823 70.7119 200.745C70.7901 200.667 70.8347 200.561 70.8364 200.45L70.1017 197.867H68.7162Z" fill="url(#paint0_linear)"/>
<path d="M79.2398 197.674H67.7688V198.061H79.2398V197.674Z" fill="#546389"/>
<path d="M24.3017 3.57031L21.8335 5.71417H24.3017V3.57031Z" fill="#546389"/>
<path d="M35.3344 3.57031L37.809 5.71417H35.3344V3.57031Z" fill="#546389"/>
<path d="M50.8073 19.8308H51.9028V17.3124C51.9028 17.3124 57.9992 16.1436 58.7725 17.3124C59.5458 18.4812 58.7725 20.8575 58.7725 20.8575H52.0961L50.8073 19.8308Z" fill="#2F3133"/>
<path d="M11.7029 44.4395H9.76961C9.10166 44.4639 8.45125 44.2221 7.96085 43.7671C7.47046 43.312 7.18003 42.6807 7.1532 42.0115V37.8529C7.18169 37.1848 7.47283 36.5552 7.96305 36.1015C8.45327 35.6478 9.10273 35.4069 9.76961 35.4314H11.7029C12.3698 35.4069 13.0193 35.6478 13.5095 36.1015C13.9997 36.5552 14.2908 37.1848 14.3193 37.8529V42.0115C14.2925 42.6807 14.0021 43.312 13.5117 43.7671C13.0213 44.2221 12.3709 44.4639 11.7029 44.4395Z" fill="#2F3133"/>
<path d="M48.7774 44.4397H46.6249C45.0203 44.4397 43.725 43.3549 43.725 42.0117V37.8532C43.725 36.5165 45.0138 35.4316 46.6249 35.4316H48.7774C50.382 35.4316 51.6838 36.5165 51.6838 37.8532V42.0117C51.6838 43.3549 50.382 44.4397 48.7774 44.4397Z" fill="#2F3133"/>
<path d="M50.7365 22.0257H8.47437L12.8888 10.7123C13.7845 8.38767 16.504 6.83789 19.6424 6.83789H39.5684C42.7068 6.83789 45.4263 8.40058 46.3221 10.7123L50.7365 22.0257Z" fill="white" stroke="#5770BE" stroke-width="3.61" stroke-miterlimit="10"/>
<path d="M56.0659 29.9099V34.2622H3.13843V29.9099C3.13843 25.5576 6.28327 22.0254 10.1499 22.0254H49.0609C52.934 22.0254 56.0659 25.5576 56.0659 29.9099Z" fill="#5770BE"/>
<path d="M57.3547 36.1163C57.3547 37.4078 56.0659 38.4539 54.429 38.4539H4.80745C3.18992 38.4539 1.88171 37.4078 1.88171 36.1163C1.88171 34.8248 3.17059 33.7852 4.80745 33.7852H54.429C56.0208 33.7852 57.3547 34.8313 57.3547 36.1163Z" fill="#546389"/>
<path d="M51.7288 31.9323V27.4961L45.0782 28.9167V31.9323H51.7288Z" fill="white"/>
<path d="M7.57214 31.9323V27.4961L14.2163 28.9167V31.9323H7.57214Z" fill="white"/>
<path d="M8.22294 19.9404L7.13384 19.85L7.34006 17.3445C7.34006 17.3445 1.37903 15.6527 0.489708 16.7892C-0.399614 17.9257 0.199712 20.3085 0.199712 20.3085L6.85029 20.8574L8.22294 19.9404Z" fill="#2F3133"/>
<path d="M50.7365 22.0257H8.47437L12.8888 10.7123C13.7845 8.38767 16.504 6.83789 19.6424 6.83789H39.5684C42.7068 6.83789 45.4263 8.40058 46.3221 10.7123L50.7365 22.0257Z" fill="white" stroke="#5770BE" stroke-width="2.52" stroke-miterlimit="10"/>
<path d="M20.0419 7.61328C17.0259 7.61328 14.4095 9.04037 13.5331 11.1067L9.28625 21.3095H15.1893L20.6219 7.61328H20.0419Z" fill="#CCDCFF"/>
<path d="M45.6454 11.1067C44.7819 9.021 42.1719 7.61328 39.1495 7.61328H24.7528L19.9775 21.3095H49.8794L45.6454 11.1067Z" fill="#CCDCFF"/>
<path d="M40.3224 30.3379H18.8884V30.9643H40.3224V30.3379Z" fill="white"/>
<path d="M35.8177 4.43624H30.0758C30.0331 4.4429 29.9896 4.4429 29.9469 4.43624C29.9042 4.44234 29.8608 4.44234 29.818 4.43624H24.0761C23.9746 4.43152 23.8757 4.40283 23.7874 4.35249C23.6991 4.30216 23.6239 4.23162 23.5679 4.14662C23.512 4.06162 23.477 3.96458 23.4656 3.86341C23.4542 3.76224 23.4669 3.65982 23.5026 3.56449L24.0181 2.35696C24.068 2.24563 24.1484 2.15076 24.2499 2.08333C24.3514 2.0159 24.4699 1.97868 24.5917 1.97597H26.177C26.3107 1.97318 26.4402 1.92879 26.5476 1.84896C26.6549 1.76913 26.7349 1.6578 26.7763 1.53041L27.105 0.445561C27.1467 0.31714 27.2277 0.205079 27.3363 0.125151C27.445 0.0452233 27.5759 0.00145277 27.7107 0L32.2218 0C32.3555 0.00278781 32.485 0.0471742 32.5924 0.127008C32.6997 0.206842 32.7797 0.318169 32.8211 0.445561L33.1498 1.53041C33.1912 1.6578 33.2711 1.76913 33.3785 1.84896C33.4859 1.92879 33.6154 1.97318 33.7491 1.97597H35.3344C35.4562 1.97868 35.5747 2.0159 35.6762 2.08333C35.7777 2.15076 35.8581 2.24563 35.908 2.35696L36.4235 3.56449C36.46 3.66234 36.4722 3.76759 36.4592 3.87122C36.4462 3.97486 36.4083 4.07377 36.3487 4.15949C36.2891 4.24521 36.2097 4.31517 36.1172 4.36338C36.0247 4.41158 35.922 4.43658 35.8177 4.43624Z" fill="#000091"/>
<path d="M28.4003 1.33722H27.962V1.17578H29.0382V1.33722H28.5936V2.6287H28.4003V1.33722Z" fill="white"/>
<path d="M29.2767 2.17668L29.122 2.63516H28.9287L29.4249 1.17578H29.644L30.1467 2.63516H29.9405L29.7858 2.17668H29.2767ZM29.7536 2.02816L29.644 1.60843C29.6118 1.51157 29.5925 1.42762 29.5667 1.34367L29.4894 1.60843L29.3476 2.02816H29.7536Z" fill="white"/>
<path d="M31.1327 2.63516L30.9329 2.31229L30.7653 2.0217C30.7202 2.10565 30.6815 2.18959 30.6042 2.31229L30.4302 2.63516H30.224L30.6687 1.89901L30.2433 1.17578H30.4624L30.6558 1.51802C30.7073 1.61489 30.7524 1.68592 30.7911 1.76341C30.8298 1.67946 30.8684 1.60843 30.92 1.51802L31.1198 1.17578H31.3389L30.9329 1.8861L31.384 2.63516H31.1327Z" fill="white"/>
<path d="M31.7648 1.17578V2.63516H31.5774V1.17578H31.7648Z" fill="white"/>
<path d="M25.99 3.875L25.3778 6.0124C25.3778 6.10378 25.4136 6.1915 25.4774 6.25672C25.5413 6.32193 25.6282 6.35941 25.7194 6.3611H27.3884C27.4773 6.35451 27.5603 6.314 27.6202 6.24792C27.6802 6.18184 27.7126 6.09523 27.7107 6.00595L27.1307 3.875H25.99Z" fill="url(#paint1_linear)"/>
<path d="M34.69 3.71289H25.2039V4.0293H34.69V3.71289Z" fill="#546389"/>
<path d="M65.0107 52.1641L62.027 54.7535H65.0107V52.1641Z" fill="#546389"/>
<path d="M78.3247 52.1641L81.3084 54.7535H78.3247V52.1641Z" fill="#546389"/>
<path d="M96.994 71.7869H98.3151V68.7455C98.3151 68.7455 105.649 67.3055 106.609 68.7455C107.569 70.1855 106.609 73.0203 106.609 73.0203H98.5535L96.994 71.7869Z" fill="#2F3133"/>
<path d="M49.8084 101.479H47.4562C46.6509 101.509 45.8665 101.218 45.2748 100.67C44.683 100.122 44.332 99.3609 44.2985 98.5541V93.5367C44.332 92.7298 44.683 91.9691 45.2748 91.421C45.8665 90.8728 46.6509 90.5817 47.4562 90.6114H49.8084C50.6137 90.5817 51.3981 90.8728 51.9898 91.421C52.5816 91.9691 52.9326 92.7298 52.9661 93.5367V98.5541C52.9326 99.3609 52.5816 100.122 51.9898 100.67C51.3981 101.218 50.6137 101.509 49.8084 101.479Z" fill="#2F3133"/>
<path d="M94.5452 101.479H91.9674C90.0341 101.479 88.4681 100.188 88.4681 98.5539V93.5365C88.4681 91.9222 90.0341 90.6113 91.9674 90.6113H94.5452C96.4785 90.6113 98.0509 91.9028 98.0509 93.5365V98.5539C98.0509 100.168 96.4849 101.479 94.5452 101.479Z" fill="#2F3133"/>
<path d="M96.9102 74.4289H45.9095L51.2648 60.7844C52.3539 57.9819 55.6276 56.0898 59.4234 56.0898H83.4286C87.2243 56.0898 90.5174 57.9819 91.5872 60.7844L96.9102 74.4289Z" fill="white" stroke="#5770BE" stroke-width="4.35" stroke-miterlimit="10"/>
<path d="M103.355 83.946V89.2023H39.4717V83.946C39.4717 78.6961 43.261 74.4277 47.9331 74.4277H94.8867C99.5589 74.4277 103.355 78.6961 103.355 83.946Z" fill="#5770BE"/>
<path d="M104.869 91.443C104.869 92.9928 103.284 94.2584 101.338 94.2584H41.4823C39.549 94.2584 37.9573 92.9669 37.9573 91.443C37.9573 89.8867 39.5361 88.6211 41.4823 88.6211H101.338C103.284 88.6211 104.869 89.8867 104.869 91.443Z" fill="#546389"/>
<path d="M98.1025 86.3864V81.0332L90.0792 82.7509V86.3864H98.1025Z" fill="white"/>
<path d="M44.8204 86.3864V81.0332L52.8437 82.7509V86.3864H44.8204Z" fill="white"/>
<path d="M45.6131 71.9221L44.3242 71.8123L44.5755 68.7838C44.5755 68.7838 37.3836 66.7433 36.3074 68.1381C35.2312 69.5329 35.9594 72.3935 35.9594 72.3935L43.9827 73.0392L45.6131 71.9221Z" fill="#2F3133"/>
<path d="M96.9102 74.4289H45.9095L51.2648 60.7844C52.3539 57.9819 55.6276 56.0898 59.4234 56.0898H83.4286C87.2243 56.0898 90.5174 57.9819 91.5872 60.7844L96.9102 74.4289Z" fill="white" stroke="#5770BE" stroke-width="3.04" stroke-miterlimit="10"/>
<path d="M59.8681 57.0449C56.227 57.0449 53.0757 58.7368 52.0382 61.2552L46.8827 73.5242H53.9715L60.577 57.0449H59.8681Z" fill="#CCDCFF"/>
<path d="M90.7622 61.2552C89.7247 58.7368 86.5734 57.0449 82.9324 57.0449H65.5326L59.7327 73.5307H95.8211L90.7622 61.2552Z" fill="#CCDCFF"/>
<path d="M84.3437 84.4629H58.4761V85.2184H84.3437V84.4629Z" fill="white"/>
<path d="M78.9047 53.2089H71.9834H71.8223H71.6612H64.7335C64.6091 53.2083 64.4868 53.1768 64.3775 53.1173C64.2682 53.0579 64.1752 52.9722 64.1069 52.868C64.0387 52.7638 63.9972 52.6443 63.9862 52.5201C63.9752 52.3959 63.9951 52.2709 64.044 52.1563L64.6884 50.7034C64.7442 50.5647 64.8405 50.4461 64.9647 50.3632C65.0889 50.2802 65.2352 50.2367 65.3844 50.2385H67.3177C67.4795 50.2386 67.637 50.1865 67.767 50.09C67.8969 49.9935 67.9925 49.8576 68.0395 49.7025L68.439 48.411C68.4842 48.2548 68.5793 48.1178 68.7097 48.021C68.84 47.9241 68.9985 47.8729 69.1608 47.8751H74.5741C74.7361 47.874 74.8941 47.9256 75.0243 48.0223C75.1545 48.119 75.2498 48.2554 75.2958 48.411L75.6954 49.7025C75.7415 49.8582 75.8368 49.9946 75.967 50.0913C76.0972 50.1879 76.2551 50.2396 76.4172 50.2385H78.3505C78.4986 50.238 78.6435 50.2821 78.7664 50.365C78.8893 50.4478 78.9846 50.5657 79.04 50.7034L79.6845 52.1563C79.7376 52.2782 79.7576 52.412 79.7426 52.5442C79.7276 52.6763 79.678 52.8022 79.5989 52.909C79.5197 53.0158 79.4139 53.0997 79.292 53.1524C79.1701 53.2051 79.0365 53.2246 78.9047 53.2089Z" fill="#000091"/>
<path d="M69.9599 49.4639H69.425V49.2637H70.7139V49.4639H70.179V51.0136H69.947L69.9599 49.4639Z" fill="white"/>
<path d="M71.0168 50.4777L70.8299 51.033H70.5979L71.1972 49.2637H71.4679L72.0737 51.033H71.8288L71.6419 50.4777H71.0168ZM71.5903 50.2969L71.4228 49.7932C71.3836 49.6878 71.3513 49.5799 71.3261 49.4703C71.3261 49.5736 71.2746 49.6834 71.2423 49.7867L71.0683 50.2969H71.5903Z" fill="white"/>
<path d="M73.2594 51.0135L73.0339 50.626L72.8276 50.2773C72.7825 50.3742 72.731 50.471 72.6408 50.626L72.4281 51.0135H72.1768L72.7181 50.1223L72.2025 49.2441H72.4668L72.6988 49.6639C72.7632 49.7736 72.8147 49.8641 72.8599 49.9609C72.9114 49.8576 72.9565 49.7736 73.021 49.6639L73.2594 49.2441H73.5236L72.9888 50.1094L73.5365 51.0135H73.2594Z" fill="white"/>
<path d="M74.014 49.2637V51.0136H73.7878V49.2637H74.014Z" fill="white"/>
<path d="M67.0213 52.5312L66.2866 55.1142C66.2866 55.2255 66.3308 55.3323 66.4093 55.411C66.4879 55.4897 66.5944 55.534 66.7055 55.534H68.7161C68.8272 55.534 68.9338 55.4897 69.0123 55.411C69.0909 55.3323 69.135 55.2255 69.135 55.1142L68.4068 52.5312H67.0213Z" fill="url(#paint2_linear)"/>
<path d="M77.5514 52.3379H66.0997V52.7253H77.5514V52.3379Z" fill="#546389"/>
<path d="M90.453 13.625L88.6099 15.22H90.453V13.625Z" fill="#546389"/>
<path d="M98.6566 13.625L100.493 15.22H98.6566V13.625Z" fill="#546389"/>
<path d="M110.198 25.7199H111.01V23.8472C111.01 23.8472 115.522 22.9561 116.121 23.8472C116.72 24.7383 116.121 26.4818 116.121 26.4818H111.159L110.198 25.7199Z" fill="#2F3133"/>
<path d="M81.0829 44.0196H79.6329C79.1387 44.0353 78.6583 43.8548 78.2962 43.5174C77.9342 43.18 77.7197 42.713 77.6996 42.2179V39.1248C77.7197 38.6298 77.9342 38.1628 78.2962 37.8254C78.6583 37.488 79.1387 37.3075 79.6329 37.3232H81.0829C81.5766 37.3092 82.0561 37.4902 82.4178 37.8273C82.7795 38.1643 82.9944 38.6304 83.0162 39.1248V42.2179C82.9944 42.7124 82.7795 43.1784 82.4178 43.5155C82.0561 43.8526 81.5766 44.0336 81.0829 44.0196Z" fill="#2F3133"/>
<path d="M108.658 44.0199H107.054C106.53 44.0631 106.01 43.8985 105.606 43.5616C105.203 43.2246 104.947 42.7422 104.895 42.2182V39.1251C104.947 38.6012 105.203 38.1188 105.606 37.7818C106.01 37.4449 106.53 37.2803 107.054 37.3235H108.658C109.186 37.2731 109.713 37.4344 110.122 37.7721C110.532 38.1098 110.791 38.5963 110.843 39.1251V42.2182C110.791 42.7471 110.532 43.2336 110.122 43.5713C109.713 43.909 109.186 44.0703 108.658 44.0199Z" fill="#2F3133"/>
<path d="M110.115 27.3481H78.6792L81.9787 18.9535C82.6231 17.2229 84.6724 16.0605 87.0053 16.0605H101.827C104.167 16.0605 106.19 17.2229 106.854 18.9535L110.115 27.3481Z" fill="white" stroke="#5770BE" stroke-width="2.68" stroke-miterlimit="10"/>
<path d="M114.065 33.2174V36.4462H74.6901V33.2174C74.6901 29.9887 77.0294 27.3477 79.9035 27.3477H108.845C111.745 27.3477 114.065 29.9823 114.065 33.2174Z" fill="#5770BE"/>
<path d="M115.019 37.8347C115.019 38.7904 114.046 39.5717 112.841 39.5717H75.9532C74.7481 39.5717 73.775 38.7904 73.775 37.8347C73.775 36.8725 74.7481 36.0977 75.9532 36.0977H112.841C114.065 36.0977 115.019 36.8725 115.019 37.8347Z" fill="#546389"/>
<path d="M110.849 34.7216V31.4219L105.906 32.4809V34.7216H110.849Z" fill="white"/>
<path d="M78.0089 34.7216V31.4219L82.9517 32.4809V34.7216H78.0089Z" fill="white"/>
<path d="M78.4922 25.8291L77.6802 25.7581L77.8349 23.8919C77.8349 23.8919 73.4012 22.6004 72.7374 23.4721C72.0736 24.3439 72.5247 26.1003 72.5247 26.1003L77.474 26.5071L78.4922 25.8291Z" fill="#2F3133"/>
<path d="M110.115 27.3481H78.6792L81.9787 18.9535C82.6231 17.2229 84.6724 16.0605 87.0053 16.0605H101.827C104.167 16.0605 106.19 17.2229 106.854 18.9535L110.115 27.3481Z" fill="white" stroke="#5770BE" stroke-width="1.88" stroke-miterlimit="10"/>
<path d="M87.2824 16.6348C85.0398 16.6348 83.0936 17.6809 82.4556 19.2177L79.2656 26.7923H83.6542L87.7077 16.6348H87.2824Z" fill="#CCDCFF"/>
<path d="M106.332 19.2294C105.687 17.6797 103.754 16.6465 101.505 16.6465H90.7881L87.2308 26.804H109.477L106.332 19.2294Z" fill="#CCDCFF"/>
<path d="M102.369 33.5332H86.4253V33.9981H102.369V33.5332Z" fill="white"/>
<path d="M99.0176 14.2718H94.7321H94.6354H94.5387H90.2855C90.2091 14.271 90.1341 14.2515 90.0669 14.2151C89.9997 14.1787 89.9424 14.1264 89.8999 14.0629C89.8574 13.9993 89.831 13.9263 89.8229 13.8502C89.8149 13.7741 89.8254 13.6972 89.8537 13.6261L90.2403 12.7285C90.276 12.6453 90.3354 12.5746 90.411 12.5251C90.4867 12.4757 90.5753 12.4499 90.6657 12.4508H91.845C91.9454 12.4506 92.043 12.4178 92.1232 12.3572C92.2033 12.2967 92.2618 12.2117 92.2897 12.1151L92.5345 11.3079C92.5626 11.2119 92.6213 11.1278 92.7016 11.0683C92.7819 11.0088 92.8794 10.9773 92.9792 10.9786H96.3174C96.4172 10.9773 96.5147 11.0088 96.595 11.0683C96.6752 11.1278 96.7339 11.2119 96.762 11.3079L97.0069 12.1151C97.0348 12.2117 97.0932 12.2967 97.1734 12.3572C97.2536 12.4178 97.3512 12.4506 97.4516 12.4508H98.6309C98.7218 12.4511 98.8107 12.4773 98.8872 12.5265C98.9637 12.5757 99.0246 12.6458 99.0627 12.7285L99.4429 13.6261C99.4726 13.6966 99.4845 13.7734 99.4775 13.8496C99.4704 13.9258 99.4448 13.9991 99.4027 14.063C99.3606 14.1269 99.3034 14.1794 99.2363 14.2158C99.1691 14.2522 99.0939 14.2715 99.0176 14.2718Z" fill="#000091"/>
<path d="M93.5014 11.9586H93.1725V11.8359H93.9787V11.9586H93.6433V12.9143H93.5014V11.9586Z" fill="white"/>
<path d="M94.1523 12.585L94.0426 12.9272H93.8943L94.262 11.8359H94.4361L94.8038 12.9272H94.6554L94.5393 12.585H94.1523ZM94.5071 12.4752L94.4039 12.1653C94.4039 12.0942 94.3651 12.0232 94.3458 11.9651L94.2877 12.1588L94.1845 12.4752H94.5071Z" fill="white"/>
<path d="M95.5382 12.9155L95.3963 12.6766C95.3383 12.5862 95.306 12.5216 95.2738 12.4635C95.2415 12.5216 95.2157 12.5797 95.1577 12.6766L95.0287 12.9155H94.8674L95.1964 12.3666L94.8803 11.8242H95.0416L95.1835 12.0825L95.2867 12.2698C95.3175 12.2054 95.3519 12.1429 95.3899 12.0825L95.5382 11.8242H95.6995L95.3641 12.3602L95.7059 12.9155H95.5382Z" fill="white"/>
<path d="M96.0213 11.8359V12.9143H95.8792V11.8359H96.0213Z" fill="white"/>
<path d="M91.7031 13.8516L91.252 15.4401C91.2512 15.4742 91.2572 15.5082 91.2698 15.54C91.2825 15.5717 91.3014 15.6005 91.3256 15.6247C91.3497 15.6489 91.3785 15.6679 91.4101 15.6805C91.4418 15.6932 91.4757 15.6993 91.5098 15.6984H92.7471C92.8155 15.6984 92.8811 15.6712 92.9294 15.6227C92.9777 15.5743 93.0049 15.5086 93.0049 15.4401L92.5538 13.8516H91.7031Z" fill="url(#paint3_linear)"/>
<path d="M98.1797 13.7344H91.1232V13.9733H98.1797V13.7344Z" fill="#546389"/>
<path d="M13.0047 128.166V125.719H9.87914V124.46H14.4611V128.696C13.9125 129.413 13.2015 129.989 12.3869 130.376C11.5722 130.764 10.6773 130.951 9.77603 130.924C9.0119 130.948 8.25073 130.817 7.53827 130.539C6.82582 130.262 6.17679 129.842 5.6302 129.307C5.08362 128.771 4.65076 128.13 4.35765 127.423C4.06453 126.715 3.91722 125.955 3.92456 125.189C3.90886 124.435 4.04513 123.685 4.32521 122.985C4.60529 122.285 5.02344 121.648 5.55465 121.113C6.08585 120.579 6.71921 120.157 7.41685 119.873C8.11449 119.589 8.86208 119.449 9.61492 119.462C10.4893 119.452 11.3535 119.649 12.1374 120.038C12.9213 120.426 13.6026 120.994 14.126 121.696L12.966 122.594C12.591 122.044 12.0868 121.595 11.498 121.286C10.9091 120.978 10.2536 120.819 9.58915 120.824C9.02437 120.825 8.46549 120.939 7.94601 121.161C7.42654 121.383 6.95715 121.708 6.566 122.117C6.17485 122.525 5.86999 123.008 5.66968 123.537C5.46938 124.066 5.37776 124.63 5.40031 125.196C5.38716 125.772 5.49058 126.346 5.70437 126.881C5.91815 127.417 6.23787 127.903 6.64427 128.312C7.05067 128.72 7.53536 129.042 8.06914 129.258C8.60293 129.474 9.17478 129.579 9.75026 129.568C10.3614 129.582 10.9685 129.465 11.5302 129.223C12.0919 128.981 12.5948 128.621 13.0047 128.166Z" fill="#000074"/>
<path d="M17.0388 122.808H18.3277V123.783C18.5958 123.428 18.9428 123.142 19.3412 122.945C19.7395 122.749 20.1781 122.649 20.6219 122.653C20.8401 122.648 21.0577 122.679 21.2663 122.743V124.035C21.0136 123.971 20.7536 123.941 20.493 123.944C20.0484 123.939 19.6111 124.057 19.2291 124.285C18.847 124.513 18.5351 124.842 18.3277 125.236V130.595H17.0388V122.808Z" fill="#000074"/>
<path d="M30.5011 126.707C30.5062 127.546 30.2626 128.368 29.8012 129.068C29.3398 129.768 28.6813 130.315 27.9093 130.639C27.1373 130.964 26.2865 131.051 25.4647 130.891C24.643 130.73 23.8873 130.329 23.2935 129.738C22.6997 129.146 22.2945 128.391 22.1293 127.569C21.9641 126.747 22.0463 125.894 22.3655 125.118C22.6847 124.342 23.2265 123.679 23.9222 123.213C24.618 122.746 25.4363 122.497 26.2736 122.497C26.8297 122.486 27.3823 122.587 27.8986 122.794C28.415 123.001 28.8843 123.31 29.2788 123.703C29.6733 124.096 29.9849 124.565 30.1948 125.081C30.4048 125.597 30.509 126.15 30.5011 126.707ZM29.1091 126.707C29.0838 126.149 28.8952 125.611 28.5668 125.159C28.2384 124.708 27.7847 124.363 27.2623 124.168C26.7398 123.973 26.1716 123.936 25.6284 124.062C25.0852 124.188 24.5911 124.472 24.2075 124.877C23.8239 125.283 23.5678 125.792 23.4711 126.343C23.3745 126.893 23.4414 127.459 23.6637 127.972C23.886 128.484 24.2538 128.92 24.7213 129.224C25.1888 129.529 25.7353 129.689 26.2929 129.684C26.6745 129.679 27.0513 129.598 27.4009 129.444C27.7505 129.291 28.0659 129.069 28.3285 128.792C28.591 128.514 28.7954 128.187 28.9295 127.829C29.0635 127.471 29.1246 127.089 29.1091 126.707Z" fill="#000074"/>
<path d="M38.0217 122.808H39.3106V127.212C39.3106 129.549 37.9637 130.912 35.8435 130.912C33.7233 130.912 32.3958 129.549 32.3958 127.212V122.795H33.6846V127.257C33.6846 128.787 34.5031 129.672 35.8306 129.672C37.1581 129.672 38.0217 128.8 38.0217 127.27V122.808Z" fill="#000074"/>
<path d="M41.9592 122.807H43.2481V123.737C43.5877 123.337 44.0122 123.018 44.4905 122.804C44.9688 122.589 45.4889 122.484 46.0127 122.497C46.5563 122.495 47.0947 122.603 47.5949 122.817C48.0951 123.03 48.5467 123.343 48.9219 123.737C49.2971 124.131 49.5882 124.598 49.7772 125.109C49.9662 125.619 50.0492 126.163 50.0211 126.707C50.0211 128.987 48.4616 130.924 46.0127 130.924C45.4889 130.937 44.9688 130.832 44.4905 130.617C44.0122 130.403 43.5877 130.084 43.2481 129.684V134.43H41.9592V122.807ZM43.2481 125.19V128.231C43.518 128.674 43.8967 129.04 44.348 129.294C44.7992 129.549 45.3081 129.683 45.8258 129.684C46.589 129.649 47.3091 129.32 47.8366 128.766C48.364 128.212 48.6584 127.476 48.6584 126.711C48.6584 125.945 48.364 125.209 47.8366 124.655C47.3091 124.101 46.589 123.773 45.8258 123.737C45.3123 123.742 44.8085 123.878 44.362 124.132C43.9155 124.386 43.541 124.75 43.2739 125.19H43.2481Z" fill="#000074"/>
<path d="M55.8339 130.924C55.2732 130.947 54.7139 130.853 54.1907 130.65C53.6676 130.447 53.1918 130.138 52.7929 129.742C52.394 129.347 52.0805 128.873 51.872 128.351C51.6634 127.829 51.5642 127.27 51.5806 126.708C51.5806 124.338 53.095 122.498 55.5052 122.498C55.9645 122.471 56.4242 122.541 56.855 122.703C57.2858 122.864 57.6783 123.114 58.0075 123.436C58.3367 123.758 58.5954 124.145 58.7671 124.573C58.9387 125.001 59.0196 125.459 59.0045 125.92C59 126.196 58.9676 126.471 58.9078 126.74H52.921C52.9726 128.613 54.1583 129.743 55.8339 129.743C56.2917 129.75 56.7447 129.648 57.1557 129.446C57.5668 129.244 57.9243 128.948 58.199 128.58L59.1721 129.342C58.7808 129.853 58.274 130.262 57.6935 130.537C57.1131 130.812 56.4756 130.945 55.8339 130.924ZM53.0177 125.72H57.6898C57.6893 125.433 57.6308 125.15 57.5178 124.887C57.4048 124.624 57.2397 124.386 57.0324 124.189C56.8252 123.991 56.5801 123.838 56.3121 123.738C56.044 123.639 55.7586 123.594 55.473 123.608C54.8745 123.589 54.2906 123.796 53.8362 124.186C53.3818 124.577 53.0898 125.124 53.0177 125.72Z" fill="#000074"/>
<path d="M61.2214 122.808H62.5103V123.66C62.8027 123.293 63.1746 122.998 63.5977 122.797C64.0209 122.595 64.4843 122.493 64.9527 122.498C65.476 122.47 65.9958 122.597 66.4474 122.864C66.8989 123.13 67.2622 123.524 67.4918 123.996C67.7884 123.528 68.2003 123.144 68.6879 122.881C69.1755 122.619 69.7224 122.487 70.2758 122.498C71.9448 122.498 73.1693 123.609 73.1693 125.727V130.608H71.8804V125.772C71.8804 124.48 71.1522 123.731 70.0373 123.731C69.5694 123.743 69.1144 123.887 68.7253 124.148C68.3362 124.408 68.0291 124.775 67.8398 125.204C67.85 125.378 67.85 125.552 67.8398 125.727V130.608H66.5509V125.772C66.5509 124.48 65.842 123.731 64.7143 123.731C64.2486 123.745 63.7963 123.891 63.4097 124.151C63.0231 124.412 62.718 124.777 62.5296 125.204V130.608H61.2214V122.808Z" fill="#000074"/>
<path d="M79.4331 130.924C78.8724 130.947 78.3131 130.853 77.79 130.65C77.2668 130.447 76.791 130.138 76.3921 129.742C75.9932 129.347 75.6798 128.873 75.4712 128.351C75.2627 127.829 75.1635 127.27 75.1798 126.708C75.1798 124.338 76.6943 122.498 79.1044 122.498C79.5626 122.471 80.0212 122.541 80.4511 122.702C80.881 122.863 81.2729 123.111 81.6019 123.432C81.9309 123.752 82.1898 124.138 82.3623 124.564C82.5348 124.99 82.617 125.447 82.6037 125.907C82.6011 126.183 82.5708 126.457 82.5135 126.727H76.5267C76.5718 128.6 77.764 129.73 79.4331 129.73C79.8909 129.737 80.3439 129.635 80.755 129.433C81.166 129.231 81.5235 128.935 81.7982 128.568L82.7713 129.329C82.3817 129.842 81.8756 130.255 81.295 130.532C80.7144 130.81 80.0761 130.944 79.4331 130.924ZM76.6169 125.72H81.2891C81.2894 125.434 81.2317 125.15 81.1194 124.887C81.0071 124.624 80.8426 124.386 80.6359 124.189C80.4291 123.991 80.1845 123.838 79.9168 123.738C79.6491 123.638 79.364 123.594 79.0787 123.608C78.4791 123.588 77.8936 123.793 77.4378 124.184C76.9821 124.575 76.6891 125.123 76.6169 125.72Z" fill="#000074"/>
<path d="M84.827 122.808H86.1159V123.686C86.4332 123.312 86.8284 123.012 87.2736 122.807C87.7189 122.601 88.2035 122.496 88.6936 122.498C90.4401 122.498 91.7418 123.673 91.7418 125.888V130.615H90.4529V125.921C90.4529 124.526 89.6603 123.725 88.4552 123.725C87.9678 123.731 87.4916 123.872 87.0788 124.131C86.6661 124.391 86.3329 124.76 86.1159 125.197V130.602H84.827V122.808Z" fill="#000074"/>
<path d="M94.8802 123.983H93.4431V122.795H94.9124V120.857H96.2464V122.795H98.953V123.983H96.2464V127.986C96.2464 129.207 96.8908 129.549 97.8059 129.549C98.2012 129.566 98.5958 129.502 98.9659 129.362V130.544C98.536 130.705 98.0778 130.778 97.6191 130.757C95.892 130.757 94.9124 129.891 94.9124 127.986L94.8802 123.983Z" fill="#000074"/>
<path d="M108.446 122.497C108.97 122.484 109.491 122.589 109.971 122.803C110.45 123.018 110.876 123.336 111.217 123.736V118.99H112.506V130.614H111.217V129.684C110.876 130.084 110.45 130.403 109.971 130.617C109.491 130.832 108.97 130.936 108.446 130.924C106.003 130.924 104.444 128.986 104.444 126.707C104.415 126.163 104.497 125.619 104.685 125.109C104.873 124.598 105.164 124.131 105.539 123.737C105.913 123.343 106.364 123.029 106.864 122.816C107.364 122.603 107.902 122.494 108.446 122.497ZM108.6 129.684C109.123 129.69 109.639 129.561 110.097 129.308C110.556 129.056 110.941 128.689 111.217 128.244V125.176C110.939 124.733 110.554 124.367 110.096 124.115C109.638 123.863 109.123 123.733 108.6 123.736C107.855 123.797 107.159 124.136 106.652 124.687C106.144 125.238 105.863 125.96 105.863 126.71C105.863 127.46 106.144 128.182 106.652 128.733C107.159 129.284 107.855 129.623 108.6 129.684Z" fill="#000074"/>
<path d="M118.886 130.924C118.325 130.947 117.766 130.853 117.242 130.65C116.719 130.446 116.243 130.137 115.845 129.742C115.446 129.346 115.132 128.873 114.924 128.351C114.715 127.829 114.616 127.269 114.632 126.707C114.632 124.338 116.147 122.497 118.563 122.497C119.022 122.472 119.481 122.542 119.911 122.704C120.341 122.866 120.733 123.116 121.061 123.438C121.39 123.76 121.648 124.147 121.819 124.574C121.99 125.001 122.071 125.46 122.056 125.92C122.053 126.195 122.023 126.47 121.966 126.74H115.998C116.044 128.612 117.236 129.742 118.905 129.742C119.363 129.749 119.817 129.647 120.229 129.445C120.641 129.243 121 128.947 121.276 128.58L122.249 129.342C121.855 129.855 121.344 130.267 120.759 130.542C120.174 130.817 119.531 130.948 118.886 130.924ZM116.069 125.719H120.741C120.743 125.433 120.686 125.149 120.574 124.886C120.462 124.622 120.297 124.384 120.09 124.186C119.883 123.989 119.638 123.836 119.37 123.736C119.102 123.637 118.817 123.593 118.531 123.608C117.932 123.589 117.347 123.795 116.892 124.186C116.436 124.576 116.143 125.123 116.069 125.719Z" fill="#000074"/>
<path d="M128.887 123.983H127.418V122.795H128.887V120.857H130.221V122.795H132.928V123.983H130.221V127.986C130.221 129.207 130.866 129.549 131.781 129.549C132.176 129.566 132.571 129.502 132.941 129.362V130.544C132.511 130.705 132.053 130.778 131.594 130.757C129.86 130.757 128.887 129.891 128.887 127.986V123.983Z" fill="#000074"/>
<path d="M134.507 128.645C134.507 127.47 135.402 126.63 137.084 126.353L139.714 125.92V125.378C139.714 124.293 138.94 123.673 137.825 123.673C137.414 123.668 137.007 123.765 136.641 123.954C136.274 124.143 135.96 124.419 135.725 124.758L134.687 123.983C135.053 123.499 135.529 123.11 136.077 122.849C136.624 122.588 137.226 122.463 137.832 122.485C139.81 122.485 140.983 123.647 140.983 125.365V130.602H139.694V129.614C139.379 129.992 138.984 130.295 138.539 130.504C138.094 130.713 137.608 130.821 137.117 130.821C135.544 130.834 134.507 129.982 134.507 128.645ZM137.291 129.749C137.773 129.759 138.248 129.641 138.67 129.406C139.091 129.171 139.442 128.828 139.688 128.413V126.882L137.387 127.27C136.317 127.457 135.841 127.915 135.841 128.6C135.841 129.284 136.375 129.749 137.265 129.749H137.291Z" fill="#000074"/>
<path d="M142.614 130.614L145.488 126.571L142.826 122.807H144.354L146.383 125.687L148.407 122.807H149.921L147.221 126.565L150.095 130.607H148.6L146.371 127.45L144.141 130.607L142.614 130.614Z" fill="#000074"/>
<path d="M151.584 119.844C151.588 119.6 151.687 119.368 151.861 119.197C152.035 119.027 152.269 118.932 152.512 118.934C152.742 118.953 152.957 119.058 153.113 119.229C153.27 119.399 153.357 119.622 153.357 119.854C153.357 120.085 153.27 120.308 153.113 120.479C152.957 120.649 152.742 120.755 152.512 120.774C152.267 120.772 152.032 120.674 151.858 120.5C151.684 120.326 151.586 120.09 151.584 119.844ZM151.842 122.808H153.131V130.615H151.842V122.808Z" fill="#000074"/>
<path d="M155.953 128.754C156.177 129.077 156.473 129.342 156.818 129.529C157.163 129.715 157.547 129.817 157.938 129.826C158.109 129.846 158.281 129.83 158.445 129.779C158.609 129.727 158.76 129.642 158.888 129.528C159.016 129.414 159.119 129.274 159.19 129.117C159.261 128.961 159.297 128.791 159.298 128.619C159.298 126.862 155.399 127.482 155.399 124.744C155.414 124.429 155.492 124.12 155.628 123.835C155.765 123.55 155.958 123.296 156.195 123.088C156.432 122.88 156.709 122.722 157.008 122.624C157.308 122.526 157.624 122.489 157.938 122.517C158.439 122.517 158.932 122.633 159.379 122.857C159.827 123.082 160.216 123.407 160.516 123.808L159.607 124.583C159.425 124.297 159.176 124.06 158.882 123.892C158.588 123.725 158.257 123.632 157.919 123.621C157.761 123.598 157.599 123.609 157.445 123.653C157.292 123.698 157.149 123.774 157.027 123.878C156.905 123.982 156.807 124.111 156.738 124.256C156.67 124.4 156.633 124.558 156.63 124.719C156.63 126.475 160.542 125.913 160.542 128.593C160.542 130.052 159.369 130.963 157.913 130.963C157.352 130.977 156.796 130.86 156.288 130.621C155.78 130.382 155.335 130.028 154.987 129.587L155.953 128.754Z" fill="#000074"/>
<path d="M35.0315 261.842H36.9648L41.276 272.69H39.7294L38.4792 269.5H33.5106L32.2604 272.69H30.7137L35.0315 261.842ZM38.0216 268.248L36.0046 263.082L33.9939 268.248H38.0216Z" fill="#000074"/>
<path d="M43.3705 264.884H44.6594V265.859C44.9304 265.508 45.2796 265.225 45.6791 265.033C46.0785 264.842 46.5172 264.746 46.96 264.754C47.1782 264.751 47.3956 264.781 47.6044 264.845V266.136C47.3516 266.073 47.0917 266.043 46.8311 266.046C46.3864 266.04 45.9488 266.158 45.5666 266.385C45.1844 266.613 44.8727 266.943 44.6658 267.337V272.697H43.3769L43.3705 264.884Z" fill="#000074"/>
<path d="M50.3111 266.045H48.8418V264.883H50.3111V262.945H51.6451V264.883H54.3517V266.045H51.6451V270.048C51.6451 271.269 52.2895 271.611 53.2046 271.611C53.6001 271.631 53.9953 271.567 54.3646 271.424V272.606C53.9346 272.767 53.4765 272.84 53.0177 272.819C51.2907 272.819 50.3111 271.953 50.3111 270.048V266.045Z" fill="#000074"/>
<path d="M56.0981 261.918C56.1015 261.675 56.201 261.442 56.3749 261.271C56.5487 261.101 56.7828 261.006 57.0261 261.008C57.2564 261.027 57.471 261.133 57.6274 261.303C57.7839 261.473 57.8707 261.696 57.8707 261.928C57.8707 262.16 57.7839 262.383 57.6274 262.553C57.471 262.724 57.2564 262.829 57.0261 262.848C56.7805 262.846 56.5455 262.748 56.3718 262.574C56.1981 262.4 56.0998 262.164 56.0981 261.918ZM56.3624 264.882H57.6512V272.689H56.3624V264.882Z" fill="#000074"/>
<path d="M60.4931 270.831C60.715 271.153 61.0099 271.418 61.3538 271.605C61.6977 271.791 62.0807 271.893 62.4715 271.903C62.6419 271.923 62.8146 271.906 62.9782 271.855C63.1419 271.803 63.2928 271.718 63.4212 271.604C63.5495 271.49 63.6524 271.35 63.7231 271.193C63.7938 271.037 63.8307 270.867 63.8313 270.695C63.8313 268.945 59.9647 269.565 59.9647 266.821C59.9791 266.505 60.0571 266.196 60.1938 265.911C60.3306 265.627 60.5233 265.373 60.7605 265.165C60.9976 264.956 61.2743 264.799 61.5739 264.7C61.8734 264.602 62.1897 264.565 62.5038 264.593C63.0045 264.59 63.4989 264.705 63.9468 264.929C64.3947 265.154 64.7835 265.481 65.0815 265.884L64.1729 266.659C63.9961 266.372 63.7525 266.132 63.4629 265.96C63.1733 265.788 62.8464 265.689 62.5102 265.671C62.352 265.649 62.191 265.661 62.0377 265.706C61.8844 265.751 61.7423 265.827 61.6206 265.931C61.499 266.035 61.4005 266.163 61.3317 266.307C61.2629 266.452 61.2253 266.609 61.2213 266.769C61.2213 268.525 65.1331 267.964 65.1331 270.643C65.1331 272.103 63.9602 273.013 62.5038 273.013C61.9437 273.029 61.3877 272.913 60.8806 272.674C60.3735 272.435 59.9295 272.08 59.5845 271.638L60.4931 270.831Z" fill="#000074"/>
<path d="M66.77 270.72C66.77 269.545 67.6658 268.706 69.3478 268.428L71.9771 267.995V267.453C71.9771 266.368 71.2037 265.748 70.0889 265.748C69.677 265.744 69.2702 265.84 68.904 266.029C68.5378 266.218 68.2234 266.494 67.988 266.833L66.9698 266.045C67.3349 265.562 67.8106 265.173 68.3567 264.913C68.9029 264.652 69.5036 264.527 70.1082 264.547C72.0931 264.547 73.2659 265.709 73.2659 267.427V272.664H71.9771V271.676C71.6568 272.058 71.2561 272.365 70.8038 272.573C70.3515 272.782 69.8586 272.888 69.3607 272.884C67.8076 272.909 66.77 272.057 66.77 270.72ZM69.554 271.825C70.0351 271.834 70.5101 271.716 70.9311 271.482C71.352 271.249 71.704 270.908 71.9513 270.494V268.957L69.6442 269.345C68.5809 269.532 68.0976 269.991 68.0976 270.675C68.0976 271.36 68.6389 271.857 69.554 271.857V271.825Z" fill="#000074"/>
<path d="M75.9081 264.882H77.197V265.76C77.5143 265.386 77.9094 265.086 78.3547 264.881C78.7999 264.675 79.2846 264.57 79.7747 264.572C81.5211 264.572 82.8164 265.748 82.8164 267.962V272.689H81.5276V267.982C81.5276 266.587 80.7413 265.786 79.5362 265.786C79.0489 265.792 78.5726 265.933 78.1599 266.193C77.7471 266.452 77.4139 266.821 77.197 267.259V272.663H75.9081V264.882Z" fill="#000074"/>
<path d="M90.1372 266.045H88.6678V264.883H90.1372V262.945H91.4712V264.883H94.1778V266.045H91.4712V270.048C91.4712 271.269 92.1156 271.611 93.0307 271.611C93.4262 271.631 93.8214 271.567 94.1907 271.424V272.606C93.7606 272.767 93.3025 272.839 92.8438 272.819C91.1103 272.819 90.1372 271.953 90.1372 270.048V266.045Z" fill="#000074"/>
<path d="M95.7373 270.721C95.7373 269.545 96.6331 268.706 98.3151 268.428L100.944 267.996V267.453C100.944 266.368 100.171 265.748 99.0562 265.748C98.6442 265.744 98.2375 265.84 97.8713 266.029C97.5051 266.219 97.1907 266.494 96.9553 266.833L95.9371 266.045C96.3028 265.561 96.7795 265.172 97.3269 264.911C97.8743 264.651 98.4762 264.526 99.0819 264.547C101.06 264.547 102.233 265.71 102.233 267.427V272.664H100.944V271.676C100.625 272.059 100.224 272.366 99.7717 272.575C99.3192 272.784 98.8261 272.889 98.3279 272.884C96.7749 272.91 95.7373 272.057 95.7373 270.721ZM98.5213 271.825C99.0024 271.834 99.4774 271.716 99.8984 271.483C100.319 271.249 100.671 270.908 100.919 270.495V268.958L98.6179 269.345C97.5482 269.532 97.0648 269.991 97.0648 270.675C97.0648 271.36 97.6062 271.857 98.5213 271.857V271.825Z" fill="#000074"/>
<path d="M103.844 272.69L106.719 268.628L104.057 264.863H105.559L107.589 267.743L109.612 264.863H111.126L108.452 268.628L111.326 272.67H109.831L107.621 269.532L105.391 272.69H103.844Z" fill="#000074"/>
<path d="M112.815 261.918C112.818 261.675 112.918 261.442 113.092 261.271C113.266 261.101 113.5 261.006 113.743 261.008C113.973 261.027 114.188 261.133 114.344 261.303C114.501 261.473 114.587 261.696 114.587 261.928C114.587 262.16 114.501 262.383 114.344 262.553C114.188 262.724 113.973 262.829 113.743 262.848C113.497 262.846 113.262 262.748 113.089 262.574C112.915 262.4 112.817 262.164 112.815 261.918ZM113.073 264.882H114.362V272.689H113.073V264.882Z" fill="#000074"/>
<path d="M430.483 211.59H432.416L436.734 222.438H435.187L433.898 219.248H428.917L427.667 222.438H426.12L430.483 211.59ZM433.473 217.989L431.462 212.862L429.452 217.989H433.473Z" fill="#000074"/>
<path d="M438.912 211.59H442.083C444.248 211.59 445.595 212.784 445.595 214.644C445.595 216.504 444.248 217.679 442.083 217.679H440.362V222.438H438.912V211.59ZM440.362 212.83V216.439H442.083C443.32 216.439 444.068 215.794 444.068 214.612C444.068 213.43 443.32 212.83 442.083 212.83H440.362Z" fill="#000074"/>
<path d="M447.786 211.59H449.242V222.438H447.786V211.59Z" fill="#000074"/>
<path d="M456.525 210.814H457.813V222.438H456.525V210.814Z" fill="#000074"/>
<path d="M464.213 222.78C463.652 222.802 463.093 222.709 462.57 222.505C462.046 222.302 461.571 221.993 461.172 221.598C460.773 221.202 460.459 220.729 460.251 220.207C460.042 219.685 459.943 219.125 459.959 218.563C459.959 216.193 461.474 214.346 463.89 214.346C464.348 214.322 464.805 214.393 465.234 214.555C465.663 214.716 466.053 214.965 466.382 215.285C466.71 215.606 466.968 215.99 467.14 216.416C467.313 216.841 467.396 217.297 467.383 217.756C467.381 218.034 467.35 218.311 467.293 218.583H461.306C461.351 220.455 462.544 221.585 464.213 221.585C464.671 221.592 465.123 221.491 465.535 221.289C465.946 221.087 466.303 220.79 466.578 220.423L467.551 221.185C467.162 221.698 466.656 222.111 466.075 222.388C465.494 222.666 464.856 222.8 464.213 222.78ZM461.416 217.536H466.088C466.087 217.251 466.029 216.968 465.916 216.706C465.804 216.443 465.639 216.207 465.432 216.01C465.226 215.813 464.981 215.66 464.714 215.561C464.447 215.461 464.162 215.417 463.878 215.431C463.279 215.411 462.694 215.615 462.239 216.005C461.783 216.394 461.49 216.941 461.416 217.536Z" fill="#000074"/>
<path d="M469.226 221.631C469.227 221.5 469.254 221.37 469.305 221.249C469.356 221.128 469.43 221.019 469.524 220.927C469.617 220.835 469.728 220.763 469.849 220.714C469.971 220.665 470.101 220.641 470.232 220.643C470.361 220.642 470.49 220.667 470.61 220.716C470.73 220.765 470.839 220.838 470.931 220.93C471.023 221.022 471.095 221.131 471.144 221.252C471.194 221.372 471.219 221.501 471.218 221.631C471.218 221.76 471.192 221.888 471.142 222.007C471.093 222.126 471.02 222.234 470.928 222.325C470.836 222.415 470.728 222.487 470.608 222.535C470.488 222.583 470.361 222.607 470.232 222.606C470.102 222.608 469.972 222.585 469.851 222.537C469.73 222.49 469.62 222.418 469.526 222.328C469.433 222.237 469.358 222.129 469.307 222.009C469.255 221.89 469.228 221.761 469.226 221.631Z" fill="#000074"/>
<path d="M473.338 215.819H471.869V214.625H473.338V212.688H474.665V214.625H477.372V215.819H474.665V219.816C474.665 221.043 475.31 221.386 476.231 221.386C476.627 221.402 477.021 221.338 477.391 221.198V222.374C476.962 222.536 476.504 222.611 476.045 222.593C474.311 222.593 473.338 221.721 473.338 219.816V215.819Z" fill="#000074"/>
<path d="M478.938 220.468C478.938 219.293 479.834 218.454 481.516 218.176L484.145 217.743V217.201C484.145 216.116 483.372 215.496 482.257 215.496C481.836 215.482 481.419 215.574 481.042 215.763C480.666 215.953 480.344 216.234 480.104 216.581L479.112 215.819C479.476 215.335 479.952 214.945 480.498 214.683C481.044 214.421 481.645 214.295 482.25 214.314C484.229 214.314 485.408 215.477 485.408 217.201V222.438H484.119V221.443C483.8 221.828 483.4 222.136 482.947 222.346C482.495 222.556 482.001 222.662 481.503 222.657C479.976 222.657 478.938 221.805 478.938 220.468ZM481.722 221.566C482.203 221.578 482.679 221.46 483.101 221.227C483.522 220.993 483.873 220.651 484.119 220.236V218.699L481.812 219.087C480.749 219.274 480.266 219.732 480.266 220.423C480.266 221.114 480.807 221.566 481.722 221.566Z" fill="#000074"/>
<path d="M487.039 222.439L489.919 218.39L487.258 214.625H488.759L490.783 217.511L492.813 214.625H494.327L491.653 218.39L494.527 222.439H493.025L490.802 219.274L488.572 222.439H487.039Z" fill="#000074"/>
<path d="M496.009 211.667C496.012 211.423 496.112 211.189 496.285 211.018C496.459 210.846 496.693 210.75 496.937 210.75C497.182 210.75 497.416 210.847 497.589 211.02C497.762 211.194 497.859 211.429 497.859 211.673C497.859 211.918 497.762 212.153 497.589 212.326C497.416 212.5 497.182 212.597 496.937 212.597C496.692 212.595 496.456 212.497 496.283 212.323C496.109 212.149 496.011 211.913 496.009 211.667ZM496.273 214.624H497.562V222.438H496.273V214.624Z" fill="#000074"/>
<path d="M772.923 253.848H774.857L779.168 264.696H777.621L776.371 261.467H771.389L770.139 264.696H768.593L772.923 253.848ZM775.901 260.234L773.89 255.1L771.879 260.234H775.901Z" fill="#000074"/>
<path d="M781.262 256.883H782.551V257.813C782.893 257.414 783.319 257.096 783.798 256.881C784.277 256.667 784.797 256.562 785.322 256.573C787.765 256.573 789.324 258.51 789.324 260.79C789.324 263.069 787.765 265.006 785.322 265.006C784.797 265.018 784.277 264.913 783.798 264.698C783.319 264.484 782.893 264.166 782.551 263.767V268.506H781.262V256.883ZM782.551 259.272V262.307C782.824 262.756 783.209 263.127 783.667 263.383C784.126 263.639 784.643 263.771 785.167 263.767C785.922 263.717 786.629 263.382 787.145 262.829C787.662 262.276 787.949 261.547 787.949 260.79C787.949 260.033 787.662 259.304 787.145 258.751C786.629 258.198 785.922 257.863 785.167 257.813C784.647 257.813 784.135 257.948 783.682 258.203C783.228 258.459 782.848 258.827 782.577 259.272H782.551Z" fill="#000074"/>
<path d="M791.47 256.883H792.759V257.813C793.1 257.414 793.526 257.095 794.005 256.881C794.485 256.666 795.005 256.561 795.53 256.573C797.972 256.573 799.532 258.51 799.532 260.79C799.532 263.069 797.972 265.007 795.53 265.007C795.005 265.018 794.485 264.913 794.005 264.699C793.526 264.484 793.1 264.166 792.759 263.767V268.506H791.47V256.883ZM792.759 259.272V262.307C793.028 262.752 793.406 263.119 793.857 263.375C794.309 263.631 794.818 263.765 795.337 263.767C796.091 263.717 796.798 263.382 797.314 262.829C797.831 262.276 798.118 261.547 798.118 260.79C798.118 260.033 797.831 259.304 797.314 258.751C796.798 258.198 796.091 257.863 795.337 257.813C794.823 257.819 794.319 257.957 793.872 258.212C793.426 258.467 793.051 258.832 792.785 259.272H792.759Z" fill="#000074"/>
<path d="M801.678 253.072H802.967V264.696H801.678V253.072Z" fill="#000074"/>
<path d="M805.544 253.925C805.548 253.68 805.647 253.447 805.821 253.276C805.995 253.104 806.229 253.008 806.472 253.008C806.717 253.008 806.951 253.105 807.124 253.278C807.297 253.451 807.394 253.686 807.394 253.931C807.394 254.176 807.297 254.411 807.124 254.584C806.951 254.757 806.717 254.855 806.472 254.855C806.227 254.853 805.992 254.754 805.818 254.58C805.645 254.406 805.546 254.171 805.544 253.925ZM805.809 256.882H807.098V264.696H805.809V256.882Z" fill="#000074"/>
<path d="M815.688 262.617L816.726 263.411C816.346 263.92 815.85 264.331 815.279 264.608C814.708 264.886 814.08 265.022 813.445 265.006C812.329 265.006 811.259 264.562 810.47 263.771C809.681 262.98 809.237 261.908 809.237 260.79C809.237 259.671 809.681 258.599 810.47 257.808C811.259 257.017 812.329 256.573 813.445 256.573C814.079 256.562 814.705 256.701 815.275 256.979C815.845 257.256 816.342 257.663 816.726 258.168L815.688 258.962C815.437 258.601 815.101 258.307 814.71 258.107C814.319 257.907 813.885 257.805 813.445 257.813C812.657 257.813 811.902 258.126 811.345 258.685C810.788 259.243 810.475 260 810.475 260.79C810.475 261.579 810.788 262.336 811.345 262.894C811.902 263.453 812.657 263.766 813.445 263.766C813.885 263.775 814.319 263.674 814.711 263.474C815.102 263.273 815.438 262.979 815.688 262.617Z" fill="#000074"/>
<path d="M817.976 262.726C817.976 261.551 818.878 260.712 820.554 260.434L823.183 260.001V259.459C823.183 258.374 822.409 257.754 821.301 257.754C820.888 257.748 820.48 257.844 820.112 258.033C819.745 258.222 819.429 258.499 819.194 258.839L818.208 258.077C818.572 257.592 819.047 257.202 819.593 256.94C820.14 256.678 820.741 256.552 821.346 256.572C823.325 256.572 824.497 257.735 824.497 259.459V264.696H823.209V263.701C822.894 264.08 822.5 264.385 822.054 264.594C821.609 264.802 821.123 264.91 820.631 264.909C819.013 264.909 817.976 264.057 817.976 262.726ZM820.76 263.824C821.241 263.836 821.717 263.718 822.138 263.485C822.56 263.251 822.911 262.909 823.157 262.494V260.957L820.856 261.344C819.787 261.532 819.31 261.99 819.31 262.681C819.31 263.372 819.851 263.824 820.76 263.824Z" fill="#000074"/>
<path d="M827.565 258.077H826.096V256.883H827.565V254.945H828.899V256.883H831.605V258.077H828.899V262.074C828.899 263.301 829.543 263.643 830.458 263.643C830.854 263.66 831.248 263.597 831.618 263.456V264.631C831.189 264.796 830.731 264.87 830.272 264.851C828.544 264.851 827.565 263.979 827.565 262.074V258.077Z" fill="#000074"/>
<path d="M833.352 253.925C833.355 253.68 833.455 253.447 833.628 253.276C833.802 253.104 834.036 253.008 834.28 253.008C834.524 253.008 834.759 253.105 834.932 253.278C835.104 253.451 835.202 253.686 835.202 253.931C835.202 254.176 835.104 254.411 834.932 254.584C834.759 254.757 834.524 254.855 834.28 254.855C834.034 254.853 833.799 254.754 833.626 254.58C833.452 254.406 833.354 254.171 833.352 253.925ZM833.616 256.882H834.905V264.696H833.616V256.882Z" fill="#000074"/>
<path d="M845.5 260.79C845.502 261.627 845.257 262.446 844.794 263.143C844.332 263.84 843.674 264.385 842.903 264.707C842.132 265.029 841.283 265.114 840.463 264.953C839.643 264.791 838.89 264.389 838.298 263.798C837.707 263.207 837.303 262.453 837.139 261.633C836.976 260.812 837.058 259.961 837.378 259.187C837.697 258.414 838.238 257.752 838.932 257.287C839.626 256.822 840.443 256.573 841.278 256.573C841.835 256.562 842.388 256.663 842.904 256.871C843.421 257.078 843.89 257.388 844.284 257.782C844.678 258.176 844.989 258.645 845.198 259.162C845.407 259.679 845.509 260.232 845.5 260.79ZM844.108 260.79C844.082 260.232 843.894 259.693 843.565 259.242C843.237 258.79 842.783 258.446 842.261 258.251C841.738 258.055 841.17 258.019 840.627 258.145C840.084 258.271 839.59 258.554 839.206 258.96C838.822 259.365 838.566 259.875 838.47 260.425C838.373 260.975 838.44 261.542 838.662 262.054C838.884 262.567 839.252 263.002 839.72 263.307C840.187 263.611 840.734 263.771 841.291 263.767C841.672 263.76 842.048 263.677 842.396 263.523C842.745 263.369 843.059 263.147 843.321 262.87C843.582 262.593 843.786 262.266 843.92 261.909C844.054 261.552 844.116 261.171 844.101 260.79H844.108Z" fill="#000074"/>
<path d="M847.613 256.882H848.902V257.767C849.218 257.39 849.613 257.088 850.058 256.882C850.504 256.675 850.989 256.57 851.48 256.572C853.226 256.572 854.528 257.754 854.528 259.969V264.696H853.239V260.014C853.239 258.619 852.453 257.812 851.242 257.812C850.755 257.82 850.281 257.961 849.869 258.221C849.458 258.481 849.126 258.849 848.909 259.284V264.696H847.62L847.613 256.882Z" fill="#000074"/>
<path d="M867.211 262.617L868.242 263.411C867.864 263.921 867.369 264.331 866.799 264.609C866.229 264.887 865.601 265.023 864.968 265.006C863.852 265.006 862.782 264.562 861.992 263.771C861.203 262.98 860.76 261.908 860.76 260.789C860.76 259.671 861.203 258.599 861.992 257.808C862.782 257.017 863.852 256.573 864.968 256.573C865.6 256.562 866.226 256.701 866.795 256.979C867.364 257.256 867.859 257.663 868.242 258.168L867.211 258.962C866.958 258.602 866.622 258.31 866.231 258.109C865.841 257.909 865.407 257.807 864.968 257.813C864.18 257.813 863.424 258.126 862.867 258.685C862.31 259.243 861.997 260 861.997 260.789C861.997 261.579 862.31 262.336 862.867 262.894C863.424 263.453 864.18 263.766 864.968 263.766C865.407 263.772 865.841 263.671 866.232 263.471C866.623 263.27 866.959 262.977 867.211 262.617Z" fill="#000074"/>
<path d="M870.053 253.072H871.341V264.696H870.053V253.072Z" fill="#000074"/>
<path d="M873.887 253.925C873.89 253.68 873.99 253.447 874.163 253.276C874.337 253.104 874.571 253.008 874.815 253.008C875.059 253.008 875.294 253.105 875.467 253.278C875.639 253.451 875.737 253.686 875.737 253.931C875.737 254.176 875.639 254.411 875.467 254.584C875.294 254.757 875.059 254.855 874.815 254.855C874.569 254.853 874.334 254.754 874.161 254.58C873.987 254.406 873.889 254.171 873.887 253.925ZM874.151 256.882H875.44V264.696H874.151V256.882Z" fill="#000074"/>
<path d="M881.839 265.006C881.279 265.029 880.719 264.935 880.196 264.732C879.673 264.529 879.197 264.22 878.798 263.824C878.399 263.429 878.086 262.955 877.878 262.433C877.669 261.911 877.57 261.352 877.586 260.79C877.586 258.42 879.101 256.573 881.517 256.573C881.975 256.549 882.432 256.62 882.861 256.781C883.289 256.943 883.68 257.192 884.008 257.512C884.336 257.832 884.595 258.217 884.767 258.642C884.94 259.067 885.022 259.524 885.01 259.983C885.008 260.258 884.978 260.533 884.92 260.803H878.933C878.978 262.682 880.17 263.812 881.839 263.812C882.297 263.819 882.75 263.717 883.161 263.515C883.572 263.313 883.93 263.016 884.204 262.649L885.184 263.411C884.793 263.924 884.286 264.337 883.704 264.614C883.123 264.891 882.483 265.026 881.839 265.006ZM879.023 259.795H883.695C883.695 259.51 883.636 259.227 883.524 258.965C883.411 258.702 883.246 258.465 883.04 258.269C882.833 258.072 882.589 257.919 882.322 257.82C882.054 257.72 881.77 257.676 881.485 257.69C880.884 257.666 880.296 257.869 879.838 258.259C879.38 258.649 879.084 259.197 879.01 259.795H879.023Z" fill="#000074"/>
<path d="M887.24 256.882H888.529V257.767C888.845 257.39 889.239 257.088 889.685 256.882C890.13 256.675 890.616 256.57 891.106 256.572C892.853 256.572 894.154 257.754 894.154 259.969V264.696H892.866V260.014C892.866 258.619 892.073 257.812 890.868 257.812C890.382 257.819 889.907 257.96 889.495 258.22C889.084 258.48 888.752 258.848 888.535 259.284V264.696H887.246L887.24 256.882Z" fill="#000074"/>
<path d="M897.293 258.077H895.817V256.883H897.293V254.945H898.621V256.883H901.327V258.077H898.621V262.074C898.621 263.301 899.265 263.643 900.18 263.643C900.575 263.66 900.97 263.597 901.34 263.456V264.631C900.913 264.795 900.457 264.87 900 264.851C898.266 264.851 897.293 263.979 897.293 262.074V258.077Z" fill="#000074"/>
<defs>
<linearGradient id="paint0_linear" x1="67.9751" y1="199.365" x2="70.8364" y2="199.365" gradientUnits="userSpaceOnUse">
<stop offset="0.08" stop-color="#3FE946"/>
<stop offset="0.14" stop-color="#43E94A"/>
<stop offset="0.2" stop-color="#4EEB54"/>
<stop offset="0.26" stop-color="#61ED66"/>
<stop offset="0.32" stop-color="#7BF080"/>
<stop offset="0.38" stop-color="#9DF4A0"/>
<stop offset="0.44" stop-color="#C6F9C8"/>
<stop offset="0.49" stop-color="#F7FEF7"/>
<stop offset="0.5" stop-color="white"/>
<stop offset="0.53" stop-color="#E4FCE5"/>
<stop offset="0.59" stop-color="#B6F7B9"/>
<stop offset="0.65" stop-color="#8EF292"/>
<stop offset="0.71" stop-color="#6DEE73"/>
<stop offset="0.78" stop-color="#54EC5B"/>
<stop offset="0.84" stop-color="#42EA4A"/>
<stop offset="0.91" stop-color="#37E83F"/>
<stop offset="0.99" stop-color="#34E83C"/>
</linearGradient>
<linearGradient id="paint1_linear" x1="117.249" y1="23.5649" x2="125.787" y2="23.5649" gradientUnits="userSpaceOnUse">
<stop offset="0.08" stop-color="#3FE946"/>
<stop offset="0.14" stop-color="#43E94A"/>
<stop offset="0.2" stop-color="#4EEB54"/>
<stop offset="0.26" stop-color="#61ED66"/>
<stop offset="0.32" stop-color="#7BF080"/>
<stop offset="0.38" stop-color="#9DF4A0"/>
<stop offset="0.44" stop-color="#C6F9C8"/>
<stop offset="0.49" stop-color="#F7FEF7"/>
<stop offset="0.5" stop-color="white"/>
<stop offset="0.53" stop-color="#E4FCE5"/>
<stop offset="0.59" stop-color="#B6F7B9"/>
<stop offset="0.65" stop-color="#8EF292"/>
<stop offset="0.71" stop-color="#6DEE73"/>
<stop offset="0.78" stop-color="#54EC5B"/>
<stop offset="0.84" stop-color="#42EA4A"/>
<stop offset="0.91" stop-color="#37E83F"/>
<stop offset="0.99" stop-color="#34E83C"/>
</linearGradient>
<linearGradient id="paint2_linear" x1="359.359" y1="303.768" x2="371.949" y2="303.768" gradientUnits="userSpaceOnUse">
<stop offset="0.08" stop-color="#3FE946"/>
<stop offset="0.14" stop-color="#43E94A"/>
<stop offset="0.2" stop-color="#4EEB54"/>
<stop offset="0.26" stop-color="#61ED66"/>
<stop offset="0.32" stop-color="#7BF080"/>
<stop offset="0.38" stop-color="#9DF4A0"/>
<stop offset="0.44" stop-color="#C6F9C8"/>
<stop offset="0.49" stop-color="#F7FEF7"/>
<stop offset="0.5" stop-color="white"/>
<stop offset="0.53" stop-color="#E4FCE5"/>
<stop offset="0.59" stop-color="#B6F7B9"/>
<stop offset="0.65" stop-color="#8EF292"/>
<stop offset="0.71" stop-color="#6DEE73"/>
<stop offset="0.78" stop-color="#54EC5B"/>
<stop offset="0.84" stop-color="#42EA4A"/>
<stop offset="0.91" stop-color="#37E83F"/>
<stop offset="0.99" stop-color="#34E83C"/>
</linearGradient>
<linearGradient id="paint3_linear" x1="339.47" y1="56.1088" x2="344.238" y2="56.1088" gradientUnits="userSpaceOnUse">
<stop offset="0.08" stop-color="#3FE946"/>
<stop offset="0.14" stop-color="#43E94A"/>
<stop offset="0.2" stop-color="#4EEB54"/>
<stop offset="0.26" stop-color="#61ED66"/>
<stop offset="0.32" stop-color="#7BF080"/>
<stop offset="0.38" stop-color="#9DF4A0"/>
<stop offset="0.44" stop-color="#C6F9C8"/>
<stop offset="0.49" stop-color="#F7FEF7"/>
<stop offset="0.5" stop-color="white"/>
<stop offset="0.53" stop-color="#E4FCE5"/>
<stop offset="0.59" stop-color="#B6F7B9"/>
<stop offset="0.65" stop-color="#8EF292"/>
<stop offset="0.71" stop-color="#6DEE73"/>
<stop offset="0.78" stop-color="#54EC5B"/>
<stop offset="0.84" stop-color="#42EA4A"/>
<stop offset="0.91" stop-color="#37E83F"/>
<stop offset="0.99" stop-color="#34E83C"/>
</linearGradient>
</defs>
</svg>
