<svg width="1525" height="448" viewBox="0 0 1525 448" fill="none" xmlns="http://www.w3.org/2000/svg">
<path d="M919.74 213.619H858.39" stroke="#1B458F" stroke-width="1.29" stroke-miterlimit="10"/>
<path d="M833.67 225.299H858.39V201.949H833.67" fill="#1B458F"/>
<path d="M586.14 212.391H647.49" stroke="#1B458F" stroke-width="1.29" stroke-miterlimit="10"/>
<path d="M672.21 224.061H647.49V200.711H672.21" fill="#1B458F"/>
<path d="M948.03 213.619H949.31" stroke="#1B458F" stroke-width="3.86" stroke-miterlimit="10"/>
<path d="M955.63 213.619H970.17" stroke="#1B458F" stroke-width="3.86" stroke-miterlimit="10" stroke-dasharray="2.53 6.32 2.53 6.32"/>
<path d="M973.33 213.619H1182.52" stroke="#1B458F" stroke-width="3.86" stroke-miterlimit="10" stroke-dasharray="2.53 6.32 2.53 6.32 2.53 6.32"/>
<path d="M1185.68 213.619H1186.97" stroke="#1B458F" stroke-width="3.86" stroke-miterlimit="10"/>
<path d="M1176.11 227.931L1182.19 213.621L1176.11 199.311L1210.03 213.621L1176.11 227.931Z" fill="#1B458F"/>
<path d="M1510.3 353.551L1509.87 353.391C1509.78 353.391 1500.54 349.811 1496.21 341.781C1491.88 333.751 1494 324.091 1494 324.001L1494.1 323.561L1494.53 323.721C1494.62 323.721 1503.86 327.301 1508.19 335.321C1512.52 343.341 1510.4 353.021 1510.38 353.111L1510.3 353.551ZM1496.9 341.411C1500.56 348.201 1507.9 351.681 1509.72 352.471C1510.07 350.471 1511.17 342.471 1507.51 335.691C1503.85 328.911 1496.51 325.421 1494.7 324.631C1494.35 326.611 1493.25 334.631 1496.9 341.411V341.411Z" stroke="#5770BE" stroke-width="0.96" stroke-miterlimit="10"/>
<path d="M1499.52 339C1507.3 343.68 1510.29 353 1510.29 353C1510.29 353 1500.68 354.71 1492.9 350C1485.12 345.29 1482.12 336 1482.12 336C1482.12 336 1491.74 334.29 1499.52 339Z" fill="#5770BE" stroke="#5770BE" stroke-width="0.96" stroke-miterlimit="10"/>
<path d="M1374.27 223.699C1374.98 222.603 1376.1 221.834 1377.38 221.56C1378.66 221.287 1379.99 221.531 1381.09 222.239C1381.25 222.34 1381.4 222.451 1381.54 222.569C1381.71 222.71 1381.87 222.863 1382.02 223.029L1401.39 220.209L1402.47 205.639C1402.49 205.069 1402.62 204.509 1402.86 203.992C1403.1 203.475 1403.44 203.012 1403.87 202.63C1404.29 202.249 1404.79 201.957 1405.33 201.773C1405.87 201.588 1406.44 201.514 1407.01 201.556C1407.58 201.598 1408.13 201.755 1408.64 202.016C1409.14 202.278 1409.59 202.639 1409.96 203.078C1410.32 203.517 1410.59 204.026 1410.75 204.572C1410.92 205.119 1410.97 205.693 1410.9 206.259V206.339L1409 226.779V226.829C1408.75 227.614 1408.26 228.299 1407.59 228.781C1406.93 229.264 1406.12 229.519 1405.3 229.509L1382.52 229.119L1382.23 229.509C1381.82 230.01 1381.31 230.424 1380.74 230.729C1380.17 231.034 1379.55 231.224 1378.9 231.287C1378.26 231.35 1377.61 231.286 1376.99 231.097C1376.37 230.909 1375.79 230.6 1375.29 230.189L1374.88 229.809C1374.78 229.709 1374.69 229.599 1374.6 229.499C1373.95 228.687 1373.57 227.692 1373.51 226.652C1373.45 225.612 1373.71 224.58 1374.27 223.699V223.699Z" fill="#FFB7B7"/>
<path d="M1413.33 347.919H1407.81L1405.18 326.609H1413.33V347.919Z" fill="#FFB7B7"/>
<path d="M1414.74 353.279H1396.92V353.049C1396.92 351.21 1397.65 349.448 1398.96 348.148C1400.26 346.849 1402.02 346.119 1403.86 346.119H1414.74V353.279Z" fill="#2F2E41"/>
<path d="M1451.94 342.91L1446.71 344.69L1437.35 325.37L1445.07 322.74L1451.94 342.91Z" fill="#FFB7B7"/>
<path d="M1455 347.53L1438.13 353.28L1438.06 353.06C1437.47 351.319 1437.59 349.414 1438.4 347.764C1439.22 346.114 1440.65 344.854 1442.39 344.26V344.26L1452.69 340.75L1455 347.53Z" fill="#2F2E41"/>
<path d="M1419.42 161.561C1419.42 161.561 1413.92 159.751 1410.42 167.011C1407.75 172.283 1404.74 177.38 1401.42 182.271L1404.56 183.001C1404.56 183.001 1405.34 177.911 1407.31 177.181L1406.52 183.721C1406.52 183.721 1430.09 191.351 1440.7 183.001L1440.31 180.451C1440.83 180.63 1441.26 180.982 1441.55 181.446C1441.83 181.911 1441.95 182.46 1441.88 183.001L1443.06 181.911C1441.8 179.952 1440.2 178.229 1438.34 176.821C1436.02 174.911 1435.23 171.281 1434.95 169.021C1434.73 167.098 1433.91 165.294 1432.6 163.871C1430.18 161.351 1425.9 158.681 1419.42 161.561Z" fill="#2F2E41"/>
<path d="M1421.44 186.95C1426.99 186.95 1431.49 182.45 1431.49 176.9C1431.49 171.349 1426.99 166.85 1421.44 166.85C1415.89 166.85 1411.39 171.349 1411.39 176.9C1411.39 182.45 1415.89 186.95 1421.44 186.95Z" fill="#FFB7B7"/>
<path d="M1408.05 195.219L1406.22 194.609C1406.22 194.609 1402.57 196.129 1402.57 198.869C1402.57 201.609 1401.96 212.569 1401.96 212.569L1410.18 213.479L1408.05 195.219Z" fill="#CBCBCB"/>
<path d="M1440.74 255.091C1439.98 254.244 1439.55 253.153 1439.53 252.016C1439.51 250.88 1439.9 249.775 1440.63 248.901L1435.5 206.001C1435.45 204.986 1435.8 203.993 1436.48 203.238C1437.16 202.483 1438.11 202.029 1439.12 201.976C1440.14 201.923 1441.13 202.275 1441.89 202.955C1442.64 203.635 1443.1 204.586 1443.15 205.601V205.651L1447.74 248.651C1447.9 248.822 1448.06 249.002 1448.2 249.191C1448.94 250.219 1449.24 251.499 1449.04 252.749C1448.84 254 1448.15 255.119 1447.12 255.861V255.861C1447.07 255.903 1447.02 255.94 1446.96 255.971C1446.38 256.356 1445.72 256.609 1445.03 256.711C1444.33 256.813 1443.63 256.762 1442.96 256.561C1442.09 256.294 1441.32 255.784 1440.74 255.091V255.091Z" fill="#FFB7B7"/>
<path d="M1436 212.569L1444.22 211.659C1444.22 211.659 1443.61 200.659 1443.61 197.959C1443.61 195.259 1439.96 193.699 1439.96 193.699L1438.14 194.309L1436 212.569Z" fill="#CBCBCB"/>
<path d="M1409.27 227.771C1404.84 236.57 1402.45 246.252 1402.27 256.101C1402.27 271.621 1401.66 342.851 1401.66 342.851C1401.66 342.851 1410.79 347.121 1416.27 341.941L1421.14 263.101L1440.32 340.421C1440.32 340.421 1449.45 342.251 1453.71 339.201L1445.49 285.321C1445.49 285.321 1442.14 234.791 1433.01 231.141C1423.88 227.491 1409.27 227.771 1409.27 227.771Z" fill="#2F2E41"/>
<path d="M1410.59 176.999C1414.02 174.644 1416.87 171.543 1418.93 167.929C1418.93 167.929 1425.45 175.179 1429.44 175.549C1433.43 175.919 1429.81 166.839 1429.81 166.839L1422.55 165.029L1415.67 165.759L1410.23 169.379L1410.59 176.999Z" fill="#2F2E41"/>
<path d="M1431.49 191.869C1431.49 191.869 1431.78 191.719 1414.49 192.349L1407.24 194.349L1406.24 194.609C1406.24 194.609 1407.16 212.869 1409.59 216.219C1412.02 219.569 1411.42 221.399 1410.81 221.699C1410.2 221.999 1408.68 221.399 1409.59 222.919C1410.5 224.439 1411.72 223.529 1410.51 224.439C1409.3 225.349 1408.68 228.699 1408.68 228.699L1435.47 232.359C1435.47 232.359 1436.38 220.479 1438.82 214.359C1439.98 211.575 1440.98 208.727 1441.82 205.829L1440 193.699L1431.49 191.869Z" fill="#CBCBCB"/>
<path d="M1380.56 140H1379V97.7501C1379 91.2735 1376.43 85.0622 1371.85 80.4825C1367.27 75.9029 1361.06 73.3301 1354.58 73.3301H1265.17C1258.69 73.3301 1252.48 75.9029 1247.9 80.4825C1243.32 85.0622 1240.75 91.2735 1240.75 97.7501V329.26C1240.75 335.737 1243.32 341.948 1247.9 346.528C1252.48 351.107 1258.69 353.68 1265.17 353.68H1354.58C1361.06 353.68 1367.27 351.107 1371.85 346.528C1376.43 341.948 1379 335.737 1379 329.26V329.26V170H1380.54L1380.56 140Z" fill="#3F3D56"/>
<path d="M1373.82 97.9197V329.09C1373.82 331.482 1373.35 333.852 1372.44 336.064C1371.53 338.275 1370.19 340.285 1368.5 341.979C1366.81 343.673 1364.8 345.017 1362.59 345.935C1360.38 346.853 1358.01 347.327 1355.62 347.33H1265.75C1263.36 347.331 1260.99 346.861 1258.77 345.946C1256.56 345.031 1254.55 343.689 1252.86 341.997C1251.16 340.305 1249.82 338.297 1248.9 336.085C1247.98 333.874 1247.51 331.504 1247.51 329.11V97.9197C1247.51 93.0865 1249.42 88.4501 1252.84 85.0297C1256.25 81.6094 1260.89 79.685 1265.72 79.6797H1276.65C1276.11 80.9937 1275.91 82.4198 1276.05 83.8323C1276.19 85.2449 1276.68 86.6006 1277.47 87.7801C1278.26 88.9596 1279.33 89.9267 1280.58 90.5962C1281.83 91.2658 1283.23 91.6173 1284.65 91.6197H1335.87C1338.17 91.6197 1340.37 90.7063 1342 89.0803C1343.63 87.4544 1344.54 85.2491 1344.54 82.9497C1344.54 81.8276 1344.32 80.7165 1343.89 79.6797H1355.56C1357.95 79.6771 1360.32 80.1461 1362.54 81.0599C1364.75 81.9738 1366.76 83.3145 1368.45 85.0056C1370.15 86.6967 1371.49 88.705 1372.41 90.9157C1373.33 93.1264 1373.8 95.4962 1373.8 97.8897V97.8897L1373.82 97.9197Z" fill="white"/>
<path d="M1373.82 132.12V124.25H1361.91V80.8097C1359.88 80.0613 1357.74 79.6787 1355.58 79.6797H1354V124.25H1312.66V91.6197H1304.79V124.25H1270.14V79.6797H1265.72C1264.56 79.6795 1263.41 79.79 1262.27 80.0097V124.25H1247.48V132.12H1262.27V150.33L1247.48 158.87V168L1262.27 159.46V213.65H1247.48V221.52H1262.27V299.87H1247.48V307.74H1262.27V347C1263.41 347.219 1264.56 347.33 1265.72 347.33H1270.14V307.71H1304.79V347.33H1312.66V307.71H1354V347.33H1355.55C1357.71 347.331 1359.85 346.948 1361.88 346.2V307.71H1373.79V299.84H1361.88V265.58H1373.69V257.71H1361.88V221.49H1373.79V213.62H1361.88V165.62H1373.79V157.74H1361.88V132.12H1373.82ZM1293.82 132.12L1270.14 145.79V132.12H1293.82ZM1270.14 154.88L1304.79 134.88V213.62H1270.14V154.88ZM1270.14 299.88V221.49H1304.79V299.84L1270.14 299.88ZM1354 299.88H1312.66V265.58H1354V299.88ZM1354 257.75H1312.66V221.49H1354V257.75ZM1354 213.66H1312.66V165.66H1354V213.66ZM1354 157.75H1312.66V132.12H1354V157.75Z" fill="#E5E5E5"/>
<path d="M1380.41 157.859C1380.41 182.859 1335.13 238.569 1335.13 238.569C1335.13 238.569 1289.86 182.859 1289.86 157.859C1289.77 151.857 1290.88 145.897 1293.11 140.326C1295.35 134.754 1298.67 129.683 1302.88 125.407C1307.09 121.131 1312.11 117.735 1317.65 115.418C1323.19 113.1 1329.13 111.906 1335.14 111.906C1341.14 111.906 1347.08 113.1 1352.62 115.418C1358.16 117.735 1363.18 121.131 1367.39 125.407C1371.6 129.683 1374.92 134.754 1377.16 140.326C1379.39 145.897 1380.5 151.857 1380.41 157.859V157.859Z" fill="#1B458F"/>
<path d="M1361.91 155.889C1361.91 161.187 1360.34 166.366 1357.4 170.771C1354.46 175.177 1350.28 178.611 1345.38 180.639C1340.49 182.667 1335.1 183.198 1329.91 182.165C1324.71 181.132 1319.94 178.581 1316.19 174.835C1312.45 171.09 1309.9 166.317 1308.86 161.121C1307.83 155.925 1308.36 150.54 1310.39 145.646C1312.42 140.752 1315.85 136.57 1320.26 133.628C1324.66 130.686 1329.84 129.117 1335.14 129.119V129.119C1342.24 129.116 1349.04 131.932 1354.06 136.946C1359.08 141.961 1361.9 148.764 1361.91 155.859V155.859V155.889Z" fill="white"/>
<path d="M1335.04 166.45C1340.55 166.45 1345.01 161.986 1345.01 156.48C1345.01 150.973 1340.55 146.51 1335.04 146.51C1329.53 146.51 1325.07 150.973 1325.07 156.48C1325.07 161.986 1329.53 166.45 1335.04 166.45Z" fill="#1B458F"/>
<path d="M1335.13 271.24C1341.87 271.24 1347.33 265.778 1347.33 259.04C1347.33 252.302 1341.87 246.84 1335.13 246.84C1328.39 246.84 1322.93 252.302 1322.93 259.04C1322.93 265.778 1328.39 271.24 1335.13 271.24Z" fill="#1B458F"/>
<path d="M1524 353.921H1262.07C1261.98 353.906 1261.89 353.858 1261.83 353.785C1261.77 353.713 1261.73 353.621 1261.73 353.526C1261.73 353.431 1261.77 353.339 1261.83 353.266C1261.89 353.194 1261.98 353.146 1262.07 353.131H1524C1524.09 353.146 1524.18 353.194 1524.24 353.266C1524.3 353.339 1524.34 353.431 1524.34 353.526C1524.34 353.621 1524.3 353.713 1524.24 353.785C1524.18 353.858 1524.09 353.906 1524 353.921V353.921Z" fill="#CBCBCB"/>
<path d="M573.47 217.579C576.867 217.579 579.62 214.826 579.62 211.429C579.62 208.033 576.867 205.279 573.47 205.279C570.073 205.279 567.32 208.033 567.32 211.429C567.32 214.826 570.073 217.579 573.47 217.579Z" fill="#1B458F"/>
<path d="M251.56 75.5391L566.65 203.879" stroke="#1B458F" stroke-width="3.86" stroke-miterlimit="10" stroke-dasharray="2.58 6.44 2.58 6.44 2.58 6.44"/>
<path d="M559.38 218.109L250.59 360.939" stroke="#1B458F" stroke-width="3.86" stroke-miterlimit="10" stroke-dasharray="2.58 6.44 2.58 6.44 2.58 6.44"/>
<path d="M754.3 294.481C799.637 294.481 836.39 257.728 836.39 212.391C836.39 167.054 799.637 130.301 754.3 130.301C708.963 130.301 672.21 167.054 672.21 212.391C672.21 257.728 708.963 294.481 754.3 294.481Z" fill="white" stroke="#1B458F" stroke-width="3.86" stroke-miterlimit="10"/>
<path d="M780.12 198.999C780.12 204.201 778.577 209.286 775.688 213.611C772.798 217.936 768.69 221.307 763.885 223.297C759.079 225.288 753.791 225.809 748.689 224.794C743.587 223.779 738.901 221.274 735.223 217.596C731.545 213.918 729.04 209.232 728.025 204.13C727.011 199.028 727.531 193.74 729.522 188.935C731.513 184.129 734.883 180.021 739.208 177.132C743.533 174.242 748.618 172.699 753.82 172.699C760.795 172.699 767.485 175.47 772.417 180.402C777.349 185.335 780.12 192.024 780.12 198.999Z" fill="white"/>
<path d="M768 193.56C768 192.2 767.67 191.34 766.64 191.34C763.93 191.34 761.21 197.34 760.07 202.51C764.31 202.29 768 198.12 768 193.56" fill="#E71C2C"/>
<path d="M753.82 172.699C753.52 172.699 753.24 172.699 752.95 172.699L745.39 207.019C745.251 207.586 745.177 208.166 745.17 208.749C745.17 210.269 745.88 210.749 747.4 210.749C748.92 210.749 750.56 209.509 751.55 207.699C751.55 207.589 751.55 207.499 751.55 207.379C751.55 201.139 755.08 188.069 766.21 188.069C771.04 188.069 772.21 190.559 772.21 193.279C772.21 199.569 766.21 204.349 759.73 204.729C759.73 205.269 759.63 205.859 759.63 206.349C759.63 209.769 761.09 210.859 762.99 210.859C765.05 210.859 767.65 209.499 769.39 207.979C768.25 214.169 764.39 215.979 760 215.979C756.11 215.979 753.24 214.469 752.12 210.979C749.12 215.269 745.48 215.979 743.23 215.979C739.98 215.979 737.43 214.029 737.43 209.469C737.456 208.281 737.6 207.099 737.86 205.939L744.86 174.239C738.703 176.509 733.62 181.004 730.614 186.836C727.607 192.669 726.895 199.417 728.618 205.748C730.341 212.08 734.374 217.537 739.921 221.042C745.468 224.547 752.128 225.847 758.586 224.684C765.044 223.522 770.832 219.982 774.809 214.762C778.786 209.542 780.663 203.022 780.07 196.487C779.477 189.952 776.457 183.876 771.605 179.458C766.753 175.04 760.422 172.6 753.86 172.619" fill="#E71C2C"/>
<path d="M737.08 231.539C736.871 231.325 736.62 231.155 736.344 231.04C736.067 230.924 735.77 230.866 735.47 230.869H718.59C717.985 230.869 717.405 231.109 716.978 231.537C716.55 231.965 716.31 232.545 716.31 233.149C716.31 233.754 716.55 234.334 716.978 234.761C717.405 235.189 717.985 235.429 718.59 235.429H724.75V256.529C724.751 256.98 724.885 257.42 725.136 257.794C725.386 258.168 725.742 258.459 726.158 258.632C726.574 258.804 727.032 258.849 727.474 258.761C727.915 258.674 728.321 258.457 728.64 258.139C728.854 257.929 729.023 257.679 729.138 257.402C729.253 257.126 729.312 256.829 729.31 256.529V235.429H735.47C735.92 235.428 736.36 235.294 736.734 235.044C737.109 234.793 737.4 234.437 737.572 234.021C737.744 233.605 737.79 233.147 737.702 232.706C737.614 232.264 737.398 231.858 737.08 231.539" fill="#1B458F"/>
<path d="M757.24 255.62L748.24 232.4C748.083 231.955 747.792 231.57 747.407 231.298C747.022 231.025 746.562 230.879 746.09 230.879C745.618 230.879 745.158 231.025 744.773 231.298C744.388 231.57 744.097 231.955 743.94 232.4V232.4L734.94 255.53C734.792 255.843 734.713 256.184 734.71 256.53C734.707 256.829 734.764 257.125 734.877 257.402C734.991 257.678 735.158 257.929 735.37 258.14C735.577 258.357 735.828 258.529 736.105 258.644C736.382 258.759 736.68 258.816 736.98 258.81C737.28 258.813 737.577 258.756 737.854 258.641C738.131 258.525 738.381 258.355 738.59 258.14C738.799 257.933 738.969 257.689 739.09 257.42V257.42L742.09 249.73H750.09L753.09 257.42C753.209 257.687 753.379 257.928 753.59 258.13C753.792 258.349 754.039 258.522 754.312 258.64C754.586 258.757 754.882 258.815 755.18 258.81C755.481 258.814 755.78 258.756 756.059 258.641C756.337 258.526 756.589 258.355 756.8 258.14C757.014 257.931 757.182 257.68 757.296 257.403C757.409 257.126 757.465 256.829 757.46 256.53C757.463 256.219 757.409 255.911 757.3 255.62H757.24ZM743.17 245.62L746.11 238.06L749.04 245.62H743.17Z" fill="#1B458F"/>
<path d="M781.94 255.119L773.94 244.849L781.94 234.509C782.212 234.119 782.355 233.654 782.35 233.179C782.351 232.881 782.294 232.585 782.181 232.309C782.068 232.033 781.902 231.782 781.692 231.571C781.482 231.359 781.233 231.191 780.958 231.075C780.683 230.96 780.388 230.9 780.09 230.899C779.784 230.887 779.48 230.943 779.198 231.063C778.917 231.182 778.665 231.361 778.46 231.589V231.589L771 241.119L763.56 231.579C763.357 231.35 763.105 231.169 762.823 231.05C762.541 230.93 762.236 230.875 761.93 230.889C761.63 230.885 761.333 230.943 761.056 231.058C760.779 231.173 760.529 231.344 760.32 231.559C760.103 231.766 759.932 232.016 759.816 232.293C759.701 232.571 759.644 232.869 759.65 233.169C759.646 233.644 759.789 234.108 760.06 234.499L768.12 244.839L760.12 255.109C759.801 255.517 759.628 256.021 759.63 256.539C759.627 256.838 759.684 257.136 759.8 257.413C759.915 257.689 760.085 257.94 760.3 258.149C760.511 258.361 760.762 258.528 761.038 258.641C761.315 258.755 761.611 258.812 761.91 258.809C762.21 258.812 762.507 258.754 762.784 258.639C763.061 258.524 763.311 258.354 763.52 258.139V258.139L770.98 248.599L778.31 258.029C778.522 258.296 778.793 258.51 779.102 258.654C779.411 258.799 779.749 258.868 780.09 258.859C780.516 258.855 780.933 258.732 781.293 258.504C781.653 258.276 781.942 257.952 782.128 257.568C782.314 257.185 782.39 256.757 782.346 256.333C782.302 255.909 782.141 255.506 781.88 255.169" fill="#1B458F"/>
<path d="M790.65 231.539C790.331 231.221 789.925 231.004 789.484 230.917C789.042 230.829 788.584 230.874 788.168 231.046C787.752 231.219 787.396 231.51 787.146 231.884C786.895 232.258 786.761 232.698 786.76 233.149V256.529C786.758 256.828 786.817 257.125 786.932 257.402C787.047 257.678 787.216 257.929 787.43 258.139C787.749 258.457 788.155 258.673 788.596 258.761C789.038 258.848 789.496 258.803 789.912 258.631C790.328 258.459 790.684 258.167 790.934 257.793C791.185 257.419 791.319 256.979 791.32 256.529V233.149C791.323 232.849 791.266 232.552 791.15 232.275C791.035 231.998 790.865 231.748 790.65 231.539" fill="#1B458F"/>
<path d="M932.63 219.771C936.027 219.771 938.78 217.017 938.78 213.621C938.78 210.224 936.027 207.471 932.63 207.471C929.233 207.471 926.48 210.224 926.48 213.621C926.48 217.017 929.233 219.771 932.63 219.771Z" fill="#1B458F"/>
<path d="M143.588 305.85L138.958 309.87H143.588V305.85Z" fill="#546389"/>
<path d="M164.288 305.85L168.928 309.87H164.288V305.85Z" fill="#546389"/>
<path d="M193.308 336.29H195.308V331.58C195.308 331.58 206.708 329.34 208.208 331.58C209.708 333.82 208.208 338.21 208.208 338.21H195.788L193.308 336.29Z" fill="#2F3133"/>
<path d="M119.958 382.36H116.308C115.055 382.406 113.836 381.954 112.916 381.104C111.996 380.253 111.45 379.072 111.398 377.82V370C111.45 368.748 111.996 367.568 112.916 366.717C113.836 365.866 115.055 365.414 116.308 365.46H119.958C121.21 365.414 122.43 365.866 123.35 366.717C124.27 367.568 124.816 368.748 124.868 370V377.79C124.846 378.413 124.701 379.025 124.443 379.592C124.184 380.158 123.816 380.669 123.36 381.093C122.904 381.518 122.369 381.848 121.785 382.065C121.201 382.283 120.58 382.383 119.958 382.36V382.36Z" fill="#2F3133"/>
<path d="M189.508 382.361H185.508C182.508 382.361 180.058 380.361 180.058 377.821V370.001C180.058 367.501 182.498 365.461 185.508 365.461H189.508C192.508 365.461 194.948 367.461 194.948 370.001V377.791C194.948 380.321 192.518 382.361 189.508 382.361Z" fill="#2F3133"/>
<path d="M193.178 340.399H113.908L122.228 319.219C123.918 314.869 129.018 311.949 134.908 311.949H172.228C178.118 311.949 183.228 314.869 184.898 319.219L193.178 340.399Z" fill="white" stroke="#5770BE" stroke-width="4.36" stroke-miterlimit="10"/>
<path d="M203.198 355.16V363.31H103.888V355.16C103.888 347.01 109.788 340.4 117.048 340.4H190.048C197.298 340.4 203.198 347 203.198 355.16Z" fill="#5770BE"/>
<path d="M205.548 366.78C205.548 369.19 203.088 371.15 200.058 371.15H107.058C104.058 371.15 101.568 369.15 101.568 366.78C101.568 364.37 104.028 362.41 107.058 362.41H200.058C203.088 362.41 205.548 364.37 205.548 366.78Z" fill="#546389"/>
<path d="M195.038 358.941V350.641L182.568 353.301V358.941H195.038Z" fill="white"/>
<path d="M112.208 358.941V350.641L124.678 353.301V358.941H112.208Z" fill="white"/>
<path d="M113.438 336.5L111.388 336.33L111.778 331.63C111.778 331.63 100.598 328.47 98.9179 330.58C97.2379 332.69 98.3779 337.19 98.3779 337.19L110.858 338.19L113.438 336.5Z" fill="#2F3133"/>
<path d="M193.178 340.399H113.908L122.228 319.219C123.918 314.869 129.018 311.949 134.908 311.949H172.228C178.118 311.949 183.228 314.869 184.898 319.219L193.178 340.399Z" fill="white" stroke="#5770BE" stroke-width="3.05" stroke-miterlimit="10"/>
<path d="M135.598 313.421C129.938 313.421 125.038 316.051 123.428 319.961L115.428 338.961H126.498L136.718 313.381L135.598 313.421Z" fill="#CCDCFF"/>
<path d="M183.628 320.001C182.008 316.091 177.108 313.461 171.448 313.461H144.448L135.448 339.041H191.558L183.628 320.001Z" fill="#CCDCFF"/>
<path d="M173.648 355.961H133.438V357.131H173.648V355.961Z" fill="white"/>
<path d="M165.198 307.479H154.428C154.345 307.49 154.261 307.49 154.178 307.479C154.098 307.489 154.018 307.489 153.938 307.479H143.168C142.974 307.478 142.783 307.429 142.612 307.336C142.441 307.244 142.296 307.11 142.189 306.948C142.082 306.786 142.017 306.6 141.999 306.406C141.982 306.213 142.012 306.018 142.088 305.839L143.088 303.579C143.179 303.368 143.33 303.189 143.522 303.063C143.714 302.937 143.938 302.869 144.168 302.869H147.168C147.419 302.868 147.662 302.786 147.864 302.637C148.065 302.488 148.214 302.278 148.288 302.039L148.898 300.039C148.971 299.797 149.121 299.586 149.325 299.436C149.528 299.286 149.775 299.207 150.028 299.209H158.438C158.691 299.207 158.937 299.286 159.141 299.436C159.345 299.586 159.494 299.797 159.568 300.039L160.178 302.039C160.252 302.278 160.401 302.488 160.602 302.637C160.804 302.786 161.047 302.868 161.298 302.869H164.298C164.527 302.869 164.752 302.937 164.944 303.063C165.136 303.189 165.286 303.368 165.378 303.579L166.378 305.839C166.458 306.026 166.488 306.23 166.466 306.432C166.443 306.634 166.369 306.827 166.251 306.992C166.132 307.157 165.973 307.289 165.788 307.374C165.604 307.459 165.4 307.495 165.198 307.479V307.479Z" fill="#000091"/>
<path d="M151.288 301.659H150.458V301.359H152.458V301.659H151.628V304.099H151.268L151.288 301.659Z" fill="white"/>
<path d="M152.928 303.239L152.638 304.099H152.278L153.208 301.359H153.628L154.568 304.099H154.188L153.898 303.239H152.928ZM153.788 302.999L153.528 302.209C153.468 302.039 153.428 301.869 153.388 301.719C153.388 301.879 153.298 302.039 153.248 302.209L152.978 302.999H153.788Z" fill="white"/>
<path d="M156.408 304.099L156.058 303.489C155.918 303.259 155.828 303.109 155.748 302.949C155.658 303.138 155.558 303.322 155.448 303.499L155.128 304.099H154.718L155.548 302.709L154.748 301.359H155.158L155.518 301.999C155.618 302.179 155.698 302.319 155.768 302.469C155.838 302.308 155.918 302.151 156.008 301.999L156.388 301.359H156.788L155.958 302.689L156.808 304.099H156.408Z" fill="white"/>
<path d="M157.588 301.359V304.099H157.238V301.359H157.588Z" fill="white"/>
<path d="M146.788 306.42L145.638 310.42C145.638 310.592 145.706 310.758 145.828 310.88C145.95 311.001 146.115 311.07 146.288 311.07H149.418C149.59 311.07 149.756 311.001 149.877 310.88C149.999 310.758 150.068 310.592 150.068 310.42L148.928 306.42H146.788Z" fill="url(#paint0_linear_2477_22526)"/>
<path d="M163.078 306.119H145.278V306.719H163.078V306.119Z" fill="#546389"/>
<path d="M1354.16 84.3965L1352.82 85.8468H1354.16V84.3965Z" fill="#546389"/>
<path d="M1360.13 84.3965L1361.47 85.8468H1360.13V84.3965Z" fill="#546389"/>
<path d="M1368.51 95.3768H1369.08V93.6775C1369.08 93.6775 1372.37 92.8694 1372.81 93.6775C1373.24 94.4857 1372.81 96.0695 1372.81 96.0695H1369.22L1368.51 95.3768Z" fill="#2F3133"/>
<path d="M1347.34 111.999H1346.28C1345.92 112.015 1345.57 111.852 1345.3 111.545C1345.04 111.238 1344.88 110.812 1344.87 110.361V107.539C1344.88 107.088 1345.04 106.662 1345.3 106.355C1345.57 106.048 1345.92 105.885 1346.28 105.902H1347.34C1347.7 105.885 1348.05 106.048 1348.32 106.355C1348.58 106.662 1348.74 107.088 1348.75 107.539V110.35C1348.75 110.575 1348.71 110.795 1348.63 111C1348.56 111.204 1348.45 111.388 1348.32 111.541C1348.19 111.695 1348.03 111.814 1347.86 111.892C1347.7 111.971 1347.52 112.007 1347.34 111.999V111.999Z" fill="#2F3133"/>
<path d="M1367.41 111.999H1366.26C1365.39 111.999 1364.68 111.278 1364.68 110.362V107.54C1364.68 106.638 1365.39 105.902 1366.26 105.902H1367.41C1368.28 105.902 1368.98 106.624 1368.98 107.54V110.351C1368.98 111.263 1368.28 111.999 1367.41 111.999Z" fill="#2F3133"/>
<path d="M1368.47 96.8597H1345.59L1347.99 89.2185C1348.48 87.6492 1349.95 86.5957 1351.65 86.5957H1362.42C1364.12 86.5957 1365.6 87.6492 1366.08 89.2185L1368.47 96.8597Z" fill="white" stroke="#5770BE" stroke-width="4.36" stroke-miterlimit="10"/>
<path d="M1371.36 102.186V105.127H1342.7V102.186C1342.7 99.2461 1344.4 96.8613 1346.5 96.8613H1367.57C1369.66 96.8613 1371.36 99.2424 1371.36 102.186Z" fill="#5770BE"/>
<path d="M1372.04 106.377C1372.04 107.247 1371.33 107.954 1370.46 107.954H1343.61C1342.75 107.954 1342.03 107.232 1342.03 106.377C1342.03 105.508 1342.74 104.801 1343.61 104.801H1370.46C1371.33 104.801 1372.04 105.508 1372.04 106.377Z" fill="#546389"/>
<path d="M1369.01 103.549V100.555L1365.41 101.514V103.549H1369.01Z" fill="white"/>
<path d="M1345.1 103.549V100.555L1348.7 101.514V103.549H1345.1Z" fill="white"/>
<path d="M1345.46 95.4544L1344.86 95.393L1344.98 93.6974C1344.98 93.6974 1341.75 92.5574 1341.26 93.3186C1340.78 94.0798 1341.11 95.7033 1341.11 95.7033L1344.71 96.0641L1345.46 95.4544Z" fill="#2F3133"/>
<path d="M1368.47 96.8597H1345.59L1347.99 89.2185C1348.48 87.6492 1349.95 86.5957 1351.65 86.5957H1362.42C1364.12 86.5957 1365.6 87.6492 1366.08 89.2185L1368.47 96.8597Z" fill="white" stroke="#5770BE" stroke-width="3.05" stroke-miterlimit="10"/>
<path d="M1351.85 87.1277C1350.22 87.1277 1348.8 88.0765 1348.34 89.4872L1346.03 96.3419H1349.22L1352.17 87.1133L1351.85 87.1277Z" fill="#CCDCFF"/>
<path d="M1365.71 89.502C1365.25 88.0914 1363.83 87.1426 1362.2 87.1426H1354.41L1351.81 96.3712H1368L1365.71 89.502Z" fill="#CCDCFF"/>
<path d="M1362.83 102.475H1351.23V102.897H1362.83V102.475Z" fill="white"/>
<path d="M1360.39 84.9836H1357.29C1357.26 84.9874 1357.24 84.9874 1357.21 84.9836C1357.19 84.9871 1357.17 84.9871 1357.14 84.9836H1354.04C1353.98 84.9832 1353.92 84.9655 1353.88 84.9321C1353.83 84.8987 1353.78 84.8506 1353.75 84.7921C1353.72 84.7335 1353.7 84.6664 1353.7 84.5966C1353.69 84.5268 1353.7 84.4565 1353.72 84.392L1354.01 83.5766C1354.04 83.5006 1354.08 83.4359 1354.14 83.3904C1354.19 83.3449 1354.26 83.3206 1354.32 83.3205H1355.19C1355.26 83.3199 1355.33 83.2906 1355.39 83.2368C1355.45 83.1829 1355.49 83.1074 1355.51 83.021L1355.69 82.2995C1355.71 82.2122 1355.75 82.1359 1355.81 82.0819C1355.87 82.0279 1355.94 81.9992 1356.02 82H1358.44C1358.52 81.9992 1358.59 82.0279 1358.65 82.0819C1358.7 82.1359 1358.75 82.2122 1358.77 82.2995L1358.95 83.021C1358.97 83.1074 1359.01 83.1829 1359.07 83.2368C1359.13 83.2906 1359.2 83.3199 1359.27 83.3205H1360.13C1360.2 83.3206 1360.27 83.3449 1360.32 83.3904C1360.38 83.4359 1360.42 83.5006 1360.45 83.5766L1360.73 84.392C1360.76 84.4594 1360.77 84.5331 1360.76 84.606C1360.75 84.6788 1360.73 84.7484 1360.7 84.8079C1360.66 84.8674 1360.62 84.9149 1360.56 84.9457C1360.51 84.9764 1360.45 84.9895 1360.39 84.9836V84.9836Z" fill="#000091"/>
<path d="M1356.38 82.8836H1356.14V82.7754H1356.72V82.8836H1356.48V83.7639H1356.37L1356.38 82.8836Z" fill="white"/>
<path d="M1356.85 83.4536L1356.77 83.7639H1356.67L1356.93 82.7754H1357.06L1357.33 83.7639H1357.22L1357.13 83.4536H1356.85ZM1357.1 83.3671L1357.03 83.0821C1357.01 83.0207 1357 82.9594 1356.99 82.9053C1356.99 82.963 1356.96 83.0207 1356.95 83.0821L1356.87 83.3671H1357.1Z" fill="white"/>
<path d="M1357.86 83.7639L1357.76 83.5438C1357.72 83.4609 1357.69 83.4068 1357.67 83.349C1357.64 83.4172 1357.61 83.4834 1357.58 83.5475L1357.49 83.7639H1357.37L1357.61 83.2624L1357.38 82.7754H1357.5L1357.6 83.0063C1357.63 83.0712 1357.65 83.1217 1357.67 83.1759C1357.69 83.1176 1357.72 83.0609 1357.74 83.0063L1357.85 82.7754H1357.97L1357.73 83.2552L1357.97 83.7639H1357.86Z" fill="white"/>
<path d="M1358.2 82.7754V83.7639H1358.1V82.7754H1358.2Z" fill="white"/>
<path d="M1355.08 84.6016L1354.75 86.0447C1354.75 86.1069 1354.77 86.1665 1354.8 86.2105C1354.84 86.2544 1354.89 86.2792 1354.94 86.2792H1355.84C1355.89 86.2792 1355.94 86.2544 1355.97 86.2105C1356.01 86.1665 1356.03 86.1069 1356.03 86.0447L1355.7 84.6016H1355.08Z" fill="url(#paint1_linear_2477_22526)"/>
<path d="M1359.78 84.4922H1354.65V84.7087H1359.78V84.4922Z" fill="#546389"/>
<path d="M1263.16 247.396L1261.82 248.847H1263.16V247.396Z" fill="#546389"/>
<path d="M1269.13 247.396L1270.47 248.847H1269.13V247.396Z" fill="#546389"/>
<path d="M1277.51 258.377H1278.08V256.678C1278.08 256.678 1281.37 255.869 1281.81 256.678C1282.24 257.486 1281.81 259.069 1281.81 259.069H1278.22L1277.51 258.377Z" fill="#2F3133"/>
<path d="M1256.34 274.999H1255.28C1254.92 275.015 1254.57 274.852 1254.3 274.545C1254.04 274.238 1253.88 273.812 1253.87 273.361V270.539C1253.88 270.088 1254.04 269.662 1254.3 269.355C1254.57 269.048 1254.92 268.885 1255.28 268.902H1256.34C1256.7 268.885 1257.05 269.048 1257.32 269.355C1257.58 269.662 1257.74 270.088 1257.75 270.539V273.35C1257.75 273.575 1257.71 273.795 1257.63 274C1257.56 274.204 1257.45 274.388 1257.32 274.541C1257.19 274.695 1257.03 274.814 1256.86 274.892C1256.7 274.971 1256.52 275.007 1256.34 274.999V274.999Z" fill="#2F3133"/>
<path d="M1276.41 274.999H1275.26C1274.39 274.999 1273.68 274.278 1273.68 273.362V270.54C1273.68 269.638 1274.39 268.902 1275.26 268.902H1276.41C1277.28 268.902 1277.98 269.624 1277.98 270.54V273.351C1277.98 274.263 1277.28 274.999 1276.41 274.999Z" fill="#2F3133"/>
<path d="M1277.47 259.86H1254.59L1256.99 252.219C1257.48 250.649 1258.95 249.596 1260.65 249.596H1271.42C1273.12 249.596 1274.6 250.649 1275.08 252.219L1277.47 259.86Z" fill="white" stroke="#5770BE" stroke-width="4.36" stroke-miterlimit="10"/>
<path d="M1280.36 265.186V268.127H1251.7V265.186C1251.7 262.246 1253.4 259.861 1255.5 259.861H1276.57C1278.66 259.861 1280.36 262.242 1280.36 265.186Z" fill="#5770BE"/>
<path d="M1281.04 269.377C1281.04 270.247 1280.33 270.954 1279.46 270.954H1252.61C1251.75 270.954 1251.03 270.232 1251.03 269.377C1251.03 268.508 1251.74 267.801 1252.61 267.801H1279.46C1280.33 267.801 1281.04 268.508 1281.04 269.377Z" fill="#546389"/>
<path d="M1278.01 266.549V263.555L1274.41 264.514V266.549H1278.01Z" fill="white"/>
<path d="M1254.1 266.549V263.555L1257.7 264.514V266.549H1254.1Z" fill="white"/>
<path d="M1254.46 258.454L1253.86 258.393L1253.98 256.697C1253.98 256.697 1250.75 255.557 1250.26 256.319C1249.78 257.08 1250.11 258.703 1250.11 258.703L1253.71 259.064L1254.46 258.454Z" fill="#2F3133"/>
<path d="M1277.47 259.86H1254.59L1256.99 252.219C1257.48 250.649 1258.95 249.596 1260.65 249.596H1271.42C1273.12 249.596 1274.6 250.649 1275.08 252.219L1277.47 259.86Z" fill="white" stroke="#5770BE" stroke-width="3.05" stroke-miterlimit="10"/>
<path d="M1260.85 250.128C1259.22 250.128 1257.8 251.077 1257.34 252.487L1255.03 259.342H1258.22L1261.17 250.113L1260.85 250.128Z" fill="#CCDCFF"/>
<path d="M1274.71 252.502C1274.25 251.091 1272.83 250.143 1271.2 250.143H1263.41L1260.81 259.371H1277L1274.71 252.502Z" fill="#CCDCFF"/>
<path d="M1271.83 265.475H1260.23V265.897H1271.83V265.475Z" fill="white"/>
<path d="M1269.39 247.984H1266.29C1266.26 247.987 1266.24 247.987 1266.21 247.984C1266.19 247.987 1266.17 247.987 1266.14 247.984H1263.04C1262.98 247.983 1262.92 247.966 1262.88 247.932C1262.83 247.899 1262.78 247.851 1262.75 247.792C1262.72 247.734 1262.7 247.666 1262.7 247.597C1262.69 247.527 1262.7 247.456 1262.72 247.392L1263.01 246.577C1263.04 246.501 1263.08 246.436 1263.14 246.39C1263.19 246.345 1263.26 246.321 1263.32 246.32H1264.19C1264.26 246.32 1264.33 246.291 1264.39 246.237C1264.45 246.183 1264.49 246.107 1264.51 246.021L1264.69 245.299C1264.71 245.212 1264.75 245.136 1264.81 245.082C1264.87 245.028 1264.94 244.999 1265.02 245H1267.44C1267.52 244.999 1267.59 245.028 1267.65 245.082C1267.7 245.136 1267.75 245.212 1267.77 245.299L1267.95 246.021C1267.97 246.107 1268.01 246.183 1268.07 246.237C1268.13 246.291 1268.2 246.32 1268.27 246.32H1269.13C1269.2 246.321 1269.27 246.345 1269.32 246.39C1269.38 246.436 1269.42 246.501 1269.45 246.577L1269.73 247.392C1269.76 247.459 1269.77 247.533 1269.76 247.606C1269.75 247.679 1269.73 247.748 1269.7 247.808C1269.66 247.867 1269.62 247.915 1269.56 247.946C1269.51 247.976 1269.45 247.99 1269.39 247.984V247.984Z" fill="#000091"/>
<path d="M1265.38 245.884H1265.14V245.775H1265.72V245.884H1265.48V246.764H1265.37L1265.38 245.884Z" fill="white"/>
<path d="M1265.85 246.454L1265.77 246.764H1265.67L1265.93 245.775H1266.06L1266.33 246.764H1266.22L1266.13 246.454H1265.85ZM1266.1 246.367L1266.03 246.082C1266.01 246.021 1266 245.959 1265.99 245.905C1265.99 245.963 1265.96 246.021 1265.95 246.082L1265.87 246.367H1266.1Z" fill="white"/>
<path d="M1266.86 246.764L1266.76 246.544C1266.72 246.461 1266.69 246.407 1266.67 246.349C1266.64 246.417 1266.61 246.483 1266.58 246.547L1266.49 246.764H1266.37L1266.61 246.262L1266.38 245.775H1266.5L1266.6 246.006C1266.63 246.071 1266.65 246.122 1266.67 246.176C1266.69 246.118 1266.72 246.061 1266.74 246.006L1266.85 245.775H1266.97L1266.73 246.255L1266.97 246.764H1266.86Z" fill="white"/>
<path d="M1267.2 245.775V246.764H1267.1V245.775H1267.2Z" fill="white"/>
<path d="M1264.08 247.602L1263.75 249.045C1263.75 249.107 1263.77 249.166 1263.8 249.21C1263.84 249.254 1263.89 249.279 1263.94 249.279H1264.84C1264.89 249.279 1264.94 249.254 1264.97 249.21C1265.01 249.166 1265.03 249.107 1265.03 249.045L1264.7 247.602H1264.08Z" fill="url(#paint2_linear_2477_22526)"/>
<path d="M1268.78 247.492H1263.65V247.709H1268.78V247.492Z" fill="#546389"/>
<path d="M77.04 5.5293L73.21 8.8493H77.04V5.5293Z" fill="#546389"/>
<path d="M94.17 5.5293L98 8.8493H94.17V5.5293Z" fill="#546389"/>
<path d="M118.17 30.7105H119.87V26.8105C119.87 26.8105 129.3 24.9605 130.54 26.8105C131.78 28.6605 130.54 32.3005 130.54 32.3005H120.18L118.17 30.7105Z" fill="#2F3133"/>
<path d="M57.49 68.8202H54.49C53.4519 68.8608 52.44 68.4876 51.6769 67.7825C50.9137 67.0775 50.4617 66.0983 50.42 65.0602V58.6202C50.4642 57.5838 50.9174 56.6072 51.6803 55.9043C52.4431 55.2014 53.4535 54.8296 54.49 54.8702H57.49C58.5266 54.8296 59.5369 55.2014 60.2998 55.9043C61.0627 56.6072 61.5159 57.5838 61.56 58.6202V65.0602C61.5184 66.0983 61.0664 67.0775 60.3032 67.7825C59.5401 68.4876 58.5282 68.8608 57.49 68.8202V68.8202Z" fill="#2F3133"/>
<path d="M115 68.8191H111.65C109.17 68.8191 107.15 67.1391 107.15 65.0591V58.6191C107.15 56.5491 109.15 54.8691 111.65 54.8691H115C117.48 54.8691 119.5 56.5491 119.5 58.6191V65.0591C119.53 67.1391 117.51 68.8191 115 68.8191Z" fill="#2F3133"/>
<path d="M118.06 34.1098H52.49L59.37 16.5898C60.77 12.9898 64.98 10.5898 69.86 10.5898H100.73C105.61 10.5898 109.82 13.0098 111.22 16.5898L118.06 34.1098Z" fill="white" stroke="#5770BE" stroke-width="3.61" stroke-miterlimit="10"/>
<path d="M126.35 46.3194V53.0594H44.2V46.3194C44.2 39.5794 49.08 34.1094 55.09 34.1094H115.47C121.47 34.1094 126.35 39.5794 126.35 46.3194Z" fill="#5770BE"/>
<path d="M128.3 55.9303C128.3 57.9303 126.3 59.5503 123.76 59.5503H46.76C44.26 59.5503 42.23 57.9303 42.23 55.9303C42.23 53.9303 44.23 52.3203 46.76 52.3203H123.76C126.26 52.3203 128.3 53.9403 128.3 55.9303Z" fill="#546389"/>
<path d="M119.6 49.4501V42.5801L109.28 44.7801V49.4501H119.6Z" fill="white"/>
<path d="M51.08 49.4501V42.5801L61.4 44.7801V49.4501H51.08Z" fill="white"/>
<path d="M52.1001 30.8807L50.4101 30.7407L50.7201 26.8607C50.7201 26.8607 41.48 24.2407 40.09 26.0007C38.7 27.7607 39.6401 31.4607 39.6401 31.4607L50.0001 32.3007L52.1001 30.8807Z" fill="#2F3133"/>
<path d="M118.06 34.1098H52.49L59.37 16.5898C60.77 12.9898 64.98 10.5898 69.86 10.5898H100.73C105.61 10.5898 109.82 13.0098 111.22 16.5898L118.06 34.1098Z" fill="white" stroke="#5770BE" stroke-width="2.52" stroke-miterlimit="10"/>
<path d="M70.43 11.7891C65.75 11.7891 61.7 13.9691 60.36 17.1991L53.75 32.9991H62.9L71.36 11.8391L70.43 11.7891Z" fill="#CCDCFF"/>
<path d="M110.16 17.1991C108.82 13.9691 104.77 11.7891 100.09 11.7891H77.75L70.33 32.9991H116.74L110.16 17.1991Z" fill="#CCDCFF"/>
<path d="M101.9 46.9805H68.64V47.9505H101.9V46.9805Z" fill="white"/>
<path d="M94.91 6.87H86C85.9337 6.88032 85.8662 6.88032 85.8 6.87C85.7303 6.87985 85.6596 6.87985 85.59 6.87H76.68C76.5225 6.86269 76.369 6.81825 76.2319 6.74031C76.0949 6.66236 75.9782 6.55311 75.8914 6.42149C75.8047 6.28986 75.7502 6.13958 75.7326 5.98291C75.715 5.82624 75.7346 5.66762 75.79 5.52L76.59 3.65C76.6681 3.47609 76.7944 3.32815 76.9538 3.22361C77.1133 3.11908 77.2993 3.06231 77.49 3.06H80C80.2074 3.05568 80.4084 2.98695 80.575 2.86331C80.7416 2.73968 80.8657 2.56728 80.93 2.37L81.43 0.69C81.4942 0.492719 81.6183 0.320317 81.7849 0.196685C81.9516 0.0730544 82.1525 0.00431723 82.36 0H89.36C89.5674 0.00431723 89.7684 0.0730544 89.935 0.196685C90.1016 0.320317 90.2257 0.492719 90.29 0.69L90.79 2.37C90.8542 2.56728 90.9783 2.73968 91.1449 2.86331C91.3116 2.98695 91.5125 3.05568 91.72 3.06H94.18C94.3706 3.06231 94.5566 3.11908 94.7161 3.22361C94.8756 3.32815 95.0018 3.47609 95.08 3.65L95.88 5.52C95.9376 5.67393 95.9564 5.83969 95.9347 6.00261C95.913 6.16553 95.8514 6.32059 95.7555 6.45407C95.6596 6.58755 95.5323 6.69533 95.3848 6.76788C95.2373 6.84042 95.0742 6.8755 94.91 6.87V6.87Z" fill="#000091"/>
<path d="M83.41 2.07031H82.72V1.82031H84.4V2.07031H83.71V4.07031H83.41V2.07031Z" fill="white"/>
<path d="M84.76 3.37031L84.53 4.08031H84.23L85 1.82031H85.35L86.12 4.08031H85.81L85.57 3.37031H84.76ZM85.51 3.14031L85.29 2.49031C85.2389 2.35714 85.1987 2.22002 85.17 2.08031V2.08031C85.17 2.21031 85.1 2.35031 85.06 2.49031L84.84 3.14031H85.51Z" fill="white"/>
<path d="M87.65 4.08031L87.36 3.58031C87.24 3.39031 87.17 3.26031 87.1 3.13031C87.04 3.26031 86.97 3.39031 86.86 3.58031L86.58 4.08031H86.25L86.94 2.94031L86.27 1.82031H86.61L86.91 2.35031C87 2.50031 87.06 2.61031 87.12 2.73031C87.1805 2.59863 87.2507 2.47161 87.33 2.35031L87.63 1.82031H88L87.31 2.92031L88 4.08031H87.65Z" fill="white"/>
<path d="M88.6199 1.82031V4.08031H88.33V1.82031H88.6199Z" fill="white"/>
<path d="M79.66 6L78.66 9.31C78.66 9.38091 78.674 9.45113 78.7011 9.51665C78.7283 9.58217 78.768 9.64169 78.8182 9.69184C78.8683 9.74198 78.9279 9.78176 78.9934 9.8089C79.0589 9.83603 79.1291 9.85 79.2 9.85H81.79C81.9332 9.85 82.0706 9.79311 82.1719 9.69184C82.2731 9.59057 82.33 9.45322 82.33 9.31L81.44 6H79.66Z" fill="url(#paint3_linear_2477_22526)"/>
<path d="M93.1599 5.75H78.4399V6.24H93.1599V5.75Z" fill="#546389"/>
<path d="M140.21 80.7793L135.59 84.7893H140.21V80.7793Z" fill="#546389"/>
<path d="M160.88 80.7793L165.5 84.7893H160.88V80.7793Z" fill="#546389"/>
<path d="M189.84 111.17H191.84V106.46C191.84 106.46 203.22 104.23 204.72 106.46C206.22 108.69 204.72 113.08 204.72 113.08H192.22L189.84 111.17Z" fill="#2F3133"/>
<path d="M116.62 157.15H113C111.75 157.199 110.531 156.749 109.612 155.899C108.693 155.05 108.149 153.87 108.1 152.62V144.85C108.149 143.6 108.693 142.42 109.612 141.571C110.531 140.721 111.75 140.271 113 140.32H116.64C117.89 140.271 119.109 140.721 120.028 141.571C120.947 142.42 121.491 143.6 121.54 144.85V152.62C121.516 153.241 121.369 153.851 121.108 154.415C120.847 154.979 120.478 155.486 120.021 155.907C119.564 156.328 119.028 156.654 118.444 156.867C117.861 157.081 117.241 157.177 116.62 157.15V157.15Z" fill="#2F3133"/>
<path d="M186.05 157.15H182.05C179.05 157.15 176.62 155.15 176.62 152.62V144.85C176.62 142.35 179.05 140.32 182.05 140.32H186.05C189.05 140.32 191.48 142.32 191.48 144.85V152.62C191.48 155.12 189.05 157.15 186.05 157.15Z" fill="#2F3133"/>
<path d="M189.71 115.259H110.58L118.89 94.1294C120.57 89.7894 125.66 86.8594 131.54 86.8594H168.8C174.68 86.8594 179.8 89.7894 181.45 94.1294L189.71 115.259Z" fill="white" stroke="#5770BE" stroke-width="4.35" stroke-miterlimit="10"/>
<path d="M199.71 130V138.14H100.58V130C100.58 121.87 106.47 115.26 113.71 115.26H186.58C193.83 115.26 199.71 121.87 199.71 130Z" fill="#5770BE"/>
<path d="M202.06 141.61C202.06 144.01 199.61 145.97 196.58 145.97H103.71C100.71 145.97 98.23 143.97 98.23 141.61C98.23 139.2 100.68 137.24 103.71 137.24H196.58C199.61 137.24 202.06 139.2 202.06 141.61Z" fill="#546389"/>
<path d="M191.57 133.78V125.49L179.12 128.15V133.78H191.57Z" fill="white"/>
<path d="M108.88 133.78V125.49L121.33 128.15V133.78H108.88Z" fill="white"/>
<path d="M110.11 111.381L108.11 111.211L108.49 106.521C108.49 106.521 97.33 103.361 95.66 105.521C93.99 107.681 95.12 112.111 95.12 112.111L107.58 113.111L110.11 111.381Z" fill="#2F3133"/>
<path d="M189.71 115.259H110.58L118.89 94.1294C120.57 89.7894 125.66 86.8594 131.54 86.8594H168.8C174.68 86.8594 179.8 89.7894 181.45 94.1294L189.71 115.259Z" fill="white" stroke="#5770BE" stroke-width="3.04" stroke-miterlimit="10"/>
<path d="M132.23 88.3401C126.58 88.3401 121.7 90.9601 120.08 94.8601L112.08 113.86H123.13L133.33 88.3301L132.23 88.3401Z" fill="#CCDCFF"/>
<path d="M180.18 94.8598C178.56 90.9598 173.67 88.3398 168.02 88.3398H141.02L132.07 113.87H188.07L180.18 94.8598Z" fill="#CCDCFF"/>
<path d="M170.22 130.801H130.08V131.971H170.22V130.801Z" fill="white"/>
<path d="M161.78 82.4006H151H150.76H150.51H139.79C139.596 82.4022 139.405 82.3551 139.234 82.2637C139.063 82.1723 138.917 82.0394 138.811 81.8772C138.704 81.7151 138.64 81.5288 138.624 81.3355C138.609 81.1422 138.641 80.948 138.72 80.7706L139.72 78.5206C139.809 78.3074 139.959 78.1253 140.151 77.9971C140.343 77.869 140.569 77.8006 140.8 77.8006H143.8C144.051 77.8007 144.295 77.7201 144.497 77.5706C144.699 77.4212 144.847 77.2108 144.92 76.9706L145.53 74.9706C145.603 74.7304 145.751 74.5201 145.953 74.3706C146.155 74.2212 146.399 74.1405 146.65 74.1406H155C155.251 74.1405 155.495 74.2212 155.697 74.3706C155.899 74.5201 156.047 74.7304 156.12 74.9706L156.73 76.9706C156.803 77.2108 156.951 77.4212 157.153 77.5706C157.355 77.7201 157.599 77.8007 157.85 77.8006H160.85C161.081 77.8006 161.307 77.869 161.499 77.9971C161.691 78.1253 161.841 78.3074 161.93 78.5206L162.93 80.7706C163.009 80.9545 163.04 81.1555 163.019 81.3546C162.998 81.5536 162.927 81.744 162.811 81.9075C162.696 82.0711 162.54 82.2023 162.36 82.2886C162.179 82.3749 161.98 82.4135 161.78 82.4006V82.4006Z" fill="#000091"/>
<path d="M147.9 76.5991H147.06V76.2891H149.06V76.5991H148.22V78.9991H147.87L147.9 76.5991Z" fill="white"/>
<path d="M149.53 78.1691L149.25 79.0291H148.88L149.81 76.2891H150.24L151.17 79.0291H150.79L150.5 78.1691H149.53ZM150.43 77.8891L150.16 77.1091C150.1 76.9291 150.06 76.7691 150.02 76.6091C150.02 76.7691 149.93 76.9391 149.88 77.0991L149.61 77.8891H150.43Z" fill="white"/>
<path d="M153 78.9998L152.65 78.3998C152.51 78.1698 152.42 78.0098 152.34 77.8598C152.26 78.0098 152.19 78.1598 152.04 78.3998L151.71 78.9998H151.31L152.14 77.6198L151.34 76.2598H151.75L152.11 76.9098C152.21 77.0898 152.29 77.2198 152.36 77.3698C152.43 77.2115 152.51 77.0579 152.6 76.9098L152.98 76.2598H153.38L152.55 77.5998L153.4 78.9998H153Z" fill="white"/>
<path d="M154.18 76.2891V78.9991H153.83V76.2891H154.18Z" fill="white"/>
<path d="M143.37 81.3496L142.22 85.3496C142.22 85.522 142.288 85.6873 142.41 85.8092C142.532 85.9311 142.698 85.9996 142.87 85.9996H146C146.172 85.9996 146.338 85.9311 146.46 85.8092C146.581 85.6873 146.65 85.522 146.65 85.3496L145.51 81.3496H143.37Z" fill="url(#paint4_linear_2477_22526)"/>
<path d="M159.67 81.0508H141.9V81.6508H159.67V81.0508Z" fill="#546389"/>
<path d="M179.69 21.0996L176.84 23.5696H179.69V21.0996Z" fill="#546389"/>
<path d="M192.43 21.0996L195.28 23.5696H192.43V21.0996Z" fill="#546389"/>
<path d="M210.28 39.8297H211.54V36.9297C211.54 36.9297 218.54 35.5497 219.48 36.9297C220.42 38.3097 219.48 41.0097 219.48 41.0097H211.77L210.28 39.8297Z" fill="#2F3133"/>
<path d="M165.15 68.1703H162.91C162.144 68.192 161.4 67.9117 160.839 67.3897C160.277 66.8677 159.944 66.146 159.91 65.3803V60.5903C159.944 59.8246 160.277 59.1029 160.839 58.5809C161.4 58.0589 162.144 57.7786 162.91 57.8003H165.15C165.917 57.7759 166.662 58.0554 167.224 58.5779C167.786 59.1004 168.119 59.8237 168.15 60.5903V65.3803C168.119 66.1469 167.786 66.8702 167.224 67.3927C166.662 67.9152 165.917 68.1947 165.15 68.1703V68.1703Z" fill="#2F3133"/>
<path d="M207.94 68.1696H205.46C204.647 68.2366 203.841 67.9817 203.214 67.4598C202.588 66.938 202.191 66.191 202.11 65.3796V60.5896C202.191 59.7782 202.588 59.0312 203.214 58.5093C203.841 57.9875 204.647 57.7326 205.46 57.7996H207.94C208.753 57.7326 209.559 57.9875 210.186 58.5093C210.812 59.0312 211.209 59.7782 211.29 60.5896V65.3796C211.209 66.191 210.812 66.938 210.186 67.4598C209.559 67.9817 208.753 68.2366 207.94 68.1696V68.1696Z" fill="#2F3133"/>
<path d="M210.2 42.3491H161.43L166.55 29.3491C167.55 26.6691 170.72 24.8691 174.35 24.8691H197.35C200.98 24.8691 204.11 26.6691 205.15 29.3491L210.2 42.3491Z" fill="white" stroke="#5770BE" stroke-width="2.68" stroke-miterlimit="10"/>
<path d="M216.36 51.4396V56.4396H155.26V51.4396C155.26 46.4396 158.89 42.3496 163.36 42.3496H208.27C212.74 42.3496 216.36 46.4296 216.36 51.4396Z" fill="#5770BE"/>
<path d="M217.81 58.5904C217.81 60.0704 216.3 61.2804 214.44 61.2804H157.19C155.33 61.2804 153.82 60.0704 153.82 58.5904C153.82 57.1004 155.33 55.9004 157.19 55.9004H214.44C216.3 55.9004 217.81 57.1004 217.81 58.5904Z" fill="#546389"/>
<path d="M211.34 53.7702V48.6602L203.67 50.3002V53.7702H211.34Z" fill="white"/>
<path d="M160.38 53.7702V48.6602L168.05 50.3002V53.7702H160.38Z" fill="white"/>
<path d="M161.14 40.0008L159.88 39.8908L160.11 37.0008C160.11 37.0008 153.24 35.0008 152.21 36.3508C151.18 37.7008 151.87 40.4208 151.87 40.4208L159.55 41.0508L161.14 40.0008Z" fill="#2F3133"/>
<path d="M210.2 42.3491H161.43L166.55 29.3491C167.55 26.6691 170.72 24.8691 174.35 24.8691H197.35C200.98 24.8691 204.11 26.6691 205.15 29.3491L210.2 42.3491Z" fill="white" stroke="#5770BE" stroke-width="1.88" stroke-miterlimit="10"/>
<path d="M174.77 25.7602C171.29 25.7602 168.28 27.3802 167.28 29.7602L162.36 41.4702H169.17L175.46 25.7402L174.77 25.7602Z" fill="#CCDCFF"/>
<path d="M204.32 29.7793C203.32 27.3793 200.32 25.7793 196.83 25.7793H180.21L174.69 41.5093H209.22L204.32 29.7793Z" fill="#CCDCFF"/>
<path d="M198.18 51.9297H173.44V52.6497H198.18V51.9297Z" fill="white"/>
<path d="M193 22.1001H186.38H186.23H186.08H179.45C179.331 22.0995 179.215 22.0697 179.111 22.0133C179.006 21.9569 178.918 21.8756 178.852 21.7767C178.787 21.6777 178.747 21.5642 178.736 21.4462C178.725 21.3282 178.744 21.2093 178.79 21.1001L179.38 19.7101C179.439 19.582 179.534 19.4735 179.652 19.3973C179.771 19.3211 179.909 19.2804 180.05 19.2801H181.88C182.036 19.2797 182.187 19.2288 182.312 19.1351C182.436 19.0413 182.527 18.9097 182.57 18.7601L182.95 17.5101C182.994 17.3614 183.085 17.2311 183.209 17.139C183.334 17.047 183.485 16.9981 183.64 17.0001H188.82C188.975 16.9998 189.125 17.0492 189.249 17.141C189.374 17.2329 189.465 17.3623 189.51 17.5101L189.89 18.7601C189.933 18.9097 190.024 19.0413 190.148 19.1351C190.273 19.2288 190.424 19.2797 190.58 19.2801H192.41C192.55 19.2786 192.688 19.3186 192.805 19.3951C192.923 19.4717 193.015 19.5812 193.07 19.7101L193.67 21.1001C193.714 21.2102 193.73 21.3293 193.718 21.4471C193.705 21.565 193.664 21.678 193.598 21.7764C193.532 21.8749 193.443 21.9558 193.339 22.0122C193.235 22.0686 193.119 22.0987 193 22.1001V22.1001Z" fill="#000091"/>
<path d="M184.43 18.5201H183.91V18.3301H185.16V18.5201H184.65V20.0001H184.43V18.5201Z" fill="white"/>
<path d="M185.44 19.4901L185.26 20.0201H185L185.57 18.3301H185.83L186.41 20.0201H186.17L185.99 19.4901H185.44ZM185.99 19.3201L185.82 18.8401C185.82 18.7301 185.76 18.6201 185.74 18.5301C185.74 18.6301 185.74 18.7301 185.66 18.8301L185.49 19.3201H185.99Z" fill="white"/>
<path d="M187.58 20.0005L187.37 19.6305L187.17 19.3005L186.98 19.6305L186.78 20.0005H186.53L187.05 19.1505L186.55 18.3105H186.8L187.03 18.7105C187.09 18.8205 187.14 18.9105 187.18 19.0005L187.33 18.7105L187.56 18.3105H187.81L187.3 19.1405L187.82 20.0005H187.58Z" fill="white"/>
<path d="M188.3 18.3301V20.0001H188.09V18.3301H188.3Z" fill="white"/>
<path d="M181.64 21.4492L180.93 23.9092C180.93 24.0153 180.972 24.117 181.047 24.1921C181.122 24.2671 181.224 24.3092 181.33 24.3092H183.26C183.366 24.3092 183.468 24.2671 183.543 24.1921C183.618 24.117 183.66 24.0153 183.66 23.9092L182.96 21.4492H181.64Z" fill="url(#paint5_linear_2477_22526)"/>
<path d="M191.68 21.2695H180.73V21.6395H191.68V21.2695Z" fill="#546389"/>
<path d="M688.286 337H690.166V330.86H692.006C692.146 330.86 692.306 330.86 692.446 330.84L696.506 337H698.726L694.206 330.48C695.706 329.88 696.566 328.62 696.566 326.94C696.566 324.54 694.826 323 692.006 323H688.286V337ZM692.086 324.6C693.686 324.6 694.626 325.48 694.626 326.9C694.626 328.4 693.686 329.26 692.086 329.26H690.166V324.6H692.086ZM709.522 335.34L708.262 334.36C707.602 335.26 706.502 335.86 705.202 335.86C703.042 335.86 701.502 334.4 701.442 331.98H709.182C709.242 331.7 709.302 331.32 709.302 330.92C709.302 328.44 707.522 326.52 704.782 326.52C701.662 326.52 699.702 328.9 699.702 331.96C699.702 334.9 701.802 337.4 705.202 337.4C707.082 337.4 708.582 336.6 709.522 335.34ZM704.742 327.96C706.522 327.96 707.542 329.2 707.602 330.68H701.562C701.922 328.94 703.082 327.96 704.742 327.96ZM710.984 338.82C710.984 340.84 712.944 342 715.924 342C718.944 342 721.064 340.42 721.064 338.3C721.064 336.5 719.824 335.2 717.164 335.2H714.284C713.664 335.2 713.444 334.9 713.444 334.48C713.444 334.1 713.684 333.74 714.104 333.44C714.524 333.56 715.004 333.64 715.504 333.64C717.924 333.64 719.424 332 719.424 330.08C719.424 329.48 719.284 328.9 719.004 328.4H721.184V326.92H717.444C716.904 326.66 716.244 326.5 715.504 326.5C713.104 326.5 711.584 328.14 711.584 330.08C711.584 331.2 712.104 332.22 712.984 332.88C712.204 333.38 711.784 334.04 711.784 334.84C711.784 335.38 712.024 335.92 712.484 336.28C711.484 336.98 710.984 337.8 710.984 338.82ZM715.524 332.3C714.024 332.3 713.204 331.32 713.204 330.08C713.204 328.84 714.024 327.84 715.524 327.84C716.984 327.84 717.824 328.84 717.824 330.08C717.824 331.3 716.984 332.3 715.524 332.3ZM712.644 338.62C712.644 337.82 713.064 337.22 713.764 336.7H717.024C718.824 336.7 719.364 337.46 719.364 338.42C719.364 339.74 718.024 340.58 715.904 340.58C713.904 340.58 712.644 339.84 712.644 338.62ZM724 324.3C724.66 324.3 725.18 323.76 725.18 323.1C725.18 322.46 724.66 321.92 724 321.92C723.34 321.92 722.8 322.46 722.8 323.1C722.8 323.76 723.34 324.3 724 324.3ZM723.14 337H724.84V326.92H723.14V337ZM727.275 335.62C728.195 336.76 729.455 337.4 731.055 337.4C732.935 337.4 734.435 336.22 734.455 334.34C734.455 330.9 729.395 331.62 729.395 329.36C729.395 328.58 729.975 327.94 731.055 327.94C731.935 327.94 732.695 328.42 733.235 329.18L734.415 328.18C733.715 327.2 732.475 326.52 731.035 326.52C729.095 326.52 727.755 327.82 727.755 329.4C727.755 332.96 732.795 332.16 732.795 334.42C732.795 335.3 732.155 335.98 731.035 335.98C730.015 335.98 729.175 335.48 728.475 334.6L727.275 335.62ZM737.88 333.62C737.88 336.08 739.14 337.2 741.38 337.2C742.1 337.2 742.64 337.12 743.12 336.92V335.4C742.74 335.56 742.28 335.64 741.62 335.64C740.4 335.64 739.6 335.2 739.6 333.62V328.46H743.1V326.92H739.6V324.4H737.88V326.92H735.98V328.46H737.88V333.62ZM745.698 337H747.398V330.08C748.018 329.06 748.878 328.38 750.198 328.38C750.598 328.38 750.898 328.42 751.198 328.5V326.84C750.958 326.76 750.658 326.72 750.338 326.72C749.058 326.72 748.138 327.3 747.398 328.18V326.92H745.698V337ZM762.002 335.34L760.742 334.36C760.082 335.26 758.982 335.86 757.682 335.86C755.522 335.86 753.982 334.4 753.922 331.98H761.662C761.722 331.7 761.782 331.32 761.782 330.92C761.782 328.44 760.002 326.52 757.262 326.52C754.142 326.52 752.182 328.9 752.182 331.96C752.182 334.9 754.282 337.4 757.682 337.4C759.562 337.4 761.062 336.6 762.002 335.34ZM757.222 327.96C759.002 327.96 760.022 329.2 760.082 330.68H754.042C754.402 328.94 755.562 327.96 757.222 327.96ZM770.054 337H771.754V322H770.054V337ZM784.307 335.34L783.047 334.36C782.387 335.26 781.287 335.86 779.987 335.86C777.827 335.86 776.287 334.4 776.227 331.98H783.967C784.027 331.7 784.087 331.32 784.087 330.92C784.087 328.44 782.307 326.52 779.567 326.52C776.447 326.52 774.487 328.9 774.487 331.96C774.487 334.9 776.587 337.4 779.987 337.4C781.867 337.4 783.367 336.6 784.307 335.34ZM779.527 327.96C781.307 327.96 782.327 329.2 782.387 330.68H776.347C776.707 328.94 777.867 327.96 779.527 327.96ZM787.771 337.22C788.491 337.22 789.051 336.66 789.051 335.96C789.051 335.26 788.491 334.68 787.771 334.68C787.051 334.68 786.471 335.26 786.471 335.96C786.471 336.66 787.051 337.22 787.771 337.22ZM791.786 333.62C791.786 336.08 793.046 337.2 795.286 337.2C796.006 337.2 796.546 337.12 797.026 336.92V335.4C796.646 335.56 796.186 335.64 795.526 335.64C794.306 335.64 793.506 335.2 793.506 333.62V328.46H797.006V326.92H793.506V324.4H791.786V326.92H789.886V328.46H791.786V333.62ZM802.345 337.28C803.645 337.28 804.965 336.7 805.725 335.72V337H807.425V330.24C807.425 328.02 805.905 326.52 803.345 326.52C801.585 326.52 800.165 327.26 799.285 328.46L800.565 329.44C801.185 328.58 802.125 328.04 803.285 328.04C804.725 328.04 805.725 328.84 805.725 330.24V330.94L802.325 331.5C800.185 331.86 799.025 332.94 799.025 334.46C799.025 336.18 800.365 337.28 802.345 337.28ZM800.745 334.4C800.745 333.54 801.365 332.92 802.745 332.68L805.725 332.18V334.16C805.065 335.24 803.965 335.88 802.625 335.88C801.445 335.88 800.745 335.26 800.745 334.4ZM811.475 337L814.355 332.92L817.235 337H819.175L815.455 331.78L818.915 326.92H816.955L814.335 330.64L811.715 326.92H809.775L813.215 331.78L809.495 337H811.475ZM822.301 324.3C822.961 324.3 823.481 323.76 823.481 323.1C823.481 322.46 822.961 321.92 822.301 321.92C821.641 321.92 821.101 322.46 821.101 323.1C821.101 323.76 821.641 324.3 822.301 324.3ZM821.441 337H823.141V326.92H821.441V337ZM735.326 359.5C735.326 355.96 736.586 353.1 738.686 351.02L737.446 350C735.206 352.14 733.606 355.44 733.606 359.5C733.606 363.5 735.066 366.78 737.446 369L738.686 367.98C736.506 365.82 735.326 363.04 735.326 359.5ZM739.751 365H741.751L743.371 360.88H749.811L751.431 365H753.431L747.851 351H745.331L739.751 365ZM743.991 359.26L746.591 352.64L749.191 359.26H743.991ZM756.197 365H758.077V358.86H760.297C763.097 358.86 764.837 357.34 764.837 354.94C764.837 352.54 763.097 351 760.297 351H756.197V365ZM760.337 352.6C761.937 352.6 762.897 353.48 762.897 354.9C762.897 356.4 761.937 357.26 760.337 357.26H758.077V352.6H760.337ZM767.681 365H769.561V351H767.681V365ZM775.669 359.5C775.669 363.06 774.429 365.86 772.289 367.98L773.529 369C775.849 366.82 777.369 363.54 777.369 359.5C777.369 355.46 775.829 352.18 773.529 350L772.289 351.02C774.429 353.14 775.669 355.96 775.669 359.5Z" fill="#000091"/>
<path d="M35.4351 211.504C31.8271 211.504 29.2531 208.732 29.2531 205.3C29.2531 201.868 31.7391 199.096 35.2151 199.096C37.2831 199.096 38.9771 200.108 40.0111 201.604L41.6611 200.328C40.2531 198.436 37.9871 197.16 35.2151 197.16C30.3971 197.16 27.1191 200.9 27.1191 205.3C27.1191 209.7 30.4851 213.44 35.4351 213.44C38.3171 213.44 40.6711 212.208 42.1011 210.272V204.266H35.5891V206.048H40.0331V209.524C38.9551 210.734 37.3491 211.504 35.4351 211.504ZM45.7661 213H47.6361V205.388C48.3181 204.266 49.2641 203.518 50.7161 203.518C51.1561 203.518 51.4861 203.562 51.8161 203.65V201.824C51.5521 201.736 51.2221 201.692 50.8701 201.692C49.4621 201.692 48.4501 202.33 47.6361 203.298V201.912H45.7661V213ZM58.9043 201.472C55.3183 201.472 52.8983 204.222 52.8983 207.456C52.8983 210.69 55.3183 213.44 58.9043 213.44C62.4683 213.44 64.9103 210.69 64.9103 207.456C64.9103 204.222 62.4683 201.472 58.9043 201.472ZM58.9263 211.68C56.5503 211.68 54.8563 209.766 54.8563 207.456C54.8563 205.146 56.5503 203.232 58.9263 203.232C61.2363 203.232 62.9303 205.146 62.9303 207.456C62.9303 209.744 61.2363 211.68 58.9263 211.68ZM75.6385 208.248C75.6385 210.426 74.4505 211.68 72.6025 211.68C70.7105 211.68 69.5445 210.426 69.5445 208.248V201.912H67.6745V208.182C67.6745 211.504 69.5885 213.44 72.5805 213.44C75.5945 213.44 77.5085 211.504 77.5085 208.182V201.912H75.6385V208.248ZM81.1939 218.412H83.0639V211.68C84.0539 212.802 85.3519 213.44 87.0019 213.44C90.4779 213.44 92.6999 210.69 92.6999 207.456C92.6999 204.222 90.4779 201.472 87.0019 201.472C85.3519 201.472 84.0539 202.11 83.0639 203.232V201.912H81.1939V218.412ZM86.7819 203.232C89.1359 203.232 90.7419 205.102 90.7419 207.456C90.7419 209.81 89.1359 211.68 86.7819 211.68C85.2639 211.68 83.9219 210.954 83.0639 209.612V205.3C83.8999 203.98 85.2419 203.232 86.7819 203.232ZM105.681 211.174L104.295 210.096C103.569 211.086 102.359 211.746 100.929 211.746C98.5527 211.746 96.8587 210.14 96.7927 207.478H105.307C105.373 207.17 105.439 206.752 105.439 206.312C105.439 203.584 103.481 201.472 100.467 201.472C97.0347 201.472 94.8787 204.09 94.8787 207.456C94.8787 210.69 97.1887 213.44 100.929 213.44C102.997 213.44 104.647 212.56 105.681 211.174ZM100.423 203.056C102.381 203.056 103.503 204.42 103.569 206.048H96.9247C97.3207 204.134 98.5967 203.056 100.423 203.056ZM108.608 213H110.478V205.322C111.116 204.178 112.062 203.232 113.58 203.232C115.186 203.232 116.198 204.288 116.198 206.136V213H118.068V206.07C118.068 205.806 118.046 205.564 118.024 205.322C118.75 204.024 119.74 203.232 121.148 203.232C122.732 203.232 123.766 204.288 123.766 206.136V213H125.636V206.07C125.636 203.056 123.898 201.472 121.522 201.472C119.608 201.472 118.442 202.396 117.562 203.606C116.88 202.198 115.56 201.472 113.954 201.472C112.414 201.472 111.314 202.154 110.478 203.122V201.912H108.608V213ZM139.261 211.174L137.875 210.096C137.149 211.086 135.939 211.746 134.509 211.746C132.133 211.746 130.439 210.14 130.373 207.478H138.887C138.953 207.17 139.019 206.752 139.019 206.312C139.019 203.584 137.061 201.472 134.047 201.472C130.615 201.472 128.459 204.09 128.459 207.456C128.459 210.69 130.769 213.44 134.509 213.44C136.577 213.44 138.227 212.56 139.261 211.174ZM134.003 203.056C135.961 203.056 137.083 204.42 137.149 206.048H130.505C130.901 204.134 132.177 203.056 134.003 203.056ZM142.188 213H144.058V205.322C144.762 204.156 145.774 203.232 147.38 203.232C149.096 203.232 150.218 204.376 150.218 206.356V213H152.088V206.29C152.088 203.144 150.24 201.472 147.754 201.472C146.104 201.472 144.96 202.176 144.058 203.166V201.912H142.188V213ZM156.49 209.282C156.49 211.988 157.876 213.22 160.34 213.22C161.132 213.22 161.726 213.132 162.254 212.912V211.24C161.836 211.416 161.33 211.504 160.604 211.504C159.262 211.504 158.382 211.02 158.382 209.282V203.606H162.232V201.912H158.382V199.14H156.49V201.912H154.4V203.606H156.49V209.282ZM170.074 207.456C170.074 210.69 172.296 213.44 175.772 213.44C177.422 213.44 178.72 212.802 179.71 211.68V213H181.58V196.5H179.71V203.232C178.72 202.11 177.422 201.472 175.772 201.472C172.296 201.472 170.074 204.222 170.074 207.456ZM172.054 207.456C172.054 205.102 173.638 203.232 175.992 203.232C177.51 203.232 178.852 203.958 179.71 205.278V209.634C178.896 210.932 177.532 211.68 175.992 211.68C173.638 211.68 172.054 209.81 172.054 207.456ZM195.378 211.174L193.992 210.096C193.266 211.086 192.056 211.746 190.626 211.746C188.25 211.746 186.556 210.14 186.49 207.478H195.004C195.07 207.17 195.136 206.752 195.136 206.312C195.136 203.584 193.178 201.472 190.164 201.472C186.732 201.472 184.576 204.09 184.576 207.456C184.576 210.69 186.886 213.44 190.626 213.44C192.694 213.44 194.344 212.56 195.378 211.174ZM190.12 203.056C192.078 203.056 193.2 204.42 193.266 206.048H186.622C187.018 204.134 188.294 203.056 190.12 203.056ZM204.873 209.282C204.873 211.988 206.259 213.22 208.723 213.22C209.515 213.22 210.109 213.132 210.637 212.912V211.24C210.219 211.416 209.713 211.504 208.987 211.504C207.645 211.504 206.765 211.02 206.765 209.282V203.606H210.615V201.912H206.765V199.14H204.873V201.912H202.783V203.606H204.873V209.282ZM216.487 213.308C217.917 213.308 219.369 212.67 220.205 211.592V213H222.075V205.564C222.075 203.122 220.403 201.472 217.587 201.472C215.651 201.472 214.089 202.286 213.121 203.606L214.529 204.684C215.211 203.738 216.245 203.144 217.521 203.144C219.105 203.144 220.205 204.024 220.205 205.564V206.334L216.465 206.95C214.111 207.346 212.835 208.534 212.835 210.206C212.835 212.098 214.309 213.308 216.487 213.308ZM214.727 210.14C214.727 209.194 215.409 208.512 216.927 208.248L220.205 207.698V209.876C219.479 211.064 218.269 211.768 216.795 211.768C215.497 211.768 214.727 211.086 214.727 210.14ZM226.531 213L229.699 208.512L232.867 213H235.001L230.909 207.258L234.715 201.912H232.559L229.677 206.004L226.795 201.912H224.661L228.445 207.258L224.353 213H226.531ZM238.439 199.03C239.165 199.03 239.737 198.436 239.737 197.71C239.737 197.006 239.165 196.412 238.439 196.412C237.713 196.412 237.119 197.006 237.119 197.71C237.119 198.436 237.713 199.03 238.439 199.03ZM237.493 213H239.363V201.912H237.493V213ZM242.041 211.482C243.053 212.736 244.439 213.44 246.199 213.44C248.267 213.44 249.917 212.142 249.939 210.074C249.939 206.29 244.373 207.082 244.373 204.596C244.373 203.738 245.011 203.034 246.199 203.034C247.167 203.034 248.003 203.562 248.597 204.398L249.895 203.298C249.125 202.22 247.761 201.472 246.177 201.472C244.043 201.472 242.569 202.902 242.569 204.64C242.569 208.556 248.113 207.676 248.113 210.162C248.113 211.13 247.409 211.878 246.177 211.878C245.055 211.878 244.131 211.328 243.361 210.36L242.041 211.482Z" fill="#000091"/>
<path d="M93.304 439H95.504L97.286 434.468H104.37L106.152 439H108.352L102.214 423.6H99.442L93.304 439ZM97.968 432.686L100.828 425.404L103.688 432.686H97.968ZM111.297 439H113.167V431.388C113.849 430.266 114.795 429.518 116.247 429.518C116.687 429.518 117.017 429.562 117.347 429.65V427.824C117.083 427.736 116.753 427.692 116.401 427.692C114.993 427.692 113.981 428.33 113.167 429.298V427.912H111.297V439ZM121.195 435.282C121.195 437.988 122.581 439.22 125.045 439.22C125.837 439.22 126.431 439.132 126.959 438.912V437.24C126.541 437.416 126.035 437.504 125.309 437.504C123.967 437.504 123.087 437.02 123.087 435.282V429.606H126.937V427.912H123.087V425.14H121.195V427.912H119.105V429.606H121.195V435.282ZM130.741 425.03C131.467 425.03 132.039 424.436 132.039 423.71C132.039 423.006 131.467 422.412 130.741 422.412C130.015 422.412 129.421 423.006 129.421 423.71C129.421 424.436 130.015 425.03 130.741 425.03ZM129.795 439H131.665V427.912H129.795V439ZM134.344 437.482C135.356 438.736 136.742 439.44 138.502 439.44C140.57 439.44 142.22 438.142 142.242 436.074C142.242 432.29 136.676 433.082 136.676 430.596C136.676 429.738 137.314 429.034 138.502 429.034C139.47 429.034 140.306 429.562 140.9 430.398L142.198 429.298C141.428 428.22 140.064 427.472 138.48 427.472C136.346 427.472 134.872 428.902 134.872 430.64C134.872 434.556 140.416 433.676 140.416 436.162C140.416 437.13 139.712 437.878 138.48 437.878C137.358 437.878 136.434 437.328 135.664 436.36L134.344 437.482ZM148.257 439.308C149.687 439.308 151.139 438.67 151.975 437.592V439H153.845V431.564C153.845 429.122 152.173 427.472 149.357 427.472C147.421 427.472 145.859 428.286 144.891 429.606L146.299 430.684C146.981 429.738 148.015 429.144 149.291 429.144C150.875 429.144 151.975 430.024 151.975 431.564V432.334L148.235 432.95C145.881 433.346 144.605 434.534 144.605 436.206C144.605 438.098 146.079 439.308 148.257 439.308ZM146.497 436.14C146.497 435.194 147.179 434.512 148.697 434.248L151.975 433.698V435.876C151.249 437.064 150.039 437.768 148.565 437.768C147.267 437.768 146.497 437.086 146.497 436.14ZM157.596 439H159.466V431.322C160.17 430.156 161.182 429.232 162.788 429.232C164.504 429.232 165.626 430.376 165.626 432.356V439H167.496V432.29C167.496 429.144 165.648 427.472 163.162 427.472C161.512 427.472 160.368 428.176 159.466 429.166V427.912H157.596V439ZM177.828 435.282C177.828 437.988 179.214 439.22 181.678 439.22C182.47 439.22 183.064 439.132 183.592 438.912V437.24C183.174 437.416 182.668 437.504 181.942 437.504C180.6 437.504 179.72 437.02 179.72 435.282V429.606H183.57V427.912H179.72V425.14H177.828V427.912H175.738V429.606H177.828V435.282ZM189.442 439.308C190.872 439.308 192.324 438.67 193.16 437.592V439H195.03V431.564C195.03 429.122 193.358 427.472 190.542 427.472C188.606 427.472 187.044 428.286 186.076 429.606L187.484 430.684C188.166 429.738 189.2 429.144 190.476 429.144C192.06 429.144 193.16 430.024 193.16 431.564V432.334L189.42 432.95C187.066 433.346 185.79 434.534 185.79 436.206C185.79 438.098 187.264 439.308 189.442 439.308ZM187.682 436.14C187.682 435.194 188.364 434.512 189.882 434.248L193.16 433.698V435.876C192.434 437.064 191.224 437.768 189.75 437.768C188.452 437.768 187.682 437.086 187.682 436.14ZM199.486 439L202.654 434.512L205.822 439H207.956L203.864 433.258L207.67 427.912H205.514L202.632 432.004L199.75 427.912H197.616L201.4 433.258L197.308 439H199.486ZM211.394 425.03C212.12 425.03 212.692 424.436 212.692 423.71C212.692 423.006 212.12 422.412 211.394 422.412C210.668 422.412 210.074 423.006 210.074 423.71C210.074 424.436 210.668 425.03 211.394 425.03ZM210.448 439H212.318V427.912H210.448V439Z" fill="#000091"/>
<path d="M1222 416H1224.2L1225.99 411.468H1233.07L1234.85 416H1237.05L1230.91 400.6H1228.14L1222 416ZM1226.67 409.686L1229.53 402.404L1232.39 409.686H1226.67ZM1240 421.412H1241.87V414.68C1242.86 415.802 1244.16 416.44 1245.81 416.44C1249.28 416.44 1251.5 413.69 1251.5 410.456C1251.5 407.222 1249.28 404.472 1245.81 404.472C1244.16 404.472 1242.86 405.11 1241.87 406.232V404.912H1240V421.412ZM1245.59 406.232C1247.94 406.232 1249.55 408.102 1249.55 410.456C1249.55 412.81 1247.94 414.68 1245.59 414.68C1244.07 414.68 1242.73 413.954 1241.87 412.612V408.3C1242.7 406.98 1244.05 406.232 1245.59 406.232ZM1254.52 421.412H1256.39V414.68C1257.38 415.802 1258.68 416.44 1260.33 416.44C1263.81 416.44 1266.03 413.69 1266.03 410.456C1266.03 407.222 1263.81 404.472 1260.33 404.472C1258.68 404.472 1257.38 405.11 1256.39 406.232V404.912H1254.52V421.412ZM1260.11 406.232C1262.46 406.232 1264.07 408.102 1264.07 410.456C1264.07 412.81 1262.46 414.68 1260.11 414.68C1258.59 414.68 1257.25 413.954 1256.39 412.612V408.3C1257.23 406.98 1258.57 406.232 1260.11 406.232ZM1269.04 416H1270.91V399.5H1269.04V416ZM1275.81 402.03C1276.54 402.03 1277.11 401.436 1277.11 400.71C1277.11 400.006 1276.54 399.412 1275.81 399.412C1275.09 399.412 1274.49 400.006 1274.49 400.71C1274.49 401.436 1275.09 402.03 1275.81 402.03ZM1274.87 416H1276.74V404.912H1274.87V416ZM1285.79 414.68C1283.39 414.68 1281.7 412.832 1281.7 410.456C1281.7 408.102 1283.39 406.232 1285.77 406.232C1287.16 406.232 1288.28 406.892 1288.96 407.86L1290.43 406.738C1289.4 405.374 1287.77 404.472 1285.77 404.472C1282.1 404.472 1279.74 407.222 1279.74 410.456C1279.74 413.69 1282.1 416.44 1285.77 416.44C1287.79 416.44 1289.4 415.56 1290.43 414.174L1288.96 413.052C1288.28 414.02 1287.16 414.68 1285.79 414.68ZM1295.86 416.308C1297.29 416.308 1298.75 415.67 1299.58 414.592V416H1301.45V408.564C1301.45 406.122 1299.78 404.472 1296.96 404.472C1295.03 404.472 1293.47 405.286 1292.5 406.606L1293.91 407.684C1294.59 406.738 1295.62 406.144 1296.9 406.144C1298.48 406.144 1299.58 407.024 1299.58 408.564V409.334L1295.84 409.95C1293.49 410.346 1292.21 411.534 1292.21 413.206C1292.21 415.098 1293.69 416.308 1295.86 416.308ZM1294.1 413.14C1294.1 412.194 1294.79 411.512 1296.3 411.248L1299.58 410.698V412.876C1298.86 414.064 1297.65 414.768 1296.17 414.768C1294.87 414.768 1294.1 414.086 1294.1 413.14ZM1305.84 412.282C1305.84 414.988 1307.23 416.22 1309.69 416.22C1310.48 416.22 1311.08 416.132 1311.6 415.912V414.24C1311.19 414.416 1310.68 414.504 1309.95 414.504C1308.61 414.504 1307.73 414.02 1307.73 412.282V406.606H1311.58V404.912H1307.73V402.14H1305.84V404.912H1303.75V406.606H1305.84V412.282ZM1315.39 402.03C1316.11 402.03 1316.68 401.436 1316.68 400.71C1316.68 400.006 1316.11 399.412 1315.39 399.412C1314.66 399.412 1314.07 400.006 1314.07 400.71C1314.07 401.436 1314.66 402.03 1315.39 402.03ZM1314.44 416H1316.31V404.912H1314.44V416ZM1325.32 404.472C1321.74 404.472 1319.32 407.222 1319.32 410.456C1319.32 413.69 1321.74 416.44 1325.32 416.44C1328.89 416.44 1331.33 413.69 1331.33 410.456C1331.33 407.222 1328.89 404.472 1325.32 404.472ZM1325.35 414.68C1322.97 414.68 1321.28 412.766 1321.28 410.456C1321.28 408.146 1322.97 406.232 1325.35 406.232C1327.66 406.232 1329.35 408.146 1329.35 410.456C1329.35 412.744 1327.66 414.68 1325.35 414.68ZM1334.34 416H1336.21V408.322C1336.91 407.156 1337.92 406.232 1339.53 406.232C1341.24 406.232 1342.37 407.376 1342.37 409.356V416H1344.24V409.29C1344.24 406.144 1342.39 404.472 1339.9 404.472C1338.25 404.472 1337.11 405.176 1336.21 406.166V404.912H1334.34V416ZM1359.03 414.68C1356.64 414.68 1354.94 412.832 1354.94 410.456C1354.94 408.102 1356.64 406.232 1359.01 406.232C1360.4 406.232 1361.52 406.892 1362.2 407.86L1363.68 406.738C1362.64 405.374 1361.01 404.472 1359.01 404.472C1355.34 404.472 1352.98 407.222 1352.98 410.456C1352.98 413.69 1355.34 416.44 1359.01 416.44C1361.04 416.44 1362.64 415.56 1363.68 414.174L1362.2 413.052C1361.52 414.02 1360.4 414.68 1359.03 414.68ZM1366.24 416H1368.11V399.5H1366.24V416ZM1373.01 402.03C1373.73 402.03 1374.31 401.436 1374.31 400.71C1374.31 400.006 1373.73 399.412 1373.01 399.412C1372.28 399.412 1371.69 400.006 1371.69 400.71C1371.69 401.436 1372.28 402.03 1373.01 402.03ZM1372.06 416H1373.93V404.912H1372.06V416ZM1387.74 414.174L1386.35 413.096C1385.63 414.086 1384.42 414.746 1382.99 414.746C1380.61 414.746 1378.92 413.14 1378.85 410.478H1387.37C1387.43 410.17 1387.5 409.752 1387.5 409.312C1387.5 406.584 1385.54 404.472 1382.53 404.472C1379.09 404.472 1376.94 407.09 1376.94 410.456C1376.94 413.69 1379.25 416.44 1382.99 416.44C1385.06 416.44 1386.71 415.56 1387.74 414.174ZM1382.48 406.056C1384.44 406.056 1385.56 407.42 1385.63 409.048H1378.98C1379.38 407.134 1380.66 406.056 1382.48 406.056ZM1390.67 416H1392.54V408.322C1393.24 407.156 1394.25 406.232 1395.86 406.232C1397.58 406.232 1398.7 407.376 1398.7 409.356V416H1400.57V409.29C1400.57 406.144 1398.72 404.472 1396.23 404.472C1394.58 404.472 1393.44 405.176 1392.54 406.166V404.912H1390.67V416ZM1404.97 412.282C1404.97 414.988 1406.36 416.22 1408.82 416.22C1409.61 416.22 1410.21 416.132 1410.73 415.912V414.24C1410.32 414.416 1409.81 414.504 1409.08 414.504C1407.74 414.504 1406.86 414.02 1406.86 412.282V406.606H1410.71V404.912H1406.86V402.14H1404.97V404.912H1402.88V406.606H1404.97V412.282Z" fill="#000091"/>
<defs>
<linearGradient id="paint0_linear_2477_22526" x1="145.608" y1="308.74" x2="150.038" y2="308.74" gradientUnits="userSpaceOnUse">
<stop offset="0.08" stop-color="#3FE946"/>
<stop offset="0.14" stop-color="#43E94A"/>
<stop offset="0.2" stop-color="#4EEB54"/>
<stop offset="0.26" stop-color="#61ED66"/>
<stop offset="0.32" stop-color="#7BF080"/>
<stop offset="0.38" stop-color="#9DF4A0"/>
<stop offset="0.44" stop-color="#C6F9C8"/>
<stop offset="0.49" stop-color="#F7FEF7"/>
<stop offset="0.5" stop-color="white"/>
<stop offset="0.53" stop-color="#E4FCE5"/>
<stop offset="0.59" stop-color="#B6F7B9"/>
<stop offset="0.65" stop-color="#8EF292"/>
<stop offset="0.71" stop-color="#6DEE73"/>
<stop offset="0.78" stop-color="#54EC5B"/>
<stop offset="0.84" stop-color="#42EA4A"/>
<stop offset="0.91" stop-color="#37E83F"/>
<stop offset="0.99" stop-color="#34E83C"/>
</linearGradient>
<linearGradient id="paint1_linear_2477_22526" x1="1354.74" y1="85.4386" x2="1356.02" y2="85.4386" gradientUnits="userSpaceOnUse">
<stop offset="0.08" stop-color="#3FE946"/>
<stop offset="0.14" stop-color="#43E94A"/>
<stop offset="0.2" stop-color="#4EEB54"/>
<stop offset="0.26" stop-color="#61ED66"/>
<stop offset="0.32" stop-color="#7BF080"/>
<stop offset="0.38" stop-color="#9DF4A0"/>
<stop offset="0.44" stop-color="#C6F9C8"/>
<stop offset="0.49" stop-color="#F7FEF7"/>
<stop offset="0.5" stop-color="white"/>
<stop offset="0.53" stop-color="#E4FCE5"/>
<stop offset="0.59" stop-color="#B6F7B9"/>
<stop offset="0.65" stop-color="#8EF292"/>
<stop offset="0.71" stop-color="#6DEE73"/>
<stop offset="0.78" stop-color="#54EC5B"/>
<stop offset="0.84" stop-color="#42EA4A"/>
<stop offset="0.91" stop-color="#37E83F"/>
<stop offset="0.99" stop-color="#34E83C"/>
</linearGradient>
<linearGradient id="paint2_linear_2477_22526" x1="1263.74" y1="248.439" x2="1265.02" y2="248.439" gradientUnits="userSpaceOnUse">
<stop offset="0.08" stop-color="#3FE946"/>
<stop offset="0.14" stop-color="#43E94A"/>
<stop offset="0.2" stop-color="#4EEB54"/>
<stop offset="0.26" stop-color="#61ED66"/>
<stop offset="0.32" stop-color="#7BF080"/>
<stop offset="0.38" stop-color="#9DF4A0"/>
<stop offset="0.44" stop-color="#C6F9C8"/>
<stop offset="0.49" stop-color="#F7FEF7"/>
<stop offset="0.5" stop-color="white"/>
<stop offset="0.53" stop-color="#E4FCE5"/>
<stop offset="0.59" stop-color="#B6F7B9"/>
<stop offset="0.65" stop-color="#8EF292"/>
<stop offset="0.71" stop-color="#6DEE73"/>
<stop offset="0.78" stop-color="#54EC5B"/>
<stop offset="0.84" stop-color="#42EA4A"/>
<stop offset="0.91" stop-color="#37E83F"/>
<stop offset="0.99" stop-color="#34E83C"/>
</linearGradient>
<linearGradient id="paint3_linear_2477_22526" x1="514.326" y1="36.492" x2="527.794" y2="36.492" gradientUnits="userSpaceOnUse">
<stop offset="0.08" stop-color="#3FE946"/>
<stop offset="0.14" stop-color="#43E94A"/>
<stop offset="0.2" stop-color="#4EEB54"/>
<stop offset="0.26" stop-color="#61ED66"/>
<stop offset="0.32" stop-color="#7BF080"/>
<stop offset="0.38" stop-color="#9DF4A0"/>
<stop offset="0.44" stop-color="#C6F9C8"/>
<stop offset="0.49" stop-color="#F7FEF7"/>
<stop offset="0.5" stop-color="white"/>
<stop offset="0.53" stop-color="#E4FCE5"/>
<stop offset="0.59" stop-color="#B6F7B9"/>
<stop offset="0.65" stop-color="#8EF292"/>
<stop offset="0.71" stop-color="#6DEE73"/>
<stop offset="0.78" stop-color="#54EC5B"/>
<stop offset="0.84" stop-color="#42EA4A"/>
<stop offset="0.91" stop-color="#37E83F"/>
<stop offset="0.99" stop-color="#34E83C"/>
</linearGradient>
<linearGradient id="paint4_linear_2477_22526" x1="949.453" y1="470.415" x2="969.078" y2="470.415" gradientUnits="userSpaceOnUse">
<stop offset="0.08" stop-color="#3FE946"/>
<stop offset="0.14" stop-color="#43E94A"/>
<stop offset="0.2" stop-color="#4EEB54"/>
<stop offset="0.26" stop-color="#61ED66"/>
<stop offset="0.32" stop-color="#7BF080"/>
<stop offset="0.38" stop-color="#9DF4A0"/>
<stop offset="0.44" stop-color="#C6F9C8"/>
<stop offset="0.49" stop-color="#F7FEF7"/>
<stop offset="0.5" stop-color="white"/>
<stop offset="0.53" stop-color="#E4FCE5"/>
<stop offset="0.59" stop-color="#B6F7B9"/>
<stop offset="0.65" stop-color="#8EF292"/>
<stop offset="0.71" stop-color="#6DEE73"/>
<stop offset="0.78" stop-color="#54EC5B"/>
<stop offset="0.84" stop-color="#42EA4A"/>
<stop offset="0.91" stop-color="#37E83F"/>
<stop offset="0.99" stop-color="#34E83C"/>
</linearGradient>
<linearGradient id="paint5_linear_2477_22526" x1="784.071" y1="86.886" x2="791.524" y2="86.886" gradientUnits="userSpaceOnUse">
<stop offset="0.08" stop-color="#3FE946"/>
<stop offset="0.14" stop-color="#43E94A"/>
<stop offset="0.2" stop-color="#4EEB54"/>
<stop offset="0.26" stop-color="#61ED66"/>
<stop offset="0.32" stop-color="#7BF080"/>
<stop offset="0.38" stop-color="#9DF4A0"/>
<stop offset="0.44" stop-color="#C6F9C8"/>
<stop offset="0.49" stop-color="#F7FEF7"/>
<stop offset="0.5" stop-color="white"/>
<stop offset="0.53" stop-color="#E4FCE5"/>
<stop offset="0.59" stop-color="#B6F7B9"/>
<stop offset="0.65" stop-color="#8EF292"/>
<stop offset="0.71" stop-color="#6DEE73"/>
<stop offset="0.78" stop-color="#54EC5B"/>
<stop offset="0.84" stop-color="#42EA4A"/>
<stop offset="0.91" stop-color="#37E83F"/>
<stop offset="0.99" stop-color="#34E83C"/>
</linearGradient>
</defs>
</svg>
