<?xml version="1.0" encoding="UTF-8" standalone="no"?>
<svg
   width="553.00012"
   height="507"
   viewBox="0 0 553.00012 507"
   fill="none"
   version="1.1"
   id="svg8"
   sodipodi:docname="illustration-home.svg"
   inkscape:version="1.3 (0e150ed6c4, 2023-07-21)"
   xmlns:inkscape="http://www.inkscape.org/namespaces/inkscape"
   xmlns:sodipodi="http://sodipodi.sourceforge.net/DTD/sodipodi-0.dtd"
   xmlns="http://www.w3.org/2000/svg"
   xmlns:svg="http://www.w3.org/2000/svg">
  <defs
     id="defs8" />
  <sodipodi:namedview
     id="namedview8"
     pagecolor="#ffffff"
     bordercolor="#000000"
     borderopacity="0.25"
     inkscape:showpageshadow="2"
     inkscape:pageopacity="0.0"
     inkscape:pagecheckerboard="0"
     inkscape:deskcolor="#d1d1d1"
     inkscape:zoom="1"
     inkscape:cx="123.5"
     inkscape:cy="161.5"
     inkscape:window-width="1920"
     inkscape:window-height="1011"
     inkscape:window-x="0"
     inkscape:window-y="0"
     inkscape:window-maximized="1"
     inkscape:current-layer="svg8"
     showguides="true" />
  <g
     opacity="0.3"
     id="g8"
     transform="translate(-4.500595e-6,172)">
    <path
       d="m 549.793,165.648 c -13.251,71.573 -73.753,108.109 -166.631,164.143 -3.916,2.333 -9.792,3.374 -13.042,5.166 -0.791,-0.792 -0.625,-0.5 -0.916,0 h -40.877 c -11.708,-16.414 -13.75,-39.703 -14.042,-59.242 -0.292,-17.622 1.5,-35.453 5.792,-52.534 1.917,-7.707 4.417,-15.372 7.75,-22.621 2.75,-5.958 6.792,-16.331 13.376,-18.539 2.416,-0.792 5,-0.75 7.542,-0.917 9.083,-0.666 12.208,-3.874 21.334,-4.416 7.375,-0.458 20.209,0.542 27.625,-0.75 28.501,-4.832 57.544,-23.746 55.961,-38.286 -0.667,-6.082 -6.501,-10.04 -9.751,-12.165 C 377.12,81.4521 341.494,65.496 338.119,43.4159 335.661,27.2516 350.87,10.5457 363.87,3.88001 c 13,-6.62404 28.168,-5.37422 63.627,8.49879 63.502,24.913 95.253,37.3279 112.504,68.6983 19.042,34.5779 12.25,71.3229 9.792,84.5709 z"
       fill="#f1f1f1"
       id="path1" />
    <path
       d="M 370.12,176.731 V 335 H 0.108398 c 0,-28.704 17.833902,-55.617 49.084902,-78.822 9.042,-6.666 18.5006,-12.707 28.3343,-18.081 27.5424,-15.206 61.4184,-28.204 99.9194,-38.244 2.626,-0.708 5.334,-1.375 8.001,-2.042 5.708,-1.416 11.542,-2.749 17.417,-4.041 1.458,-0.333 2.917,-0.625 4.375,-0.958 8.209,-1.75 16.584,-3.333 25.126,-4.791 0.167,-0.042 0.333,-0.042 0.5,-0.083 2,-0.333 4.042,-0.667 6.042,-1 33.709,-5.458 69.794,-8.915 107.378,-9.915 7.501,-0.209 15.042,-0.334 22.626,-0.334 h 1.208 z"
       fill="#f1f1f1"
       id="path2" />
    <path
       d="m 122.696,274.214 c 15.75,-11.706 35.959,-22.205 59.585,-31.078 2.625,-1 5.292,-1.958 8,-2.875 0.375,-0.125 0.75,-0.25 1.125,-0.417 3.459,-1.166 6.959,-2.333 10.542,-3.457 6.042,-1.875 12.293,-3.667 18.668,-5.375 4.583,-1.208 9.25,-2.374 14,-3.457 1.542,-0.375 3.042,-0.709 4.584,-1.042 3.5,-0.792 7.042,-1.5 10.583,-2.25 36.543,-7.29 77.295,-11.331 120.296,-11.331 V 334.997 H 84.8613 c 0,-22.122 13.7505,-42.869 37.8347,-60.783 z"
       fill="#6c63ff"
       id="path3" />
    <path
       d="m 115.195,328.662 0.709,0.334 c 2.375,-4.958 5.333,-9.666 8.708,-13.957 l -0.625,-0.5 c -3.417,4.375 -6.333,9.082 -8.792,14.123 z m 20.084,-26.371 0.542,0.583 c 3.833,-3.541 7.834,-6.915 12.042,-9.998 0.25,-0.167 0.458,-0.333 0.708,-0.542 l -0.458,-0.625 c -0.25,0.167 -0.458,0.334 -0.708,0.542 -4.209,3.124 -8.251,6.457 -12.126,10.04 z m 26.709,-19.789 0.417,0.667 c 4.542,-2.75 9.417,-5.458 14.501,-7.999 l -0.375,-0.708 c -5.084,2.583 -10.001,5.291 -14.543,8.04 z m 29.585,-15.122 0.291,0.708 c 4.917,-2.125 10.084,-4.25 15.376,-6.208 l -0.292,-0.708 c -5.292,1.958 -10.458,4.041 -15.375,6.208 z m 31.084,-11.707 0.25,0.75 c 1.375,-0.458 2.75,-0.875 4.167,-1.333 3.833,-1.209 7.75,-2.375 11.709,-3.458 l -0.209,-0.75 c -3.958,1.125 -7.917,2.291 -11.75,3.458 -1.417,0.458 -2.792,0.875 -4.167,1.333 z m 36.835,-10.165 c -1.625,0.375 -3.292,0.75 -4.875,1.166 l 0.166,0.75 c 1.625,-0.375 3.25,-0.791 4.875,-1.166 1.542,-0.375 3.084,-0.709 4.584,-1.042 2.208,-0.5 4.5,-1 6.708,-1.458 l -0.166,-0.75 c -2.25,0.458 -4.5,0.958 -6.751,1.458 -1.416,0.333 -2.958,0.708 -4.541,1.042 z m 27.667,-5.583 0.125,0.75 c 5.375,-0.958 10.876,-1.833 16.376,-2.625 l -0.125,-0.791 c -5.5,0.833 -11.001,1.75 -16.376,2.666 z m 32.876,-4.749 0.084,0.791 c 5.416,-0.624 11,-1.208 16.5,-1.708 l -0.083,-0.791 c -5.5,0.5 -11.084,1.083 -16.501,1.708 z m 33.085,-2.958 0.041,0.792 c 5.459,-0.334 11.042,-0.625 16.584,-0.834 l -0.041,-0.791 c -5.542,0.208 -11.126,0.5 -16.584,0.833 z"
       fill="#ffffff"
       id="path4" />
    <path
       d="m 197.281,292.463 c 34.793,-25.622 100.045,-42.869 174.839,-42.869 v 85.404 H 170.531 c 0,-15.498 9.75,-29.996 26.75,-42.535 z"
       fill="#f1f1f1"
       id="path5" />
    <path
       opacity="0.2"
       d="m 49.1517,256.174 73.5023,18.039 74.294,18.247 173.172,42.536 H 0.108398 c 0,-28.704 17.833902,-55.617 49.043302,-78.822 z"
       fill="#000000"
       id="path6" />
    <path
       d="m 301.076,216.553 c 0,0 117.213,-10.831 146.13,-21.371 28.918,-10.541 44.252,-53.909 33.835,-81.572 C 455.956,54.077 357.078,28.7057 357.078,28.7057 l 6.334,-4.8327 c 0,0 135.546,8.9154 159.38,88.487 29.043,136.564 -135.254,135.897 -153.047,137.272 -17.792,1.375 -66.085,5.041 -66.085,5.041 z"
       fill="#6c63ff"
       id="path7" />
    <path
       d="m 311.285,237.303 c 0,0 122.296,-14.04 152.796,-25.747 30.501,-11.748 46.627,-60.074 35.627,-90.903 C 473.248,54.2876 369.078,26 369.078,26"
       stroke="#ffffff"
       stroke-width="2"
       stroke-miterlimit="10"
       stroke-dasharray="32, 32"
       id="path8" />
  </g>
  <g
     id="g9"
     transform="matrix(-0.90554175,0,0,0.90554175,333.06085,225.13113)">
    <path
       d="m 188.949,158.54298 -0.344,0.998 81.273,30.32 0.345,-0.997 z"
       fill="#3f3d56"
       id="path13" />
    <path
       d="m 214.515,162.95498 1.234,2.491 c 0.011,0.023 0.013,0.05 0.005,0.074 -0.007,0.025 -0.024,0.045 -0.046,0.057 l -0.059,0.032 6.428,12.976 c 0.178,0.359 0.212,0.777 0.093,1.162 -0.119,0.384 -0.379,0.704 -0.725,0.889 l -7.805,4.173 c -0.172,0.092 -0.358,0.147 -0.55,0.164 -0.192,0.016 -0.385,-0.007 -0.568,-0.068 -0.184,-0.061 -0.354,-0.159 -0.5,-0.288 -0.147,-0.129 -0.268,-0.287 -0.356,-0.465 v 0 l -6.204,-12.521 -0.043,0.023 c -0.015,0.008 -0.034,0.01 -0.05,0.004 -0.017,-0.005 -0.031,-0.018 -0.039,-0.034 l -0.703,-1.418 c -0.004,-0.008 -0.006,-0.016 -0.007,-0.025 0,-0.009 0.001,-0.019 0.003,-0.027 0.003,-0.009 0.007,-0.017 0.013,-0.024 0.005,-0.007 0.012,-0.012 0.02,-0.017 l 0.043,-0.023 -0.264,-0.534 -0.044,0.024 c -0.016,0.008 -0.035,0.01 -0.053,0.004 -0.017,-0.006 -0.032,-0.019 -0.04,-0.036 l -0.693,-1.398 c -0.009,-0.017 -0.01,-0.037 -0.005,-0.055 0.006,-0.018 0.018,-0.033 0.035,-0.042 l 0.043,-0.023 -0.361,-0.729 -0.044,0.023 c -0.015,0.008 -0.032,0.009 -0.047,0.004 -0.016,-0.005 -0.029,-0.016 -0.036,-0.031 v 0 l -0.378,-0.763 c -0.008,-0.016 -0.009,-0.033 -0.004,-0.049 0.005,-0.017 0.016,-0.03 0.03,-0.038 l 0.044,-0.024 -0.765,-1.545 c -0.178,-0.359 -0.211,-0.776 -0.093,-1.161 0.119,-0.384 0.38,-0.704 0.725,-0.889 l 7.806,-4.173 c 0.345,-0.185 0.747,-0.219 1.118,-0.096 0.37,0.123 0.678,0.394 0.856,0.753 l 1.799,3.632 0.06,-0.031 c 0.022,-0.012 0.048,-0.014 0.072,-0.007 0.023,0.008 0.043,0.026 0.055,0.049 z"
       fill="#3f3d56"
       id="path18" />
    <path
       d="m 212.036,159.90898 9.472,19.118 c 0.113,0.228 0.134,0.493 0.058,0.737 -0.075,0.244 -0.24,0.446 -0.46,0.564 l -7.471,3.994 c -0.219,0.118 -0.474,0.14 -0.708,0.062 -0.235,-0.077 -0.43,-0.249 -0.543,-0.476 l -0.002,-0.002 -9.471,-19.118 c -0.056,-0.113 -0.09,-0.236 -0.1,-0.363 -0.01,-0.126 0.004,-0.253 0.041,-0.374 0.037,-0.121 0.097,-0.233 0.176,-0.33 0.079,-0.097 0.175,-0.176 0.284,-0.235 v 0 l 1.118,-0.597 0.074,0.149 c 0.046,0.093 0.109,0.175 0.186,0.243 0.077,0.067 0.166,0.118 0.261,0.15 0.096,0.032 0.197,0.044 0.297,0.035 0.1,-0.008 0.198,-0.037 0.287,-0.085 l 3.8,-2.032 c 0.181,-0.096 0.317,-0.263 0.379,-0.464 0.062,-0.201 0.045,-0.419 -0.048,-0.607 l -0.074,-0.149 1.192,-0.637 c 0.219,-0.117 0.474,-0.139 0.709,-0.061 0.235,0.078 0.43,0.25 0.543,0.477 z"
       fill="#000091"
       id="path19" />
    <path
       d="m 312.613,274.15998 c 0.469,-0.887 1.022,-1.71 1.647,-2.454 0.258,-0.312 0.53,-0.607 0.811,-0.893 1.706,-1.775 3.785,-2.987 6.024,-3.51 2.239,-0.524 4.558,-0.342 6.716,0.529 2.159,0.87 4.081,2.397 5.567,4.423 1.487,2.026 2.485,4.479 2.892,7.105 1.884,-8.144 -3.021,-16.166 -7.952,-22.329 -4.934,-6.16 -10.573,-12.917 -10.545,-21.358 0.014,-4.697 1.98,-8.887 4.947,-11.993 0.092,-0.094 0.184,-0.188 0.277,-0.279 3.587,-3.594 8.202,-5.474 12.924,-5.264 8.771,0.549 16.429,7.439 21.748,15.612 8.561,13.151 12.313,31.61 6.319,46.58 -5.271,13.166 -16.515,20.984 -27.989,27.27 -1.603,0.877 -3.202,1.729 -4.798,2.554 -0.01,0.003 -0.022,0.012 -0.032,0.015 -0.077,0.04 -0.154,0.079 -0.226,0.12 -0.329,0.169 -0.659,0.339 -0.985,0.507 l 0.151,0.116 0.472,0.357 c -0.164,-0.116 -0.326,-0.228 -0.489,-0.344 -0.049,-0.035 -0.1,-0.068 -0.149,-0.103 -5.635,-3.953 -11.35,-8.134 -15.243,-14.304 -4.038,-6.407 -5.661,-15.584 -2.087,-22.357 z"
       fill="#f1f1f1"
       id="path20" />
    <path
       d="m 350.213,259.28398 c 1.248,3.319 2.075,6.832 2.456,10.429 0.299,3.208 0.187,6.449 -0.334,9.618 -1.119,6.512 -3.56,12.614 -7.117,17.794 -2.683,3.932 -5.781,7.452 -9.22,10.476 -1.602,0.878 -3.201,1.73 -4.797,2.555 -0.011,0.003 -0.022,0.012 -0.033,0.015 -0.077,0.039 -0.153,0.079 -0.225,0.119 -0.33,0.17 -0.659,0.34 -0.986,0.508 l 0.151,0.115 0.472,0.358 c -0.163,-0.116 -0.325,-0.229 -0.489,-0.344 -0.048,-0.035 -0.1,-0.068 -0.148,-0.104 1.24,-5.07 1.422,-10.414 0.531,-15.584 -0.89,-5.17 -2.829,-10.015 -5.651,-14.13 -2.838,-4.062 -6.458,-7.283 -10.563,-9.4 0.258,-0.312 0.53,-0.607 0.81,-0.894 1.581,0.849 3.096,1.86 4.525,3.02 5.111,4.129 8.949,10.072 10.945,16.948 1.783,6.239 2.006,12.943 0.642,19.324 0.283,-0.216 0.567,-0.438 0.843,-0.658 5.25,-4.139 10.089,-9.109 13.734,-15.203 3.143,-5.151 5.155,-11.126 5.857,-17.4 0.699,-6.853 -0.768,-13.592 -3.386,-19.706 -2.89,-6.542 -6.533,-12.591 -10.826,-17.98 -4.312,-5.537 -9.187,-10.436 -14.517,-14.589 -0.12,-0.095 -0.204,-0.24 -0.235,-0.405 -0.032,-0.165 -0.007,-0.338 0.068,-0.483 0.057,-0.132 0.156,-0.232 0.276,-0.279 0.061,-0.018 0.125,-0.02 0.187,-0.006 0.061,0.015 0.119,0.046 0.17,0.09 0.658,0.513 1.31,1.031 1.954,1.564 5.368,4.442 10.243,9.647 14.513,15.494 4.126,5.636 7.88,11.898 10.393,18.738 z"
       fill="#ffffff"
       id="path21" />
    <path
       d="m 337.19,129.41298 c 2.759,0 4.995,-2.614 4.995,-5.838 0,-3.225 -2.236,-5.839 -4.995,-5.839 -2.759,0 -4.995,2.614 -4.995,5.839 0,3.224 2.236,5.838 4.995,5.838 z"
       fill="#f1f1f1"
       id="path22" />
    <path
       d="m 190.995,145.42898 c 2.759,0 4.995,-2.614 4.995,-5.839 0,-3.224 -2.236,-5.838 -4.995,-5.838 -2.759,0 -4.995,2.614 -4.995,5.838 0,3.225 2.236,5.839 4.995,5.839 z"
       fill="#f1f1f1"
       id="path23" />
    <path
       d="m 348.67,31.915077 c 0.228,-1.8966 -0.146,-3.8254 -1.053,-5.4207 -0.907,-1.5954 -2.283,-2.7466 -3.867,-3.2353 -1.585,-0.4888 -3.268,-0.2813 -4.73,0.5832 -1.462,0.8645 -2.603,2.3259 -3.205,4.1074 l -14.124,18.9265 4.144,13.5294 14.205,-22.115 c 0.927,0.3471 1.908,0.4524 2.873,0.3084 0.966,-0.1439 1.893,-0.5335 2.715,-1.1413 0.823,-0.6079 1.522,-1.4192 2.047,-2.3768 0.526,-0.9576 0.865,-2.0382 0.995,-3.1658 z"
       fill="#ffb7b7"
       id="path25" />
    <path
       d="m 290.12,105.55298 46.887,-58.486703 -6.324,-11.7519 -58.808,58.1316 z"
       fill="#fecb40"
       id="path26" />
    <path
       d="m 279.655,70.020677 c 9.084,0 16.447,-8.6065 16.447,-19.2232 0,-10.6167 -7.363,-19.2233 -16.447,-19.2233 -9.083,0 -16.447,8.6066 -16.447,19.2233 0,10.6167 7.364,19.2232 16.447,19.2232 z"
       fill="#2f2e41"
       id="path27" />
    <path
       d="m 280.978,39.937377 c 3.539,-4.1947 7.822,-7.4317 12.547,-9.483 3.032,-1.3133 6.334,-2.1247 9.504,-1.3789 3.171,0.7458 6.17,3.3097 7.055,6.9459 0.723,2.9734 -0.024,6.1748 -1.147,8.9738 -1.122,2.799 -2.621,5.3945 -3.529,8.298 -0.926,2.9625 -1.205,6.1485 -0.81,9.2688 0.394,3.1203 1.449,6.076 3.069,8.5989 1.62,2.5229 3.753,4.533 6.206,5.8479 2.453,1.3149 5.148,1.893 7.84,1.6817 -3.115,0.4882 -5.987,2.1994 -9.032,3.1105 -3.046,0.911 -6.64,0.849 -8.903,-1.701 -2.394,-2.6979 -2.442,-7.0844 -2.326,-10.9693 0.172,-5.775 0.344,-11.5499 0.516,-17.3249 0.088,-2.9452 0.163,-5.9847 -0.746,-8.7336 -0.909,-2.7488 -3.068,-5.1559 -5.59,-5.1309 -1.91,0.019 -3.602,1.372 -5.134,2.7062 -1.532,1.3343 -3.154,2.7579 -5.058,2.9564 -1.903,0.1984 -4.076,-1.4479 -3.934,-3.6751 z"
       fill="#2f2e41"
       id="path28" />
    <path
       d="m 217.189,179.86798 c -1.579,0.513 -3.264,0.331 -4.736,-0.511 -1.471,-0.843 -2.628,-2.287 -3.249,-4.059 -0.622,-1.772 -0.666,-3.749 -0.124,-5.557 0.543,-1.807 1.633,-3.32 3.066,-4.25 l 14.208,-18.841 12.018,3.035 -16.903,19.35 c 0.416,1.029 0.633,2.152 0.637,3.29 0.004,1.137 -0.205,2.262 -0.613,3.295 -0.408,1.033 -1.005,1.948 -1.749,2.682 -0.743,0.734 -1.616,1.269 -2.555,1.566 z"
       fill="#ffb7b7"
       id="path29" />
    <path
       d="m 263.936,112.42598 -35.414,51.957 -10.794,-5.793 41.624,-75.742003 z"
       fill="#fecb40"
       id="path30" />
    <path
       d="m 235.679,269.31098 -8.44,-0.155 1.015,33.623 h 7.423 z"
       fill="#ffb7b7"
       id="path31" />
    <path
       d="m 237.571,299.94598 -14.62,-0.001 v 0 c -2.471,0 -4.841,1.148 -6.588,3.19 -1.747,2.042 -2.729,4.812 -2.729,7.7 v 0.354 l 23.937,10e-4 z"
       fill="#2f2e41"
       id="path32" />
    <path
       d="m 291.56,260.39298 -9.219,6.918 18.442,25.933 6.247,-4.688 z"
       fill="#ffb7b7"
       id="path33" />
    <path
       d="m 307.315,284.97698 -12.303,9.231 -10e-4,10e-4 c -2.079,1.56 -3.543,4.022 -4.069,6.844 -0.526,2.822 -0.072,5.772 1.263,8.203 l 0.163,0.297 20.144,-15.115 z"
       fill="#2f2e41"
       id="path34" />
    <path
       d="m 294.845,157.71998 c 0,0 -20.485,-79.524303 -27.069,-80.599003 -6.583,-1.0746 -17.191,20.405 -17.191,20.405 -13.752,20.509003 -27.934,86.943003 -27.934,86.943003 0,0 23.641,1.729 40.923,12.476 17.281,10.746 37.676,-0.544 37.676,-0.544 z"
       fill="#fecb40"
       id="path35" />
    <path
       opacity="0.1"
       d="m 294.845,157.71898 c 0,0 -20.485,-79.523703 -27.069,-80.598303 -6.583,-1.0747 -14.497,20.6233 -14.497,20.6233 -6.852,33.106003 -30.628,86.725003 -30.628,86.725003 0,0 23.641,1.729 40.923,12.475 17.281,10.747 37.676,-0.544 37.676,-0.544 z"
       fill="#5770be"
       id="path36" />
    <path
       d="m 278.038,133.93398 v 39.961 l 4.024,57.885 20.101,43.787 -9.594,8.009 -27.411,-41.65 -10.842,-41.356 -17.027,91.55 -12.792,-1.068 8.884,-126.933 16.859,-35.728 z"
       fill="#eb574b"
       id="path37" />
    <path
       d="m 257.384,95.275977 c -6.396,7.476003 -0.457,15.486003 -0.457,15.486003 l -7.31,19.223 28.782,9.078 10.058,-52.532003 -6.852,-8.5439 c -13.706,-0.534 -13.714,-0.866 -13.714,-0.866 -2.401,2.7467 -10.507,18.1549 -10.507,18.1549 z"
       fill="#d5dbef"
       id="path38" />
    <path
       d="m 289.617,81.092977 c -1.307,-1.128 -2.793,-1.9414 -4.371,-2.3934 -1.578,-0.452 -3.217,-0.5335 -4.823,-0.2398 -1.605,0.2937 -3.144,0.9567 -4.529,1.9506 -1.384,0.9936 -2.586,2.2996 -3.536,3.8396 -7.236,11.776 -13.926,30.790003 -4.708,54.505003 14.802,38.077 27.683,57.57 32.919,57.568 0.229,0.002 0.456,-0.039 0.673,-0.123 3.223,-1.278 7.884,-7.653 8.727,-13.271 0.302,-2.011 0.231,-4.812 -1.827,-6.735 -5.91,-5.525 -16.519,-22.727 -19.828,-45.369 -1.829,-12.511 1.717,-23.907 5.015,-31.264003 1.393,-3.044 1.8,-6.573 1.148,-9.94 -0.653,-3.367 -2.322,-6.346 -4.701,-8.391 z"
       fill="#fecb40"
       id="path39" />
    <path
       d="m 280.502,68.129377 c 5.867,-3.7486 8.023,-12.3465 4.816,-19.2039 -3.207,-6.8574 -10.563,-9.3776 -16.43,-5.629 -5.867,3.7486 -8.024,12.3465 -4.816,19.2039 3.207,6.8574 10.563,9.3776 16.43,5.629 z"
       fill="#ffb7b7"
       id="path40" />
    <path
       d="m 257.669,54.649377 h 17.482 l 0.179,-2.9336 0.896,2.9336 h 2.692 l 0.355,-5.8142 1.777,5.8142 h 5.209 v -0.288 c -0.004,-4.0478 -1.382,-7.9286 -3.831,-10.7908 -2.448,-2.8623 -5.769,-4.4723 -9.232,-4.4769 h -2.465 c -3.463,0.0046 -6.783,1.6146 -9.232,4.4769 -2.449,2.8622 -3.826,6.7429 -3.83,10.7908 z"
       fill="#2f2e41"
       id="path41" />
    <path
       d="m 283.617,65.196077 7.46,-2.8294 v -21.1753 h -14.091 l 0.348,0.4071 c 4.854,5.666 10.253,25.7683 6.283,23.5976 z"
       fill="#2f2e41"
       id="path42" />
    <path
       d="M 367.29819,311.27098 H 175.07845 c -0.13363,0 -0.26283,-0.063 -0.3567,-0.17338 -0.095,-0.11043 -0.14797,-0.26061 -0.14797,-0.41632 0,-0.15681 0.053,-0.307 0.14797,-0.41743 0.0939,-0.11043 0.22307,-0.17227 0.3567,-0.17227 h 192.21974 c 0.13362,0 0.26172,0.0618 0.35669,0.17227 0.095,0.11043 0.14798,0.26062 0.14798,0.41743 0,0.15571 -0.053,0.30589 -0.14798,0.41632 -0.095,0.11043 -0.22307,0.17338 -0.35669,0.17338 z"
       fill="#cbcbcb"
       id="path24-2"
       style="stroke-width:1.10431" />
  </g>
  <g
     id="g10"
     transform="matrix(0.8196951,0,0,0.8196951,117.05229,-150.0042)">
    <path
       d="m 133.10325,343.039 c -1.3814,0.002 -2.7058,0.572 -3.6826,1.587 -0.9768,1.015 -1.5262,2.391 -1.5278,3.826 v 12.663 c 0.002,1.435 0.551,2.81 1.5278,3.825 0.9768,1.015 2.3012,1.586 3.6826,1.587 h 6.6088 c 1.382,-10e-4 2.706,-0.572 3.683,-1.587 0.977,-1.015 1.526,-2.39 1.528,-3.825 v -12.663 c -0.002,-1.435 -0.551,-2.811 -1.528,-3.826 -0.977,-1.015 -2.301,-1.585 -3.683,-1.587 z"
       fill="#3f3d56"
       id="path1-6" />
    <path
       d="m 255.27105,366.946 h -6.609 c -1.489,-0.002 -2.916,-0.617 -3.969,-1.711 -1.053,-1.093 -1.645,-2.576 -1.647,-4.123 v -12.663 c 0.002,-1.547 0.594,-3.029 1.647,-4.123 1.053,-1.094 2.48,-1.709 3.969,-1.711 h 6.609 c 1.489,0.002 2.916,0.617 3.969,1.711 1.053,1.094 1.645,2.576 1.647,4.123 v 12.663 c -0.002,1.547 -0.594,3.03 -1.647,4.123 -1.053,1.094 -2.48,1.709 -3.969,1.711 z"
       fill="#3f3d56"
       id="path2-7" />
    <path
       d="m 250.88605,356.813 h -113.8027 c -5.1792,0 -9.3928,-3.172 -9.3928,-7.071 V 327.01 l 5.6486,-6.18 h 122.3899 l 4.55,6.193 v 22.719 c 0,3.899 -4.214,7.071 -9.393,7.071 z"
       fill="#5770be"
       id="path3-5" />
    <path
       d="m 255.19805,332.2 h -121.2102 l -1.2317,-19.62 0.7838,-2.007 4.5562,-11.647 h 112.1729 l 6.161,13.226 z"
       fill="#5770be"
       id="path4-3" />
    <path
       d="m 256.22405,312.192 -0.905,14.742 h -26.667 v -10.951 l 26.813,-5.417 z"
       fill="#ffffff"
       id="path5-5" />
    <path
       d="m 160.12805,315.983 v 10.951 h -26.2666 l -0.9003,-14.321 0.7666,-1.963 z"
       fill="#ffffff"
       id="path6-6" />
    <path
       d="m 249.59305,302.296 h -110.8222 l 11.8202,-40.9285 c 0.482,-1.6903 1.475,-3.1747 2.831,-4.2338 1.357,-1.0591 3.006,-1.6367 4.703,-1.6473 l 73.394,-0.7262 c 1.773,-0.0179 3.501,0.5812 4.909,1.7019 1.407,1.1207 2.413,2.6984 2.858,4.482 z"
       fill="#5770be"
       id="path7-2" />
    <path
       d="m 241.06205,298.423 -93.778,-1.155 c -0.118,-0.002 -0.235,-0.032 -0.34,-0.089 -0.105,-0.056 -0.196,-0.138 -0.266,-0.238 -0.069,-0.1 -0.115,-0.215 -0.133,-0.337 -0.019,-0.122 -0.01,-0.246 0.027,-0.363 l 8.99,-29.1375 c 0.049,-0.1588 0.145,-0.2973 0.275,-0.3956 0.129,-0.0983 0.286,-0.1513 0.446,-0.1513 h 75.427 c 0.161,0 0.317,0.053 0.447,0.1512 0.129,0.0982 0.226,0.2367 0.275,0.3954 l 9.36,30.2918 c 0.037,0.119 0.046,0.245 0.026,0.368 -0.019,0.124 -0.066,0.24 -0.138,0.341 -0.071,0.1 -0.164,0.181 -0.272,0.237 -0.108,0.055 -0.226,0.084 -0.346,0.082 z"
       fill="#ffffff"
       id="path8-9" />
    <path
       d="m 206.82005,259.7535 h -25.276 c -0.213,0 -0.407,-0.2178 -0.505,-0.5687 -0.097,-0.3592 -0.083,-0.7413 0.041,-1.0917 l 2.084,-5.4755 c 0.106,-0.2791 0.28,-0.4457 0.464,-0.4457 h 21.108 c 0.184,0 0.357,0.1666 0.464,0.4457 l 2.084,5.4755 c 0.124,0.3504 0.138,0.7325 0.04,1.0917 -0.098,0.3509 -0.291,0.5687 -0.504,0.5687 z"
       fill="#000091"
       id="path9" />
    <path
       d="m 138.84075,301.449 h -16.6243 v -3.795 c 0.001,-1.227 0.4712,-2.404 1.3065,-3.272 0.8352,-0.867 1.9677,-1.355 3.149,-1.357 h 12.1688 z"
       fill="#d5dbef"
       id="path10" />
    <path
       d="m 266.15705,301.449 h -16.624 v -8.424 h 12.169 c 1.181,0.002 2.314,0.49 3.149,1.357 0.835,0.868 1.305,2.045 1.306,3.272 z"
       fill="#d5dbef"
       id="path11" />
    <path
       d="M 120.29885,360.7 39,390.951 l 0.345883,0.998 81.298867,-30.252 z"
       fill="#3f3d56"
       id="path12" />
    <path
       d="m 268.74266,360.80574 81.29885,30.251 -0.34588,0.998 -81.29887,-30.252 z"
       fill="#3f3d56"
       id="path12-3" />
    <path
       d="m 198.70305,382.613 h -4.865 v -6.527 h 4.865 z m 0,-13.055 h -4.865 v -6.527 h 4.865 z"
       fill="#e6e6e6"
       id="path14" />
    <path
       d="m 198.70305,409.656 h -4.865 v -6.527 h 4.865 z m 0,-13.055 h -4.865 v -6.527 h 4.865 z"
       fill="#e6e6e6"
       id="path15" />
    <path
       d="m 194.04105,233.1412 c 13.329,0 24.134,-11.2245 24.134,-25.0706 0,-13.8461 -10.805,-25.0706 -24.134,-25.0706 -13.329,0 -24.135,11.2245 -24.135,25.0706 0,13.8461 10.806,25.0706 24.135,25.0706 z"
       fill="#459c99"
       id="path16" />
    <path
       d="m 191.74005,218.6561 -7.223,-9.6482 4.201,-3.394 3.42,4.5683 11.554,-12.6705 3.864,3.8028 z"
       fill="#ffffff"
       id="path17" />
  </g>
</svg>
