<svg width="408" height="331" viewBox="0 0 408 331" fill="none" xmlns="http://www.w3.org/2000/svg">
<path d="M94.1262 160.039C92.7448 160.041 91.4204 160.611 90.4436 161.626C89.4668 162.641 88.9174 164.017 88.9158 165.452V178.115C88.9174 179.55 89.4668 180.925 90.4436 181.94C91.4204 182.955 92.7448 183.526 94.1262 183.527H100.735C102.117 183.526 103.441 182.955 104.418 181.94C105.395 180.925 105.944 179.55 105.946 178.115V165.452C105.944 164.017 105.395 162.641 104.418 161.626C103.441 160.611 102.117 160.041 100.735 160.039H94.1262Z" fill="#3F3D56"/>
<path d="M216.294 183.946H209.685C208.196 183.944 206.769 183.329 205.716 182.235C204.663 181.142 204.071 179.659 204.069 178.112V165.449C204.071 163.902 204.663 162.42 205.716 161.326C206.769 160.232 208.196 159.617 209.685 159.615H216.294C217.783 159.617 219.21 160.232 220.263 161.326C221.316 162.42 221.908 163.902 221.91 165.449V178.112C221.908 179.659 221.316 181.142 220.263 182.235C219.21 183.329 217.783 183.944 216.294 183.946Z" fill="#3F3D56"/>
<path d="M211.909 173.813H98.1063C92.9271 173.813 88.7135 170.641 88.7135 166.742V144.01L94.3621 137.83H216.752L221.302 144.023V166.742C221.302 170.641 217.088 173.813 211.909 173.813Z" fill="#5770BE"/>
<path d="M216.221 149.2H95.0108L93.7791 129.58L94.5629 127.573L99.1191 115.926H211.292L217.453 129.152L216.221 149.2Z" fill="#5770BE"/>
<path d="M217.247 129.192L216.342 143.934H189.675V132.983L216.488 127.566L217.247 129.192Z" fill="white"/>
<path d="M121.151 132.983V143.934H94.8844L93.9841 129.613L94.7507 127.65L121.151 132.983Z" fill="white"/>
<path d="M210.616 119.296H99.7938L111.614 78.3675C112.096 76.6772 113.089 75.1928 114.445 74.1337C115.802 73.0746 117.451 72.497 119.148 72.4864L192.542 71.7602C194.315 71.7423 196.043 72.3414 197.451 73.4621C198.858 74.5828 199.864 76.1605 200.309 77.9441L210.616 119.296Z" fill="#5770BE"/>
<path d="M202.085 115.423L108.307 114.268C108.189 114.266 108.072 114.236 107.967 114.179C107.862 114.123 107.771 114.041 107.701 113.941C107.632 113.841 107.586 113.726 107.568 113.604C107.549 113.482 107.558 113.358 107.595 113.241L116.585 84.1035C116.634 83.9447 116.73 83.8062 116.86 83.7079C116.989 83.6096 117.146 83.5566 117.306 83.5566H192.733C192.894 83.5566 193.05 83.6096 193.18 83.7078C193.309 83.806 193.406 83.9445 193.455 84.1032L202.815 114.395C202.852 114.514 202.861 114.64 202.841 114.763C202.822 114.887 202.775 115.003 202.703 115.104C202.632 115.204 202.539 115.285 202.431 115.341C202.323 115.396 202.205 115.425 202.085 115.423Z" fill="white"/>
<path d="M167.843 76.7535H142.567C142.354 76.7535 142.16 76.5357 142.062 76.1848C141.965 75.8256 141.979 75.4435 142.103 75.0931L144.187 69.6176C144.293 69.3385 144.467 69.1719 144.651 69.1719H165.759C165.943 69.1719 166.116 69.3385 166.223 69.6176L168.307 75.0931C168.431 75.4435 168.445 75.8256 168.347 76.1848C168.249 76.5357 168.056 76.7535 167.843 76.7535Z" fill="#000091"/>
<path d="M99.8637 118.449H83.2394V114.654C83.2408 113.427 83.7106 112.25 84.5459 111.382C85.3811 110.515 86.5136 110.027 87.6949 110.025H99.8637V118.449Z" fill="#D5DBEF"/>
<path d="M227.18 118.449H210.556V110.025H222.725C223.906 110.027 225.039 110.515 225.874 111.382C226.709 112.25 227.179 113.427 227.18 114.654V118.449Z" fill="#D5DBEF"/>
<path d="M81.3218 177.7L0.0229492 207.951L0.368832 208.949L81.6677 178.697L81.3218 177.7Z" fill="#3F3D56"/>
<path d="M228.613 177.627L228.269 178.625L309.542 208.945L309.887 207.948L228.613 177.627Z" fill="#3F3D56"/>
<path d="M159.726 199.613H154.861V193.086H159.726V199.613ZM159.726 186.558H154.861V180.031H159.726V186.558Z" fill="#E6E6E6"/>
<path d="M159.726 226.656H154.861V220.129H159.726V226.656ZM159.726 213.601H154.861V207.074H159.726V213.601Z" fill="#E6E6E6"/>
<path d="M155.064 50.1412C168.393 50.1412 179.198 38.9167 179.198 25.0706C179.198 11.2245 168.393 0 155.064 0C141.735 0 130.929 11.2245 130.929 25.0706C130.929 38.9167 141.735 50.1412 155.064 50.1412Z" fill="#459C99"/>
<path d="M152.763 35.6561L145.54 26.0079L149.741 22.6139L153.161 27.1822L164.715 14.5117L168.579 18.3145L152.763 35.6561Z" fill="white"/>
<path d="M254.179 182.039L255.413 184.53C255.424 184.553 255.426 184.58 255.418 184.604C255.411 184.629 255.394 184.649 255.372 184.661L255.313 184.693L261.741 197.669C261.919 198.028 261.953 198.446 261.834 198.831C261.715 199.215 261.455 199.535 261.109 199.72L253.304 203.893C253.132 203.985 252.946 204.04 252.754 204.057C252.562 204.073 252.369 204.05 252.186 203.989C252.002 203.928 251.832 203.83 251.686 203.701C251.539 203.572 251.418 203.414 251.33 203.236L251.33 203.236L245.126 190.715L245.083 190.738C245.068 190.746 245.049 190.748 245.033 190.742C245.016 190.737 245.002 190.724 244.994 190.708L244.291 189.29C244.287 189.282 244.285 189.274 244.284 189.265C244.284 189.256 244.285 189.246 244.287 189.238C244.29 189.229 244.294 189.221 244.3 189.214C244.305 189.207 244.312 189.202 244.32 189.197L244.363 189.174L244.099 188.64L244.055 188.664C244.039 188.672 244.02 188.674 244.002 188.668C243.985 188.662 243.97 188.649 243.962 188.632L243.269 187.234C243.26 187.217 243.259 187.197 243.264 187.179C243.27 187.161 243.282 187.146 243.299 187.137L243.342 187.114L242.981 186.385L242.937 186.408C242.922 186.416 242.905 186.417 242.89 186.412C242.874 186.407 242.861 186.396 242.854 186.381L242.854 186.381L242.476 185.618C242.468 185.602 242.467 185.585 242.472 185.569C242.477 185.552 242.488 185.539 242.502 185.531L242.546 185.507L241.781 183.962C241.603 183.603 241.57 183.186 241.688 182.801C241.807 182.417 242.068 182.097 242.413 181.912L250.219 177.739C250.564 177.554 250.966 177.52 251.337 177.643C251.707 177.766 252.015 178.037 252.193 178.396L253.992 182.028L254.052 181.997C254.074 181.985 254.1 181.983 254.124 181.99C254.147 181.998 254.167 182.016 254.179 182.039Z" fill="#3F3D56"/>
<path d="M251.7 178.993L261.172 198.111C261.285 198.339 261.306 198.604 261.23 198.848C261.155 199.092 260.99 199.294 260.77 199.412L253.299 203.406C253.08 203.524 252.825 203.546 252.591 203.468C252.356 203.391 252.161 203.219 252.048 202.992L252.046 202.99L242.575 183.872C242.519 183.759 242.485 183.636 242.475 183.509C242.465 183.383 242.479 183.256 242.516 183.135C242.553 183.014 242.613 182.902 242.692 182.805C242.771 182.708 242.867 182.629 242.976 182.57L242.976 182.57L244.094 181.973L244.168 182.122C244.214 182.215 244.277 182.297 244.354 182.365C244.431 182.432 244.52 182.483 244.615 182.515C244.711 182.547 244.812 182.559 244.912 182.55C245.012 182.542 245.11 182.513 245.199 182.465L248.999 180.433C249.18 180.337 249.316 180.17 249.378 179.969C249.44 179.768 249.423 179.55 249.33 179.362L249.256 179.213L250.448 178.576C250.667 178.459 250.922 178.437 251.157 178.515C251.392 178.593 251.587 178.765 251.7 178.992L251.7 178.993Z" fill="#000091"/>
<path d="M352.277 293.244C352.746 292.357 353.299 291.534 353.924 290.79C354.182 290.478 354.454 290.183 354.735 289.897C356.441 288.122 358.52 286.91 360.759 286.387C362.998 285.863 365.317 286.045 367.475 286.916C369.634 287.786 371.556 289.313 373.042 291.339C374.529 293.365 375.527 295.818 375.934 298.444C377.818 290.3 372.913 282.278 367.982 276.115C363.048 269.955 357.409 263.198 357.437 254.757C357.451 250.06 359.417 245.87 362.384 242.764C362.476 242.67 362.568 242.576 362.661 242.485C366.248 238.891 370.863 237.011 375.585 237.221C384.356 237.77 392.014 244.66 397.333 252.833C405.894 265.984 409.646 284.443 403.652 299.413C398.381 312.579 387.137 320.397 375.663 326.683C374.06 327.56 372.461 328.412 370.865 329.237C370.855 329.24 370.843 329.249 370.833 329.252C370.756 329.292 370.679 329.331 370.607 329.372C370.278 329.541 369.948 329.711 369.622 329.879L369.773 329.995L370.245 330.352C370.081 330.236 369.919 330.124 369.756 330.008C369.707 329.973 369.656 329.94 369.607 329.905C363.972 325.952 358.257 321.771 354.364 315.601C350.326 309.194 348.703 300.017 352.277 293.244Z" fill="#F1F1F1"/>
<path d="M389.877 278.368C391.125 281.687 391.952 285.2 392.333 288.797C392.632 292.005 392.52 295.246 391.999 298.415C390.88 304.927 388.439 311.029 384.882 316.209C382.199 320.141 379.101 323.661 375.662 326.685C374.06 327.563 372.461 328.415 370.865 329.24C370.854 329.243 370.843 329.252 370.832 329.255C370.755 329.294 370.679 329.334 370.607 329.374C370.277 329.544 369.948 329.714 369.621 329.882L369.772 329.997L370.244 330.355C370.081 330.239 369.919 330.126 369.755 330.011C369.707 329.976 369.655 329.943 369.607 329.907C370.847 324.837 371.029 319.493 370.138 314.323C369.248 309.153 367.309 304.308 364.487 300.193C361.649 296.131 358.029 292.91 353.924 290.793C354.182 290.481 354.454 290.186 354.734 289.899C356.315 290.748 357.83 291.759 359.259 292.919C364.37 297.048 368.208 302.991 370.204 309.867C371.987 316.106 372.21 322.81 370.846 329.191C371.129 328.975 371.413 328.753 371.689 328.533C376.939 324.394 381.778 319.424 385.423 313.33C388.566 308.179 390.578 302.204 391.28 295.93C391.979 289.077 390.512 282.338 387.894 276.224C385.004 269.682 381.361 263.633 377.068 258.244C372.756 252.707 367.881 247.808 362.551 243.655C362.431 243.56 362.347 243.415 362.316 243.25C362.284 243.085 362.309 242.912 362.384 242.767C362.441 242.635 362.54 242.535 362.66 242.488C362.721 242.47 362.785 242.468 362.847 242.482C362.908 242.497 362.966 242.528 363.017 242.572C363.675 243.085 364.327 243.603 364.971 244.136C370.339 248.578 375.214 253.783 379.484 259.63C383.61 265.266 387.364 271.528 389.877 278.368Z" fill="white"/>
<path d="M376.854 148.497C379.613 148.497 381.849 145.883 381.849 142.659C381.849 139.434 379.613 136.82 376.854 136.82C374.095 136.82 371.859 139.434 371.859 142.659C371.859 145.883 374.095 148.497 376.854 148.497Z" fill="#F1F1F1"/>
<path d="M230.659 164.513C233.418 164.513 235.654 161.899 235.654 158.674C235.654 155.45 233.418 152.836 230.659 152.836C227.9 152.836 225.664 155.45 225.664 158.674C225.664 161.899 227.9 164.513 230.659 164.513Z" fill="#F1F1F1"/>
<path d="M233.48 331H407.543C407.664 331 407.781 330.943 407.866 330.843C407.952 330.743 408 330.607 408 330.466C408 330.324 407.952 330.188 407.866 330.088C407.781 329.988 407.664 329.932 407.543 329.932H233.48C233.359 329.932 233.243 329.988 233.157 330.088C233.071 330.188 233.023 330.324 233.023 330.466C233.023 330.607 233.071 330.743 233.157 330.843C233.243 330.943 233.359 331 233.48 331Z" fill="#CBCBCB"/>
<path d="M388.334 50.9991C388.562 49.1025 388.188 47.1737 387.281 45.5784C386.374 43.983 384.998 42.8318 383.414 42.3431C381.829 41.8543 380.146 42.0618 378.684 42.9263C377.222 43.7908 376.081 45.2522 375.479 47.0337L361.355 65.9602L365.499 79.4896L379.704 57.3746C380.631 57.7217 381.612 57.827 382.577 57.683C383.543 57.5391 384.47 57.1495 385.292 56.5417C386.115 55.9338 386.814 55.1225 387.339 54.1649C387.865 53.2073 388.204 52.1267 388.334 50.9991Z" fill="#FFB7B7"/>
<path d="M329.784 124.637L376.671 66.1503L370.347 54.3984L311.539 112.53L329.784 124.637Z" fill="#FECB40"/>
<path d="M319.319 89.1047C328.403 89.1047 335.766 80.4982 335.766 69.8815C335.766 59.2648 328.403 50.6582 319.319 50.6582C310.236 50.6582 302.872 59.2648 302.872 69.8815C302.872 80.4982 310.236 89.1047 319.319 89.1047Z" fill="#2F2E41"/>
<path d="M320.642 59.0214C324.181 54.8267 328.464 51.5897 333.189 49.5384C336.221 48.2251 339.523 47.4137 342.693 48.1595C345.864 48.9053 348.863 51.4692 349.748 55.1054C350.471 58.0788 349.724 61.2802 348.601 64.0792C347.479 66.8782 345.98 69.4737 345.072 72.3772C344.146 75.3397 343.867 78.5257 344.262 81.646C344.656 84.7663 345.711 87.722 347.331 90.2449C348.951 92.7678 351.084 94.7779 353.537 96.0928C355.99 97.4077 358.685 97.9858 361.377 97.7745C358.262 98.2627 355.39 99.9739 352.345 100.885C349.299 101.796 345.705 101.734 343.442 99.184C341.048 96.4861 341 92.0996 341.116 88.2147C341.288 82.4397 341.46 76.6648 341.632 70.8898C341.72 67.9446 341.795 64.9051 340.886 62.1562C339.977 59.4074 337.818 57.0003 335.296 57.0253C333.386 57.0443 331.694 58.3973 330.162 59.7315C328.63 61.0658 327.008 62.4894 325.104 62.6879C323.201 62.8863 321.028 61.24 321.17 59.0128L320.642 59.0214Z" fill="#2F2E41"/>
<path d="M256.853 198.952C255.274 199.465 253.589 199.283 252.117 198.441C250.646 197.598 249.489 196.154 248.868 194.382C248.246 192.61 248.202 190.633 248.744 188.825C249.287 187.018 250.377 185.505 251.81 184.575L266.018 165.734L278.036 168.769L261.133 188.119C261.549 189.148 261.766 190.271 261.77 191.409C261.774 192.546 261.565 193.671 261.157 194.704C260.749 195.737 260.152 196.652 259.408 197.386C258.665 198.12 257.792 198.655 256.853 198.952H256.853Z" fill="#FFB7B7"/>
<path d="M303.6 131.51L268.186 183.467L257.392 177.674L299.016 101.932L303.6 131.51Z" fill="#FECB40"/>
<path d="M275.343 288.395L266.903 288.24L267.918 321.863H275.341L275.343 288.395Z" fill="#FFB7B7"/>
<path d="M277.235 319.03L262.615 319.029H262.615C260.144 319.029 257.774 320.177 256.027 322.219C254.28 324.261 253.298 327.031 253.298 329.919V330.273L277.235 330.274L277.235 319.03Z" fill="#2F2E41"/>
<path d="M331.224 279.477L322.005 286.395L340.447 312.328L346.694 307.64L331.224 279.477Z" fill="#FFB7B7"/>
<path d="M346.979 304.061L334.676 313.292L334.675 313.293C332.596 314.853 331.132 317.315 330.606 320.137C330.08 322.959 330.534 325.909 331.869 328.34L332.032 328.637L352.176 313.522L346.979 304.061Z" fill="#2F2E41"/>
<path d="M334.509 176.804C334.509 176.804 314.024 97.2797 307.44 96.205C300.857 95.1304 290.249 116.61 290.249 116.61C276.497 137.119 262.315 203.553 262.315 203.553C262.315 203.553 285.956 205.282 303.238 216.029C320.519 226.775 340.914 215.485 340.914 215.485L334.509 176.804Z" fill="#FECB40"/>
<path opacity="0.1" d="M334.509 176.803C334.509 176.803 314.024 97.2793 307.44 96.2047C300.857 95.13 292.943 116.828 292.943 116.828C286.091 149.934 262.315 203.553 262.315 203.553C262.315 203.553 285.956 205.282 303.238 216.028C320.519 226.775 340.914 215.484 340.914 215.484L334.509 176.803Z" fill="#5770BE"/>
<path d="M317.702 153.018V192.979L321.726 250.864L341.827 294.651L332.233 302.66L304.822 261.01L293.98 219.654L276.953 311.204L264.161 310.136L273.045 183.203L289.904 147.475L317.702 153.018Z" fill="#EB574B"/>
<path d="M297.048 114.36C290.652 121.836 296.591 129.846 296.591 129.846L289.281 149.069L318.063 158.147L328.121 105.615L321.269 97.0711C307.563 96.5371 307.555 96.2051 307.555 96.2051C305.154 98.9518 297.048 114.36 297.048 114.36Z" fill="#D5DBEF"/>
<path d="M329.281 100.177C327.974 99.049 326.488 98.2356 324.91 97.7836C323.332 97.3316 321.693 97.2501 320.087 97.5438C318.482 97.8375 316.943 98.5005 315.558 99.4944C314.174 100.488 312.972 101.794 312.022 103.334C304.786 115.11 298.096 134.124 307.314 157.839C322.116 195.916 334.997 215.409 340.233 215.407C340.462 215.409 340.689 215.368 340.906 215.284C344.129 214.006 348.79 207.631 349.633 202.013C349.935 200.002 349.864 197.201 347.806 195.278C341.896 189.753 331.287 172.551 327.978 149.909C326.149 137.398 329.695 126.002 332.993 118.645C334.386 115.601 334.793 112.072 334.141 108.705C333.488 105.338 331.819 102.359 329.44 100.314L329.281 100.177Z" fill="#FECB40"/>
<path d="M320.166 87.2134C326.033 83.4648 328.189 74.8669 324.982 68.0095C321.775 61.1521 314.419 58.6319 308.552 62.3805C302.685 66.1291 300.528 74.727 303.736 81.5844C306.943 88.4418 314.299 90.962 320.166 87.2134Z" fill="#FFB7B7"/>
<path d="M297.333 73.7334H314.815L314.994 70.7998L315.89 73.7334H318.582L318.937 67.9192L320.714 73.7334H325.923V73.4454C325.919 69.3976 324.541 65.5168 322.092 62.6546C319.644 59.7923 316.323 58.1823 312.86 58.1777H310.395C306.932 58.1823 303.612 59.7923 301.163 62.6546C298.714 65.5168 297.337 69.3975 297.333 73.4454V73.7334Z" fill="#2F2E41"/>
<path d="M323.281 84.2801L330.741 81.4507V60.2754H316.65L316.998 60.6825C321.852 66.3485 327.251 86.4508 323.281 84.2801Z" fill="#2F2E41"/>
</svg>
