<svg width="193" height="123" viewBox="0 0 193 123" fill="none" xmlns="http://www.w3.org/2000/svg">
<g clip-path="url(#clip0)">
<path d="M66.4719 123.053C89.7651 123.053 108.648 104.219 108.648 80.9864C108.648 57.7537 89.7651 38.9199 66.4719 38.9199C43.1787 38.9199 24.2959 57.7537 24.2959 80.9864C24.2959 104.219 43.1787 123.053 66.4719 123.053Z" fill="#F2F2F2"/>
<path d="M189.371 90.6895H55.5335V91.0566H189.371V90.6895Z" fill="#3F3D56"/>
<path d="M193 51.4558H192.579V39.6017C192.579 35.8251 189.477 32.7305 185.69 32.7305H160.5C156.714 32.7305 153.611 35.8251 153.611 39.6017V104.695C153.611 108.471 156.714 111.566 160.5 111.566H185.69C189.477 111.566 192.579 108.471 192.579 104.695V59.9006H193V51.4558Z" fill="#3F3D56"/>
<path d="M191.107 40.0212V105.009C191.107 107.842 188.793 110.15 185.953 110.15H160.605C157.766 110.15 155.452 107.842 155.452 105.009V40.0212C155.452 37.1888 157.766 34.8809 160.605 34.8809H163.656C163.13 36.1397 163.761 37.5559 164.97 38.0804C165.286 38.1853 165.601 38.2378 165.917 38.2378H180.379C181.746 38.2378 182.798 37.1363 182.798 35.825C182.798 35.5103 182.745 35.1956 182.64 34.8809H185.953C188.793 34.8809 191.107 37.1888 191.107 40.0212Z" fill="#FECB40"/>
<path opacity="0.1" d="M191.107 98.0325V104.956C191.107 107.789 188.793 110.097 185.953 110.097H160.605C157.766 110.097 155.452 107.789 155.452 104.956V69.9707L176.803 86.8078L177.171 87.0701L181.115 90.2172L181.483 90.5319L191.107 98.0325Z" fill="black"/>
<path d="M186.637 80.1992H159.238V86.1263H186.637V80.1992Z" fill="#F2F2F2"/>
<path d="M186.637 87.2266H159.238V93.1536H186.637V87.2266Z" fill="#F2F2F2"/>
<path d="M186.637 94.9375H159.238V100.865H186.637V94.9375Z" fill="#F2F2F2"/>
<path d="M174.647 69.9712H171.333C164.655 69.9712 159.291 64.5687 159.291 57.9597V55.5994C159.291 48.938 164.707 43.5879 171.333 43.5879H174.647C181.325 43.5879 186.689 48.9904 186.689 55.5994V57.9597C186.689 64.6211 181.273 69.9712 174.647 69.9712Z" fill="#F2F2F2"/>
<path d="M124.845 12.6411H77.3578V11.6445H55.7965V12.6411H8.09865C6.31064 12.6411 4.89075 14.0573 4.89075 15.8407V80.7239C4.89075 82.5072 6.31064 83.9234 8.09865 83.9234H124.845C126.633 83.9234 128.053 82.5072 128.053 80.7239V15.8407C128.053 14.0573 126.633 12.6411 124.845 12.6411Z" fill="#3F3D56"/>
<path d="M123.741 18.2539H9.203V82.7175H123.741V18.2539Z" fill="#FECB40"/>
<path d="M66.3668 16.5227C67.0057 16.5227 67.5237 16.0061 67.5237 15.3688C67.5237 14.7315 67.0057 14.2148 66.3668 14.2148C65.7278 14.2148 65.2098 14.7315 65.2098 15.3688C65.2098 16.0061 65.7278 16.5227 66.3668 16.5227Z" fill="#FECB40"/>
<path opacity="0.1" d="M90.9782 82.7175H9.203V18.2539L90.9782 82.7175Z" fill="black"/>
<path d="M131.261 81.5633H120.06V80.7765C120.06 80.6716 120.007 80.6191 119.902 80.6191H116.063C115.958 80.6191 115.905 80.6716 115.905 80.7765V81.5633H113.486V80.7765C113.486 80.6716 113.433 80.6191 113.328 80.6191H109.489C109.384 80.6191 109.332 80.6716 109.332 80.7765V81.5633H106.912V80.7765C106.912 80.6716 106.86 80.6191 106.755 80.6191H102.916C102.811 80.6191 102.758 80.6716 102.758 80.7765V81.5633H100.444V80.7765C100.444 80.6716 100.392 80.6191 100.286 80.6191H96.4474C96.3422 80.6191 96.2896 80.6716 96.2896 80.7765V81.5633H93.8705V80.7765C93.8705 80.6716 93.8179 80.6191 93.7128 80.6191H89.9264C89.8212 80.6191 89.7686 80.6716 89.7686 80.7765V81.5633H87.3496V80.7765C87.3496 80.6716 87.297 80.6191 87.1918 80.6191H83.3528C83.2477 80.6191 83.1951 80.6716 83.1951 80.7765V81.5633H80.776V80.7765C80.776 80.6716 80.7234 80.6191 80.6182 80.6191H50.6427C50.5376 80.6191 50.485 80.6716 50.485 80.7765V81.5633H48.0659V80.7765C48.0659 80.6716 48.0133 80.6191 47.9081 80.6191H44.0692C43.964 80.6191 43.9114 80.6716 43.9114 80.7765V81.5633H41.5449V80.7765C41.5449 80.6716 41.4923 80.6191 41.3872 80.6191H37.5482C37.443 80.6191 37.3904 80.6716 37.3904 80.7765V81.5633H34.9714V80.7765C34.9714 80.6716 34.9188 80.6191 34.8136 80.6191H30.9746C30.8695 80.6191 30.8169 80.6716 30.8169 80.7765V81.5633H28.3978V80.7765C28.3978 80.6716 28.3452 80.6191 28.24 80.6191H24.4011C24.2959 80.6191 24.2433 80.6716 24.2433 80.7765V81.5633H21.8242V80.7765C21.8242 80.6716 21.7716 80.6191 21.6665 80.6191H17.8801C17.7749 80.6191 17.7223 80.6716 17.7223 80.7765V81.5633H15.3032V80.7765C15.3032 80.6716 15.2507 80.6191 15.1455 80.6191H11.3065C11.2013 80.6191 11.1487 80.6716 11.1487 80.7765V81.5633H3.78635C1.68281 81.5633 -0.0526123 83.2942 -0.0526123 85.3923V87.1232C-0.0526123 89.2213 1.68281 90.9522 3.78635 90.9522H131.208C133.312 90.9522 135.047 89.2213 135.047 87.1232V85.3923C135.1 83.2417 133.365 81.5633 131.261 81.5633Z" fill="#3F3D56"/>
<path d="M26.5572 43.641C20.7725 43.641 16.0395 38.9727 16.0395 33.1506C16.0395 27.3808 20.7199 22.6602 26.5572 22.6602C32.342 22.6602 37.0749 27.3284 37.0749 33.1506C37.0224 38.9203 32.342 43.641 26.5572 43.641Z" fill="#F2F2F2"/>
<path d="M52.273 44.5316C46.4883 44.5316 41.7553 39.8634 41.7553 34.0412C41.7553 28.2715 46.4357 23.5508 52.273 23.5508C58.0578 23.5508 62.7907 28.219 62.7907 34.0412C62.7907 39.8634 58.1104 44.5316 52.273 44.5316Z" fill="#F2F2F2"/>
<path d="M76.5689 44.5316C70.7842 44.5316 66.0512 39.8634 66.0512 34.0412C66.0512 28.2715 70.7316 23.5508 76.5689 23.5508C82.3537 23.5508 87.0866 28.219 87.0866 34.0412C87.034 39.8634 82.3537 44.5316 76.5689 44.5316Z" fill="#F2F2F2"/>
<path d="M26.5572 69.2367C20.7725 69.2367 16.0395 64.5684 16.0395 58.7463C16.0395 52.9765 20.7199 48.2559 26.5572 48.2559C32.342 48.2559 37.0749 52.9241 37.0749 58.7463C37.0224 64.5684 32.342 69.2367 26.5572 69.2367Z" fill="#F2F2F2"/>
<path d="M32.079 30.317H32.0264V28.8484C32.0264 28.7959 32.0264 28.691 32.0264 28.6386V28.5861C32.0264 27.7993 29.5548 27.1699 26.5572 27.1699C23.5597 27.1699 21.0354 27.7993 21.0354 28.5861V28.6386C21.0354 28.691 21.0354 28.7959 21.0354 28.8484V30.317H20.9828C20.6673 30.317 20.4044 31.0514 20.4044 31.9955C20.4044 32.9396 20.6673 33.674 20.9828 33.674H21.0354V37.0309C21.0354 37.5554 21.4561 37.975 21.982 37.975H22.1398V38.552C22.1398 38.9192 22.4027 39.1814 22.7708 39.1814H23.3493C23.6648 39.1814 23.9804 38.9192 23.9804 38.552V37.975H29.1341V38.552C29.1341 38.8667 29.397 39.1814 29.7651 39.1814H30.3436C30.7117 39.1814 30.9747 38.9192 30.9747 38.552V37.975H31.1324C31.6583 37.975 32.079 37.5554 32.079 37.0309V33.674H32.1316C32.4471 33.674 32.7101 32.9396 32.7101 31.9955C32.6575 31.0514 32.3945 30.317 32.079 30.317ZM24.4537 27.9043H28.6608C28.8711 27.9043 29.0289 28.0616 29.0289 28.2714C29.0289 28.4812 28.8711 28.6386 28.6608 28.6386H24.4537C24.2433 28.6386 24.0856 28.4812 24.0856 28.2714C24.0856 28.0616 24.2433 27.9043 24.4537 27.9043ZM23.0338 36.9785C22.6657 36.9785 22.3501 36.6637 22.3501 36.2966C22.3501 35.9294 22.6657 35.6147 23.0338 35.6147C23.4019 35.6147 23.7174 35.9294 23.7174 36.2966C23.7174 36.6637 23.4019 36.9785 23.0338 36.9785ZM30.0281 36.9785C29.6599 36.9785 29.3444 36.6637 29.3444 36.2966C29.3444 35.9294 29.6599 35.6147 30.0281 35.6147C30.3962 35.6147 30.7117 35.9294 30.7117 36.2966C30.7117 36.6637 30.3962 36.9785 30.0281 36.9785ZM31.0272 34.0936C31.0272 34.4608 30.7117 34.8279 30.291 34.8279H22.7708C22.4027 34.8279 22.0346 34.5132 22.0346 34.0936V29.8974C22.0346 29.5303 22.3501 29.1631 22.7708 29.1631H30.3436C30.7117 29.1631 31.0798 29.4778 31.0798 29.8974L31.0272 34.0936Z" fill="#3F3D56"/>
<path d="M165.444 82.1919V81.7198V81.6674C165.444 81.4051 164.602 81.1953 163.603 81.1953C162.604 81.1953 161.762 81.4051 161.762 81.6674V81.7198V82.1919C161.657 82.1919 161.552 82.4542 161.552 82.7689C161.552 83.0836 161.657 83.3458 161.762 83.3458V84.4473C161.762 84.6047 161.92 84.7621 162.078 84.7621H162.131V84.9719C162.131 85.0768 162.236 85.1817 162.341 85.1817H162.551C162.656 85.1817 162.762 85.0768 162.762 84.9719V84.7621H164.497V84.9719C164.497 85.0768 164.602 85.1817 164.707 85.1817H164.918C165.023 85.1817 165.128 85.0768 165.128 84.9719V84.7621H165.181C165.338 84.7621 165.496 84.6047 165.496 84.4473V83.3458C165.601 83.3458 165.707 83.0836 165.707 82.7689C165.707 82.4542 165.549 82.1919 165.444 82.1919ZM162.867 81.4051H164.287C164.339 81.4051 164.392 81.4576 164.392 81.51C164.392 81.5625 164.339 81.6149 164.287 81.6149H162.867C162.814 81.6149 162.762 81.5625 162.762 81.51C162.762 81.4576 162.814 81.4051 162.867 81.4051ZM162.393 84.4473C162.288 84.4473 162.183 84.3424 162.183 84.2375C162.183 84.1326 162.288 84.0277 162.393 84.0277C162.499 84.0277 162.604 84.1326 162.604 84.2375C162.656 84.3424 162.551 84.4473 162.393 84.4473ZM164.76 84.4473C164.655 84.4473 164.55 84.3424 164.55 84.2375C164.55 84.1326 164.655 84.0277 164.76 84.0277C164.865 84.0277 164.97 84.1326 164.97 84.2375C164.97 84.3424 164.865 84.4473 164.76 84.4473ZM165.075 83.4508C165.075 83.6081 164.97 83.713 164.813 83.713H162.288C162.131 83.713 162.025 83.6081 162.025 83.4508V82.0345C162.025 81.8772 162.131 81.7723 162.288 81.7723H164.813C164.97 81.7723 165.075 81.8772 165.075 82.0345V83.4508Z" fill="#3F3D56"/>
<path d="M56.112 31.9434C55.9016 31.9434 55.6913 31.9434 55.4809 31.9959L54.5869 29.7404H56.0068C56.2698 29.7404 56.4275 29.5831 56.4275 29.3208C56.4275 29.0586 56.2698 28.9012 56.0068 28.9012H53.9559C53.7981 28.9012 53.6929 28.9537 53.5877 29.0586C53.5352 29.1635 53.4826 29.3208 53.5352 29.4257L53.9033 30.4223H49.6436L49.4332 29.7929L50.2221 29.688C50.3798 29.688 50.485 29.5831 50.485 29.4257V29.2159C50.485 29.0586 50.3798 28.9537 50.2221 28.9537L47.7504 28.6914C47.6452 28.6914 47.5401 28.7439 47.4875 28.8488C47.4349 28.9537 47.4349 29.0586 47.4875 29.1635L48.0134 29.8454C48.0659 29.8978 48.1185 29.9503 48.2237 29.9503C48.2237 29.9503 48.2237 29.9503 48.2763 29.9503L48.5918 29.8978L49.0125 30.8419L48.1185 32.2057C47.7504 32.0483 47.3823 31.9434 46.9616 31.9434C45.3839 31.9434 44.0692 33.2023 44.0692 34.8283C44.0692 36.4019 45.3313 37.7132 46.9616 37.7132C48.4341 37.7132 49.6436 36.5592 49.8014 35.143H50.3273C50.4324 35.4577 50.748 35.6675 51.0635 35.7724V36.0871H50.8005C50.6428 36.0871 50.5376 36.192 50.5376 36.3494C50.5376 36.5068 50.6428 36.6117 50.8005 36.6117H51.7471C51.9049 36.6117 52.0101 36.5068 52.0101 36.3494C52.0101 36.192 51.9049 36.0871 51.7471 36.0871H51.5368V35.7724C52.0101 35.6675 52.3256 35.2479 52.3256 34.7234C52.3256 34.5136 52.273 34.3562 52.1679 34.1989L54.3766 31.6287L54.6395 32.363C53.7981 32.8351 53.2196 33.7793 53.2196 34.8283C53.2196 36.4019 54.4817 37.7132 56.112 37.7132C57.6897 37.7132 59.0044 36.4543 59.0044 34.8283C59.0044 33.2023 57.6897 31.9434 56.112 31.9434ZM49.3807 31.7336L50.4324 33.9891C50.3798 34.0415 50.3273 34.1464 50.2747 34.2513H49.7488C49.6436 33.6219 49.2755 33.0449 48.8022 32.6253L49.3807 31.7336ZM48.3289 33.3072C48.5918 33.5694 48.8022 33.8842 48.8548 34.1989H47.6978L48.3289 33.3072ZM46.909 36.769C45.8046 36.769 44.858 35.8773 44.858 34.7234C44.858 33.6219 45.752 32.6778 46.909 32.6778C47.1719 32.6778 47.3823 32.7302 47.5926 32.7827L46.5935 34.3562C46.4883 34.4611 46.4883 34.6709 46.5935 34.7758C46.6461 34.8807 46.8038 34.9856 46.9616 34.9856H48.9074C48.7496 36.0347 47.9608 36.769 46.909 36.769ZM51.2738 35.143C50.9583 35.143 50.748 34.8807 50.748 34.6185C50.748 34.3038 51.0109 34.094 51.2738 34.094C51.5368 34.094 51.7997 34.3562 51.7997 34.6185C51.7997 34.9332 51.5368 35.143 51.2738 35.143ZM51.5368 33.6219C51.4316 33.6219 51.379 33.5694 51.2738 33.5694C51.2213 33.5694 51.2213 33.5694 51.1687 33.5694L50.1169 31.2616H53.5877L51.5368 33.6219ZM56.112 36.769C55.0076 36.769 54.061 35.8773 54.061 34.7234C54.061 33.9891 54.4292 33.4121 54.955 33.0449L55.6913 34.8807C55.7439 35.0381 55.9016 35.143 56.0594 35.143C56.112 35.143 56.1646 35.143 56.2172 35.0906C56.4275 34.9857 56.5327 34.7758 56.4801 34.566L55.7965 32.7302C55.9016 32.7302 56.0068 32.6778 56.112 32.6778C57.2164 32.6778 58.1629 33.5694 58.1629 34.7234C58.1629 35.8773 57.2164 36.769 56.112 36.769Z" fill="#3F3D56"/>
<path d="M165.181 89.7457C165.128 89.7457 165.023 89.7457 164.97 89.7457L164.655 88.959H165.181C165.286 88.959 165.338 88.9065 165.338 88.8016C165.338 88.6967 165.286 88.6443 165.181 88.6443H164.444C164.392 88.6443 164.339 88.6443 164.339 88.6967C164.339 88.7492 164.287 88.8016 164.339 88.8541L164.497 89.2212H162.972L162.867 89.0114L163.13 88.959C163.182 88.959 163.235 88.9065 163.235 88.8541V88.8016C163.235 88.7492 163.182 88.6967 163.13 88.6967L162.236 88.5918C162.183 88.5918 162.183 88.5918 162.13 88.6443C162.13 88.6967 162.13 88.6967 162.13 88.7492L162.341 89.0114L162.393 89.0639H162.499L162.656 89.3786L162.341 89.8507C162.236 89.7982 162.078 89.7457 161.92 89.7457C161.342 89.7457 160.921 90.2178 160.921 90.7423C160.921 91.2669 161.394 91.7389 161.92 91.7389C162.446 91.7389 162.867 91.3193 162.919 90.8472H163.077C163.13 90.9521 163.235 91.0571 163.34 91.0571V91.162H163.235C163.182 91.162 163.13 91.2144 163.13 91.2669C163.13 91.3193 163.182 91.3718 163.235 91.3718H163.603C163.656 91.3718 163.708 91.3193 163.708 91.2669C163.708 91.2144 163.656 91.162 163.603 91.162H163.55V91.0571C163.708 91.0046 163.813 90.8472 163.813 90.6899C163.813 90.6374 163.813 90.5325 163.761 90.4801L164.55 89.5884L164.655 89.8507C164.339 90.008 164.129 90.3752 164.129 90.7423C164.129 91.3193 164.602 91.7389 165.128 91.7389C165.707 91.7389 166.127 91.2669 166.127 90.7423C166.127 90.2178 165.759 89.7457 165.181 89.7457ZM162.814 89.6933L163.182 90.4801C163.182 90.4801 163.13 90.5325 163.13 90.585H162.919C162.867 90.3752 162.762 90.1654 162.604 90.008L162.814 89.6933ZM162.446 90.2703C162.551 90.3752 162.604 90.4801 162.656 90.585H162.236L162.446 90.2703ZM161.973 91.4767C161.605 91.4767 161.236 91.162 161.236 90.7423C161.236 90.3227 161.552 90.008 161.973 90.008C162.078 90.008 162.13 90.008 162.236 90.0605L161.868 90.585C161.815 90.6374 161.815 90.6899 161.868 90.7423C161.868 90.7948 161.92 90.7948 161.973 90.7948H162.656C162.604 91.2144 162.288 91.4767 161.973 91.4767ZM163.498 90.8997C163.393 90.8997 163.287 90.7948 163.287 90.6899C163.287 90.585 163.393 90.4801 163.498 90.4801C163.603 90.4801 163.708 90.585 163.708 90.6899C163.708 90.7948 163.603 90.8997 163.498 90.8997ZM163.603 90.3752C163.55 90.3752 163.55 90.3752 163.498 90.3752C163.498 90.3752 163.498 90.3752 163.445 90.3752L163.077 89.5884H164.287L163.603 90.3752ZM165.181 91.4767C164.813 91.4767 164.444 91.162 164.444 90.7423C164.444 90.4801 164.55 90.2703 164.76 90.1654L165.023 90.7948C165.023 90.8472 165.075 90.8997 165.181 90.8997H165.233C165.286 90.8472 165.338 90.7948 165.338 90.6899L165.075 90.0605C165.128 90.0605 165.128 90.0605 165.181 90.0605C165.549 90.0605 165.917 90.3752 165.917 90.7948C165.917 91.2144 165.601 91.4767 165.181 91.4767Z" fill="#3F3D56"/>
<path d="M82.2485 31.943L81.0915 29.0057C80.8812 28.4287 80.4079 27.9567 79.5139 28.0091H77.8836V27.2748C77.8836 26.9601 77.7259 26.8027 77.4629 26.8027H76.5163H75.5697C75.3068 26.8027 75.149 26.9601 75.149 27.2748V28.0616H73.5188C72.6248 28.0616 72.1515 28.5337 71.9411 29.0582L70.7842 31.9955C70.3109 32.0479 69.5221 32.5725 69.5221 33.569V37.2407H70.6264V38.4471C70.6264 39.9157 72.73 39.8633 72.73 38.4471V37.2407H76.5163H80.2501V38.4471C80.2501 39.8633 82.3537 39.9157 82.3537 38.4471V37.2407H83.458V33.5166C83.5106 32.52 82.7218 31.9955 82.2485 31.943ZM71.7834 34.9852C71.2575 34.9852 70.8368 34.5656 70.8368 33.9887C70.8368 33.4641 71.2575 32.9921 71.7834 32.9921C72.3093 32.9921 72.73 33.4117 72.73 33.9887C72.73 34.5132 72.3093 34.9852 71.7834 34.9852ZM76.5689 31.8906H72.0463L72.8877 29.6351C72.9929 29.3204 73.1507 29.0582 73.5188 29.0582H76.5163H79.5139C79.882 29.0582 80.0398 29.3204 80.1449 29.6351L80.9864 31.8906H76.5689ZM81.3019 34.9852C80.776 34.9852 80.3553 34.5656 80.3553 33.9887C80.3553 33.4641 80.776 32.9921 81.3019 32.9921C81.8278 32.9921 82.2485 33.4117 82.2485 33.9887C82.3011 34.5132 81.8278 34.9852 81.3019 34.9852Z" fill="#3F3D56"/>
<path d="M165.286 97.5599L164.918 96.6682C164.865 96.5108 164.707 96.3535 164.444 96.3535H163.971V96.1437C163.971 96.0388 163.919 95.9863 163.813 95.9863H163.55H163.287C163.182 95.9863 163.182 96.0388 163.13 96.1437V96.3535H162.656C162.393 96.3535 162.236 96.5108 162.183 96.6682L161.815 97.5599C161.657 97.5599 161.447 97.7172 161.447 98.0319V99.1334H161.762V99.5006C161.762 99.9202 162.393 99.9202 162.393 99.5006V99.1334H163.498H164.602V99.5006C164.602 99.9202 165.233 99.9202 165.233 99.5006V99.1334H165.549V98.0319C165.654 97.7172 165.444 97.5599 165.286 97.5599ZM162.131 98.4516C161.973 98.4516 161.815 98.2942 161.868 98.1369C161.868 97.9795 161.973 97.8221 162.131 97.8221C162.288 97.8221 162.393 97.9795 162.393 98.1369C162.446 98.2942 162.341 98.4516 162.131 98.4516ZM163.603 97.5074H162.236L162.499 96.8256C162.551 96.7207 162.604 96.6682 162.709 96.6682H163.603H164.497C164.602 96.6682 164.655 96.7207 164.707 96.8256L164.97 97.5074H163.603ZM165.023 98.4516C164.865 98.4516 164.707 98.2942 164.76 98.1369C164.76 97.9795 164.865 97.8221 165.023 97.8221C165.181 97.8221 165.286 97.9795 165.286 98.1369C165.286 98.2942 165.181 98.4516 165.023 98.4516Z" fill="#3F3D56"/>
<path d="M31.3428 60.2148C30.6065 60.2148 30.0281 60.7918 30.0281 61.5261C30.0281 62.2605 30.6065 62.8374 31.3428 62.8374C32.079 62.8374 32.6575 62.2605 32.6575 61.5261C32.7101 60.7918 32.079 60.2148 31.3428 60.2148ZM31.3428 61.9458C31.0798 61.9458 30.9221 61.736 30.9221 61.5261C30.9221 61.2639 31.1324 61.1065 31.3428 61.1065C31.5531 61.1065 31.7635 61.3163 31.7635 61.5261C31.8161 61.7884 31.6057 61.9458 31.3428 61.9458Z" fill="#3F3D56"/>
<path d="M31.3428 58.4297C29.6074 58.4297 28.2401 59.8459 28.2401 61.5244C28.2401 63.9371 30.9747 66.245 31.0799 66.2975C31.185 66.3499 31.2902 66.4024 31.3428 66.4024C31.3954 66.4024 31.5532 66.3499 31.6057 66.2975C31.7109 66.1926 34.4455 63.8847 34.4455 61.5244C34.4981 59.7934 33.0782 58.4297 31.3428 58.4297ZM31.3428 65.3533C30.6592 64.7239 29.1341 63.0979 29.1341 61.5244C29.1341 60.318 30.1333 59.3214 31.3428 59.3214C32.5523 59.3214 33.5515 60.318 33.5515 61.5244C33.6041 63.0979 32.0265 64.7764 31.3428 65.3533Z" fill="#3F3D56"/>
<path d="M25.1373 55.7556C25.1373 55.4933 24.927 55.3359 24.7166 55.3359C24.4537 55.3359 24.2959 55.5457 24.2959 55.7556C24.2959 55.9654 24.5063 56.1752 24.7692 56.1752C25.0322 56.1752 25.1373 55.9654 25.1373 55.7556Z" fill="#3F3D56"/>
<path d="M24.4011 59.2176C24.5063 59.27 24.5589 59.3225 24.664 59.3225C24.7692 59.3225 24.8744 59.27 24.927 59.2176C25.0322 59.1651 26.8728 57.7489 26.8728 55.7557C26.8728 54.5493 25.8736 53.5527 24.664 53.5527C23.4545 53.5527 22.4553 54.5493 22.4553 55.7557C22.4553 57.6964 24.2959 59.1651 24.4011 59.2176ZM24.664 54.392C25.4003 54.392 25.9788 54.9689 25.9788 55.7033C25.9788 56.8572 25.0848 57.8013 24.664 58.221C24.1907 57.8013 23.3493 56.8572 23.3493 55.7033C23.3493 55.0214 23.9278 54.392 24.664 54.392Z" fill="#3F3D56"/>
<path d="M25.0848 59.7422H24.1908C23.9278 59.7422 23.7701 59.952 23.7701 60.1618C23.7701 60.3716 23.9804 60.5814 24.1908 60.5814H25.0848C25.3477 60.5814 25.5055 60.3716 25.5055 60.1618C25.5055 59.952 25.3477 59.7422 25.0848 59.7422Z" fill="#3F3D56"/>
<path d="M25.0848 64.1992H24.1908C23.9278 64.1992 23.7701 64.409 23.7701 64.6188C23.7701 64.8286 23.9804 65.0385 24.1908 65.0385H25.0848C25.3477 65.0385 25.5055 64.8286 25.5055 64.6188C25.5055 64.409 25.3477 64.1992 25.0848 64.1992Z" fill="#3F3D56"/>
<path d="M27.3461 64.1992H26.452C26.1891 64.1992 26.0313 64.409 26.0313 64.6188C26.0313 64.8286 26.2417 65.0385 26.452 65.0385H27.3461C27.609 65.0385 27.7668 64.8286 27.7668 64.6188C27.7668 64.409 27.609 64.1992 27.3461 64.1992Z" fill="#3F3D56"/>
<path d="M22.876 59.7422C21.8768 59.7422 21.088 60.529 21.088 61.5256C21.088 61.7878 21.2984 61.9452 21.5087 61.9452C21.7717 61.9452 21.9294 61.7354 21.9294 61.5256C21.9294 61.0535 22.3501 60.6339 22.8234 60.6339C23.0864 60.6339 23.2441 60.4241 23.2441 60.2143C23.2441 60.0044 23.139 59.7422 22.876 59.7422Z" fill="#3F3D56"/>
<path d="M22.876 64.2C22.4027 64.2 21.982 63.7804 21.982 63.3083C21.982 63.046 21.7717 62.8887 21.5613 62.8887C21.2984 62.8887 21.1406 63.0985 21.1406 63.3083C21.1406 64.3049 21.9295 65.0917 22.9286 65.0917C23.1916 65.0917 23.3493 64.8819 23.3493 64.672C23.3493 64.4622 23.139 64.2 22.876 64.2Z" fill="#3F3D56"/>
<path d="M176.855 55.9668C176.119 55.9668 175.541 56.5438 175.541 57.2781C175.541 58.0124 176.119 58.5894 176.855 58.5894C177.592 58.5894 178.17 58.0124 178.17 57.2781C178.223 56.5438 177.592 55.9668 176.855 55.9668ZM176.855 57.7502C176.592 57.7502 176.435 57.5404 176.435 57.3306C176.435 57.0683 176.645 56.9109 176.855 56.9109C177.118 56.9109 177.276 57.1207 177.276 57.3306C177.329 57.5404 177.118 57.7502 176.855 57.7502Z" fill="#3F3D56"/>
<path d="M176.855 54.1816C175.12 54.1816 173.753 55.5978 173.753 57.2763C173.753 59.6891 176.487 61.997 176.592 62.0494C176.698 62.1019 176.803 62.1543 176.855 62.1543C176.96 62.1543 177.066 62.1019 177.118 62.0494C177.223 61.9445 179.958 59.6367 179.958 57.2763C180.011 55.5978 178.591 54.1816 176.855 54.1816ZM176.855 61.1578C176.172 60.5283 174.647 58.9023 174.647 57.3288C174.647 56.1224 175.646 55.1258 176.855 55.1258C178.065 55.1258 179.064 56.1224 179.064 57.3288C179.117 58.8499 177.539 60.5283 176.855 61.1578Z" fill="#3F3D56"/>
<path d="M170.65 51.5075C170.65 51.2452 170.439 51.0879 170.229 51.0879C169.966 51.0879 169.808 51.2977 169.808 51.5075C169.808 51.7173 170.019 51.9271 170.282 51.9271C170.545 51.9271 170.65 51.7698 170.65 51.5075Z" fill="#3F3D56"/>
<path d="M169.914 54.9695C170.019 55.022 170.071 55.0744 170.177 55.0744C170.282 55.0744 170.387 55.022 170.44 54.9695C170.545 54.9171 172.385 53.5008 172.385 51.5077C172.385 50.3013 171.386 49.3047 170.177 49.3047C168.967 49.3047 167.968 50.3013 167.968 51.5077C167.968 53.5008 169.808 54.9171 169.914 54.9695ZM170.177 50.1964C170.913 50.1964 171.491 50.7733 171.491 51.5077C171.491 52.6616 170.597 53.6058 170.177 54.0254C169.703 53.6058 168.862 52.6616 168.862 51.5077C168.862 50.7733 169.44 50.1964 170.177 50.1964Z" fill="#3F3D56"/>
<path d="M170.65 55.4941H169.756C169.493 55.4941 169.335 55.7039 169.335 55.9138C169.335 56.1236 169.545 56.3334 169.756 56.3334H170.65C170.913 56.3334 171.071 56.1236 171.071 55.9138C171.071 55.7039 170.86 55.4941 170.65 55.4941Z" fill="#3F3D56"/>
<path d="M170.65 59.9512H169.756C169.493 59.9512 169.335 60.161 169.335 60.3708C169.335 60.5806 169.545 60.7904 169.756 60.7904H170.65C170.913 60.7904 171.071 60.5806 171.071 60.3708C171.071 60.161 170.86 59.9512 170.65 59.9512Z" fill="#3F3D56"/>
<path d="M172.859 59.9512H171.965C171.702 59.9512 171.544 60.161 171.544 60.3708C171.544 60.5806 171.754 60.7904 171.965 60.7904H172.859C173.122 60.7904 173.279 60.5806 173.279 60.3708C173.279 60.161 173.122 59.9512 172.859 59.9512Z" fill="#3F3D56"/>
<path d="M168.389 55.4941C167.389 55.4941 166.601 56.2809 166.601 57.2775C166.601 57.5398 166.811 57.6971 167.021 57.6971C167.232 57.6971 167.442 57.4873 167.442 57.2775C167.442 56.8054 167.863 56.3858 168.336 56.3858C168.599 56.3858 168.757 56.176 168.757 55.9662C168.757 55.7564 168.651 55.4941 168.389 55.4941Z" fill="#3F3D56"/>
<path d="M168.389 59.9519C167.915 59.9519 167.495 59.5323 167.495 59.0602C167.495 58.798 167.284 58.6406 167.074 58.6406C166.863 58.6406 166.653 58.8504 166.653 59.0602C166.653 60.0568 167.442 60.8436 168.441 60.8436C168.704 60.8436 168.862 60.6338 168.862 60.424C168.862 60.2142 168.651 59.9519 168.389 59.9519Z" fill="#3F3D56"/>
<path d="M108.911 50.5117H41.2294V56.4388H108.911V50.5117Z" fill="#F2F2F2"/>
<path d="M108.911 58.7988H41.2294V64.7259H108.911V58.7988Z" fill="#F2F2F2"/>
<path d="M183.955 82.8223H167.337V83.5041H183.955V82.8223Z" fill="#3F3D56"/>
<path d="M183.955 89.8496H167.337V90.5315H183.955V89.8496Z" fill="#3F3D56"/>
<path d="M108.911 69.2363H90.9782V74.0095H108.911V69.2363Z" fill="#F2F2F2"/>
<path d="M113.118 0V17.991" stroke="#1B458F" stroke-width="2.5922" stroke-miterlimit="10" stroke-dasharray="3.34 3.34"/>
<path d="M46.909 103.436H139.991" stroke="#1B458F" stroke-width="2.5922" stroke-miterlimit="10" stroke-dasharray="3.34 3.34"/>
</g>
<defs>
<clipPath id="clip0">
<rect width="193" height="123" fill="white"/>
</clipPath>
</defs>
</svg>
