<svg xmlns="http://www.w3.org/2000/svg" xmlns:xlink="http://www.w3.org/1999/xlink" viewBox="0 0 267.47 235.02"><defs><style>.cls-1{fill:#f2f2f2;}.cls-2,.cls-3,.cls-4{fill:none;stroke:#1b458f;stroke-width:2.59px;}.cls-11,.cls-2,.cls-3,.cls-4,.cls-8{stroke-miterlimit:10;}.cls-3{stroke-dasharray:3.09 7.72 3.09 7.72;}.cls-4{stroke-dasharray:3.09 7.72 3.09 7.72 3.09 7.72;}.cls-5{fill:#1b458f;}.cls-6{fill:#546389;}.cls-7{fill:#2f3133;}.cls-10,.cls-11,.cls-14,.cls-8{fill:#fff;}.cls-11,.cls-8{stroke:#5770be;}.cls-8{stroke-width:5.65px;}.cls-9{fill:#5770be;}.cls-11{stroke-width:3.95px;}.cls-12{fill:#ccdcff;}.cls-13{fill:#000091;}.cls-14{font-size:5.27px;font-family:MyriadPro-Regular, Myriad Pro;}.cls-15{letter-spacing:-0.08em;}.cls-16{letter-spacing:-0.01em;}.cls-17{fill:url(#Dégradé_sans_nom_47);}</style><linearGradient id="Dégradé_sans_nom_47" x1="185.41" y1="89.8" x2="191.15" y2="89.8" gradientUnits="userSpaceOnUse"><stop offset="0.08" stop-color="#3fe946"/><stop offset="0.14" stop-color="#43e94a"/><stop offset="0.2" stop-color="#4eeb54"/><stop offset="0.26" stop-color="#61ed66"/><stop offset="0.32" stop-color="#7bf080"/><stop offset="0.38" stop-color="#9df4a0"/><stop offset="0.44" stop-color="#c6f9c8"/><stop offset="0.49" stop-color="#f7fef7"/><stop offset="0.5" stop-color="#fff"/><stop offset="0.53" stop-color="#e4fce5"/><stop offset="0.59" stop-color="#b6f7b9"/><stop offset="0.65" stop-color="#8ef292"/><stop offset="0.71" stop-color="#6dee73"/><stop offset="0.78" stop-color="#54ec5b"/><stop offset="0.84" stop-color="#42ea4a"/><stop offset="0.91" stop-color="#37e83f"/><stop offset="0.99" stop-color="#34e83c"/></linearGradient></defs><g id="Calque_2" data-name="Calque 2"><g id="vignettes"><circle class="cls-1" cx="126.96" cy="154.86" r="80.17"/><path class="cls-2" d="M.7,29.73l1.41-.89"/><path class="cls-3" d="M8.69,24.8q8-4.77,15.62-8.46"/><path class="cls-4" d="M27.79,14.68c78.23-36.28,120,9.65,137.11,37.7"/><path class="cls-2" d="M166.86,55.7c.28.5.55,1,.81,1.46"/><polygon class="cls-5" points="155.68 54.93 166.09 54.37 172.91 46.48 174.32 71.13 155.68 54.93"/><polygon class="cls-6" points="182.79 86.04 176.79 91.25 182.79 91.25 182.79 86.04"/><polygon class="cls-6" points="209.63 86.04 215.63 91.25 209.63 91.25 209.63 86.04"/><path class="cls-7" d="M247.23,125.51h2.66v-6.12s14.78-2.9,16.72,0,0,8.6,0,8.6H250.38Z"/><path class="cls-7" d="M152.17,185.21h-4.73a6.14,6.14,0,0,1-6.37-5.89V169.24a6.14,6.14,0,0,1,6.37-5.89h4.73a6.14,6.14,0,0,1,6.36,5.89v10.08A6.14,6.14,0,0,1,152.17,185.21Z"/><path class="cls-7" d="M242.31,185.21h-5.24c-3.9,0-7.06-2.64-7.06-5.89V169.24c0-3.25,3.16-5.89,7.06-5.89h5.24c3.89,0,7.05,2.64,7.05,5.89v10.08C249.36,182.57,246.2,185.21,242.31,185.21Z"/><path class="cls-8" d="M247.07,130.82H144.32l10.79-27.44c2.18-5.64,8.79-9.43,16.43-9.43h48.37c7.64,0,14.24,3.79,16.43,9.43Z"/><path class="cls-9" d="M260.05,150v10.56H131.34V150c0-10.56,7.64-19.14,17-19.14H243C252.4,130.82,260.05,139.4,260.05,150Z"/><path class="cls-6" d="M263.1,165h0c0,3.13-3.19,5.66-7.11,5.66H135.4c-3.93,0-7.11-2.53-7.11-5.66h0c0-3.13,3.18-5.66,7.11-5.66H256C259.91,159.36,263.1,161.89,263.1,165Z"/><polygon class="cls-10" points="249.47 154.86 249.47 144.1 233.31 147.55 233.31 154.86 249.47 154.86"/><polygon class="cls-10" points="142.12 154.86 142.12 144.1 158.28 147.55 158.28 154.86 142.12 154.86"/><path class="cls-7" d="M143.71,125.77l-2.65-.22.5-6.09s-14.49-4.1-16.66-1.36-.7,8.56-.7,8.56L140.37,128Z"/><path class="cls-11" d="M247.07,130.82H144.32l10.79-27.44c2.18-5.64,8.79-9.43,16.43-9.43h48.37c7.64,0,14.24,3.79,16.43,9.43Z"/><path class="cls-12" d="M172.44,95.86c-7.34,0-13.69,3.41-15.78,8.47L146.29,129h14.35l13.24-33.15Z"/><path class="cls-12" d="M234.68,104.33c-2.09-5.06-8.44-8.47-15.78-8.47h-35L172.27,129H245Z"/><rect class="cls-10" x="169.64" y="150.99" width="52.12" height="1.51"/><path class="cls-13" d="M210.79,88.15H196.84a1.72,1.72,0,0,0-.64,0H182.25a1.52,1.52,0,0,1-1.4-2.12l1.26-2.92a1.53,1.53,0,0,1,1.4-.93h3.85a1.53,1.53,0,0,0,1.46-1.08l.79-2.63a1.52,1.52,0,0,1,1.46-1.09H202a1.52,1.52,0,0,1,1.45,1.09l.8,2.63a1.52,1.52,0,0,0,1.46,1.08h3.85a1.53,1.53,0,0,1,1.4.93L212.19,86A1.52,1.52,0,0,1,210.79,88.15Z"/><text class="cls-14" transform="translate(191.7 83.78)"><tspan class="cls-15">T</tspan><tspan class="cls-16" x="2.22" y="0">A</tspan><tspan x="5.37" y="0">XI</tspan></text><path class="cls-17" d="M186.89,86.79,185.41,92a.84.84,0,0,0,.84.84h4.06a.85.85,0,0,0,.84-.84l-1.47-5.17Z"/><rect class="cls-6" x="184.99" y="86.4" width="23.07" height="0.78"/></g></g></svg>