<svg xmlns="http://www.w3.org/2000/svg" xmlns:xlink="http://www.w3.org/1999/xlink" viewBox="0 0 373.5 222.98"><defs><style>.cls-1{fill:none;stroke:#1b458f;stroke-width:2.59px;stroke-dasharray:3.34 8.35 3.34 8.35 3.34 8.35;}.cls-1,.cls-15,.cls-16,.cls-21,.cls-22,.cls-5,.cls-8{stroke-miterlimit:10;}.cls-2{fill:#f2f2f2;}.cls-3{fill:#546389;}.cls-4{fill:#2f3133;}.cls-11,.cls-15,.cls-16,.cls-17,.cls-21,.cls-22,.cls-23,.cls-5,.cls-7,.cls-8{fill:#fff;}.cls-15,.cls-16,.cls-21,.cls-22,.cls-5,.cls-8{stroke:#5770be;}.cls-5{stroke-width:4.17px;}.cls-6{fill:#5770be;}.cls-8{stroke-width:2.91px;}.cls-9{fill:#ccdcff;}.cls-10{fill:#000091;}.cls-11{font-size:3.88px;}.cls-11,.cls-17,.cls-23{font-family:MyriadPro-Regular, Myriad Pro;}.cls-12{letter-spacing:-0.07em;}.cls-13{letter-spacing:-0.01em;}.cls-14{fill:url(#Dégradé_sans_nom_47);}.cls-15{stroke-width:5.03px;}.cls-16{stroke-width:3.51px;}.cls-17{font-size:4.69px;}.cls-18{letter-spacing:-0.08em;}.cls-19{letter-spacing:-0.01em;}.cls-20{fill:url(#Dégradé_sans_nom_47-2);}.cls-21{stroke-width:3.1px;}.cls-22{stroke-width:2.17px;}.cls-23{font-size:2.89px;}.cls-24{letter-spacing:-0.08em;}.cls-25{letter-spacing:-0.01em;}.cls-26{fill:url(#Dégradé_sans_nom_47-3);}</style><linearGradient id="Dégradé_sans_nom_47" x1="127.48" y1="36.61" x2="131.71" y2="36.61" gradientUnits="userSpaceOnUse"><stop offset="0.08" stop-color="#3fe946"/><stop offset="0.14" stop-color="#43e94a"/><stop offset="0.2" stop-color="#4eeb54"/><stop offset="0.26" stop-color="#61ed66"/><stop offset="0.32" stop-color="#7bf080"/><stop offset="0.38" stop-color="#9df4a0"/><stop offset="0.44" stop-color="#c6f9c8"/><stop offset="0.49" stop-color="#f7fef7"/><stop offset="0.5" stop-color="#fff"/><stop offset="0.53" stop-color="#e4fce5"/><stop offset="0.59" stop-color="#b6f7b9"/><stop offset="0.65" stop-color="#8ef292"/><stop offset="0.71" stop-color="#6dee73"/><stop offset="0.78" stop-color="#54ec5b"/><stop offset="0.84" stop-color="#42ea4a"/><stop offset="0.91" stop-color="#37e83f"/><stop offset="0.99" stop-color="#34e83c"/></linearGradient><linearGradient id="Dégradé_sans_nom_47-2" x1="200.84" y1="124.09" x2="205.95" y2="124.09" xlink:href="#Dégradé_sans_nom_47"/><linearGradient id="Dégradé_sans_nom_47-3" x1="245.54" y1="53.88" x2="248.69" y2="53.88" xlink:href="#Dégradé_sans_nom_47"/></defs><g id="Calque_2" data-name="Calque 2"><g id="vignettes"><path class="cls-1" d="M26,170.49A114.09,114.09,0,0,1,57.89,1.12"/><path class="cls-1" d="M42.22,155.44A90.9,90.9,0,0,1,67.65,20.51"/><path class="cls-1" d="M52.18,133.33A59.84,59.84,0,0,1,68.93,44.49"/><circle class="cls-2" cx="251.64" cy="142.81" r="80.17"/><polygon class="cls-3" points="125.56 33.84 121.13 37.68 125.56 37.68 125.56 33.84"/><polygon class="cls-3" points="145.33 33.84 149.76 37.68 145.33 37.68 145.33 33.84"/><path class="cls-4" d="M173.06,62.93h2V58.42s10.89-2.14,12.32,0,0,6.34,0,6.34h-12Z"/><path class="cls-4" d="M103,106.94H99.49a4.52,4.52,0,0,1-4.69-4.34V95.17a4.52,4.52,0,0,1,4.69-4.34H103a4.52,4.52,0,0,1,4.69,4.34v7.43A4.52,4.52,0,0,1,103,106.94Z"/><path class="cls-4" d="M169.43,106.94h-3.87c-2.87,0-5.2-1.94-5.2-4.34V95.17c0-2.4,2.33-4.34,5.2-4.34h3.87c2.87,0,5.2,1.94,5.2,4.34v7.43C174.63,105,172.3,106.94,169.43,106.94Z"/><path class="cls-5" d="M172.93,66.85H97.19l8-20.23c1.61-4.16,6.48-6.95,12.11-6.95h35.65c5.64,0,10.51,2.79,12.11,6.95Z"/><path class="cls-6" d="M182.5,81v7.79H87.62V81c0-7.78,5.64-14.1,12.57-14.1h69.74C176.87,66.85,182.5,73.17,182.5,81Z"/><path class="cls-3" d="M184.75,92.06h0c0,2.3-2.35,4.17-5.24,4.17H90.62c-2.9,0-5.24-1.87-5.24-4.17h0c0-2.31,2.34-4.18,5.24-4.18h88.89C182.4,87.88,184.75,89.75,184.75,92.06Z"/><polygon class="cls-7" points="174.71 84.57 174.71 76.64 162.79 79.18 162.79 84.57 174.71 84.57"/><polygon class="cls-7" points="95.57 84.57 95.57 76.64 107.48 79.18 107.48 84.57 95.57 84.57"/><path class="cls-4" d="M96.74,63.13,94.79,63l.37-4.5s-10.69-3-12.28-1-.52,6.31-.52,6.31l11.92,1Z"/><path class="cls-8" d="M172.93,66.85H97.19l8-20.23c1.61-4.16,6.48-6.95,12.11-6.95h35.65c5.64,0,10.51,2.79,12.11,6.95Z"/><path class="cls-9" d="M117.92,41.07c-5.41,0-10.09,2.52-11.63,6.25L98.65,65.51h10.57L119,41.07Z"/><path class="cls-9" d="M163.8,47.32c-1.54-3.73-6.22-6.25-11.63-6.25h-25.8L117.8,65.51h53.6Z"/><rect class="cls-7" x="115.85" y="81.72" width="38.42" height="1.12"/><path class="cls-10" d="M146.19,35.4H135.91a1,1,0,0,1-.24,0,.85.85,0,0,1-.23,0H125.15a1.13,1.13,0,0,1-1-1.57l.93-2.15a1.11,1.11,0,0,1,1-.69h2.84A1.11,1.11,0,0,0,130,30.2l.59-1.95a1.12,1.12,0,0,1,1.07-.79h8a1.13,1.13,0,0,1,1.07.79l.59,1.95a1.11,1.11,0,0,0,1.07.79h2.84a1.12,1.12,0,0,1,1,.69l.93,2.15A1.13,1.13,0,0,1,146.19,35.4Z"/><text class="cls-11" transform="translate(132.12 32.17)"><tspan class="cls-12">T</tspan><tspan class="cls-13" x="1.64" y="0">A</tspan><tspan x="3.96" y="0">XI</tspan></text><path class="cls-14" d="M128.58,34.39l-1.1,3.82a.62.62,0,0,0,.62.62h3a.62.62,0,0,0,.62-.62l-1.08-3.81Z"/><rect class="cls-3" x="127.17" y="34.1" width="17.01" height="0.57"/><polygon class="cls-3" points="198.51 120.75 193.17 125.39 198.51 125.39 198.51 120.75"/><polygon class="cls-3" points="222.38 120.75 227.72 125.39 222.38 125.39 222.38 120.75"/><path class="cls-4" d="M255.84,155.86h2.36v-5.44s13.15-2.59,14.87,0,0,7.64,0,7.64H258.64Z"/><path class="cls-4" d="M171.27,209h-4.21a5.46,5.46,0,0,1-5.66-5.24v-9a5.46,5.46,0,0,1,5.66-5.24h4.21a5.47,5.47,0,0,1,5.66,5.24v9A5.47,5.47,0,0,1,171.27,209Z"/><path class="cls-4" d="M251.46,209h-4.67c-3.46,0-6.27-2.35-6.27-5.24v-9c0-2.89,2.81-5.24,6.27-5.24h4.67c3.46,0,6.27,2.35,6.27,5.24v9C257.73,206.62,254.92,209,251.46,209Z"/><path class="cls-15" d="M255.69,160.59h-91.4l9.6-24.42c1.94-5,7.82-8.39,14.61-8.39h43c6.79,0,12.67,3.38,14.61,8.39Z"/><path class="cls-6" d="M267.23,177.61V187H152.74v-9.39c0-9.4,6.8-17,15.17-17h84.16C260.44,160.59,267.23,168.21,267.23,177.61Z"/><path class="cls-3" d="M270,191h0c0,2.78-2.83,5-6.33,5H156.35c-3.49,0-6.32-2.26-6.32-5h0c0-2.78,2.83-5,6.32-5H263.62C267.12,186,270,188.23,270,191Z"/><polygon class="cls-7" points="257.83 181.97 257.83 172.4 243.45 175.47 243.45 181.97 257.83 181.97"/><polygon class="cls-7" points="162.33 181.97 162.33 172.4 176.71 175.47 176.71 181.97 162.33 181.97"/><path class="cls-4" d="M163.75,156.09l-2.36-.19.44-5.42s-12.89-3.65-14.82-1.21-.62,7.61-.62,7.61l14.39,1.18Z"/><path class="cls-16" d="M255.69,160.59h-91.4l9.6-24.42c1.94-5,7.82-8.39,14.61-8.39h43c6.79,0,12.67,3.38,14.61,8.39Z"/><path class="cls-9" d="M189.3,129.48c-6.53,0-12.17,3-14,7.54L166,159h12.77l11.78-29.49Z"/><path class="cls-9" d="M244.67,137c-1.86-4.5-7.51-7.54-14-7.54H199.49L189.15,159h64.69Z"/><rect class="cls-7" x="186.81" y="178.53" width="46.36" height="1.35"/><path class="cls-10" d="M223.42,122.63H211a1.27,1.27,0,0,1-.28,0,1.43,1.43,0,0,1-.29,0H198a1.35,1.35,0,0,1-1.24-1.89l1.11-2.6a1.36,1.36,0,0,1,1.25-.82h3.42a1.35,1.35,0,0,0,1.3-1l.71-2.35a1.34,1.34,0,0,1,1.29-1h9.71a1.35,1.35,0,0,1,1.29,1l.71,2.35a1.35,1.35,0,0,0,1.3,1h3.42a1.35,1.35,0,0,1,1.25.82l1.12,2.6A1.36,1.36,0,0,1,223.42,122.63Z"/><text class="cls-17" transform="translate(206.43 118.74)"><tspan class="cls-18">T</tspan><tspan class="cls-19" x="1.98" y="0">A</tspan><tspan x="4.78" y="0">XI</tspan></text><path class="cls-20" d="M202.16,121.41,200.84,126a.74.74,0,0,0,.75.75h3.61A.75.75,0,0,0,206,126l-1.31-4.6Z"/><rect class="cls-3" x="200.46" y="121.07" width="20.52" height="0.69"/><polygon class="cls-3" points="244.11 51.82 240.82 54.68 244.11 54.68 244.11 51.82"/><polygon class="cls-3" points="258.82 51.82 262.12 54.68 258.82 54.68 258.82 51.82"/><path class="cls-4" d="M279.44,73.46h1.46V70.11s8.1-1.59,9.17,0,0,4.71,0,4.71h-8.9Z"/><path class="cls-4" d="M227.32,106.19h-2.6a3.37,3.37,0,0,1-3.49-3.22V97.44a3.37,3.37,0,0,1,3.49-3.23h2.6a3.37,3.37,0,0,1,3.49,3.23V103A3.37,3.37,0,0,1,227.32,106.19Z"/><path class="cls-4" d="M276.74,106.19h-2.87c-2.14,0-3.87-1.44-3.87-3.22V97.44c0-1.78,1.73-3.23,3.87-3.23h2.87c2.14,0,3.87,1.45,3.87,3.23V103C280.61,104.75,278.88,106.19,276.74,106.19Z"/><path class="cls-21" d="M279.35,76.37H223l5.91-15c1.2-3.09,4.82-5.17,9-5.17h26.52c4.19,0,7.81,2.08,9,5.17Z"/><path class="cls-6" d="M286.47,86.87v5.79H215.9V86.87c0-5.79,4.19-10.5,9.35-10.5h51.87C282.28,76.37,286.47,81.08,286.47,86.87Z"/><path class="cls-3" d="M288.14,95.13h0c0,1.71-1.75,3.1-3.9,3.1H218.12c-2.15,0-3.89-1.39-3.89-3.1h0c0-1.72,1.74-3.11,3.89-3.11h66.12C286.39,92,288.14,93.41,288.14,95.13Z"/><polygon class="cls-7" points="280.67 89.55 280.67 83.65 271.81 85.55 271.81 89.55 280.67 89.55"/><polygon class="cls-7" points="221.81 89.55 221.81 83.65 230.67 85.55 230.67 89.55 221.81 89.55"/><path class="cls-4" d="M222.68,73.61l-1.45-.12.27-3.34s-7.94-2.25-9.13-.75-.39,4.69-.39,4.69l8.87.73Z"/><path class="cls-22" d="M279.35,76.37H223l5.91-15c1.2-3.09,4.82-5.17,9-5.17h26.52c4.19,0,7.81,2.08,9,5.17Z"/><path class="cls-9" d="M238.43,57.2c-4,0-7.5,1.87-8.65,4.65L224.1,75.38H232l7.27-18.18Z"/><path class="cls-9" d="M272.56,61.85c-1.15-2.78-4.63-4.65-8.65-4.65H244.72l-6.38,18.18h39.87Z"/><rect class="cls-7" x="236.9" y="87.43" width="28.58" height="0.83"/><path class="cls-10" d="M259.46,53h-7.65l-.17,0-.18,0h-7.65a.83.83,0,0,1-.76-1.16l.68-1.61a.86.86,0,0,1,.77-.5h2.11a.85.85,0,0,0,.8-.6l.44-1.44a.82.82,0,0,1,.8-.59h6a.83.83,0,0,1,.8.59l.43,1.44a.85.85,0,0,0,.8.6h2.11a.84.84,0,0,1,.77.5l.69,1.61A.83.83,0,0,1,259.46,53Z"/><text class="cls-23" transform="translate(248.99 50.58)"><tspan class="cls-24">T</tspan><tspan class="cls-25" x="1.22" y="0">A</tspan><tspan x="2.95" y="0">XI</tspan></text><path class="cls-26" d="M246.36,52.23l-.82,2.84a.46.46,0,0,0,.47.46h2.22a.46.46,0,0,0,.46-.46l-.8-2.84Z"/><rect class="cls-3" x="245.31" y="52.02" width="12.65" height="0.42"/><path class="cls-1" d="M347.54,173.42A114.11,114.11,0,0,0,315.61,4.05"/><path class="cls-1" d="M331.28,158.37A90.91,90.91,0,0,0,305.85,23.44"/><path class="cls-1" d="M321.32,136.26a59.86,59.86,0,0,0-16.75-88.84"/></g></g></svg>