<svg width="223" height="119" viewBox="0 0 223 119" fill="none" xmlns="http://www.w3.org/2000/svg">
<g clip-path="url(#clip0)">
<path d="M179.922 69.2246H223" stroke="#1B458F" stroke-width="2.5922" stroke-miterlimit="10" stroke-dasharray="3.34 3.34"/>
<path d="M0 69.2246H44.8255" stroke="#1B458F" stroke-width="2.5922" stroke-miterlimit="10" stroke-dasharray="3.34 3.34"/>
<path d="M118.971 119C143.945 119 164.191 98.7586 164.191 73.7899C164.191 48.8212 143.945 28.5801 118.971 28.5801C93.9965 28.5801 73.7507 48.8212 73.7507 73.7899C73.7507 98.7586 93.9965 119 118.971 119Z" fill="#F2F2F2"/>
<path d="M163.007 104.456L162.838 104.4C162.782 104.4 159.342 103.047 157.763 100.059C156.128 97.0715 156.918 93.4638 156.974 93.4074L157.03 93.2383L157.199 93.2947C157.256 93.2947 160.695 94.6476 162.274 97.6353C163.909 100.623 163.12 104.231 163.063 104.287L163.007 104.456ZM157.989 99.9465C159.342 102.483 162.049 103.78 162.782 104.062C162.894 103.329 163.345 100.341 161.936 97.8044C160.583 95.2677 157.876 93.9711 157.143 93.6893C157.03 94.4221 156.636 97.4098 157.989 99.9465Z" fill="#3F3D56"/>
<path d="M159.004 99.0448C161.879 100.792 163.007 104.231 163.007 104.231C163.007 104.231 159.398 104.851 156.523 103.104C153.647 101.356 152.52 97.9174 152.52 97.9174C152.52 97.9174 156.072 97.2973 159.004 99.0448Z" fill="#459C99"/>
<path d="M112.261 56.0323C112.825 55.1868 113.953 54.9613 114.798 55.4686C114.855 55.525 114.911 55.525 114.968 55.5814C115.024 55.6377 115.08 55.6941 115.137 55.7505L122.354 54.6794L122.749 49.2678C122.805 48.4222 123.594 47.7457 124.44 47.8021C125.286 47.8585 125.963 48.6477 125.906 49.4933C125.906 49.4933 125.906 49.4933 125.906 49.5496L125.23 57.1598C125.06 57.7798 124.497 58.1744 123.876 58.1744L115.362 58.0053C115.306 58.0617 115.306 58.1181 115.25 58.1744C114.629 58.9636 113.445 59.0764 112.656 58.3999C112.6 58.3436 112.543 58.2872 112.487 58.2308C112.43 58.1744 112.43 58.1744 112.374 58.1181C111.923 57.6107 111.867 56.7088 112.261 56.0323Z" fill="#FFB7B7"/>
<path d="M126.865 102.37H124.779L123.82 94.4219H126.865V102.37Z" fill="#FFB7B7"/>
<path d="M127.372 104.343H120.719V104.286C120.719 102.877 121.903 101.693 123.313 101.693H127.372V104.343Z" fill="#2F2E41"/>
<path d="M141.243 100.511L139.269 101.187L135.773 93.9717L138.649 92.957L141.243 100.511Z" fill="#FFB7B7"/>
<path d="M142.37 102.201L136.055 104.343V104.287C135.604 102.934 136.337 101.468 137.691 101.017L141.525 99.7207L142.37 102.201Z" fill="#2F2E41"/>
<path d="M129.12 32.9221C129.12 32.9221 127.09 32.2456 125.737 34.9514C124.384 37.6573 122.354 40.5886 122.354 40.5886L123.538 40.8704C123.538 40.8704 123.82 38.9538 124.553 38.7283L124.271 41.1523C124.271 41.1523 133.067 43.9709 137.014 40.8704L136.845 39.9121C136.845 39.9121 137.409 40.0249 137.409 40.8704L137.86 40.4758C137.86 40.4758 137.409 39.6866 136.112 38.5592C135.266 37.8264 134.928 36.4735 134.871 35.6279C134.815 34.8951 134.477 34.2186 133.969 33.7113C133.123 32.8093 131.545 31.7946 129.12 32.9221Z" fill="#2F2E41"/>
<path d="M129.853 42.3355C131.908 42.3355 133.574 40.6698 133.574 38.615C133.574 36.5603 131.908 34.8945 129.853 34.8945C127.798 34.8945 126.132 36.5603 126.132 38.615C126.132 40.6698 127.798 42.3355 129.853 42.3355Z" fill="#FFB7B7"/>
<path d="M124.891 45.4364L124.215 45.2109C124.215 45.2109 122.861 45.7747 122.861 46.7893C122.861 47.804 122.636 51.9191 122.636 51.9191L125.681 52.2574L124.891 45.4364Z" fill="#CBCBCB"/>
<path d="M137.07 67.7584C136.506 67.0819 136.45 66.1236 137.014 65.4472L135.097 49.4377C135.04 48.6485 135.661 47.972 136.45 47.9157C137.239 47.8593 137.916 48.4794 137.972 49.2686L139.664 65.2781C139.72 65.3344 139.777 65.3908 139.833 65.5035C140.397 66.2927 140.228 67.4202 139.438 67.9839C139.438 67.9839 139.382 67.9839 139.382 68.0403C138.931 68.3221 138.367 68.4349 137.86 68.2657C137.578 68.2094 137.296 67.9839 137.07 67.7584Z" fill="#FFB7B7"/>
<path d="M135.322 51.9175L138.367 51.5793C138.367 51.5793 138.142 47.5205 138.142 46.4495C138.142 45.3784 136.788 44.8711 136.788 44.8711L136.112 45.0966L135.322 51.9175Z" fill="#CBCBCB"/>
<path d="M125.342 57.5549C125.342 57.5549 122.749 62.3465 122.749 68.0963C122.749 73.8462 122.523 100.454 122.523 100.454C122.523 100.454 125.906 102.032 127.992 100.115L129.797 70.7458L136.958 99.5516C136.958 99.5516 140.341 100.228 141.976 99.1006L138.931 79.0324C138.931 79.0324 137.691 60.2043 134.251 58.8514C130.755 57.4421 125.342 57.5549 125.342 57.5549Z" fill="#2F2E41"/>
<path d="M125.85 38.6152C127.203 37.6569 128.274 36.5294 128.951 35.2329C128.951 35.2329 131.375 37.9387 132.898 38.0515C134.364 38.1642 133.011 34.7819 133.011 34.7819L130.304 34.1055L127.711 34.3873L125.681 35.7402L125.85 38.6152Z" fill="#2F2E41"/>
<path d="M133.631 44.1957C133.631 44.1957 133.744 44.1393 127.259 44.3648L124.553 45.0977L124.215 45.2104C124.215 45.2104 124.553 52.0313 125.455 53.2715C126.357 54.5117 126.132 55.1881 125.906 55.3009C125.681 55.4136 125.117 55.1881 125.455 55.7519C125.793 56.3156 126.245 55.9773 125.793 56.3156C125.342 56.6538 125.117 57.894 125.117 57.894L135.097 59.2469C135.097 59.2469 135.435 54.7935 136.337 52.5387C137.24 50.2838 137.465 49.3819 137.465 49.3819L136.788 44.8158L133.631 44.1957Z" fill="#CBCBCB"/>
<path d="M114.629 24.8598H114.065V9.13216C114.065 4.05874 109.949 0 104.931 0H71.6081C66.5899 0 62.4738 4.05874 62.4738 9.13216V95.4368C62.4738 100.454 66.5335 104.569 71.6081 104.569H104.931C109.949 104.569 114.065 100.51 114.065 95.4368V36.0213H114.629V24.8598Z" fill="#3F3D56"/>
<path d="M112.092 9.18812V95.38C112.092 99.1568 109.047 102.201 105.326 102.201H71.8337C68.0559 102.201 65.0112 99.1568 65.0112 95.4363V9.18812C65.0112 5.41124 68.0559 2.36719 71.7773 2.36719H75.837C75.1603 4.00196 75.9497 5.91858 77.5849 6.59504C77.9796 6.76415 78.3743 6.82053 78.8253 6.82053H97.9396C99.7439 6.82053 101.154 5.35487 101.154 3.60736C101.154 3.21276 101.097 2.76179 100.928 2.36719H105.27C109.047 2.36719 112.092 5.41124 112.092 9.18812Z" fill="white"/>
<path d="M112.092 21.9281V18.9967H107.694V2.76179C106.961 2.47993 106.115 2.36719 105.326 2.36719H104.762V18.9967H89.3692V6.82053H86.4372V18.9967H73.5252V2.36719H71.89C71.4389 2.36719 71.0442 2.42356 70.5932 2.47993V18.9967H65.0675V21.9281H70.5932V28.6926L65.0675 31.8494V35.2317L70.5932 32.0749V52.2559H65.0675V55.2435H70.5932V84.4439H65.0675V87.3752H70.5932V102.032C71.0442 102.088 71.4389 102.145 71.89 102.145H73.5252V87.3752H86.4372V102.145H89.3692V87.3752H104.762V102.145H105.326C106.115 102.145 106.905 101.975 107.694 101.75V87.3752H112.148V84.4439H107.694V71.6476H112.092V68.7163H107.694V55.2435H112.148V52.3122H107.694V34.3861H112.148V31.4548H107.694V21.9281H112.092ZM82.2647 21.9281L73.4124 27.0015V21.9281H82.2647ZM73.4688 30.3838L86.3808 22.9427V52.3122H73.4688V30.3838ZM73.4688 84.4439V55.2435H86.3808V84.4439H73.4688ZM104.706 84.4439H89.3128V71.6476H104.706V84.4439ZM104.706 68.7163H89.3128V55.2435H104.706V68.7163ZM104.706 52.3122H89.3128V34.3861H104.706V52.3122ZM104.706 31.4548H89.3128V21.9281H104.706V31.4548Z" fill="#E5E5E5"/>
<path d="M114.573 31.5113C114.573 40.8126 97.7141 61.6136 97.7141 61.6136C97.7141 61.6136 80.8552 40.8689 80.8552 31.5113C80.8552 22.1536 88.3543 14.6562 97.7141 14.6562C107.074 14.6562 114.573 22.21 114.573 31.5113Z" fill="#459C99"/>
<path d="M107.694 30.7785C107.694 36.3029 103.24 40.7563 97.714 40.7563C92.1884 40.7563 87.734 36.3029 87.734 30.7785C87.734 25.2541 92.1884 20.8008 97.714 20.8008C103.183 20.8008 107.694 25.2541 107.694 30.7785Z" fill="white"/>
<path d="M97.714 73.7904C100.236 73.7904 102.281 71.7461 102.281 69.2243C102.281 66.7025 100.236 64.6582 97.714 64.6582C95.1917 64.6582 93.1469 66.7025 93.1469 69.2243C93.1469 71.7461 95.1917 73.7904 97.714 73.7904Z" fill="#459C99"/>
<path d="M168.082 104.625H50.0693C50.0129 104.625 49.9001 104.569 49.9001 104.456C49.9001 104.4 49.9565 104.287 50.0693 104.287H168.082C168.138 104.287 168.251 104.343 168.251 104.456C168.251 104.513 168.194 104.625 168.082 104.625Z" fill="#CBCBCB"/>
</g>
<defs>
<clipPath id="clip0">
<rect width="223" height="119" fill="white"/>
</clipPath>
</defs>
</svg>
