<svg width="183" height="289" viewBox="0 0 183 289" fill="none" xmlns="http://www.w3.org/2000/svg">
<path d="M127.277 251.244C127.746 250.357 128.299 249.534 128.924 248.79C129.182 248.478 129.454 248.183 129.735 247.897C131.441 246.122 133.52 244.91 135.759 244.387C137.998 243.863 140.317 244.045 142.475 244.916C144.634 245.786 146.556 247.313 148.042 249.339C149.529 251.365 150.527 253.818 150.934 256.444C152.818 248.3 147.913 240.278 142.982 234.115C138.048 227.955 132.409 221.198 132.437 212.757C132.451 208.06 134.417 203.87 137.384 200.764C137.476 200.67 137.568 200.576 137.661 200.485C141.248 196.891 145.863 195.011 150.585 195.221C159.356 195.77 167.014 202.66 172.333 210.833C180.894 223.984 184.646 242.443 178.652 257.413C173.381 270.579 162.137 278.397 150.663 284.683C149.06 285.56 147.461 286.412 145.865 287.237C145.855 287.24 145.843 287.249 145.833 287.252C145.756 287.292 145.679 287.331 145.607 287.372C145.278 287.541 144.948 287.711 144.622 287.879L144.773 287.995L145.245 288.352C145.081 288.236 144.919 288.124 144.756 288.008C144.707 287.973 144.656 287.94 144.607 287.905C138.972 283.952 133.257 279.771 129.364 273.601C125.326 267.194 123.703 258.017 127.277 251.244Z" fill="#F1F1F1"/>
<path d="M164.877 236.368C166.125 239.687 166.952 243.2 167.333 246.797C167.632 250.005 167.52 253.246 166.999 256.415C165.88 262.927 163.439 269.029 159.882 274.209C157.199 278.141 154.101 281.661 150.662 284.685C149.06 285.563 147.461 286.415 145.865 287.24C145.854 287.243 145.843 287.252 145.832 287.255C145.755 287.294 145.679 287.334 145.607 287.374C145.277 287.544 144.948 287.714 144.621 287.882L144.772 287.997L145.244 288.355C145.081 288.239 144.919 288.126 144.755 288.011C144.707 287.976 144.655 287.943 144.607 287.907C145.847 282.837 146.029 277.493 145.138 272.323C144.248 267.153 142.309 262.308 139.487 258.193C136.649 254.131 133.029 250.91 128.924 248.793C129.182 248.481 129.454 248.186 129.734 247.899C131.315 248.748 132.83 249.759 134.259 250.919C139.37 255.048 143.208 260.991 145.204 267.867C146.987 274.106 147.21 280.81 145.846 287.191C146.129 286.975 146.413 286.753 146.689 286.533C151.939 282.394 156.778 277.424 160.423 271.33C163.566 266.179 165.578 260.204 166.28 253.93C166.979 247.077 165.512 240.338 162.894 234.224C160.004 227.682 156.361 221.633 152.068 216.244C147.756 210.707 142.881 205.808 137.551 201.655C137.431 201.56 137.347 201.415 137.316 201.25C137.284 201.085 137.309 200.912 137.384 200.767C137.441 200.635 137.54 200.535 137.66 200.488C137.721 200.47 137.785 200.468 137.847 200.482C137.908 200.497 137.966 200.528 138.017 200.572C138.675 201.085 139.327 201.603 139.971 202.136C145.339 206.578 150.214 211.783 154.484 217.63C158.61 223.266 162.364 229.528 164.877 236.368Z" fill="white"/>
<path d="M151.854 106.497C154.613 106.497 156.849 103.883 156.849 100.659C156.849 97.4343 154.613 94.8203 151.854 94.8203C149.095 94.8203 146.859 97.4343 146.859 100.659C146.859 103.883 149.095 106.497 151.854 106.497Z" fill="#F1F1F1"/>
<path d="M5.65914 122.513C8.41798 122.513 10.6545 119.899 10.6545 116.674C10.6545 113.45 8.41798 110.836 5.65914 110.836C2.9003 110.836 0.663818 113.45 0.663818 116.674C0.663818 119.899 2.9003 122.513 5.65914 122.513Z" fill="#F1F1F1"/>
<path d="M8.4799 289H182.543C182.664 289 182.781 288.943 182.866 288.843C182.952 288.743 183 288.607 183 288.466C183 288.324 182.952 288.188 182.866 288.088C182.781 287.988 182.664 287.932 182.543 287.932H8.4799C8.35873 287.932 8.24254 287.988 8.15686 288.088C8.07118 288.188 8.02304 288.324 8.02304 288.466C8.02304 288.607 8.07118 288.743 8.15686 288.843C8.24254 288.943 8.35873 289 8.4799 289Z" fill="#CBCBCB"/>
<path d="M163.334 8.99912C163.562 7.10247 163.188 5.17373 162.281 3.57836C161.374 1.983 159.998 0.831845 158.414 0.343052C156.829 -0.145742 155.146 0.0617742 153.684 0.926285C152.222 1.7908 151.081 3.25224 150.479 5.03367L136.355 23.9602L140.499 37.4896L154.704 15.3746C155.631 15.7217 156.612 15.827 157.577 15.683C158.543 15.5391 159.47 15.1495 160.292 14.5417C161.115 13.9338 161.814 13.1225 162.339 12.1649C162.865 11.2073 163.204 10.1267 163.334 8.99912Z" fill="#FFB7B7"/>
<path d="M104.784 82.6365L151.671 24.1503L145.347 12.3984L86.5389 70.5296L104.784 82.6365Z" fill="#FECB40"/>
<path d="M94.3194 47.1047C103.403 47.1047 110.766 38.4982 110.766 27.8815C110.766 17.2648 103.403 8.6582 94.3194 8.6582C85.236 8.6582 77.8725 17.2648 77.8725 27.8815C77.8725 38.4982 85.236 47.1047 94.3194 47.1047Z" fill="#2F2E41"/>
<path d="M95.6417 17.0214C99.1808 12.8267 103.464 9.58974 108.189 7.53837C111.221 6.22509 114.523 5.41369 117.693 6.15952C120.864 6.90531 123.863 9.46916 124.748 13.1054C125.471 16.0788 124.724 19.2802 123.601 22.0792C122.479 24.8782 120.98 27.4737 120.072 30.3772C119.146 33.3397 118.867 36.5257 119.262 39.646C119.656 42.7663 120.711 45.722 122.331 48.2449C123.951 50.7678 126.084 52.7779 128.537 54.0928C130.99 55.4077 133.685 55.9858 136.377 55.7745C133.262 56.2627 130.39 57.9739 127.345 58.8848C124.299 59.7957 120.705 59.7339 118.442 57.184C116.048 54.4861 116 50.0996 116.116 46.2147C116.288 40.4397 116.46 34.6648 116.632 28.8898C116.72 25.9446 116.795 22.9051 115.886 20.1562C114.977 17.4074 112.818 15.0003 110.296 15.0253C108.386 15.0443 106.694 16.3973 105.162 17.7315C103.63 19.0658 102.008 20.4894 100.104 20.6879C98.201 20.8863 96.0278 19.24 96.1702 17.0128L95.6417 17.0214Z" fill="#2F2E41"/>
<path d="M31.853 156.952C30.274 157.465 28.589 157.283 27.1173 156.441C25.6455 155.598 24.4893 154.154 23.8676 152.382C23.246 150.61 23.2021 148.633 23.7443 146.825C24.2866 145.018 25.3772 143.505 26.8097 142.575L41.0182 123.734L53.0358 126.769L36.1333 146.119C36.5488 147.148 36.7662 148.271 36.7703 149.409C36.7744 150.546 36.5651 151.671 36.157 152.704C35.7489 153.737 35.152 154.652 34.4084 155.386C33.6648 156.12 32.7925 156.655 31.853 156.952H31.853Z" fill="#FFB7B7"/>
<path d="M78.5998 89.5104L43.1864 141.467L32.3917 135.674L74.0161 59.9316L78.5998 89.5104Z" fill="#FECB40"/>
<path d="M50.3426 246.395L41.9026 246.24L42.9178 279.863H50.3412L50.3426 246.395Z" fill="#FFB7B7"/>
<path d="M52.2354 277.03L37.6154 277.029H37.6148C35.1439 277.029 32.7741 278.177 31.0269 280.219C29.2797 282.261 28.298 285.031 28.2978 287.919V288.273L52.235 288.274L52.2354 277.03Z" fill="#2F2E41"/>
<path d="M106.224 237.477L97.0045 244.395L115.447 270.328L121.694 265.64L106.224 237.477Z" fill="#FFB7B7"/>
<path d="M121.979 262.061L109.676 271.292L109.675 271.293C107.596 272.853 106.132 275.315 105.606 278.137C105.08 280.959 105.534 283.909 106.869 286.34L107.032 286.637L127.176 271.522L121.979 262.061Z" fill="#2F2E41"/>
<path d="M109.509 134.804C109.509 134.804 89.0235 55.2797 82.4401 54.205C75.8567 53.1304 65.2494 74.61 65.2494 74.61C51.4965 95.1192 37.3152 161.553 37.3152 161.553C37.3152 161.553 60.9561 163.282 78.2376 174.029C95.5191 184.775 115.914 173.485 115.914 173.485L109.509 134.804Z" fill="#FECB40"/>
<path opacity="0.1" d="M109.509 134.803C109.509 134.803 89.0235 55.2793 82.4401 54.2047C75.8567 53.13 67.9435 74.8276 67.9435 74.8276C61.0906 107.934 37.3152 161.553 37.3152 161.553C37.3152 161.553 60.9561 163.282 78.2376 174.028C95.5191 184.775 115.914 173.484 115.914 173.484L109.509 134.803Z" fill="#5770BE"/>
<path d="M92.7021 111.018V150.979L96.7256 208.864L116.827 252.651L107.233 260.66L79.8218 219.01L68.9801 177.654L51.9534 269.204L39.1614 268.136L48.0455 141.203L64.904 105.475L92.7021 111.018Z" fill="#EB574B"/>
<path d="M72.0476 72.3604C65.6516 79.8361 71.5907 87.8458 71.5907 87.8458L64.281 107.069L93.0631 116.147L103.121 63.6147L96.2685 55.0711C82.5628 54.5371 82.5553 54.2051 82.5553 54.2051C80.154 56.9518 72.0476 72.3604 72.0476 72.3604Z" fill="#D5DBEF"/>
<path d="M104.281 58.1768C102.974 57.049 101.488 56.2356 99.9098 55.7836C98.3317 55.3316 96.6925 55.2501 95.0873 55.5438C93.482 55.8375 91.9426 56.5005 90.5581 57.4944C89.1737 58.4884 87.9717 59.7936 87.0219 61.3343C79.7862 73.1098 73.0957 92.1242 82.3141 115.839C97.1158 153.916 109.997 173.409 115.233 173.407C115.462 173.409 115.689 173.368 115.906 173.284C119.129 172.006 123.79 165.631 124.633 160.013C124.935 158.002 124.864 155.201 122.806 153.278C116.896 147.753 106.287 130.551 102.978 107.909C101.149 95.3982 104.695 84.0018 107.993 76.6448C109.386 73.6006 109.793 70.0717 109.141 66.7049C108.488 63.3381 106.819 60.359 104.44 58.3137L104.281 58.1768Z" fill="#FECB40"/>
<path d="M95.166 45.2134C101.033 41.4648 103.189 32.8669 99.982 26.0095C96.7748 19.1521 89.4187 16.6319 83.5517 20.3805C77.6846 24.1291 75.5284 32.727 78.7356 39.5844C81.9428 46.4418 89.2989 48.962 95.166 45.2134Z" fill="#FFB7B7"/>
<path d="M72.3328 31.7334H89.8147L89.9941 28.7998L90.8904 31.7334H93.5822L93.9375 25.9192L95.714 31.7334H100.923V31.4454C100.919 27.3976 99.5412 23.5168 97.0924 20.6546C94.6435 17.7923 91.3233 16.1823 87.8601 16.1777H85.3954C81.9321 16.1823 78.6119 17.7923 76.163 20.6546C73.7142 23.5168 72.3367 27.3975 72.3328 31.4454V31.7334Z" fill="#2F2E41"/>
<path d="M98.2807 42.2801L105.741 39.4507V18.2754H91.6496L91.9984 18.6825C96.8524 24.3485 102.251 44.4508 98.2807 42.2801Z" fill="#2F2E41"/>
</svg>
