<svg width="310" height="274" viewBox="0 0 310 274" fill="none" xmlns="http://www.w3.org/2000/svg">
<path d="M296.258 273.558L295.815 273.41C295.667 273.41 286.654 269.867 282.517 262.043C278.232 254.218 280.3 244.77 280.448 244.623L280.596 244.18L281.039 244.327C281.187 244.327 290.2 247.87 294.337 255.695C298.622 263.519 296.554 272.967 296.406 273.115L296.258 273.558ZM283.255 261.748C286.802 268.391 293.894 271.786 295.815 272.525C296.111 270.605 297.293 262.781 293.599 256.138C290.052 249.494 282.96 246.099 281.039 245.361C280.744 247.28 279.709 255.104 283.255 261.748Z" fill="#3F3D56"/>
<path d="M285.767 259.385C293.303 263.961 296.258 272.967 296.258 272.967C296.258 272.967 286.802 274.591 279.266 270.014C271.73 265.438 268.775 256.432 268.775 256.432C268.775 256.432 278.232 254.808 285.767 259.385Z" fill="#459C99"/>
<path d="M163.422 146.744C164.9 144.53 167.855 143.939 170.072 145.268C170.219 145.415 170.367 145.415 170.515 145.563C170.663 145.711 170.81 145.858 170.958 146.006L189.871 143.201L190.906 129.029C191.053 126.814 193.122 125.043 195.338 125.19C197.555 125.338 199.328 127.405 199.18 129.619C199.18 129.619 199.18 129.619 199.18 129.767L197.407 149.697C196.964 151.321 195.486 152.354 193.861 152.354L171.401 152.059C171.254 152.206 171.254 152.354 171.106 152.502C169.48 154.568 166.378 154.864 164.309 153.092C164.161 152.945 164.013 152.797 163.866 152.649C163.718 152.502 163.718 152.502 163.57 152.354C162.388 150.878 162.24 148.516 163.422 146.744Z" fill="#FFB7B7"/>
<path d="M201.544 268.095H196.225L193.565 247.279H201.544V268.095Z" fill="#FFB7B7"/>
<path d="M203.022 273.263H185.586V273.115C185.586 269.424 188.689 266.324 192.383 266.324H203.022V273.263Z" fill="#2F2E41"/>
<path d="M239.371 263.224L234.199 264.995L225.038 246.099L232.574 243.441L239.371 263.224Z" fill="#FFB7B7"/>
<path d="M242.326 267.652L225.777 273.262V273.114C224.595 269.571 226.516 265.733 230.062 264.552L240.11 261.156L242.326 267.652Z" fill="#2F2E41"/>
<path d="M207.603 86.2163C207.603 86.2163 202.283 84.4447 198.737 91.5309C195.191 98.6171 189.871 106.441 189.871 106.441L192.974 107.18C192.974 107.18 193.713 102.16 195.634 101.57L194.895 107.918C194.895 107.918 217.946 115.299 228.289 107.18L227.846 104.67C227.846 104.67 229.323 104.965 229.323 107.18L230.505 106.146C230.505 106.146 229.323 104.079 225.925 101.127C223.708 99.2076 222.822 95.6645 222.674 93.4501C222.526 91.5309 221.64 89.7594 220.31 88.4307C218.093 85.921 213.808 83.2637 207.603 86.2163Z" fill="#2F2E41"/>
<path d="M209.523 110.87C214.909 110.87 219.276 106.508 219.276 101.126C219.276 95.7451 214.909 91.3828 209.523 91.3828C204.137 91.3828 199.771 95.7451 199.771 101.126C199.771 106.508 204.137 110.87 209.523 110.87Z" fill="#FFB7B7"/>
<path d="M196.373 118.989L194.599 118.398C194.599 118.398 191.053 119.875 191.053 122.532C191.053 125.189 190.462 135.966 190.462 135.966L198.441 136.852L196.373 118.989Z" fill="#CBCBCB"/>
<path d="M228.437 177.451C226.959 175.68 226.811 173.17 228.289 171.399L223.265 129.472C223.117 127.405 224.743 125.634 226.811 125.486C228.88 125.338 230.653 126.962 230.801 129.029L235.233 170.956C235.381 171.103 235.529 171.251 235.677 171.546C237.154 173.613 236.711 176.566 234.642 178.042C234.642 178.042 234.495 178.042 234.495 178.19C233.313 178.928 231.835 179.223 230.505 178.78C229.619 178.632 228.88 178.042 228.437 177.451Z" fill="#FFB7B7"/>
<path d="M223.708 135.965L231.687 135.08C231.687 135.08 231.096 124.45 231.096 121.645C231.096 118.84 227.55 117.512 227.55 117.512L225.777 118.102L223.708 135.965Z" fill="#CBCBCB"/>
<path d="M197.555 150.729C197.555 150.729 190.758 163.278 190.758 178.336C190.758 193.394 190.167 263.075 190.167 263.075C190.167 263.075 199.032 267.209 204.499 262.19L209.228 185.275L227.993 260.713C227.993 260.713 236.859 262.485 241.144 259.532L233.165 206.976C233.165 206.976 229.914 157.668 220.901 154.125C211.887 150.582 197.555 150.729 197.555 150.729Z" fill="#2F2E41"/>
<path d="M198.885 101.127C202.431 98.617 205.238 95.6645 207.011 92.269C207.011 92.269 213.365 99.3552 217.355 99.6504C221.196 99.9457 217.65 91.088 217.65 91.088L210.558 89.3164L203.761 90.0546L198.441 93.5977L198.885 101.127Z" fill="#2F2E41"/>
<path d="M219.275 115.741C219.275 115.741 219.571 115.593 202.579 116.184L195.486 118.103L194.6 118.398C194.6 118.398 195.486 136.262 197.85 139.509C200.214 142.757 199.623 144.529 199.032 144.824C198.441 145.119 196.964 144.529 197.85 146.005C198.737 147.481 199.919 146.596 198.737 147.481C197.555 148.367 196.964 151.615 196.964 151.615L223.117 155.158C223.117 155.158 224.004 143.495 226.368 137.59C228.732 131.685 229.323 129.323 229.323 129.323L227.55 117.365L219.275 115.741Z" fill="#CBCBCB"/>
<path d="M169.628 65.1045H168.151V23.916C168.151 10.7769 157.512 0 144.214 0H56.8875C43.7369 0 32.9504 10.6293 32.9504 23.916V249.936C32.9504 263.075 43.5891 273.852 56.8875 273.852H144.214C157.364 273.852 168.151 263.223 168.151 249.936V94.3351H169.628V65.1045Z" fill="#3F3D56"/>
<path d="M162.979 24.0624V249.788C162.979 259.679 155 267.651 145.248 267.651H57.3308C47.4309 267.651 39.4519 259.679 39.4519 249.935V24.0624C39.4519 14.1712 47.4309 6.19922 57.1831 6.19922H67.9695C66.1964 10.4805 68.2651 15.4999 72.5501 17.2714C73.5844 17.7143 74.6187 17.8619 75.8008 17.8619H125.891C130.62 17.8619 134.314 14.0236 134.314 9.44706C134.314 8.41366 134.166 7.23262 133.723 6.19922H145.1C155 6.19922 162.979 14.1712 162.979 24.0624Z" fill="white"/>
<path d="M162.979 57.4266V49.7499H151.306V7.23262C149.385 6.49448 147.169 6.19922 145.1 6.19922H143.622V49.7499H103.284V17.8619H95.6006V49.7499H61.7636V6.19922H57.4785C56.2965 6.19922 55.2621 6.34685 54.0801 6.49448V49.7499H39.5996V57.4266H54.0801V75.1421L39.5996 83.4094V92.2671L54.0801 83.9999V136.851H39.5996V144.676H54.0801V221.148H39.5996V228.824H54.0801V267.208C55.2621 267.355 56.2965 267.503 57.4785 267.503H61.7636V228.824H95.6006V267.503H103.284V228.824H143.622V267.503H145.1C147.169 267.503 149.237 267.06 151.306 266.47V228.824H162.979V221.148H151.306V187.636H162.831V179.959H151.306V144.676H162.979V136.999H151.306V90.0527H162.979V82.3759H151.306V57.4266H162.979ZM84.8141 57.4266L61.6158 70.7132V57.4266H84.8141ZM61.7636 79.571L95.6006 60.0839V136.999H61.7636V79.571ZM61.7636 221.148V144.676H95.6006V221.148H61.7636ZM143.622 221.148H103.284V187.636H143.622V221.148ZM143.622 179.959H103.284V144.676H143.622V179.959ZM143.622 136.999H103.284V90.0527H143.622V136.999ZM143.622 82.3759H103.284V57.4266H143.622V82.3759Z" fill="#E5E5E5"/>
<path d="M169.48 82.524C169.48 106.883 125.3 161.358 125.3 161.358C125.3 161.358 80.9724 106.883 80.9724 82.524C80.9724 58.1651 100.772 38.3828 125.153 38.3828C149.533 38.3828 169.48 58.1651 169.48 82.524Z" fill="#459C99"/>
<path d="M151.306 80.607C151.306 95.0746 139.633 106.737 125.153 106.737C110.672 106.737 98.999 95.0746 98.999 80.607C98.999 66.1393 110.672 54.4766 125.153 54.4766C139.633 54.4766 151.306 66.1393 151.306 80.607Z" fill="white"/>
<path d="M125.153 193.246C131.763 193.246 137.121 187.892 137.121 181.288C137.121 174.684 131.763 169.33 125.153 169.33C118.543 169.33 113.184 174.684 113.184 181.288C113.184 187.892 118.543 193.246 125.153 193.246Z" fill="#459C99"/>
<path d="M309.704 273.999H0.443279C0.29552 273.999 0 273.851 0 273.556C0 273.409 0.14776 273.113 0.443279 273.113H309.704C309.852 273.113 310.148 273.261 310.148 273.556C310 273.704 309.852 273.999 309.704 273.999Z" fill="#CBCBCB"/>
</svg>
