<svg width="553" height="335" viewBox="0 0 553 335" fill="none" xmlns="http://www.w3.org/2000/svg">
<g opacity="0.3">
<path d="M549.793 165.648C536.542 237.221 476.04 273.757 383.162 329.791C379.246 332.124 373.37 333.165 370.12 334.957C369.329 334.165 369.495 334.457 369.204 334.957H328.327C316.619 318.543 314.577 295.254 314.285 275.715C313.993 258.093 315.785 240.262 320.077 223.181C321.994 215.474 324.494 207.809 327.827 200.56C330.577 194.602 334.619 184.229 341.203 182.021C343.619 181.229 346.203 181.271 348.745 181.104C357.828 180.438 360.953 177.23 370.079 176.688C377.454 176.23 390.288 177.23 397.704 175.938C426.205 171.106 455.248 152.192 453.665 137.652C452.998 131.57 447.164 127.612 443.914 125.487C377.12 81.4521 341.494 65.496 338.119 43.4159C335.661 27.2516 350.87 10.5457 363.87 3.88001C376.87 -2.74403 392.038 -1.49421 427.497 12.3788C490.999 37.2918 522.75 49.7067 540.001 81.0771C559.043 115.655 552.251 152.4 549.793 165.648Z" fill="#F1F1F1"/>
<path d="M370.12 176.731V335H0.108398C0.108398 306.296 17.9423 279.383 49.1933 256.178C58.2353 249.512 67.6939 243.471 77.5276 238.097C105.07 222.891 138.946 209.893 177.447 199.853C180.073 199.145 182.781 198.478 185.448 197.811C191.156 196.395 196.99 195.062 202.865 193.77C204.323 193.437 205.782 193.145 207.24 192.812C215.449 191.062 223.824 189.479 232.366 188.021C232.533 187.979 232.699 187.979 232.866 187.938C234.866 187.605 236.908 187.271 238.908 186.938C272.617 181.48 308.702 178.023 346.286 177.023C353.787 176.814 361.328 176.689 368.912 176.689H370.12V176.731Z" fill="#F1F1F1"/>
<path d="M122.696 274.214C138.446 262.508 158.655 252.009 182.281 243.136C184.906 242.136 187.573 241.178 190.281 240.261C190.656 240.136 191.031 240.011 191.406 239.844C194.865 238.678 198.365 237.511 201.948 236.387C207.99 234.512 214.241 232.72 220.616 231.012C225.199 229.804 229.866 228.638 234.616 227.555C236.158 227.18 237.658 226.846 239.2 226.513C242.7 225.721 246.242 225.013 249.783 224.263C286.326 216.973 327.078 212.932 370.079 212.932V334.997H84.8613C84.8613 312.875 98.6118 292.128 122.696 274.214Z" fill="#6C63FF"/>
<path d="M115.195 328.662L115.904 328.996C118.279 324.038 121.237 319.33 124.612 315.039L123.987 314.539C120.57 318.914 117.654 323.621 115.195 328.662ZM135.279 302.291L135.821 302.874C139.654 299.333 143.655 295.959 147.863 292.876C148.113 292.709 148.321 292.543 148.571 292.334L148.113 291.709C147.863 291.876 147.655 292.043 147.405 292.251C143.196 295.375 139.154 298.708 135.279 302.291ZM161.988 282.502L162.405 283.169C166.947 280.419 171.822 277.711 176.906 275.17L176.531 274.462C171.447 277.045 166.53 279.753 161.988 282.502ZM191.573 267.38L191.864 268.088C196.781 265.963 201.948 263.838 207.24 261.88L206.948 261.172C201.656 263.13 196.49 265.213 191.573 267.38ZM222.657 255.673L222.907 256.423C224.282 255.965 225.657 255.548 227.074 255.09C230.907 253.881 234.824 252.715 238.783 251.632L238.574 250.882C234.616 252.007 230.657 253.173 226.824 254.34C225.407 254.798 224.032 255.215 222.657 255.673ZM259.492 245.508C257.867 245.883 256.2 246.258 254.617 246.674L254.783 247.424C256.408 247.049 258.033 246.633 259.658 246.258C261.2 245.883 262.742 245.549 264.242 245.216C266.45 244.716 268.742 244.216 270.95 243.758L270.784 243.008C268.534 243.466 266.284 243.966 264.033 244.466C262.617 244.799 261.075 245.174 259.492 245.508ZM287.159 239.925L287.284 240.675C292.659 239.717 298.16 238.842 303.66 238.05L303.535 237.259C298.035 238.092 292.534 239.009 287.159 239.925ZM320.035 235.176L320.119 235.967C325.535 235.343 331.119 234.759 336.619 234.259L336.536 233.468C331.036 233.968 325.452 234.551 320.035 235.176ZM353.12 232.218L353.161 233.01C358.62 232.676 364.203 232.385 369.745 232.176L369.704 231.385C364.162 231.593 358.578 231.885 353.12 232.218Z" fill="white"/>
<path d="M197.281 292.463C232.074 266.841 297.326 249.594 372.12 249.594V334.998H170.531C170.531 319.5 180.281 305.002 197.281 292.463Z" fill="#F1F1F1"/>
<path opacity="0.2" d="M49.1517 256.174L122.654 274.213L196.948 292.46L370.12 334.996H0.108398C0.108398 306.292 17.9423 279.379 49.1517 256.174Z" fill="black"/>
<path d="M301.076 216.553C301.076 216.553 418.289 205.722 447.206 195.182C476.124 184.641 491.458 141.273 481.041 113.61C455.956 54.077 357.078 28.7057 357.078 28.7057L363.412 23.873C363.412 23.873 498.958 32.7884 522.792 112.36C551.835 248.924 387.538 248.257 369.745 249.632C351.953 251.007 303.66 254.673 303.66 254.673L301.076 216.553Z" fill="#6C63FF"/>
<path d="M311.285 237.303C311.285 237.303 433.581 223.263 464.081 211.556C494.582 199.808 510.708 151.482 499.708 120.653C473.248 54.2876 369.078 26 369.078 26" stroke="white" stroke-width="2" stroke-miterlimit="10" stroke-dasharray="32 32"/>
</g>
</svg>
