<svg width="440" height="306" viewBox="0 0 440 306" fill="none" xmlns="http://www.w3.org/2000/svg">
<path d="M43.4755 283.117C43.6662 290.231 44.858 297.25 47.0032 304.029C47.0508 304.173 47.0985 304.363 47.1462 304.507H60.3033C60.3033 304.363 60.2556 304.22 60.2556 304.029C59.3975 293.907 64.403 233.129 70.4572 222.625C69.9328 223.484 42.4268 251.033 43.4755 283.117Z" fill="#E6E6E6"/>
<path d="M44.4292 304.03C44.5245 304.173 44.6675 304.364 44.7629 304.507H54.6307C54.5353 304.364 54.4877 304.221 54.3447 304.03C52.7239 301.07 47.8614 292.285 43.3804 283.118C38.5657 273.282 34.1323 263.113 34.5137 259.389C34.466 260.248 31.129 285.648 44.4292 304.03Z" fill="#E6E6E6"/>
<path d="M204.507 293.671C204.602 297.3 205.222 300.833 206.319 304.271C206.366 304.366 206.366 304.414 206.414 304.509H213.088C213.088 304.462 213.088 304.366 213.088 304.271C212.659 299.114 215.185 268.271 218.284 262.924C217.95 263.354 203.983 277.343 204.507 293.671Z" fill="#E6E6E6"/>
<path d="M205.031 304.268C205.079 304.363 205.127 304.411 205.222 304.506H210.227C210.18 304.459 210.132 304.363 210.084 304.268C209.274 302.787 206.795 298.3 204.507 293.668C202.076 288.655 199.835 283.499 200.026 281.637C199.978 282.019 198.262 294.91 205.031 304.268Z" fill="#E6E6E6"/>
<path d="M164.94 88.0312L147.922 100.158L158.505 101.256L173.235 88.7474L164.94 88.0312Z" fill="#3F3D56"/>
<path d="M98.3445 295.056H108.546L113.408 255.523H98.2969L98.3445 295.056Z" fill="#9F616A"/>
<path d="M95.7227 291.711H115.887C122.99 291.711 128.758 297.488 128.758 304.602V305.032H95.7227V291.711Z" fill="#2F2E41"/>
<path d="M91.8612 153.779C91.8612 153.779 87.4278 158.792 94.7691 178.368L93.482 285.745L117.317 285.267L122.561 232.892L132.095 156.453L91.8612 153.779Z" fill="#2F2E41"/>
<path d="M68.1216 136.829C65.2137 136.829 62.8302 134.489 62.7349 131.577L61.6384 89.4187L80.7544 53.0852C81.6601 51.4141 83.3286 50.316 85.1877 50.2205L99.775 49.2656L98.4879 134.251L68.5983 136.829C68.4077 136.829 68.2646 136.829 68.1216 136.829Z" fill="#459C99"/>
<path d="M140.247 168.628L140.009 168.581C109.547 163.949 86.5698 159.461 86.3314 159.414L86.0454 159.366L94.0541 139.934C94.0064 137.881 92.2426 80.8263 95.5795 64.4022C98.7735 48.5033 113.885 45.9251 115.601 45.6864L117.317 39.957L139.15 51.3202L142.964 64.4499L143.727 100.402L140.247 168.628Z" fill="#3F3D56"/>
<path d="M110.262 114.198C96.1995 114.198 84.7585 98.8724 84.7585 80.0611C84.7585 61.2498 96.1995 45.9238 110.262 45.9238C124.325 45.9238 135.766 61.2498 135.766 80.0611C135.766 98.8724 124.325 114.198 110.262 114.198ZM110.262 49.2659C98.0587 49.2659 88.0955 63.0641 88.0955 80.0611C88.0955 97.0581 98.0587 110.856 110.262 110.856C122.466 110.856 132.429 97.0581 132.429 80.0611C132.429 63.0641 122.466 49.2659 110.262 49.2659Z" fill="#459C99"/>
<path d="M153.404 94.623C151.402 94.623 149.542 95.4347 148.16 96.9148H111.454L98.0105 99.7794L100.203 116.824L148.017 106.511C150.639 109.472 155.168 109.758 158.123 107.132C161.079 104.506 161.365 99.9704 158.743 97.0103C157.408 95.4824 155.454 94.623 153.404 94.623Z" fill="#9F616A"/>
<path d="M150.716 37.5758C157.623 30.6584 157.623 19.4431 150.716 12.5258C143.809 5.60842 132.612 5.60842 125.705 12.5258C118.798 19.4432 118.798 30.6584 125.705 37.5758C132.612 44.4931 143.809 44.4931 150.716 37.5758Z" fill="#9F616A"/>
<path d="M121.56 10.8793L120.702 9.16048L124.992 7.01198C124.992 7.01198 129.759 -0.722632 138.34 1.42587C146.921 3.57437 150.83 4.91122 150.83 4.91122L155.12 7.05972L152.975 9.20822L156.836 10.4973L154.262 11.7864L157.265 13.5052L155.645 22.3857C155.645 22.3857 152.975 15.6537 147.779 18.2319C142.583 20.8101 133.144 16.8951 133.144 16.8951L124.897 32.8418C124.897 32.8418 123.181 27.2556 120.178 28.7357C120.225 28.7835 112.503 16.4654 121.56 10.8793Z" fill="#2F2E41"/>
<path d="M275.203 119.879L274.44 105.699L266.813 99.4922L262.379 112.622L237.686 145.613C234.301 146.138 232.013 149.337 232.537 152.727C233.062 156.117 236.256 158.409 239.64 157.884C242.644 157.406 244.836 154.78 244.836 151.772C244.836 151.677 244.836 151.629 244.836 151.534L275.203 119.879Z" fill="#FFB7B7"/>
<path d="M289.885 298.825H284.021L281.256 276.242H289.885V298.825Z" fill="#FFB7B7"/>
<path d="M291.363 304.505H272.533V304.267C272.533 300.208 275.822 296.914 279.874 296.914H291.363V304.505Z" fill="#2F2E41"/>
<path d="M317.057 298.825H311.194L308.429 276.242H317.057V298.825Z" fill="#FFB7B7"/>
<path d="M318.535 304.505H299.706V304.267C299.706 300.208 302.995 296.914 307.047 296.914H318.535V304.505Z" fill="#2F2E41"/>
<path d="M310.861 60.5809C313.339 50.3636 315.437 38.8094 310.765 29.4037C307.571 22.8627 295.558 20.6665 288.694 23.006C281.829 25.3455 276.871 31.7432 274.679 38.7139C272.486 45.6846 272.772 53.1805 273.678 60.4377C286.358 60.1989 298.991 59.9602 310.861 60.5809Z" fill="#2F2E41"/>
<path d="M296.626 58.7774C303.765 54.8689 306.388 45.9044 302.486 38.7546C298.583 31.6049 289.633 28.9773 282.494 32.8859C275.355 36.7944 272.732 45.7589 276.634 52.9087C280.537 60.0585 289.487 62.686 296.626 58.7774Z" fill="#FFB8B8"/>
<path d="M307.571 42.8173C307.761 32.6 299.657 24.1492 289.408 23.9582C279.207 23.7195 270.769 31.8838 270.578 42.1011C270.578 42.4831 270.578 42.9128 270.578 43.2947C283.211 43.3425 295.796 43.3425 307.571 42.8173Z" fill="#2F2E41"/>
<path d="M265.907 134.682C265.907 134.682 263.523 169.535 264.811 180.182C266.098 190.829 280.256 283.788 280.256 283.788H290.934L294.128 174.214L306.761 284.838L317.82 283.692L324.065 175.503C324.065 175.503 323.064 135.016 315.103 130.91L265.907 134.682Z" fill="#2F2E41"/>
<path d="M282.687 169.245C274.821 169.245 267.099 167.383 260.139 163.755L259.996 163.659L265.907 124.413L265.525 77.6715C265.478 72.3241 269.768 67.9794 275.107 67.9316C275.155 67.9316 275.203 67.9316 275.298 67.9316L306.999 68.2181C312.624 68.2658 317.2 72.8971 317.105 78.5309C317.105 78.7696 317.105 79.0084 317.057 79.2471L314.102 116.726L323.922 147.14L322.206 149.431C312.815 161.94 298.227 169.245 282.687 169.245Z" fill="#3F3D56"/>
<path d="M262.331 108.324L265.668 74.3782L266.717 72.8503C269.768 68.5056 275.822 67.4075 280.16 70.5109C280.16 70.5109 280.16 70.5109 280.208 70.5109L281.114 71.1793L280.208 105.555L262.331 108.324Z" fill="#3F3D56"/>
<path d="M398.336 274.047C406.916 271.66 410.587 284.742 402.006 287.177C393.426 289.564 389.755 276.482 398.336 274.047Z" fill="#3F3D56"/>
<path d="M350.761 290.852C359.341 288.465 363.012 301.547 354.431 303.982C345.851 306.369 342.18 293.287 350.761 290.852Z" fill="#3F3D56"/>
<path d="M331.502 153.206L331.645 153.158L353.716 213.268L356.624 212.457L334.362 151.917C334.267 150.007 332.837 148.384 330.93 148.097C319.87 146.331 315.389 156.166 315.389 156.166L315.437 156.214L338.033 217.661L340.941 216.849L319.012 157.216C325.734 150.58 331.502 153.206 331.502 153.206Z" fill="#3F3D56"/>
<path d="M356.815 294.24C350.332 294.192 344.659 289.943 342.752 283.736C338.557 269.89 328.594 236.755 327.259 227.779C325.543 216.082 335.22 212.74 335.411 212.692C335.649 212.597 339.558 211.499 344.945 210.019C354.098 207.44 367.922 203.573 368.446 203.334C372.784 201.806 377.552 202.188 381.604 204.337C385.799 206.533 388.849 210.353 390.137 214.888L404.39 265.641C406.202 272.039 403.151 278.866 397.144 281.731C386.18 287.03 370.067 294.049 357.006 294.288C356.958 294.24 356.91 294.24 356.815 294.24Z" fill="#459C99"/>
<path d="M329.119 151.104L321.968 109.232L321.158 95.0996L309.574 98.9192L319.394 153.73C318.202 156.929 319.871 160.509 323.064 161.703C326.258 162.897 329.834 161.226 331.025 158.027C331.884 155.592 331.168 152.775 329.119 151.104Z" fill="#FFB7B7"/>
<path d="M323.922 106.607L305.855 105.604L301.612 71.4667L302.041 71.0847C306.284 67.3606 312.767 67.8381 316.486 72.0873C316.486 72.0873 316.486 72.0873 316.533 72.1351L317.391 73.09V73.1377L323.922 106.607Z" fill="#3F3D56"/>
<path d="M397.478 273.329L379.029 210.736L335.601 223.054L335.363 222.099L379.649 209.59L379.792 210.02L398.383 273.042L397.478 273.329Z" fill="#3F3D56"/>
<path d="M69.5039 132.339L67.5017 89.4165L87.6663 50.0273L88.5244 50.457L68.5028 89.6552L70.4573 132.339H69.5039Z" fill="#3F3D56"/>
<path d="M439.523 305.461H0.476706C0.190683 305.461 0 305.27 0 304.983C0 304.697 0.190683 304.506 0.476706 304.506H439.523C439.809 304.506 440 304.697 440 304.983C440 305.27 439.809 305.461 439.523 305.461Z" fill="#CCCCCC"/>
<path d="M100.49 120.023L96.295 107.514L95.2939 65.8336L97.1054 59.9133C99.7273 51.1761 108.975 46.2584 117.651 48.8843C126.375 51.5103 131.285 60.7727 128.663 69.4622C128.52 69.8919 128.377 70.2738 128.234 70.6558L118.653 95.2442L119.129 96.199L139.866 96.0081L147.255 109.281L100.49 120.023Z" fill="#3F3D56"/>
<path d="M232.728 208.969L209.703 213.6L189.92 221.573C188.824 222.003 187.632 221.478 187.203 220.427C187.155 220.38 187.155 220.284 187.155 220.236L172.711 171.728C172.377 170.678 172.949 169.58 173.95 169.198L194.115 161.081L217.14 156.45L236.923 148.477C238.02 148.047 239.211 148.572 239.64 149.622C239.688 149.67 239.688 149.766 239.688 149.813L254.085 198.274C254.418 199.324 253.846 200.422 252.845 200.804L232.728 208.969Z" fill="#E5E5E5"/>
<path d="M208.035 176.41C202.743 174.548 197.309 172.924 191.827 171.54L191.54 171.492L194.305 180.802L208.464 176.553L208.035 176.41ZM194.544 180.42L192.017 171.969C197.213 173.258 202.409 174.834 207.463 176.601L194.544 180.42ZM235.684 189.014C233.205 187.63 230.726 186.293 228.199 185.004C227.484 184.669 226.817 184.287 226.102 183.953C221.811 181.852 217.473 179.99 213.088 178.272H213.04L195.163 183.619L200.026 199.995L236.017 189.253L235.684 189.014ZM200.264 199.566L195.593 183.81L213.04 178.606C217.283 180.277 221.478 182.091 225.673 184.096C226.388 184.431 227.103 184.813 227.818 185.147C230.297 186.388 232.776 187.725 235.207 189.11L200.264 199.566ZM235.684 189.014C233.205 187.63 230.726 186.293 228.199 185.004C227.484 184.669 226.817 184.287 226.102 183.953C221.811 181.852 217.473 179.99 213.088 178.272H213.04L195.163 183.619L200.026 199.995L236.017 189.253L235.684 189.014ZM200.264 199.566L195.593 183.81L213.04 178.606C217.283 180.277 221.478 182.091 225.673 184.096C226.388 184.431 227.103 184.813 227.818 185.147C230.297 186.388 232.776 187.725 235.207 189.11L200.264 199.566ZM208.035 176.41C202.743 174.548 197.309 172.924 191.827 171.54L191.54 171.492L194.305 180.802L208.464 176.553L208.035 176.41ZM194.544 180.42L192.017 171.969C197.213 173.258 202.409 174.834 207.463 176.601L194.544 180.42ZM208.035 176.41C202.743 174.548 197.309 172.924 191.827 171.54L191.54 171.492L194.305 180.802L208.464 176.553L208.035 176.41ZM194.544 180.42L192.017 171.969C197.213 173.258 202.409 174.834 207.463 176.601L194.544 180.42ZM235.684 189.014C233.205 187.63 230.726 186.293 228.199 185.004C227.484 184.669 226.817 184.287 226.102 183.953C221.811 181.852 217.473 179.99 213.088 178.272H213.04L195.163 183.619L200.026 199.995L236.017 189.253L235.684 189.014ZM200.264 199.566L195.593 183.81L213.04 178.606C217.283 180.277 221.478 182.091 225.673 184.096C226.388 184.431 227.103 184.813 227.818 185.147C230.297 186.388 232.776 187.725 235.207 189.11L200.264 199.566ZM185.534 207.348L185.629 207.634L197.881 203.958L199.215 208.446L186.964 212.122L187.059 212.409L199.597 208.637L198.071 203.528L185.534 207.348ZM203.22 210.642L204.173 213.794L204.459 213.65L203.601 210.833L251.272 196.558L251.177 196.271L203.22 210.642ZM248.936 188.68L248.841 188.393L200.836 202.765L202.362 207.873L250.366 193.502L250.271 193.216L202.6 207.491L201.265 203.003L248.936 188.68ZM213.326 174.786C206.032 171.969 198.5 169.725 190.873 168.007L189.92 164.855L189.634 164.999L190.587 168.15L190.921 168.341C198.548 170.012 206.032 172.304 213.278 175.121H213.326L242.357 166.431L242.262 166.145L213.326 174.786ZM191.111 181.423L178.86 185.099L178.955 185.386L191.493 181.614L186.869 166.049L186.583 166.192L191.111 181.423ZM243.168 169.248L217.664 176.887L218.093 177.078C222.002 178.749 225.911 180.563 229.82 182.569C230.392 182.855 230.916 183.142 231.489 183.428C234.253 184.86 236.971 186.388 239.688 188.012L239.974 188.107L248.126 185.672L248.03 185.386L239.926 187.821C237.257 186.245 234.539 184.717 231.822 183.285C231.298 182.998 230.726 182.712 230.201 182.425C226.388 180.468 222.574 178.654 218.713 177.03L243.359 169.678L243.168 169.248ZM187.918 215.226L188.013 215.512L200.264 211.836L201.218 214.939L201.504 214.796L200.503 211.406L187.918 215.226ZM179.814 188.155L179.909 188.441L192.16 184.765L196.832 200.521L184.581 204.197L184.676 204.483L197.213 200.712L192.351 184.335L179.814 188.155ZM208.035 176.41C202.743 174.548 197.309 172.924 191.827 171.54L191.54 171.492L194.305 180.802L208.464 176.553L208.035 176.41ZM194.544 180.42L192.017 171.969C197.213 173.258 202.409 174.834 207.463 176.601L194.544 180.42ZM235.684 189.014C233.205 187.63 230.726 186.293 228.199 185.004C227.484 184.669 226.817 184.287 226.102 183.953C221.811 181.852 217.473 179.99 213.088 178.272H213.04L195.163 183.619L200.026 199.995L236.017 189.253L235.684 189.014ZM200.264 199.566L195.593 183.81L213.04 178.606C217.283 180.277 221.478 182.091 225.673 184.096C226.388 184.431 227.103 184.813 227.818 185.147C230.297 186.388 232.776 187.725 235.207 189.11L200.264 199.566ZM208.035 176.41C202.743 174.548 197.309 172.924 191.827 171.54L191.54 171.492L194.305 180.802L208.464 176.553L208.035 176.41ZM194.544 180.42L192.017 171.969C197.213 173.258 202.409 174.834 207.463 176.601L194.544 180.42ZM235.684 189.014C233.205 187.63 230.726 186.293 228.199 185.004C227.484 184.669 226.817 184.287 226.102 183.953C221.811 181.852 217.473 179.99 213.088 178.272H213.04L195.163 183.619L200.026 199.995L236.017 189.253L235.684 189.014ZM200.264 199.566L195.593 183.81L213.04 178.606C217.283 180.277 221.478 182.091 225.673 184.096C226.388 184.431 227.103 184.813 227.818 185.147C230.297 186.388 232.776 187.725 235.207 189.11L200.264 199.566Z" fill="white"/>
<path d="M212.134 177.84C213.326 181.755 208.797 192.641 208.797 192.641C208.797 192.641 199.072 186.004 197.928 182.089C196.736 178.174 198.977 174.02 202.886 172.827C206.795 171.681 210.942 173.925 212.134 177.84Z" fill="#459C99"/>
<path d="M208.178 178.699C208.702 180.513 207.701 182.375 205.89 182.9C204.078 183.425 202.219 182.423 201.694 180.608C201.17 178.794 202.171 176.932 203.983 176.407C205.747 175.882 207.653 176.884 208.178 178.699Z" fill="white"/>
<path d="M209.751 197.895C210.856 197.895 211.753 196.997 211.753 195.89C211.753 194.783 210.856 193.885 209.751 193.885C208.645 193.885 207.749 194.783 207.749 195.89C207.749 196.997 208.645 197.895 209.751 197.895Z" fill="#459C99"/>
<path d="M231.584 169.583L217.711 173.736H217.664L220.81 160.368C220.858 160.129 221.144 159.938 221.382 159.986C221.477 159.986 221.525 160.034 221.62 160.129L228.294 166.431L228.628 166.718L231.584 169.583Z" fill="white"/>
<path opacity="0.2" d="M231.584 169.582L226.817 170.966L228.152 166.908L228.247 166.622L228.295 166.479L228.581 166.765L231.584 169.582Z" fill="black"/>
<path d="M239.307 167.242L227.294 170.823L228.629 166.765L228.724 166.478L230.44 161.179C230.583 160.844 230.965 160.701 231.251 160.844C231.251 160.844 231.298 160.844 231.298 160.892L231.346 160.94L239.307 167.242Z" fill="white"/>
</svg>
