<?xml version="1.0" encoding="UTF-8"?>
<svg width="264px" height="249px" viewBox="0 0 264 249" version="1.1" xmlns="http://www.w3.org/2000/svg" xmlns:xlink="http://www.w3.org/1999/xlink">
    <title>xx</title>
    <g id="Page-1" stroke="none" stroke-width="1" fill="none" fill-rule="evenodd">
        <g id="Frame" fill-rule="nonzero">
            <circle id="Oval" fill="#FFFFFF" cx="150.5" cy="113.5" r="113.5"></circle>
            <path d="M220.8,56.0999906 C220.8,52.7000006 220.9,49.2000006 220.8,45.9000006 C220.7,43.8000006 221.4,43 223.6,43 C236.1,43.0999996 248.6,43.0999996 261.1,43 C263,43 263.9,43.6000006 263.9,45.6000006 C263.8,65.1999906 263.8,84.7999906 263.9,104.399991 C263.9,106.199991 263.2,107 261.4,107 C248.9,106.899991 236.4,107 223.9,107 C221.7,107 220.9,105.899991 220.9,103.699991 C221,99.0999906 221,94.5 220.9,90 C220.9,89 221.4,87.7999906 219.8,87.5 C219.6,86.3999906 220.3,85.5 220.9,84.5999906 C220.9,83.0999906 220.9,81.5999906 220.9,80 C220.1,79.0999906 220,77.8999906 220,76.7999906 C219.9,71 219.9,65.0999906 220,59.1999906 C219.9,58.0999906 219.9,57 220.8,56.0999906 Z" id="Path" fill="#E1E4F0"></path>
            <path d="M192.2,80.7006906 C192.4,82.1006906 191.6,82.8006906 189.3,83.0006906 C183.4,83.5006906 177.5,84.1006906 171.6,84.9006906 C170,85.1006906 169.4,85.1006906 169.2,83.2006906 C168.5,74.1006906 167.8,65.0006906 167,55.8006906 C166.8,53.7006906 167.5,52.7007206 169.7,52.4007206 C174.7,51.8007206 179.8,50.9007206 184.8,50.1007206 C188.7,49.4007206 188.9,49.4007206 189.4,53.3006906 C190.5,62.3006906 191.3,71.1006906 192.2,80.7006906 Z" id="Path" fill="#F2F6FB"></path>
            <path d="M220.8,56.1000906 C220.8,64.1000906 220.8,72.1000906 220.8,80.1000906 C213.5,80.7000906 206.1,81.2000906 198.7,81.8000906 C197.2,81.9000906 196.3,81.9000906 196.1,79.9000906 C195.4,71.9000906 194.8,63.9000906 194.4,55.9000906 C194.3,54.4000906 194,52.9001106 193.9,51.4001106 C193.7,49.7001106 194.2,49.2001106 196,49.7001106 C203.4,51.8001106 210.9,53.7000906 218.3,55.6000906 C219.1,55.7000906 219.9,55.9000906 220.8,56.1000906 Z" id="Path" fill="#F2F6FB"></path>
            <path d="M160.9,95.3002906 C162.3,95.0002906 162.7,96.5002906 163,98.0002906 C163.6,102.200291 164,106.400291 164.9,110.600291 C165.2,112.300291 164.7,113.100291 163.6,113.900291 C159.9,116.700291 156.2,119.500291 152.5,122.200291 C151.5,122.900291 150.7,123.600291 149.8,121.900291 C146,115.000291 142.2,108.100291 138.3,101.300291 C137.1,99.2002906 137.2,98.3002906 140,97.9002906 C146.6,97.4002906 153.3,96.4002906 160.9,95.3002906 Z" id="Path" fill="#F2F6FB"></path>
            <path d="M113,104.800591 C112.3,103.600591 111.5,102.400591 110.8,101.300591 C113.8,100.400591 116.9,100.600591 120,100.200591 C121.2,100.000591 122.6,100.500591 123.7,100.100591 C127.7,98.5005906 128.7,101.300591 130.2,103.800591 C134,110.400591 137.5,117.200591 141.8,123.600591 C140.7,125.500591 139.6,127.500591 140.1,129.900591 C138.3,131.200591 136.5,132.400591 134.9,133.800591 C133.8,134.800591 133.3,134.800591 132.4,133.500591 C126.9,124.800591 121.3,116.100591 115.7,107.500591 C114.9,106.300591 114.9,104.600591 113,104.800591 Z" id="Path" fill="#F2F6FB"></path>
            <path d="M80.4001,65.4003906 C77.3001,74.5003906 74.3001,83.3003906 71.2001,92.5003906 C69.0001,90.3003906 67.6001,87.7003906 66.0001,85.4003906 C62.7001,80.5003906 59.4001,75.7003906 56.0001,70.9003906 C54.7001,69.1003906 55.1001,68.4003906 57.1001,68.2003906 C64.8001,67.2003906 72.5001,66.3003906 80.4001,65.4003906 Z" id="Path" fill="#F2F6FB"></path>
            <path d="M88.1001,95.4005906 C84.6001,95.4005906 81.1001,95.6005906 77.6001,96.0005906 C76.1001,96.2005906 75.2001,95.9005906 75.9001,94.0005906 C78.3001,87.1005906 80.7001,80.2005906 83.0001,73.3005906 C83.6001,71.6005906 84.1001,69.9005906 84.5001,68.1005906 C85.1001,65.2005906 87.1001,64.0005906 89.8001,63.5005906 C94.3001,62.6005906 94.2001,62.6005906 95.6001,67.2005906 C96.9001,71.4005906 97.3001,76.0005906 99.4001,79.9005906 C97.9001,81.3005906 96.2001,80.6005906 94.5001,80.4005906 C91.9001,80.1005906 89.4001,79.8005906 87.1001,81.5005906 C85.6001,82.4005906 86.0001,84.2005906 85.4001,85.5005906 C85.0001,86.2005906 84.3001,86.6005906 83.7001,87.0005906 C83.1001,87.5005906 82.8001,88.0005906 83.0001,88.7005906 C83.2001,89.4005906 83.8001,89.7005906 84.5001,89.8005906 C84.7001,89.8005906 85.0001,89.9005906 85.2001,90.0005906 C85.5001,90.2005906 85.8001,90.5005906 86.0001,90.8005906 C86.7001,92.5005906 88.0001,93.7005906 88.1001,95.4005906 Z" id="Path" fill="#F2F6FB"></path>
            <path d="M114.4,65.1002906 C114.2,63.3002906 113.2,61.7002906 113.1,59.9002906 C113,55.8002906 114.6,52.7002806 118.2,50.7002806 C121.9,48.8002806 125.7,49.0002806 128.9,51.6002806 C132.2,54.2002906 133.4,57.7002906 132.3,61.8002906 C132,62.9002906 131.7,64.0002906 131.3,65.1002906 C131.1,66.5002906 130.7,67.7002906 130.2,69.0002906 C128.7,72.1002906 127,75.2002906 125.1,78.1002906 C123.5,80.4002906 122.1,80.5002906 120.5,78.1002906 C118.6,75.2002906 116.8,72.2002906 115.4,69.0002906 C115,67.7002906 114.5,66.5002906 114.4,65.1002906 Z" id="Path" fill="#4455A1"></path>
            <path d="M150.2,87.4994906 C149.2,87.4994906 149.2,87.4994906 149.1,87.4994906 C143,87.4994906 143,87.4994906 143,81.1994906 C143,79.7994906 143.2,78.2994906 142.9,76.9994906 C142.4,74.3994906 143.8,73.4994906 145.9,73.3994906 C149.6,73.1994906 153.2,72.7994906 156.9,72.1994906 C158,71.9994906 159,72.3994906 159.4,73.5994906 C160.5,77.5994906 161.5,81.5994906 162.7,85.5994906 C163.1,86.9994906 162.3,86.9994906 161.4,86.9994906 C157.3,87.0994906 153.3,87.2994906 150.2,87.4994906 Z" id="Path" fill="#F2F6FB"></path>
            <path d="M158.3,57.4994906 C157.3,60.0994906 157.9,62.8994906 157.8,65.5994906 C157.7,66.9994906 157.5,67.8994906 155.8,68.0994906 C152,68.4994906 148.2,69.0994906 144.3,69.5994906 C143.3,69.7994906 142.7,69.3994906 142.4,68.4994906 C141.4,65.4994906 140.5,62.5994906 139.4,59.6994906 C138.9,58.2994906 139.2,57.9994906 140.7,57.7994906 C145.5,57.1994906 150.2,56.3994906 154.9,55.5994906 C157.6,55.1994906 158.5,55.5994906 158.3,57.4994906 Z" id="Path" fill="#F2F6FB"></path>
            <path d="M129.8,68.6995906 C130.3,67.4995906 130.8,66.2995906 131.4,65.0995906 C131.5,65.9995906 132,66.6995906 132.7,67.2995906 C139.7,73.5995906 137.7,86.8995906 127.4,90.4995906 C122.2,92.2995906 114.3,90.0995906 111.2,85.5995906 C107.5,80.1995906 107.8,72.3995906 112,67.8995906 C112.9,66.9995906 113.7,66.0995906 114.5,65.1995906 C115,66.2995906 115.6,67.4995906 116.1,68.6995906 C111.4,72.6995906 110.6,78.6995906 114.1,83.4995906 C117.4,87.9995906 123.4,89.2995906 128.1,86.4995906 C133.1,83.5995906 135,77.4995906 132.6,72.3995906 C131.8,70.7995906 130.6,69.8995906 129.8,68.6995906 Z" id="Path" fill="#E1E4F0"></path>
            <path d="M123.4,144.199391 C121.6,136.299191 119.3,128.499191 116.9,120.699191 C117.8,120.799191 118.1,121.499191 118.4,122.199191 C121.1,127.199191 123.7,132.199191 126.5,137.099191 C127.4,138.599191 127.3,139.699191 125.7,140.599191 C124.4,141.399191 123.3,142.399191 123.4,144.199391 Z" id="Path" fill="#F2F5FA"></path>
            <path d="M140.1,129.799991 C138.3,127.099991 139.5,125.099991 141.8,123.499991 C145,123.599991 147.1,125.199991 146.9,127.399991 C146.8,129.099991 145.9,130.399991 144.3,131.099991 C142.6,131.699991 141.1,131.099991 140.1,129.799991 Z" id="Path" fill="#D9DEED"></path>
            <path d="M201.9,85.7998906 C202.6,85.7998906 203.2,85.6998906 203.8,85.7998906 C204.7,85.8998906 205.2,86.3998906 205.2,87.2998906 C205.1,87.9998906 204.6,88.4998906 203.9,88.5998906 C202.3,88.7998906 200.7,88.5998906 199.1,88.9998906 C198.4,89.1998906 197.7,88.3998906 197.6,87.5998906 C197.5,86.7998906 198.2,86.4998906 198.9,86.2998906 C199.9,85.9998906 201,85.5998906 201.9,85.7998906 Z" id="Path" fill="#DBE0EE"></path>
            <path d="M151.1,93.7995906 C149.7,93.6995906 148.2,93.9995906 148.2,92.2995906 C148.2,90.8995906 149.5,90.9995906 150.6,90.8995906 C151.6,90.7995906 152.7,90.4995906 153.7,90.3995906 C154.7,90.2995906 155.4,90.6995906 155.5,91.7995906 C155.6,92.7995906 155,93.0995906 154.1,93.1995906 C153,93.2995906 151.9,93.5995906 151.1,93.7995906 Z" id="Path" fill="#DBE0EE"></path>
            <path d="M171.2,91.4995906 C170.9,91.5995906 170.3,91.6995906 169.7,91.7995906 C168.9,91.9995906 168.4,91.6995906 168.2,90.9995906 C168,90.1995906 168.1,89.5995906 169.1,89.1995906 C170.6,88.5995906 172.1,88.6995906 173.6,88.6995906 C174.5,88.6995906 175.4,88.8995906 175.4,89.9995906 C175.5,91.2995906 174.5,91.4995906 173.5,91.4995906 C172.8,91.4995906 172.1,91.4995906 171.2,91.4995906 Z" id="Path" fill="#DADFED"></path>
            <path d="M142.8,91.4999906 C144.3,91.5999906 145.6,91.3999906 145.7,92.7999906 C145.8,94.2999906 144.6,94.2999906 143.5,94.2999906 C142.4,94.2999906 141.3,94.3999906 140.1,94.6999906 C139.2,94.8999906 138.6,94.3999906 138.4,93.5999906 C138.2,92.6999906 138.6,92.1999906 139.5,92.0999906 C140.8,91.8999906 142,91.5999906 142.8,91.4999906 Z" id="Path" fill="#D9DFED"></path>
            <path d="M179.4,90.8994906 C178.9,90.8994906 177.9,90.6994906 177.9,89.4994906 C177.8,88.3994906 178.6,88.0994906 179.6,88.0994906 C181,87.9994906 182.3,87.1994906 183.8,87.5994906 C184.7,87.7994906 185.2,88.1994906 185.2,89.0994906 C185.1,89.7994906 184.6,90.1994906 183.9,90.3994906 C182.6,90.4994906 181.3,90.6994906 179.4,90.8994906 Z" id="Path" fill="#DBE0EE"></path>
            <path d="M190.7,89.8000906 C189.3,89.7000906 187.8,90.0000906 187.7,88.4000906 C187.6,86.7000906 189.1,87.0000906 190.2,86.9000906 C191.1,86.8000906 192.1,86.9000906 193,86.7000906 C194,86.5000906 194.7,86.6000906 194.9,87.7000906 C195.1,88.6000906 194.6,89.1000906 193.7,89.2000906 C192.6,89.4000906 191.5,90.0000906 190.7,89.8000906 Z" id="Path" fill="#D9DFED"></path>
            <path d="M211.2,88.1003906 C210.3,88.1003906 209.6,88.1003906 209,88.1003906 C208.3,88.1003906 207.7,87.8003906 207.7,87.0003906 C207.7,86.3003906 208,85.6003906 208.7,85.5003906 C210.4,85.4003906 212.1,85.4003906 213.8,85.4003906 C214.4,85.4003906 214.8,85.9003906 214.9,86.5003906 C215,87.2003906 214.5,87.5003906 214,87.8003906 C213.1,88.2003906 212,88.0003906 211.2,88.1003906 Z" id="Path" fill="#DADFED"></path>
            <path d="M131.7,95.5004906 C130.6,95.1004906 128.4,96.4004906 128.4,94.2004906 C128.4,92.7004906 130.5,92.5004906 131.9,92.6004906 C133.3,92.7004906 135.6,91.7004906 135.7,93.7004906 C135.7,95.9004906 133.4,95.3004906 131.7,95.5004906 Z" id="Path" fill="#DADFED"></path>
            <path d="M135.5,102.599391 C135.4,103.299391 135.4,103.699391 134.9,103.899391 C134.2,104.099391 133.5,104.099391 133.1,103.399391 C132.2,101.899391 131.5,100.399391 130.7,98.8993906 C130.4,98.2993906 130.6,97.7993906 131.1,97.3993906 C131.6,97.0993906 132.2,97.0993906 132.7,97.4993906 C134.1,98.9993906 134.8,100.899391 135.5,102.599391 Z" id="Path" fill="#DADFED"></path>
            <path d="M162.2,89.7007906 C163.3,90.1007906 165.5,88.8007906 165.5,91.0007906 C165.5,92.5007906 163.4,92.7007906 162,92.5007906 C160.6,92.4007906 158.3,93.4007906 158.2,91.4007906 C158.1,89.3007906 160.5,89.9007906 162.2,89.7007906 Z" id="Path" fill="#DBE0ED"></path>
            <path d="M145.2,119.299091 C145.2,120.099091 145.3,120.699091 144.6,120.999091 C143.9,121.299091 143.3,121.199091 142.9,120.499091 C142.1,119.099091 141.3,117.699091 140.5,116.299091 C140.1,115.599091 140.4,114.999091 141,114.599091 C141.6,114.199091 142.1,114.499091 142.5,114.899091 C143.7,116.199091 144.6,117.799091 145.2,119.299091 Z" id="Path" fill="#DADFED"></path>
            <path d="M136.8,105.800791 C137.5,105.800791 137.9,106.200791 138.2,106.700791 C138.9,107.900791 139.6,109.200791 140.3,110.400791 C140.8,111.200791 140.6,111.900791 139.9,112.300791 C139.2,112.700791 138.5,112.600791 138.2,112.000791 C137.3,110.600791 136.4,109.100791 135.7,107.600791 C135.2,106.700791 135.9,106.000791 136.8,105.800791 Z" id="Path" fill="#DADFED"></path>
            <path d="M220.8,84.5995906 C221,85.7995906 220.6,86.6995906 219.7,87.4995906 C218.6,87.5995906 217.3,87.3995906 217.6,85.9995906 C217.8,83.9995906 219.5,84.7995906 220.8,84.5995906 Z" id="Path" fill="#DADFED"></path>
            <path d="M223.1,80.5991906 C223.1,71.2991906 223.2,61.9991906 223,52.6992206 C223,50.5992206 223.4,49.6992206 225.8,49.6992206 C236.8,49.7992206 247.7,49.7992206 258.7,49.6992206 C261.1,49.6992206 261.5,50.5992206 261.5,52.6992206 C261.4,61.9991906 261.4,71.2991906 261.4,80.5991906 C260,81.6991906 258.5,81.5991906 256.9,80.7991906 C255.5,78.9991906 255.6,76.8991906 255.5,74.7991906 C255.3,71.3991906 255.1,71.0991906 251.6,71.0991906 C249.3,71.0991906 247,71.0991906 244.7,71.0991906 C243.6,71.0991906 242.9,71.2991906 242.5,72.4991906 C242,74.2991906 241.9,76.1991906 241.8,78.0991906 C241.7,79.3991906 242.7,79.5991906 243.7,79.6991906 C245.7,79.7991906 247.7,79.5991906 249.7,79.7991906 C250.8,79.8991906 252.1,79.6991906 252.8,80.8991906 C252.7,81.0991906 252.6,81.3991906 252.5,81.3991906 C248.1,82.3991906 243.8,82.8991906 239.5,80.9991906 C237.9,77.2991906 238.3,73.3991906 238.2,69.4991906 C238.2,65.7991906 237.5,65.1991906 233.8,65.4991906 C232.2,65.5991906 231.4,66.2991906 231.1,67.7991906 C230.6,69.9991906 230.7,72.1991906 230.6,74.2991906 C230.5,76.5991906 230.6,78.8991906 229.2,80.7991906 C227.2,81.6991906 225.1,81.8991906 223.1,80.5991906 Z" id="Path" fill="#F2F6FB"></path>
            <path d="M256.8,80.5991906 C258.3,80.5991906 259.9,80.6991906 261.4,80.6991906 C261.4,85.2991906 261.3,89.9991906 261.5,94.6991906 C261.6,96.5991906 261,97.3991906 259,97.2991906 C247.9,97.1991906 236.8,97.1991906 225.6,97.2991906 C223.5,97.2991906 223,96.5991906 223.1,94.6991906 C223.2,90.0991906 223.2,85.3991906 223.2,80.6991906 C225.3,80.6991906 227.4,80.6991906 229.6,80.5991906 C232.9,79.2991906 236.3,79.2991906 239.6,80.4991906 C244,81.5991906 248.5,81.5991906 252.9,80.5991906 C253,80.4991906 253.1,80.4991906 253.2,80.3991906 C254.3,80.3991906 255.4,80.5991906 256.5,80.4991906 C256.5,80.4991906 256.6,80.5991906 256.8,80.5991906 Z" id="Path" fill="#FFFFFF"></path>
            <path d="M242.5,99.5008906 C244.2,99.4008906 244.7,100.400891 244.8,101.700891 C244.9,103.100891 243.7,103.800891 242.6,103.800891 C241.3,103.800891 240.3,103.100891 240.2,101.600891 C240.2,100.000891 241,99.4008906 242.5,99.5008906 Z" id="Path" fill="#F1F5FB"></path>
            <path d="M129.8,68.7005906 C133.1,70.2005906 135.1,75.0005906 134.2,79.1005906 C132.9,84.7005906 127.4,89.2005906 122,88.6005906 C115.3,87.9005906 111.6,83.7005906 111,77.3005906 C110.7,74.3005906 112.2,71.5005906 114.3,69.1005906 C114.8,68.5005906 115.3,68.4005906 116,68.8005906 C117.7,71.8005906 119.3,74.9005906 121.1,77.9005906 C122.4,80.1005906 123.3,80.1005906 124.7,77.9005906 C126.5,74.7005906 128.1,71.7005906 129.8,68.7005906 Z" id="Path" fill="#F2F6FB"></path>
            <path d="M242.1,85.8003906 C245.8,85.8003906 249.6,85.8003906 253.3,85.8003906 C254.2,85.8003906 255.5,85.7003906 255.4,87.1003906 C255.3,88.2003906 254.2,88.1003906 253.3,88.1003906 C245.7,88.1003906 238,88.1003906 230.4,88.1003906 C229.5,88.1003906 228.4,88.2003906 228.4,87.0003906 C228.3,85.9003906 229.5,85.9003906 230.3,85.9003906 C234.3,85.8003906 238.2,85.8003906 242.1,85.8003906 Z" id="Path" fill="#E5E8F2"></path>
            <path d="M242,91.4998906 C238.2,91.4998906 234.4,91.4998906 230.6,91.4998906 C229.9,91.4998906 228.6,91.8998906 228.5,90.7998906 C228.4,89.4998906 229.7,89.8998906 230.4,89.8998906 C238,89.7998906 245.6,89.8998906 253.2,89.8998906 C254.1,89.8998906 255.3,89.7998906 255.3,90.7998906 C255.3,92.2998906 253.9,91.5998906 253.1,91.5998906 C249.4,91.4998906 245.7,91.4998906 242,91.4998906 Z" id="Path" fill="#E1E4F0"></path>
            <path d="M252.7,80.6003906 C252.4,79.6003906 253.4,78.3003906 251.5,77.6003906 C249.2,76.8003906 250.6,75.0003906 251.3,73.8003906 C252,72.5003906 253.5,72.4003906 254.5,73.5003906 C255.4,74.5003906 256.8,76.1003906 255.1,77.4003906 C254,78.3003906 253.6,79.2003906 254,80.2003906 C254.6,81.4003906 255.8,80.7003906 256.8,80.7003906 C255.5,81.8003906 254.1,81.2003906 252.7,80.6003906 Z" id="Path" fill="#EDEEF7"></path>
            <path d="M235.1,77.3991906 C235.1,78.0991906 234.9,78.7991906 234.1,78.7991906 C233.3,78.7991906 233.4,78.0991906 233.4,77.5991906 C233.4,76.9991906 233.3,76.1991906 234.3,76.1991906 C235,76.1991906 235.1,76.7991906 235.1,77.3991906 Z" id="Path" fill="#E0D9EC"></path>
            <path d="M234,67.6991906 C234.7,67.6991906 235,68.0991906 235,68.6991906 C235,69.2991906 235.2,70.0991906 234.3,70.1991906 C233.6,70.2991906 233.3,69.8991906 233.3,69.1991906 C233.4,68.6991906 233.2,67.9991906 234,67.6991906 Z" id="Path" fill="#DCD8EC"></path>
            <path d="M238.2,77.3991906 C238.1,77.9991906 238.2,78.7991906 237.3,78.7991906 C236.6,78.7991906 236.4,78.1991906 236.4,77.5991906 C236.4,76.8991906 236.5,76.1991906 237.3,76.1991906 C238.1,76.1991906 238.1,76.8991906 238.2,77.3991906 Z" id="Path" fill="#D2C8E4"></path>
            <path d="M237.4,70.2991906 C236.7,70.1991906 236.5,69.6991906 236.5,69.0991906 C236.4,68.3991906 236.6,67.6991906 237.5,67.6991906 C238.2,67.7991906 238.2,68.3991906 238.2,68.9991906 C238.1,69.5991906 238.2,70.1991906 237.4,70.2991906 Z" id="Path" fill="#D7CEE7"></path>
            <path d="M234.2,74.3995906 C233.4,74.3995906 233.3,73.7995906 233.3,73.2995906 C233.3,72.6995906 233.2,72.0995906 234,72.0995906 C234.7,72.0995906 234.9,72.5995906 234.9,73.1995906 C235.1,73.7995906 235,74.2995906 234.2,74.3995906 Z" id="Path" fill="#EEEEF7"></path>
            <path d="M237.3,71.9999906 C238.2,72.1999906 238.1,72.7999906 238.1,73.2999906 C238.1,73.8999906 237.9,74.3999906 237.1,74.2999906 C236.4,74.1999906 236.4,73.5999906 236.4,72.9999906 C236.4,72.3999906 236.7,72.0999906 237.3,71.9999906 Z" id="Path" fill="#DDD8EC"></path>
            <path d="M248.2,77.3995906 C248.2,78.0995906 248.1,78.7995906 247.2,78.7995906 C246.5,78.7995906 246.4,78.0995906 246.4,77.4995906 C246.4,76.8995906 246.4,76.0995906 247.4,76.0995906 C248.1,76.1995906 248.2,76.8995906 248.2,77.3995906 Z" id="Path" fill="#DCD3E9"></path>
            <path d="M244.9,77.4989906 C244.8,78.1989906 244.8,78.8989906 243.9,78.7989906 C243.2,78.6989906 243.2,78.0989906 243.2,77.4989906 C243.3,76.7989906 243.4,76.0989906 244.3,76.1989906 C245.1,76.2989906 244.8,76.9989906 244.9,77.4989906 Z" id="Path" fill="#D7CDE6"></path>
            <path d="M244.9,72.9999906 C244.8,73.6999906 245,74.2999906 244.2,74.3999906 C243.5,74.4999906 243.2,73.8999906 243.2,73.2999906 C243.2,72.6999906 243.2,72.1999906 243.9,71.9999906 C244.8,71.9999906 244.8,72.5999906 244.9,72.9999906 Z" id="Path" fill="#E2DEEF"></path>
            <path d="M248.2,73.0991906 C248.2,73.6991906 248.2,74.1991906 247.5,74.3991906 C246.7,74.4991906 246.6,73.8991906 246.6,73.3991906 C246.6,72.8991906 246.5,72.1991906 247.3,72.0991906 C247.9,71.9991906 248.2,72.3991906 248.2,73.0991906 Z" id="Path" fill="#E8E5F3"></path>
            <path d="M26.8,226.900391 L20.1,233.100391 L25.4,224.100391 C21.2,216.500391 14.3,209.900391 14.3,209.900391 C14.3,209.900391 0,223.500391 0,234.300391 C0,245.100391 6.4,248.800391 14.3,248.800391 C22.2,248.800391 28.6,245.000391 28.6,234.300391 C28.6,231.900391 27.9,229.400391 26.8,226.900391 Z" id="Path" fill="#459C99"></path>
            <path d="M18.3,233.400391 L18.3,233.900391 C18.3,240.100391 17.2,244.900391 15.2,248.300391 L15.1,248.400391 L14.9,248.300391 L14.7,248.200391 C17,244.500391 17.8,239.400391 17.8,234.000391 C17.8,233.800391 17.8,233.700391 17.8,233.500391 C17.8,231.200391 17.7,228.900391 17.4,226.700391 C17.4,226.500391 17.4,226.400391 17.3,226.200391 C17,223.200391 16.5,220.400391 16.1,218.000391 C16.1,217.800391 16,217.700391 16,217.500391 C15.2,213.400391 14.4,210.400391 14.2,209.700391 C14.2,209.600391 14.2,209.600391 14.2,209.600391 L14.4,209.500391 L14.7,209.400391 C14.7,209.400391 14.7,209.600391 14.8,209.800391 C15.1,210.800391 15.8,213.700391 16.5,217.400391 C16.5,217.600391 16.6,217.700391 16.6,217.900391 C17,219.900391 17.3,222.100391 17.6,224.400391 C17.7,225.000391 17.7,225.600391 17.8,226.100391 C17.8,226.300391 17.8,226.500391 17.9,226.600391 C18.2,229.000391 18.3,231.300391 18.3,233.400391 Z" id="Path" fill="#459C99"></path>
            <path d="M16.6,217.299391 C16.4,217.299391 16.2,217.299391 16.1,217.399391 C15.6,217.499391 15.1,217.499391 14.6,217.499391 C12.5,217.499391 10.4,216.999391 8.49995,216.099391 C8.39995,216.199391 8.29995,216.399391 8.19995,216.499391 C10.2,217.499391 12.4,217.999391 14.6,217.999391 C15.1,217.999391 15.7,217.999391 16.2,217.899391 C16.4,217.899391 16.6,217.899391 16.7,217.799391 C18.2,217.599391 19.6,217.199391 20.9,216.499391 C20.8,216.399391 20.7,216.199391 20.6,216.099391 C19.3,216.699391 17.9,217.099391 16.6,217.299391 Z" id="Path" fill="#FFFFFF"></path>
            <path d="M17.9,226.100391 C17.7,226.100391 17.5,226.100391 17.4,226.100391 C17.3,226.100391 17.3,226.100391 17.2,226.100391 C12.6,226.100391 8.20005,223.800391 5.60005,220.000391 C5.50005,220.200391 5.40005,220.300391 5.30005,220.500391 C8.10005,224.300391 12.5,226.600391 17.2,226.600391 C17.3,226.600391 17.3,226.600391 17.4,226.600391 C17.6,226.600391 17.8,226.600391 17.9,226.600391 C20.7,226.500391 23.4001,225.500391 25.7001,223.900391 C25.6,223.700391 25.5,223.600391 25.4,223.400391 C23.2,225.000391 20.6,225.900391 17.9,226.100391 Z" id="Path" fill="#FFFFFF"></path>
            <path d="M18.3,233.399391 C18.1,233.399391 17.9,233.399391 17.7,233.399391 C17.5,233.399391 17.3,233.399391 17.1,233.399391 C10.8,233.399391 5.29995,229.199391 3.49995,223.199391 C3.39995,223.399391 3.29995,223.599391 3.19995,223.799391 C5.19995,229.799391 10.8,233.899391 17.2,233.899391 C17.4,233.899391 17.6,233.899391 17.8,233.899391 C18,233.899391 18.2,233.899391 18.4,233.899391 C22.1,233.599391 25.6,231.899391 28.1,229.199391 C28,228.999391 28,228.799391 27.9,228.599391 C25.4,231.399391 22,233.099391 18.3,233.399391 Z" id="Path" fill="#FFFFFF"></path>
            <path d="M103.1,84.5001906 C99.1999,79.0001906 91.3999,78.7001906 91.3999,78.7001906 C91.3999,78.7001906 83.7999,77.9001906 78.9999,86.3001906 C74.4999,94.2001906 80.7999,103.900191 80.7999,103.900191 C82.0999,104.000191 87.4999,104.000191 103.7,102.000191 L104.4,98.1001906 L106.5,101.700191 C107.4,101.600191 108.3,101.500191 109.2,101.400191 C108.8,97.2001906 106.8,89.9001906 103.1,84.5001906 Z" id="Path" fill="#2F2E41"></path>
            <path d="M112.3,161.799391 L111.3,126.099591 L104.2,129.199591 L107.6,162.199391 C105.7,163.699391 105.4,166.399391 106.8,168.299391 C108.2,170.199391 111,170.499391 112.9,169.099391 C114.8,167.599391 115.1,164.899391 113.7,162.999391 C113.3,162.399391 112.8,161.999391 112.3,161.799391 Z" id="Path" fill="#FFB8B8"></path>
            <path d="M103.1,130.699191 C107.7,131.099191 111,129.199191 113.3,125.399191 L111.8,118.299191 C111.8,113.599191 108.7,109.399191 104.2,107.999191 L103.4,107.699191 L103.1,130.699191 Z" id="Path" fill="#DF5647"></path>
            <path d="M64.5999,120.899591 C64.4999,120.899591 64.4999,120.899591 64.3999,120.899591 L55.8999,120.799591 L55.8999,120.599591 L56.5999,102.899591 C56.5999,102.099591 57.2999,101.599591 57.9999,101.599591 L64.7999,101.899591 C65.5999,101.899591 66.0999,102.599591 66.0999,103.299591 L65.3999,119.999591 C65.4999,120.499591 65.0999,120.899591 64.5999,120.899591 Z" id="Path" fill="#FECB40"></path>
            <path d="M63.7001,120.898791 L57.0001,120.598791 C56.2001,120.598791 55.6001,119.898791 55.6001,119.098791 L56.3001,103.098791 C56.3001,102.298791 57.0001,101.798791 57.7001,101.798791 L64.5001,102.098791 C65.3001,102.098791 65.8001,102.798791 65.8001,103.498791 L65.1001,119.498791 C65.1001,120.298791 64.5001,120.898791 63.7001,120.898791 Z" id="Path" fill="#2F2E41"></path>
            <path d="M60.7,106.900391 C61.2522,106.900391 61.7,106.452691 61.7,105.900391 C61.7,105.348091 61.2522,104.900391 60.7,104.900391 C60.1477,104.900391 59.7,105.348091 59.7,105.900391 C59.7,106.452691 60.1477,106.900391 60.7,106.900391 Z" id="Path" fill="#FECB40"></path>
            <path d="M68.9,125.200291 L68.9,131.600291 L62.6,121.900291 C63.7,120.000291 63.1,117.500291 61.1,116.300291 C59.2,115.200291 56.7,115.800291 55.5,117.800291 C54.4,119.700291 55,122.200291 57,123.400291 C57.5,123.700291 58,123.900291 58.6,123.900291 L67.3,139.300291 C68.5,141.400291 71.1,142.100291 73.2,140.900291 C74.4,140.200291 75.3,138.900291 75.4,137.500291 L76.5,126.000291 L68.9,125.200291 Z" id="Path" fill="#FFB8B8"></path>
            <path d="M77.4,130.199591 C73.1,130.599591 69.9,128.799591 67.8,125.199591 L69.3,118.499591 C69.3,113.999591 72.2,110.099591 76.4,108.799591 L77.2,108.599591 L77.4,130.199591 Z" id="Path" fill="#DF5647"></path>
            <polygon id="Path" fill="#FFB6B6" points="87.4 245.798391 82.7 244.998391 83.4 226.298391 90.4 227.398391"></polygon>
            <polygon id="Path" fill="#FFB6B6" points="110.1 234.898391 105.8 236.998391 95.3999 221.498391 101.8 218.298391"></polygon>
            <path d="M113.3,238.500391 L99.4001,245.500391 L99.3001,245.300391 C97.8001,242.300391 99.0001,238.700391 102,237.200391 L110.5,232.900391 L113.3,238.500391 Z" id="Path" fill="#2F2E41"></path>
            <path d="M90.9,102.299991 C95.5392,102.299991 99.3,98.5391906 99.3,93.8999906 C99.3,89.2607906 95.5392,85.4999906 90.9,85.4999906 C86.2608,85.4999906 82.5,89.2607906 82.5,93.8999906 C82.5,98.5391906 86.2608,102.299991 90.9,102.299991 Z" id="Path" fill="#FFB8B8"></path>
            <path d="M101.3,85.4003906 L93.6,81.4003906 L83,83.0003906 L80.8,92.7003906 C91.6,94.3003906 99.1,95.1003906 101.6,92.5003906 L101.3,85.4003906 Z" id="Path" fill="#2F2E41"></path>
            <path d="M77.2001,146.699391 C77.2001,146.699391 70.8001,159.899391 77.9001,179.399391 L97.6001,229.599391 L107,223.999391 L97.4001,202.399391 L105.2,175.899391 C107,169.899391 107.6,163.599391 106.8,157.399391 C106.2,152.699391 104.9,147.999391 102.1,145.599391 C95.5001,139.999691 77.2001,146.699391 77.2001,146.699391 Z" id="Path" fill="#E8AB31"></path>
            <polygon id="Path" fill="#E8AB31" points="87.9999 198.599391 80.8999 234.799391 90.3999 236.599391 96.3999 205.199391"></polygon>
            <path d="M97.1001,106.499991 L86.2001,106.599991 L76.6001,108.799991 L77.2001,147.100391 C77.2001,147.100391 94.5001,152.000391 102.1,145.200391 L107.1,109.399991 C104.3,107.799991 100.9,106.899991 97.1001,106.499991 Z" id="Path" fill="#EB574B"></path>
            <path d="M96.1,85.2003906 C99.0823,85.2003906 101.5,82.7826906 101.5,79.8003906 C101.5,76.8180906 99.0823,74.4003906 96.1,74.4003906 C93.1176,74.4003906 90.7,76.8180906 90.7,79.8003906 C90.7,82.7826906 93.1176,85.2003906 96.1,85.2003906 Z" id="Path" fill="#2F2E41"></path>
            <path d="M90.7,78.5995906 C90.7,75.5995906 93.1,73.1995906 96.1,73.1995906 C96.5,73.1995906 96.8,73.1995906 97.2,73.2995906 C94.5,71.9995906 91.3,73.1995906 90,75.8995906 C88.7,78.5995906 89.9,81.7995906 92.6,83.0995906 C93,83.2995906 93.4,83.3995906 93.9,83.4995906 C91.9,82.5995906 90.7,80.6995906 90.7,78.5995906 Z" id="Path" fill="#2F2E41"></path>
            <path d="M87.6,248.799391 L70.8,248.799391 L70.8,248.599391 C70.8,244.999391 73.7,242.099391 77.3,242.099391 L87.5,242.099391 L87.6,248.799391 Z" id="Path" fill="#2F2E41"></path>
        </g>
    </g>
</svg>