<?xml version="1.0" encoding="UTF-8"?>
<svg width="227px" height="275px" viewBox="0 0 227 275" version="1.1" xmlns="http://www.w3.org/2000/svg" xmlns:xlink="http://www.w3.org/1999/xlink">
    <title>Slice 1</title>
    <defs>
        <linearGradient x1="0.00118106845%" y1="49.9998507%" x2="100%" y2="49.9998507%" id="linearGradient-1">
            <stop stop-color="#3FE946" offset="8%"></stop>
            <stop stop-color="#43E94A" offset="14%"></stop>
            <stop stop-color="#4EEB54" offset="20%"></stop>
            <stop stop-color="#61ED66" offset="26%"></stop>
            <stop stop-color="#7BF080" offset="32%"></stop>
            <stop stop-color="#9DF4A0" offset="38%"></stop>
            <stop stop-color="#C6F9C8" offset="44%"></stop>
            <stop stop-color="#F7FEF7" offset="49%"></stop>
            <stop stop-color="#FFFFFF" offset="50%"></stop>
            <stop stop-color="#E4FCE5" offset="53%"></stop>
            <stop stop-color="#B6F7B9" offset="59%"></stop>
            <stop stop-color="#8EF292" offset="65%"></stop>
            <stop stop-color="#6DEE73" offset="71%"></stop>
            <stop stop-color="#54EC5B" offset="78%"></stop>
            <stop stop-color="#42EA4A" offset="84%"></stop>
            <stop stop-color="#37E83F" offset="91%"></stop>
            <stop stop-color="#34E83C" offset="99%"></stop>
        </linearGradient>
    </defs>
    <g id="Page-1" stroke="none" stroke-width="1" fill="none" fill-rule="evenodd">
        <g id="sans-frais-1" transform="translate(0.000000, 1.375000)">
            <circle id="Oval" fill="#FFFFFF" fill-rule="nonzero" cx="113.5" cy="137.125" r="113.5"></circle>
            <path d="M31.1836,0.484911131 C45.0244,-0.362718969 58.9112,-0.0987738692 72.7096,1.27419013 C79.0097,1.90168013 85.6262,2.89617013 90.5856,6.81892013 C95.545,10.7417001 97.9653,18.5674001 94.0579,23.5241001 C91.0008,27.4074001 85.4561,28.1927001 80.5046,28.1493001 C75.5532,28.1059001 70.313,27.5850001 65.9152,29.8502001 C61.5174,32.1155001 58.9309,38.6113001 62.4547,42.0841001 C64.6575,44.2507001 68.118,44.2981001 71.2107,44.2073001 L121.742,42.7353001 C126.638,42.5932001 131.732,42.4867001 136.201,44.4915001 C140.67,46.4962001 144.296,51.2714001 143.3,56.0584001 C141.718,63.6474001 131.147,65.2141001 126.646,71.5323001 C122.398,77.4993001 124.756,85.8618001 128.37,92.2352001 C132.693,99.8470001 138.533,106.494 145.53,111.766 C156.209,119.805 170.731,126.368 172.657,139.592 C174.856,154.691 162.418,165.457 149.572,170.43 C140.476,173.958 130.64,175.165 121.204,177.671" id="Path" stroke="#000091" stroke-width="1.9" stroke-dasharray="7.6"></path>
            <polygon id="Path" fill="#000091" fill-rule="nonzero" points="116.118 179.184 122.442 174.168 121.592 177.59 124.15 180.021"></polygon>
            <path d="M22.88632,185.664 C23.42297,185.133 23.83585,184.491 24.0956,183.783 C24.3553,183.075 24.4555,182.319 24.3891,181.568 C24.3226,180.817 24.0911,180.09 23.71108,179.438 C23.33105,178.787 22.8118,178.227 22.19027,177.798 L27.1694,160.186 L18.07326,163.066 L14.751177,179.349 C14.0934289,180.435 13.857808,181.723 14.0890164,182.971 C14.320225,184.218 15.00218,185.337 16.00549,186.116 C17.00881,186.894 18.26368,187.279 19.53203,187.195 C20.80037,187.112 21.99396,186.567 22.88632,185.664 Z" id="Path" fill="#FFB7B7" fill-rule="nonzero"></path>
            <path d="M25.4687,174.866 C25.306,174.898 25.1403,174.913 24.9744,174.909634 L16.2737,174.736 C15.96917,174.729 15.66895,174.663 15.39028,174.54 C15.1116,174.417 14.859952,174.241 14.649771,174.021 C14.43959,173.801 14.275014,173.541 14.165486,173.258 C14.0559575,172.974 14.0036339,172.672 14.0115172,172.368 C14.0115172,172.269 14.0115172,172.175 14.0352463,172.076 L22.86249,112.493 C23.12677,110.769 23.99998,109.197 25.3244,108.06 C26.6487,106.923 28.337,106.296 30.0841,106.293 C31.1879,106.297 32.2765,106.551 33.2677,107.035 C34.2589,107.52 35.1268,108.223 35.8059,109.092 C36.485,109.96 36.9575,110.971 37.1879,112.048 C37.4182,113.126 37.4003,114.241 37.1356,115.311 L30.8711,140.631 L27.3117,172.857 C27.2612,173.345 27.0548,173.804 26.7229,174.166 C26.391,174.527 25.9513,174.773 25.4687,174.866 Z" id="Path" fill="#EB574B" fill-rule="nonzero"></path>
            <polygon id="Path" fill="#FFB7B7" fill-rule="nonzero" points="29.1113 268.932 33.96 268.932 36.2657 250.27 29.1113 250.27"></polygon>
            <path d="M27.8735,267.354 L37.4245,267.354 C39.0374,267.355 40.5839,267.994 41.7244,269.132 C42.8649,270.27 43.506,271.814 43.5071,273.423 L43.5071,273.62 L27.8735,273.62 L27.8735,267.354 Z" id="Path" fill="#2F2E41" fill-rule="nonzero"></path>
            <polygon id="Path" fill="#FFB7B7" fill-rule="nonzero" points="49.7832 267.363 54.6042 267.899 58.9783 249.612 51.8674 248.818"></polygon>
            <path d="M48.731,265.652 L58.2227,266.714 C59.8255,266.894 61.291,267.702 62.2973,268.96 C63.3036,270.218 63.7683,271.823 63.5894,273.423 L63.5894,273.62 L48.0508,271.88 L48.731,265.652 Z" id="Path" fill="#2F2E41" fill-rule="nonzero"></path>
            <path d="M24.5593,165.082 C24.5593,165.082 17.91115,179.767 23.7683,189.306 L27.2644,263.565 L35.2928,263.565 L43.0838,203.58 L56.9258,221.339 L48.4941,262.776 L58.314,263.329 L71.9543,221.331 C71.9543,221.331 61.4739,175.019 58.0134,173.903 L55.7394,163.318 L24.5593,165.082 Z" id="Path" fill="#E8AB31" fill-rule="nonzero"></path>
            <path d="M21.60075,177.974 C21.60075,177.974 15.61309,184.833 31.4325,187.201 C47.252,189.568 63.8624,186.017 64.2579,181.281 C64.6533,176.545 21.60075,177.974 21.60075,177.974 Z" id="Path" fill="#CBCBCB" fill-rule="nonzero"></path>
            <path d="M100.9041,92.9037001 C100.8808,93.5735001 100.7103,94.2301001 100.4045,94.8269001 C100.0988,95.4237001 99.6653,95.9461001 99.1348,96.3573001 C98.6043,96.7684001 97.9898,97.0582001 97.3346,97.2061001 C96.6795,97.3540001 95.9998,97.3564001 95.3436,97.2131001 L89.3639,105.82 L83.2378,103.452 L91.8515,91.4198001 C92.1653,90.3377001 92.8653,89.4078001 93.8194,88.8057001 C94.7734,88.2035001 95.9154,87.9708001 97.0296,88.1515001 C98.1439,88.3322001 99.1533,88.9138001 99.8671,89.7864001 C100.5809,90.6591001 100.9499,91.7623001 100.9041,92.8879001 L100.9041,92.9037001 Z" id="Path" fill="#FFB7B7" fill-rule="nonzero"></path>
            <path d="M50.3331,103.972 L41.8776,100.156 L31.0453,100.946 C31.0453,100.946 17.99425,116.183 23.13557,130.784 L19.97168,181.693 C40.1415,187.218 49.3088,176.855 63.8706,181.299 L59.366,124.703 L50.3331,103.972 Z" id="Path" fill="#EB574B" fill-rule="nonzero"></path>
            <path d="M44.6816,107.68 L50.3331,103.971 C50.3331,103.971 58.1796,102.787 61.3197,105.825 C61.3197,105.825 71.9662,106.713 74.5408,109.377 L77.3725,110.016 L86.7693,97.8496001 L92.5275,100.971 L84.2223,123.466 L59.3581,124.701 L44.6816,107.68 Z" id="Path" fill="#EB574B" fill-rule="nonzero"></path>
            <path d="M46.6222,95.8761001 C53.0888,92.3492001 55.4657,84.2590001 51.9312,77.8061001 C48.3967,71.3533001 40.2892,68.9814001 33.8226,72.5084001 C27.356,76.0354001 24.9791,84.1256001 28.5136,90.5784001 C32.0481,97.0312001 40.1556,99.4031001 46.6222,95.8761001 Z" id="Path" fill="#FFB7B7" fill-rule="nonzero"></path>
            <path d="M28.6883,73.7785001 C31.0612,69.5045001 34.0471,66.7341001 38.9472,66.8367001 C43.8472,66.9393001 48.0869,66.7420001 50.2937,71.1107001 C50.8771,70.0191001 51.1686,68.7958001 51.14,67.5589001 C51.8064,67.9903001 52.3317,68.6070001 52.6507,69.3329001 C52.9698,70.0588001 53.0688,70.8621001 52.9355,71.6435001 C53.3639,71.3916001 53.7225,71.0370001 53.9787,70.6118001 C54.235,70.1866001 54.3807,69.7042001 54.4028,69.2085001 C56.0361,69.7532001 56.4632,72.0539001 55.6367,73.5496001 C54.8101,75.0453001 53.1847,75.9175001 51.6265,76.6673001 C50.0682,77.4171001 50.7801,81.3162001 49.7716,82.7171001 C49.0637,83.6840001 48.7355,84.8719001 48.2609,85.9769001 C48.2408,86.0205001 48.2057,86.0555001 48.162,86.0756001 C47.0665,86.6873001 46.3744,87.7765001 46.5801,89.0156001 C46.6077,89.1070001 46.6077,89.2045001 46.5801,89.2958001 C45.1919,91.9044001 43.693,94.6353001 41.1777,96.1902001 C39.161,97.4059001 36.7457,97.7802001 34.4545,97.2321001 C31.8798,96.6165001 29.6572,94.9155001 28.0555,92.8160001 C26.4538,90.7165001 25.4216,88.2382001 24.6464,85.7125001 C23.95826,83.4709001 23.45995,81.0794001 24.0018,78.8023001 C24.5436,76.5252001 26.3945,74.4178001 28.7476,74.2402001" id="Path" fill="#2F2E41" fill-rule="nonzero"></path>
            <path d="M130.732,131.359 C131.432,132.322 132.207,132.938 132.12,133.384 C132.011,133.721 131.823,134.027 131.572,134.278 C131.321,134.528 131.014,134.716 130.676,134.824 C130.316,134.903 129.355,133.992 129.343,133.51 C129.332,132.938 130.051,132.35 130.732,131.359 Z" id="Path" fill="#FFFFFF" fill-rule="nonzero"></path>
            <polygon id="Path" fill="#546389" fill-rule="nonzero" points="153.409 66.1074001 149.252 69.7066001 153.409 69.7066001"></polygon>
            <polygon id="Path" fill="#546389" fill-rule="nonzero" points="171.973 66.1074001 176.129 69.7066001 171.973 69.7066001"></polygon>
            <path d="M197.996,93.3559001 L199.839,93.3559001 L199.839,89.1332001 C199.839,89.1332001 210.066,87.1284001 211.407,89.1332001 C212.747,91.1380001 211.407,95.0528001 211.407,95.0528001 L200.175,95.0528001 L197.996,93.3559001 Z" id="Path" fill="#2F3133" fill-rule="nonzero"></path>
            <path d="M132.21,134.593 L128.939,134.593 C126.507,134.593 124.534,132.774 124.534,130.528 L124.534,123.543 C124.534,121.302 126.511,119.482 128.939,119.482 L132.21,119.482 C134.646,119.482 136.616,121.302 136.616,123.543 L136.616,130.509 C136.6,132.762 134.646,134.593 132.21,134.593 Z" id="Path" fill="#2F3133" fill-rule="nonzero"></path>
            <path d="M194.59,134.593 L190.964,134.593 C188.267,134.593 186.083,132.774 186.083,130.528 L186.083,123.543 C186.083,121.302 188.267,119.482 190.964,119.482 L194.59,119.482 C197.288,119.482 199.471049,121.302 199.471049,123.543 L199.471049,130.509 C199.483,132.762 197.288,134.593 194.59,134.593 Z" id="Path" fill="#2F3133" fill-rule="nonzero"></path>
            <path d="M197.9,97.0266001 L126.784,97.0266001 L134.251,78.0839001 C135.762,74.1927001 140.334,71.5723001 145.617,71.5723001 L179.091,71.5723001 C184.375,71.5723001 188.947,74.1927001 190.457,78.0839001 L197.9,97.0266001 Z" id="Path" stroke="#5770BE" stroke-width="9.89" fill="#FFFFFF" fill-rule="nonzero"></path>
            <path d="M206.862,110.238 L206.862,117.531 L117.803,117.531 L117.803,110.238 C117.803,102.945 123.09,97.0254001 129.6,97.0254001 L195.065,97.0254001 C201.575,97.0254001 206.862,102.945 206.862,110.238 Z" id="Path" fill="#5770BE" fill-rule="nonzero"></path>
            <path d="M208.974,120.641 C208.974,122.8 206.771,124.548 204.054,124.548 L120.607,124.548 C117.89,124.548 115.687,122.8 115.687,120.641 C115.687,118.479 117.89,116.73 120.607,116.73 L204.054,116.73 C206.771,116.73 208.974,118.479 208.974,120.641 Z" id="Path" fill="#546389" fill-rule="nonzero"></path>
            <polygon id="Path" fill="#FFFFFF" fill-rule="nonzero" points="199.546 113.622 199.546 106.195 188.362 108.579 188.362 113.622"></polygon>
            <polygon id="Path" fill="#FFFFFF" fill-rule="nonzero" points="125.258 113.622 125.258 106.195 136.442 108.579 136.442 113.622"></polygon>
            <path d="M126.362,93.5481001 L124.527,93.3981001 L124.871,89.1913001 C124.871,89.1913001 114.845,86.3577001 113.3462,88.2520001 C111.8473,90.1463001 112.8597,94.1716001 112.8597,94.1716001 L124.052,95.0872001 L126.362,93.5481001 Z" id="Path" fill="#2F3133" fill-rule="nonzero"></path>
            <path d="M198,97.6250001 L129,97.6250001 L136.245,76.7878001 C137.71,72.5075001 142.146,69.6250001 147.273,69.6250001 L179.75,69.6250001 C184.877,69.6250001 189.313,72.5075001 190.778,76.7878001 L198,97.6250001 Z" id="Path" stroke="#5770BE" stroke-width="6.91" fill="#FFFFFF" fill-rule="nonzero"></path>
            <path d="M146.238,72.8809001 C141.164,72.8809001 136.771,75.2487001 135.319,78.7334001 L128.149,95.7701001 L138.08,95.7701001 L147.243,72.8809001 L146.238,72.8809001 Z" id="Path" fill="#CCDCFF" fill-rule="nonzero"></path>
            <path d="M189.315,78.7334001 C187.863,75.2369001 183.469,72.8809001 178.395,72.8809001 L154.168,72.8809001 L146.124,95.7701001 L196.445,95.7701001 L189.315,78.7334001 Z" id="Path" fill="#CCDCFF" fill-rule="nonzero"></path>
            <polygon id="Path" fill="#FFFFFF" fill-rule="nonzero" points="180.365 110.953 144.3 110.953 144.3 111.999 180.365 111.999"></polygon>
            <path d="M172.783,67.5620315 L163.13,67.5620315 C163.055,67.5626001 162.981,67.5546001 162.908,67.5383001 C162.835,67.5538001 162.761,67.5617001 162.687,67.5620315 L153.029,67.5620315 C152.855,67.5617001 152.684,67.5184001 152.531,67.4359001 C152.377,67.3533001 152.247,67.2342001 152.152,67.0891001 C152.056,66.9440001 151.998,66.7775001 151.983,66.6045001 C151.967,66.4315001 151.995,66.2574001 152.064,66.0979001 L152.93,64.0773001 C153.011,63.8883001 153.147,63.7274001 153.319,63.6144001 C153.491,63.5015001 153.693,63.4415001 153.899,63.4420001 L156.565,63.4420001 C156.791,63.4414001 157.011,63.3682001 157.193,63.2332001 C157.374,63.0982001 157.508,62.9085001 157.573,62.6921001 L158.123,60.8728001 C158.188,60.6569001 158.322,60.4677001 158.503,60.3333001 C158.685,60.1990001 158.905,60.1266001 159.131,60.1269985 L166.681,60.1269985 C166.907,60.1266001 167.127,60.1990001 167.309,60.3333001 C167.491,60.4677001 167.624,60.6569001 167.69,60.8728001 L168.239,62.6921001 C168.304,62.9088001 168.437,63.0989001 168.619,63.2340001 C168.801,63.3691001 169.021,63.4420001 169.248,63.4420001 L171.913,63.4420001 C172.12,63.4415001 172.321,63.5015001 172.493,63.6144001 C172.666,63.7274001 172.801,63.8883001 172.882,64.0773001 L173.752,66.0979001 C173.82,66.2578001 173.847,66.4320001 173.831,66.6049001 C173.815,66.7778001 173.757,66.9441001 173.661,67.0890001 C173.565,67.2339001 173.435,67.3529001 173.282,67.4354001 C173.129,67.5179001 172.957,67.5614001 172.783,67.5620315 Z" id="Path" fill="#000091" fill-rule="nonzero"></path>
            <polygon id="Path" fill="#FFFFFF" fill-rule="nonzero" points="160.33 62.3719001 159.582 62.3719001 159.582 62.1035001 161.401 62.1035001 161.401 62.3719001 160.65 62.3719001 160.65 64.5542001 160.33 64.5542001"></polygon>
            <path d="M161.777,63.7689001 L161.524,64.5581001 L161.196,64.5581001 L162.03,62.1074001 L162.426,62.1074001 L163.264,64.5581001 L162.924,64.5581001 L162.663,63.7689001 L161.777,63.7689001 Z M162.568,63.5202001 L162.327,62.8138001 C162.272,62.6560001 162.236,62.5100001 162.2,62.3679001 C162.165,62.5139001 162.125,62.6599001 162.078,62.8099001 L161.836,63.5202001 L162.568,63.5202001 Z" id="Shape" fill="#FFFFFF" fill-rule="nonzero"></path>
            <path d="M164.905,64.5406001 L164.593,63.9999001 C164.466,63.7907001 164.383,63.6566001 164.308,63.5145001 C164.241,63.6566001 164.169,63.7868001 164.043,64.0039001 L163.746,64.5406001 L163.382,64.5406001 L164.134,63.3014001 L163.41,62.0898001 L163.778,62.0898001 L164.102,62.6621001 C164.193,62.8239001 164.264,62.9462001 164.331,63.0764001 C164.403,62.9344001 164.466,62.8199001 164.557,62.6621001 L164.889,62.0898001 L165.257,62.0898001 L164.509,63.2738001 L165.273,64.5327001 L164.905,64.5406001 Z" id="Path" fill="#FFFFFF" fill-rule="nonzero"></path>
            <polygon id="Path" fill="#FFFFFF" fill-rule="nonzero" points="165.957 62.0898001 165.957 64.5406001 165.641 64.5406001 165.641 62.0898001"></polygon>
            <path d="M156.244,66.6191001 L155.216,70.1946001 C155.215,70.2711001 155.23,70.3470001 155.259,70.4178001 C155.288,70.4887001 155.331,70.5531001 155.385,70.6074001 C155.439,70.6616001 155.503,70.7047001 155.574,70.7341001 C155.645,70.7635001 155.721,70.7787126 155.797,70.7787126 L158.605,70.7787126 C158.682,70.7792001 158.758,70.7646001 158.829,70.7356001 C158.9,70.7067001 158.964,70.6641001 159.019,70.6102001 C159.073,70.5562001 159.116,70.4921001 159.146,70.4215001 C159.175,70.3508001 159.19,70.2751001 159.19,70.1985001 L158.17,66.6270001 L156.244,66.6191001 Z" id="Path" fill="url(#linearGradient-1)" fill-rule="nonzero"></path>
            <polygon id="Path" fill="#546389" fill-rule="nonzero" points="170.889 66.3496001 154.923 66.3496001 154.923 66.8863001 170.889 66.8863001"></polygon>
        </g>
    </g>
</svg>