<?xml version="1.0" encoding="UTF-8"?>
<svg width="227px" height="227px" viewBox="0 0 227 227" version="1.1" xmlns="http://www.w3.org/2000/svg" xmlns:xlink="http://www.w3.org/1999/xlink">
    <title>Slice 1</title>
    <defs>
        <linearGradient x1="50.0043842%" y1="100.000844%" x2="50.0043842%" y2="0.000768242898%" id="linearGradient-1">
            <stop stop-color="#808080" stop-opacity="0.25" offset="0%"></stop>
            <stop stop-color="#808080" stop-opacity="0.12" offset="54%"></stop>
            <stop stop-color="#808080" stop-opacity="0.1" offset="100%"></stop>
        </linearGradient>
    </defs>
    <g id="Page-1" stroke="none" stroke-width="1" fill="none" fill-rule="evenodd">
        <g id="Group">
            <circle id="Oval" fill="#FFFFFF" fill-rule="nonzero" cx="113.5" cy="113.5" r="113.5"></circle>
            <path d="M46.0877995,60.6532994 C45.0229995,61.0949994 43.9416995,61.6512994 43.3682995,62.6328994 C42.7457995,63.6799994 42.8276995,64.9724994 42.9423995,66.1668994 C43.9416995,76.6213994 46.5792995,87.7466994 42.0249995,97.2195994 C39.8133995,101.816999 36.1273495,105.498199 33.1949095,109.670199 C30.2624795,113.842199 28.0508605,119.061199 29.4105945,123.969499 C31.0815895,129.973899 37.2904995,133.295099 41.4679995,137.908899 C44.2037995,140.935599 46.1369995,144.600399 48.6925995,147.774399 C51.2482995,150.947999 54.7540995,153.745999 58.8332995,153.941999 C64.6980995,154.220999 69.4817995,149.148999 75.2319995,147.970699 C81.1295995,146.776399 87.0763995,149.819999 91.8436995,153.483999 C96.6108995,157.148999 100.968599,161.582999 106.554999,163.856999 C112.714799,166.376999 119.644499,166 126.115499,167.505999 C132.012999,168.895999 137.435999,171.824999 143.300999,173.394999 C149.164999,174.965999 156.012999,174.867999 160.550999,170.858999 C166.464999,165.623999 166.006999,156.297999 169.773999,149.377999 C173.279999,142.947999 180.143999,139.103199 184.763999,133.409599 C193.086999,123.167799 192.807999,107.526899 185.746999,96.3851994 C178.685999,85.2434994 165.891999,78.5028994 152.818999,76.7522994 C146.920999,75.9669994 140.842999,76.0650994 135.174999,74.2654994 C120.004899,69.4880994 110.978199,52.2602094 95.4805995,48.6608434 C85.6347995,46.3866994 76.0510995,50.3296394 67.6633995,55.1887894 C60.3895995,59.3934994 53.6727995,57.5120194 46.0877995,60.6532994 Z" id="Path" fill="#FECB40" fill-rule="nonzero" opacity="0.1"></path>
            <path d="M60.8804995,94.4374994 C60.8804995,94.4374994 55.2941995,99.7056994 49.2817995,99.8692994 C46.7589995,99.9183994 44.3343995,100.785499 42.3356995,102.339799 C41.4018995,103.075999 40.5336995,103.910399 39.7472995,104.810199" id="Path" stroke="#535461" stroke-width="2"></path>
            <path d="M35.9628495,104.926399 C36.7655795,104.517399 39.8454995,104.795499 39.8454995,104.795499 C39.8454995,104.795499 38.2563695,107.429599 37.4372595,107.838599 C36.6508995,108.296699 35.6515795,108.034899 35.1928795,107.265999 C34.7341695,106.480699 34.9962895,105.482599 35.7662595,105.024499 C35.8317895,104.991799 35.8973195,104.959099 35.9628495,104.926399 Z" id="Path" fill="#FECB40" fill-rule="nonzero"></path>
            <path d="M39.2066995,100.262599 C40.1076995,100.360799 42.5486995,102.258599 42.5486995,102.258599 C42.5486995,102.258599 39.7636995,103.616599 38.8790195,103.518399 C37.9779895,103.387499 37.3718495,102.553099 37.5029095,101.653299 C37.6175795,100.802499 38.3547895,100.213499 39.2066995,100.262599 Z" id="Path" fill="#FECB40" fill-rule="nonzero"></path>
            <path d="M46.8898995,96.5008994 C47.6106995,97.0408994 48.7574995,99.9039994 48.7574995,99.9039994 C48.7574995,99.9039994 45.6775995,99.6748994 44.9403995,99.1349994 C44.2359995,98.5623994 44.1212995,97.5316994 44.6946995,96.8281994 C45.2352995,96.1736994 46.1854995,96.0264994 46.8898995,96.5008994 Z" id="Path" fill="#FECB40" fill-rule="nonzero"></path>
            <path d="M53.3282995,94.9622994 C54.1309995,95.3712994 55.7528995,98.0053994 55.7528995,98.0053994 C55.7528995,98.0053994 52.6729995,98.2998994 51.8701995,97.8908994 C51.0346995,97.5308994 50.6579995,96.5656994 51.0183995,95.7312994 C51.3787995,94.8968994 52.3452995,94.5205994 53.1807995,94.8804994 C53.2299995,94.8968994 53.2790995,94.9295994 53.3282995,94.9622994 Z" id="Path" fill="#FECB40" fill-rule="nonzero"></path>
            <path d="M44.2523995,105.235399 C44.5144995,104.368299 43.7281995,101.390599 43.7281995,101.390599 C43.7281995,101.390599 41.3854995,103.402999 41.1233995,104.270099 C40.8120995,105.120899 41.2543995,106.053499 42.1062995,106.364299 C42.9581995,106.675199 43.8919995,106.233399 44.2032995,105.382699 C44.2195995,105.333599 44.2359995,105.284499 44.2523995,105.235399 Z" id="Path" fill="#FECB40" fill-rule="nonzero"></path>
            <path d="M51.7720995,103.322299 C51.7720995,102.422399 50.1174995,99.8046994 50.1174995,99.8046994 C50.1174995,99.8046994 48.4955995,102.422399 48.4955995,103.322299 C48.4955995,104.222099 49.2327995,104.958299 50.1337995,104.958299 C51.0348995,104.958299 51.7720995,104.238499 51.7720995,103.322299 Z" id="Path" fill="#FECB40" fill-rule="nonzero"></path>
            <path d="M58.8326995,100.490799 C58.9800995,99.6072994 57.8005995,96.7440994 57.8005995,96.7440994 C57.8005995,96.7440994 55.7527995,99.0509994 55.6053995,99.9508994 C55.4906995,100.850699 56.1295995,101.668699 57.0305995,101.766899 C57.8660995,101.865099 58.6524995,101.308799 58.8326995,100.490799 Z" id="Path" fill="#FECB40" fill-rule="nonzero"></path>
            <path d="M68.1378995,80.4826994 C68.1378995,80.4826994 61.4047995,76.7851994 59.4060995,71.1242994 C58.5869995,68.7519994 57.0142995,66.6905994 54.9173995,65.2835994 C53.9180995,64.6290994 52.8695995,64.0564994 51.7719995,63.5819994" id="Path" stroke="#535461" stroke-width="2"></path>
            <path d="M50.4939995,60.0309994 C51.1328995,60.6690994 51.8209995,63.6794994 51.8209995,63.6794994 C51.8209995,63.6794994 48.8065995,62.9759994 48.1676995,62.3378994 C47.5615995,61.6670994 47.6106995,60.6363994 48.2823995,60.0309994 C48.9212995,59.4583994 49.8714995,59.4583994 50.4939995,60.0309994 Z" id="Path" fill="#FECB40" fill-rule="nonzero"></path>
            <path d="M55.9329995,61.6679994 C56.1131995,62.5514994 55.0646995,65.4473994 55.0646995,65.4473994 C55.0646995,65.4473994 52.9185995,63.2222994 52.7383995,62.3387994 C52.5089995,61.4716994 53.0332995,60.5718994 53.9178995,60.3427994 C54.7861995,60.1137994 55.6871995,60.6372994 55.9165995,61.5207994 C55.9165995,61.5698994 55.9329995,61.6189994 55.9329995,61.6679994 Z" id="Path" fill="#FECB40" fill-rule="nonzero"></path>
            <path d="M61.8797995,67.8208994 C61.6012995,68.6716994 59.2093995,70.6512994 59.2093995,70.6512994 C59.2093995,70.6512994 58.4885995,67.6572994 58.7670995,66.7901994 C59.0455995,65.9393994 59.9793995,65.4649994 60.8476995,65.7593994 C61.7158995,66.0538994 62.1745995,66.9700994 61.8797995,67.8208994 Z" id="Path" fill="#FECB40" fill-rule="nonzero"></path>
            <path d="M65.3364995,73.4800994 C65.2054995,74.3635994 63.1903995,76.7195994 63.1903995,76.7195994 C63.1903995,76.7195994 61.9617995,73.8890994 62.1091995,72.9892994 C62.2074995,72.0894994 63.0101995,71.4349994 63.9112995,71.5331994 C64.8122995,71.6313994 65.4675995,72.4329994 65.3692995,73.3328994 C65.3528995,73.3655994 65.3528995,73.4309994 65.3364995,73.4800994 Z" id="Path" fill="#FECB40" fill-rule="nonzero"></path>
            <path d="M52.7549995,68.0000994 C53.6559995,67.9836994 56.2607995,66.3312994 56.2607995,66.3312994 C56.2607995,66.3312994 53.6231995,64.7278994 52.7221995,64.7442994 C51.8211995,64.7605994 51.1002995,65.4968994 51.1002995,66.3966994 C51.1002995,67.2964994 51.8538995,68.0163994 52.7549995,68.0000994 Z" id="Path" fill="#FECB40" fill-rule="nonzero"></path>
            <path d="M56.8668995,74.5599994 C57.7187995,74.2818994 59.7174995,71.9094994 59.7174995,71.9094994 C59.7174995,71.9094994 56.7194995,71.1732994 55.8511995,71.4513994 C54.9829995,71.6968994 54.4750995,72.5966994 54.7208995,73.4801994 C54.9665995,74.3472994 55.8675995,74.8544994 56.7522995,74.6090994 C56.8013995,74.5926994 56.8341995,74.5763994 56.8668995,74.5599994 Z" id="Path" fill="#FECB40" fill-rule="nonzero"></path>
            <path d="M61.7487995,80.4013994 C62.6497995,80.2704994 64.9924995,78.2744994 64.9924995,78.2744994 C64.9924995,78.2744994 62.1582995,77.0310994 61.2736995,77.1619994 C60.3726995,77.2601994 59.7173995,78.0617994 59.8156995,78.9616994 C59.9139995,79.8614994 60.7166995,80.5159994 61.6176995,80.4177994 C61.6668995,80.4177994 61.7159995,80.4177994 61.7487995,80.4013994 Z" id="Path" fill="#FECB40" fill-rule="nonzero"></path>
            <path d="M114.483499,170.123999 C147.235999,170.123999 173.787999,143.607499 173.787999,110.897899 C173.787999,78.1882994 147.235999,51.6718794 114.483499,51.6718794 C81.7307995,51.6718794 55.1793995,78.1882994 55.1793995,110.897899 C55.1793995,143.607499 81.7307995,170.123999 114.483499,170.123999 Z" id="Path" fill="url(#linearGradient-1)" fill-rule="nonzero"></path>
            <path d="M114.483499,169.140999 C146.692999,169.140999 172.804999,143.064199 172.804999,110.896699 C172.804999,78.7291994 146.692999,52.6523394 114.483499,52.6523394 C82.2735995,52.6523394 56.1623995,78.7291994 56.1623995,110.896699 C56.1623995,143.064199 82.2735995,169.140999 114.483499,169.140999 Z" id="Path" fill="#FECB40" fill-rule="nonzero"></path>
            <path d="M114.483299,157.199999 C140.087999,157.199999 160.844999,136.469999 160.844999,110.898599 C160.844999,85.3272994 140.087999,64.5976994 114.483299,64.5976994 C88.8782995,64.5976994 68.1212995,85.3272994 68.1212995,110.898599 C68.1212995,136.469999 88.8782995,157.199999 114.483299,157.199999 Z" id="Path" fill="#DDE1EC" fill-rule="nonzero"></path>
            <polygon id="Path" fill="#535461" fill-rule="nonzero" opacity="0.3" points="115.793999 72.7753994 113.172899 72.7753994 113.172899 113.677299 115.793999 113.677299"></polygon>
            <g opacity="0.1" transform="translate(89.609899, 97.675399)" fill="#000000" fill-rule="nonzero" id="Path">
                <polygon points="64.6831 12.2406 27.6587 12.2406 27.6587 15.5128 64.6831 15.5128"></polygon>
                <polygon points="1.5199 7.10542736e-15 7.10542736e-15 2.8988 23.2935 15.0804 24.8134 12.1816"></polygon>
                <path d="M24.8736,18.7836 C27.588,18.7836 29.7883,16.5861 29.7883,13.8754 C29.7883,11.1647 27.588,8.9672 24.8736,8.9672 C22.1593,8.9672 19.9589,11.1647 19.9589,13.8754 C19.9589,16.5861 22.1593,18.7836 24.8736,18.7836 Z"></path>
            </g>
            <polygon id="Path" fill="#535461" fill-rule="nonzero" points="154.292999 109.259799 117.268599 109.259799 117.268599 112.531899 154.292999 112.531899"></polygon>
            <polygon id="Path" fill="#535461" fill-rule="nonzero" points="91.1397995 97.0191994 89.6198995 99.9179994 112.913399 112.099499 114.433399 109.200699"></polygon>
            <path d="M114.483499,115.804799 C117.197899,115.804799 119.398199,113.607299 119.398199,110.896499 C119.398199,108.185799 117.197899,105.988299 114.483499,105.988299 C111.769199,105.988299 109.568799,108.185799 109.568799,110.896499 C109.568799,113.607299 111.769199,115.804799 114.483499,115.804799 Z" id="Path" fill="#535461" fill-rule="nonzero"></path>
            <g opacity="0.1" transform="translate(68.121338, 64.597699)" fill="#000000" fill-rule="nonzero" id="Path">
                <path d="M3.60416127,51.8636 C3.60416127,26.2917 24.3605613,5.5626 49.9661613,5.5626 C64.5296613,5.5463 78.2586613,12.3851 87.0226613,24.0176 C79.1266613,9.7019 63.8916613,-3.55271368e-15 46.3620613,-3.55271368e-15 C20.7564613,-3.55271368e-15 -7.10542736e-15,20.7291 -7.10542736e-15,46.301 C-0.0163387331,56.3465 3.26016127,66.1302 9.32156127,74.147 C5.55366127,67.3245 3.58776127,59.6513 3.60416127,51.8636 Z"></path>
            </g>
            <path d="M148.607999,88.7772994 C148.607999,88.7772994 148.001999,90.2006994 148.312999,90.6424994 L148.607999,88.7772994 Z" id="Path" fill="#000000" fill-rule="nonzero" opacity="0.05"></path>
            <path d="M124.738799,88.3358994 C124.738799,88.3358994 125.033599,89.7592994 124.738799,90.2010994 L124.738799,88.3358994 Z" id="Path" fill="#000000" fill-rule="nonzero" opacity="0.05"></path>
            <path d="M186.794999,120.697299 C186.794999,120.697299 179.946999,127.536099 183.813999,137.696099 C187.679999,147.856199 177.178999,164.739999 177.178999,164.739999 C177.178999,164.739999 177.292999,164.723999 177.505999,164.690999 C191.578999,162.204999 198.573999,146.138299 190.742999,134.178499 C187.826999,129.744799 185.451999,124.541999 186.794999,120.697299 Z" id="Path" fill="#FECB40" fill-rule="nonzero"></path>
            <path d="M186.794999,120.812499 C186.794999,120.812499 179.946999,127.651299 183.813999,137.811299 C187.679999,147.971399 177.178999,164.855999 177.178999,164.855999 C177.178999,164.855999 177.292999,164.838999 177.505999,164.806999 C191.578999,162.319999 198.573999,146.253499 190.742999,134.293799 C187.826999,129.859999 185.451999,124.657299 186.794999,120.812499 Z" id="Path" fill="#000000" fill-rule="nonzero" opacity="0.1"></path>
            <path d="M186.794999,120.697299 C186.794999,120.697299 182.928999,129.090299 186.794999,135.929199 C190.660999,142.767999 187.449999,161.991999 177.178999,164.739999" id="Path" stroke="#535461"></path>
            <path d="M198.999999,148.379999 C198.999999,148.379999 191.185999,147.136899 190.464999,154.138999 C189.743999,161.141999 175.425999,162.106999 175.425999,162.106999 L175.687999,162.286999 C187.515999,170.041999 198.819999,167.227999 197.115999,156.920999 C196.492999,153.091999 196.558999,149.246999 198.999999,148.379999 Z" id="Path" fill="#FECB40" fill-rule="nonzero"></path>
            <path d="M198.999999,148.378999 C198.999999,148.378999 192.921999,149.703999 193.429999,155.217999 C193.937999,160.730999 184.419999,167.340999 175.425999,162.105999" id="Path" stroke="#535461"></path>
            <path d="M192.118999,162.351999 C192.118999,162.351999 185.959999,161.124999 184.320999,159.488999 C182.682999,157.852999 175.277999,154.972999 174.458999,157.034999 C173.639999,159.095999 163.367999,166.065999 170.346999,167.292999 C177.325999,168.519999 186.778999,168.928999 188.826999,168.110999 C190.873999,167.292999 192.118999,162.351999 192.118999,162.351999 Z" id="Path" fill="#A8A8A8" fill-rule="nonzero"></path>
            <path d="M170.362999,166.524999 C177.341999,167.751999 186.794999,168.160999 188.842999,167.342999 C190.414999,166.720999 191.496999,163.710999 191.922999,162.319999 L192.135999,162.368999 C192.135999,162.368999 190.906999,167.293999 188.842999,168.111999 C186.778999,168.929999 177.341999,168.520999 170.362999,167.293999 C168.347999,166.933999 167.774999,166.099999 167.987999,165.052999 C168.151999,165.722999 168.855999,166.262999 170.362999,166.524999 Z" id="Path" fill="#000000" fill-rule="nonzero" opacity="0.2"></path>
        </g>
    </g>
</svg>