<?xml version="1.0" encoding="UTF-8" standalone="no"?>
<!DOCTYPE svg PUBLIC "-//W3C//DTD SVG 1.1//EN" "http://www.w3.org/Graphics/SVG/1.1/DTD/svg11.dtd">
<svg width="100%" height="100%" viewBox="0 0 4009 4223" version="1.1" xmlns="http://www.w3.org/2000/svg" xmlns:xlink="http://www.w3.org/1999/xlink" xml:space="preserve" xmlns:serif="http://www.serif.com/" style="fill-rule:evenodd;clip-rule:evenodd;stroke-linejoin:round;stroke-miterlimit:2;">
    <g transform="matrix(1,0,0,1,-533.057,-384.772)">
        <g transform="matrix(1,0,0,1,0.00130175,104.573)">
            <path d="M3017.75,3015.37L3706.76,3704.38L3915.56,3495.58L3226.55,2806.57L3017.75,3015.37Z"/>
        </g>
        <g transform="matrix(1,0,0,1,0.00130175,104.573)">
            <path d="M3017.75,2806.57L2328.74,3495.58L2537.54,3704.38L3226.55,3015.37L3017.75,2806.57Z"/>
        </g>
        <g transform="matrix(1,0,0,1,0.00130175,104.573)">
            <path d="M3017.76,384.599L1702.37,1699.99L3122.15,3119.77L4541.94,1699.99L3122.16,280.198L3017.76,384.599ZM2119.97,1699.99L3122.16,697.802C3122.16,697.802 4124.34,1699.99 4124.34,1699.99C4124.34,1699.99 3122.15,2702.17 3122.15,2702.17C2893.15,2473.17 2348.97,1928.99 2119.97,1699.99L2119.97,1699.99Z"/>
        </g>
        <g transform="matrix(1,0,0,1,0.00130175,104.573)">
            <path d="M4082.6,2910.97L3602.38,3391.19L3811.18,3599.99L4291.4,3119.77L4082.6,2910.97Z"/>
        </g>
        <g transform="matrix(1,0,0,1,0.00130175,104.573)">
            <path d="M1848.44,3015.37L2537.46,3704.38L2746.26,3495.58L2057.24,2806.57L1848.44,3015.37Z"/>
        </g>
        <g transform="matrix(1,0,0,1,0.00130175,104.573)">
            <path d="M1848.44,2806.57L1159.44,3495.58L1368.24,3704.38L2057.24,3015.37L1848.44,2806.57Z"/>
        </g>
        <g transform="matrix(1,0,0,1,0.00130175,104.573)">
            <path d="M637.458,1595.59L533.056,1699.99L1952.84,3119.77L3372.63,1699.99L1952.85,280.209L637.458,1595.59ZM950.66,1699.99C1179.66,1470.99 1723.85,926.807 1952.85,697.811C2181.85,926.807 2726.03,1470.99 2955.03,1699.99C2955.03,1699.99 1952.84,2702.17 1952.84,2702.17L950.66,1699.99Z"/>
        </g>
        <g transform="matrix(1,0,0,1,0.00130175,104.573)">
            <path d="M783.607,3119.77L1263.83,3599.99L1472.63,3391.19L992.409,2910.97L783.607,3119.77Z"/>
        </g>
        <g transform="matrix(1,0,0,1,0.00130175,104.573)">
            <path d="M3014.88,2806.8L2432.83,3391.42L2642.09,3599.76L3224.14,3015.14L3014.88,2806.8Z"/>
        </g>
        <g transform="matrix(1,0,0,1,0.00130175,104.573)">
            <g transform="matrix(675,0,0,675,1444.77,4345.38)">
                <g>
                    <path d="M0.262,-0.098C0.294,-0.098 0.321,-0.11 0.342,-0.135C0.363,-0.159 0.373,-0.192 0.373,-0.234C0.373,-0.339 0.336,-0.392 0.262,-0.392C0.188,-0.392 0.151,-0.342 0.151,-0.242C0.151,-0.198 0.162,-0.163 0.183,-0.137C0.204,-0.111 0.23,-0.098 0.262,-0.098ZM0.369,-0.066C0.36,-0.044 0.343,-0.027 0.319,-0.015C0.294,-0.002 0.266,0.004 0.234,0.004C0.193,0.004 0.159,-0.003 0.132,-0.018C0.104,-0.032 0.082,-0.051 0.065,-0.074C0.048,-0.097 0.035,-0.124 0.028,-0.155C0.02,-0.186 0.016,-0.217 0.016,-0.249C0.016,-0.287 0.022,-0.322 0.033,-0.354C0.044,-0.385 0.06,-0.412 0.079,-0.435C0.098,-0.457 0.121,-0.474 0.147,-0.487C0.173,-0.499 0.201,-0.505 0.231,-0.505C0.292,-0.505 0.338,-0.48 0.369,-0.431L0.369,-0.492L0.499,-0.492L0.499,0.005C0.499,0.042 0.493,0.075 0.48,0.104C0.467,0.132 0.45,0.156 0.428,0.175C0.406,0.194 0.38,0.208 0.35,0.218C0.32,0.228 0.288,0.233 0.254,0.233C0.22,0.233 0.188,0.228 0.159,0.219C0.13,0.209 0.105,0.195 0.084,0.178C0.063,0.16 0.046,0.138 0.034,0.113C0.022,0.088 0.016,0.059 0.016,0.027L0.137,0.027C0.137,0.057 0.147,0.08 0.167,0.097C0.186,0.113 0.212,0.121 0.245,0.121C0.28,0.121 0.309,0.112 0.333,0.093C0.357,0.074 0.369,0.048 0.369,0.015L0.369,-0.066Z" style="fill-rule:nonzero;"/>
                </g>
            </g>
            <g>
                <g transform="matrix(1,0,0,1,1832.89,4345.38)">
                    <g transform="matrix(675,0,0,675,0,0)">
                        <path d="M0.35,-0.294C0.349,-0.312 0.346,-0.328 0.341,-0.342C0.335,-0.355 0.327,-0.367 0.318,-0.376C0.309,-0.385 0.298,-0.391 0.286,-0.396C0.274,-0.4 0.262,-0.402 0.249,-0.402C0.223,-0.402 0.2,-0.393 0.182,-0.374C0.163,-0.355 0.152,-0.328 0.149,-0.294L0.35,-0.294ZM0.145,-0.212C0.147,-0.175 0.158,-0.145 0.178,-0.123C0.197,-0.101 0.223,-0.09 0.255,-0.09C0.276,-0.09 0.295,-0.095 0.312,-0.105C0.328,-0.114 0.338,-0.128 0.343,-0.145L0.477,-0.145C0.462,-0.094 0.435,-0.055 0.397,-0.028C0.359,-0.001 0.314,0.013 0.261,0.013C0.097,0.013 0.015,-0.076 0.015,-0.255C0.015,-0.293 0.02,-0.327 0.031,-0.358C0.042,-0.389 0.057,-0.415 0.078,-0.437C0.098,-0.459 0.123,-0.476 0.152,-0.488C0.181,-0.499 0.215,-0.505 0.253,-0.505C0.329,-0.505 0.387,-0.481 0.426,-0.432C0.464,-0.383 0.484,-0.31 0.484,-0.212L0.145,-0.212Z" style="fill-rule:nonzero;"/>
                    </g>
                    <g transform="matrix(675,0,0,675,339.525,0)">
                        <path d="M0.322,-0.343C0.319,-0.367 0.31,-0.384 0.296,-0.394C0.282,-0.403 0.26,-0.408 0.23,-0.408C0.205,-0.408 0.186,-0.405 0.173,-0.399C0.16,-0.392 0.153,-0.382 0.153,-0.367C0.153,-0.352 0.16,-0.341 0.173,-0.334C0.186,-0.326 0.206,-0.318 0.233,-0.311C0.261,-0.303 0.288,-0.296 0.313,-0.29C0.338,-0.283 0.361,-0.276 0.38,-0.269C0.406,-0.258 0.426,-0.244 0.44,-0.226C0.454,-0.207 0.461,-0.182 0.461,-0.15C0.461,-0.099 0.443,-0.059 0.407,-0.03C0.37,-0.001 0.317,0.013 0.246,0.013C0.17,0.013 0.112,-0.003 0.072,-0.035C0.031,-0.067 0.01,-0.108 0.009,-0.158L0.143,-0.158C0.143,-0.135 0.152,-0.117 0.17,-0.104C0.188,-0.091 0.213,-0.085 0.245,-0.085C0.268,-0.085 0.289,-0.089 0.306,-0.097C0.323,-0.104 0.332,-0.117 0.332,-0.136C0.332,-0.153 0.324,-0.166 0.309,-0.173C0.293,-0.18 0.274,-0.187 0.253,-0.192C0.212,-0.202 0.178,-0.211 0.153,-0.219C0.128,-0.227 0.106,-0.237 0.089,-0.248C0.066,-0.263 0.049,-0.279 0.041,-0.298C0.032,-0.317 0.027,-0.337 0.027,-0.359C0.027,-0.38 0.031,-0.399 0.038,-0.417C0.045,-0.435 0.057,-0.451 0.074,-0.464C0.091,-0.476 0.112,-0.487 0.139,-0.494C0.165,-0.501 0.197,-0.505 0.234,-0.505C0.305,-0.505 0.358,-0.491 0.392,-0.464C0.425,-0.437 0.444,-0.396 0.447,-0.343L0.322,-0.343Z" style="fill-rule:nonzero;"/>
                    </g>
                </g>
                <g transform="matrix(1,0,0,1,2486.97,4345.38)">
                    <g transform="matrix(675,0,0,675,0,0)">
                        <path d="M0.305,-0.324L0.426,-0.324L0.426,-0.184C0.426,-0.158 0.422,-0.133 0.415,-0.11C0.407,-0.086 0.395,-0.065 0.379,-0.047C0.362,-0.028 0.341,-0.014 0.317,-0.003C0.292,0.008 0.262,0.013 0.227,0.013C0.191,0.013 0.16,0.008 0.135,-0.003C0.11,-0.014 0.089,-0.028 0.073,-0.046C0.056,-0.064 0.044,-0.085 0.037,-0.109C0.03,-0.133 0.026,-0.158 0.026,-0.185L0.026,-0.625L0.154,-0.625L0.154,-0.492L0.426,-0.492L0.426,-0.4L0.154,-0.4L0.154,-0.198C0.154,-0.167 0.16,-0.142 0.172,-0.126C0.183,-0.109 0.202,-0.1 0.229,-0.1C0.255,-0.1 0.274,-0.108 0.287,-0.125C0.299,-0.142 0.305,-0.165 0.305,-0.196L0.305,-0.324Z" style="fill-rule:nonzero;"/>
                    </g>
                    <g transform="matrix(675,0,0,675,305.775,0)">
                        <path d="M0.325,-0.241C0.318,-0.234 0.309,-0.229 0.296,-0.225C0.283,-0.221 0.265,-0.217 0.241,-0.212C0.204,-0.205 0.178,-0.195 0.164,-0.184C0.15,-0.173 0.143,-0.156 0.143,-0.135C0.143,-0.098 0.164,-0.08 0.206,-0.08C0.223,-0.08 0.238,-0.083 0.253,-0.089C0.267,-0.094 0.279,-0.102 0.29,-0.112C0.3,-0.121 0.308,-0.132 0.315,-0.146C0.321,-0.159 0.324,-0.172 0.324,-0.187L0.325,-0.241ZM0.334,-0C0.33,-0.013 0.327,-0.027 0.326,-0.044C0.311,-0.027 0.29,-0.013 0.265,-0.003C0.24,0.008 0.21,0.013 0.177,0.013C0.12,0.013 0.079,0.001 0.053,-0.025C0.026,-0.049 0.013,-0.082 0.013,-0.122C0.013,-0.157 0.019,-0.186 0.03,-0.207C0.041,-0.228 0.057,-0.244 0.077,-0.256C0.097,-0.268 0.121,-0.277 0.149,-0.283C0.176,-0.288 0.206,-0.293 0.239,-0.298C0.272,-0.303 0.294,-0.309 0.305,-0.317C0.316,-0.324 0.322,-0.337 0.322,-0.354C0.322,-0.37 0.315,-0.383 0.3,-0.392C0.285,-0.401 0.264,-0.405 0.239,-0.405C0.209,-0.405 0.188,-0.398 0.175,-0.385C0.162,-0.372 0.153,-0.354 0.15,-0.332L0.029,-0.332C0.03,-0.357 0.034,-0.381 0.042,-0.402C0.049,-0.423 0.062,-0.442 0.079,-0.457C0.096,-0.472 0.118,-0.484 0.145,-0.493C0.172,-0.501 0.206,-0.505 0.245,-0.505C0.284,-0.505 0.317,-0.501 0.344,-0.492C0.371,-0.483 0.392,-0.471 0.409,-0.455C0.425,-0.438 0.437,-0.418 0.444,-0.394C0.451,-0.369 0.455,-0.342 0.455,-0.311L0.455,-0L0.334,-0Z" style="fill-rule:nonzero;"/>
                    </g>
                    <g transform="matrix(675,0,0,675,607.5,0)">
                        <path d="M0.179,-0L0.003,-0.492L0.148,-0.492L0.251,-0.167L0.355,-0.492L0.492,-0.492L0.315,-0L0.179,-0Z" style="fill-rule:nonzero;"/>
                    </g>
                    <g transform="matrix(675,0,0,675,945.675,0)">
                        <path d="M0.425,-0.494C0.425,-0.467 0.42,-0.443 0.41,-0.42C0.4,-0.397 0.386,-0.376 0.369,-0.359C0.352,-0.342 0.331,-0.328 0.308,-0.318C0.285,-0.308 0.26,-0.303 0.233,-0.303C0.206,-0.303 0.182,-0.308 0.159,-0.318C0.135,-0.328 0.115,-0.342 0.098,-0.359C0.081,-0.376 0.067,-0.397 0.057,-0.42C0.047,-0.443 0.042,-0.467 0.042,-0.494C0.042,-0.521 0.047,-0.546 0.057,-0.569C0.067,-0.592 0.081,-0.613 0.098,-0.63C0.115,-0.647 0.135,-0.661 0.159,-0.671C0.182,-0.681 0.206,-0.686 0.233,-0.686C0.26,-0.686 0.285,-0.681 0.308,-0.671C0.331,-0.661 0.352,-0.647 0.369,-0.63C0.386,-0.613 0.4,-0.592 0.41,-0.569C0.42,-0.546 0.425,-0.521 0.425,-0.494ZM0.394,-0.494C0.394,-0.516 0.39,-0.537 0.382,-0.557C0.373,-0.576 0.362,-0.593 0.347,-0.608C0.332,-0.623 0.315,-0.634 0.296,-0.643C0.276,-0.651 0.255,-0.655 0.233,-0.655C0.211,-0.655 0.19,-0.651 0.171,-0.643C0.151,-0.634 0.134,-0.623 0.119,-0.608C0.104,-0.593 0.093,-0.576 0.085,-0.557C0.076,-0.537 0.072,-0.516 0.072,-0.494C0.072,-0.472 0.076,-0.451 0.085,-0.432C0.093,-0.412 0.104,-0.395 0.119,-0.38C0.134,-0.365 0.151,-0.354 0.171,-0.346C0.19,-0.337 0.211,-0.333 0.233,-0.333C0.255,-0.333 0.276,-0.337 0.296,-0.346C0.315,-0.354 0.332,-0.365 0.347,-0.38C0.362,-0.395 0.373,-0.412 0.382,-0.432C0.39,-0.451 0.394,-0.472 0.394,-0.494ZM0.204,-0.56L0.204,-0.513L0.25,-0.513C0.259,-0.513 0.266,-0.515 0.271,-0.52C0.275,-0.524 0.277,-0.529 0.277,-0.536C0.277,-0.543 0.275,-0.549 0.271,-0.554C0.267,-0.558 0.26,-0.56 0.251,-0.56L0.204,-0.56ZM0.27,-0.415L0.27,-0.46C0.27,-0.469 0.268,-0.475 0.265,-0.479C0.261,-0.482 0.254,-0.484 0.243,-0.484L0.204,-0.484L0.204,-0.415L0.168,-0.415L0.168,-0.59L0.257,-0.59C0.274,-0.59 0.287,-0.585 0.297,-0.576C0.306,-0.566 0.311,-0.554 0.311,-0.539C0.311,-0.53 0.309,-0.522 0.305,-0.515C0.3,-0.507 0.294,-0.502 0.285,-0.499C0.293,-0.496 0.299,-0.493 0.302,-0.488C0.305,-0.483 0.306,-0.475 0.306,-0.465L0.306,-0.415L0.27,-0.415Z" style="fill-rule:nonzero;"/>
                    </g>
                </g>
            </g>
        </g>
    </g>
</svg>
