<svg width="440" height="324" viewBox="0 0 440 324" fill="none" xmlns="http://www.w3.org/2000/svg">
<path d="M259.151 210.559H267.423V208.667H261.219V195.159H259.151V210.559ZM279.911 208.733L278.525 207.655C277.799 208.645 276.589 209.305 275.159 209.305C272.783 209.305 271.089 207.699 271.023 205.037H279.537C279.603 204.729 279.669 204.311 279.669 203.871C279.669 201.143 277.711 199.031 274.697 199.031C271.265 199.031 269.109 201.649 269.109 205.015C269.109 208.249 271.419 210.999 275.159 210.999C277.227 210.999 278.877 210.119 279.911 208.733ZM274.653 200.615C276.611 200.615 277.733 201.979 277.799 203.607H271.155C271.551 201.693 272.827 200.615 274.653 200.615ZM283.721 210.801C284.513 210.801 285.129 210.185 285.129 209.415C285.129 208.645 284.513 208.007 283.721 208.007C282.929 208.007 282.291 208.645 282.291 209.415C282.291 210.185 282.929 210.801 283.721 210.801ZM288.138 206.841C288.138 209.547 289.524 210.779 291.988 210.779C292.78 210.779 293.374 210.691 293.902 210.471V208.799C293.484 208.975 292.978 209.063 292.252 209.063C290.91 209.063 290.03 208.579 290.03 206.841V201.165H293.88V199.471H290.03V196.699H288.138V199.471H286.048V201.165H288.138V206.841ZM299.752 210.867C301.182 210.867 302.634 210.229 303.47 209.151V210.559H305.34V203.123C305.34 200.681 303.668 199.031 300.852 199.031C298.916 199.031 297.354 199.845 296.386 201.165L297.794 202.243C298.476 201.297 299.51 200.703 300.786 200.703C302.37 200.703 303.47 201.583 303.47 203.123V203.893L299.73 204.509C297.376 204.905 296.1 206.093 296.1 207.765C296.1 209.657 297.574 210.867 299.752 210.867ZM297.992 207.699C297.992 206.753 298.674 206.071 300.192 205.807L303.47 205.257V207.435C302.744 208.623 301.534 209.327 300.06 209.327C298.762 209.327 297.992 208.645 297.992 207.699ZM309.796 210.559L312.964 206.071L316.132 210.559H318.266L314.174 204.817L317.98 199.471H315.824L312.942 203.563L310.06 199.471H307.926L311.71 204.817L307.618 210.559H309.796ZM321.704 196.589C322.43 196.589 323.002 195.995 323.002 195.269C323.002 194.565 322.43 193.971 321.704 193.971C320.978 193.971 320.384 194.565 320.384 195.269C320.384 195.995 320.978 196.589 321.704 196.589ZM320.758 210.559H322.628V199.471H320.758V210.559ZM327.306 214.079L329.572 208.249H327.438L325.568 214.079H327.306ZM338.439 210.559H340.309V194.059H338.439V210.559ZM354.118 208.733L352.732 207.655C352.006 208.645 350.796 209.305 349.366 209.305C346.99 209.305 345.296 207.699 345.23 205.037H353.744C353.81 204.729 353.876 204.311 353.876 203.871C353.876 201.143 351.918 199.031 348.904 199.031C345.472 199.031 343.316 201.649 343.316 205.015C343.316 208.249 345.626 210.999 349.366 210.999C351.434 210.999 353.084 210.119 354.118 208.733ZM348.86 200.615C350.818 200.615 351.94 201.979 352.006 203.607H345.362C345.758 201.693 347.034 200.615 348.86 200.615ZM361.787 209.041C362.799 210.295 364.185 210.999 365.945 210.999C368.013 210.999 369.663 209.701 369.685 207.633C369.685 203.849 364.119 204.641 364.119 202.155C364.119 201.297 364.757 200.593 365.945 200.593C366.913 200.593 367.749 201.121 368.343 201.957L369.641 200.857C368.871 199.779 367.507 199.031 365.923 199.031C363.789 199.031 362.315 200.461 362.315 202.199C362.315 206.115 367.859 205.235 367.859 207.721C367.859 208.689 367.155 209.437 365.923 209.437C364.801 209.437 363.877 208.887 363.107 207.919L361.787 209.041ZM382.456 208.733L381.07 207.655C380.344 208.645 379.134 209.305 377.704 209.305C375.328 209.305 373.634 207.699 373.568 205.037H382.082C382.148 204.729 382.214 204.311 382.214 203.871C382.214 201.143 380.256 199.031 377.242 199.031C373.81 199.031 371.654 201.649 371.654 205.015C371.654 208.249 373.964 210.999 377.704 210.999C379.772 210.999 381.422 210.119 382.456 208.733ZM377.198 200.615C379.156 200.615 380.278 201.979 380.344 203.607H373.7C374.096 201.693 375.372 200.615 377.198 200.615ZM385.383 210.559H387.253V202.947C387.935 201.825 388.881 201.077 390.333 201.077C390.773 201.077 391.103 201.121 391.433 201.209V199.383C391.169 199.295 390.839 199.251 390.487 199.251C389.079 199.251 388.067 199.889 387.253 200.857V199.471H385.383V210.559ZM392.842 199.471L397.176 210.559H399.64L403.974 199.471H401.95L398.408 208.601L394.866 199.471H392.842ZM407.212 196.589C407.938 196.589 408.51 195.995 408.51 195.269C408.51 194.565 407.938 193.971 407.212 193.971C406.486 193.971 405.892 194.565 405.892 195.269C405.892 195.995 406.486 196.589 407.212 196.589ZM406.266 210.559H408.136V199.471H406.266V210.559ZM417.192 209.239C414.794 209.239 413.1 207.391 413.1 205.015C413.1 202.661 414.794 200.791 417.17 200.791C418.556 200.791 419.678 201.451 420.36 202.419L421.834 201.297C420.8 199.933 419.172 199.031 417.17 199.031C413.496 199.031 411.142 201.781 411.142 205.015C411.142 208.249 413.496 210.999 417.17 210.999C419.194 210.999 420.8 210.119 421.834 208.733L420.36 207.611C419.678 208.579 418.556 209.239 417.192 209.239ZM433.825 208.733L432.439 207.655C431.713 208.645 430.503 209.305 429.073 209.305C426.697 209.305 425.003 207.699 424.937 205.037H433.451C433.517 204.729 433.583 204.311 433.583 203.871C433.583 201.143 431.625 199.031 428.611 199.031C425.179 199.031 423.023 201.649 423.023 205.015C423.023 208.249 425.333 210.999 429.073 210.999C431.141 210.999 432.791 210.119 433.825 208.733ZM428.567 200.615C430.525 200.615 431.647 201.979 431.713 203.607H425.069C425.465 201.693 426.741 200.615 428.567 200.615ZM258.689 251.971H260.559V245.239C261.549 246.361 262.847 246.999 264.497 246.999C267.973 246.999 270.195 244.249 270.195 241.015C270.195 237.781 267.973 235.031 264.497 235.031C262.847 235.031 261.549 235.669 260.559 236.791V235.471H258.689V251.971ZM264.277 236.791C266.631 236.791 268.237 238.661 268.237 241.015C268.237 243.369 266.631 245.239 264.277 245.239C262.759 245.239 261.417 244.513 260.559 243.171V238.859C261.395 237.539 262.737 236.791 264.277 236.791ZM280.935 241.807C280.935 243.985 279.747 245.239 277.899 245.239C276.007 245.239 274.841 243.985 274.841 241.807V235.471H272.971V241.741C272.971 245.063 274.885 246.999 277.877 246.999C280.891 246.999 282.805 245.063 282.805 241.741V235.471H280.935V241.807ZM297.996 241.015C297.996 237.781 295.774 235.031 292.298 235.031C290.648 235.031 289.35 235.669 288.36 236.791V230.059H286.49V246.559H288.36V245.239C289.35 246.361 290.648 246.999 292.298 246.999C295.774 246.999 297.996 244.249 297.996 241.015ZM292.078 236.791C294.432 236.791 296.038 238.661 296.038 241.015C296.038 243.369 294.432 245.239 292.078 245.239C290.56 245.239 289.218 244.513 288.36 243.193V238.837C289.174 237.539 290.538 236.791 292.078 236.791ZM301.035 246.559H302.905V230.059H301.035V246.559ZM307.803 232.589C308.529 232.589 309.101 231.995 309.101 231.269C309.101 230.565 308.529 229.971 307.803 229.971C307.077 229.971 306.483 230.565 306.483 231.269C306.483 231.995 307.077 232.589 307.803 232.589ZM306.857 246.559H308.727V235.471H306.857V246.559ZM311.734 241.015C311.734 244.249 313.956 246.999 317.432 246.999C319.082 246.999 320.38 246.361 321.37 245.217V251.971H323.24V235.471H321.37V236.813C320.38 235.669 319.082 235.031 317.432 235.031C313.956 235.031 311.734 237.781 311.734 241.015ZM313.692 241.015C313.692 238.661 315.298 236.791 317.63 236.791C319.17 236.791 320.512 237.517 321.37 238.859V243.171C320.534 244.491 319.192 245.239 317.63 245.239C315.298 245.239 313.692 243.369 313.692 241.015ZM334.925 241.807C334.925 243.985 333.737 245.239 331.889 245.239C329.997 245.239 328.831 243.985 328.831 241.807V235.471H326.961V241.741C326.961 245.063 328.875 246.999 331.867 246.999C334.881 246.999 336.795 245.063 336.795 241.741V235.471H334.925V241.807ZM350.336 244.733L348.95 243.655C348.224 244.645 347.014 245.305 345.584 245.305C343.208 245.305 341.514 243.699 341.448 241.037H349.962C350.028 240.729 350.094 240.311 350.094 239.871C350.094 237.143 348.136 235.031 345.122 235.031C341.69 235.031 339.534 237.649 339.534 241.015C339.534 244.249 341.844 246.999 345.584 246.999C347.652 246.999 349.302 246.119 350.336 244.733ZM345.078 236.615C347.036 236.615 348.158 237.979 348.224 239.607H341.58C341.976 237.693 343.252 236.615 345.078 236.615ZM358.247 241.015C358.247 244.249 360.469 246.999 363.945 246.999C365.595 246.999 366.893 246.361 367.883 245.239V246.559H369.753V230.059H367.883V236.791C366.893 235.669 365.595 235.031 363.945 235.031C360.469 235.031 358.247 237.781 358.247 241.015ZM360.227 241.015C360.227 238.661 361.811 236.791 364.165 236.791C365.683 236.791 367.025 237.517 367.883 238.837V243.193C367.069 244.491 365.705 245.239 364.165 245.239C361.811 245.239 360.227 243.369 360.227 241.015ZM383.551 244.733L382.165 243.655C381.439 244.645 380.229 245.305 378.799 245.305C376.423 245.305 374.729 243.699 374.663 241.037H383.177C383.243 240.729 383.309 240.311 383.309 239.871C383.309 237.143 381.351 235.031 378.337 235.031C374.905 235.031 372.749 237.649 372.749 241.015C372.749 244.249 375.059 246.999 378.799 246.999C380.867 246.999 382.517 246.119 383.551 244.733ZM378.293 236.615C380.251 236.615 381.373 237.979 381.439 239.607H374.795C375.191 237.693 376.467 236.615 378.293 236.615ZM258.689 282.559H260.559V274.881C261.197 273.737 262.143 272.791 263.661 272.791C265.267 272.791 266.279 273.847 266.279 275.695V282.559H268.149V275.629C268.149 275.365 268.127 275.123 268.105 274.881C268.831 273.583 269.821 272.791 271.229 272.791C272.813 272.791 273.847 273.847 273.847 275.695V282.559H275.717V275.629C275.717 272.615 273.979 271.031 271.603 271.031C269.689 271.031 268.523 271.955 267.643 273.165C266.961 271.757 265.641 271.031 264.035 271.031C262.495 271.031 261.395 271.713 260.559 272.681V271.471H258.689V282.559ZM282.5 282.867C283.93 282.867 285.382 282.229 286.218 281.151V282.559H288.088V275.123C288.088 272.681 286.416 271.031 283.6 271.031C281.664 271.031 280.102 271.845 279.134 273.165L280.542 274.243C281.224 273.297 282.258 272.703 283.534 272.703C285.118 272.703 286.218 273.583 286.218 275.123V275.893L282.478 276.509C280.124 276.905 278.848 278.093 278.848 279.765C278.848 281.657 280.322 282.867 282.5 282.867ZM280.74 279.699C280.74 278.753 281.422 278.071 282.94 277.807L286.218 277.257V279.435C285.492 280.623 284.282 281.327 282.808 281.327C281.51 281.327 280.74 280.645 280.74 279.699ZM291.84 282.559H293.71V274.947C294.392 273.825 295.338 273.077 296.79 273.077C297.23 273.077 297.56 273.121 297.89 273.209V271.383C297.626 271.295 297.296 271.251 296.944 271.251C295.536 271.251 294.524 271.889 293.71 272.857V271.471H291.84V282.559ZM303.104 282.867C304.534 282.867 305.986 282.229 306.822 281.151V282.559H308.692V275.123C308.692 272.681 307.02 271.031 304.204 271.031C302.268 271.031 300.706 271.845 299.738 273.165L301.146 274.243C301.828 273.297 302.862 272.703 304.138 272.703C305.722 272.703 306.822 273.583 306.822 275.123V275.893L303.082 276.509C300.728 276.905 299.452 278.093 299.452 279.765C299.452 281.657 300.926 282.867 303.104 282.867ZM301.344 279.699C301.344 278.753 302.026 278.071 303.544 277.807L306.822 277.257V279.435C306.096 280.623 304.886 281.327 303.412 281.327C302.114 281.327 301.344 280.645 301.344 279.699ZM320.165 277.807C320.165 279.985 318.977 281.239 317.129 281.239C315.237 281.239 314.071 279.985 314.071 277.807V271.471H312.201V277.741C312.201 281.063 314.115 282.999 317.107 282.999C320.121 282.999 322.035 281.063 322.035 277.741V271.471H320.165V277.807ZM324.775 277.015C324.775 280.249 326.997 282.999 330.473 282.999C332.123 282.999 333.421 282.361 334.411 281.239V282.559H336.281V266.059H334.411V272.791C333.421 271.669 332.123 271.031 330.473 271.031C326.997 271.031 324.775 273.781 324.775 277.015ZM326.755 277.015C326.755 274.661 328.339 272.791 330.693 272.791C332.211 272.791 333.553 273.517 334.411 274.837V279.193C333.597 280.491 332.233 281.239 330.693 281.239C328.339 281.239 326.755 279.369 326.755 277.015ZM350.079 280.733L348.693 279.655C347.967 280.645 346.757 281.305 345.327 281.305C342.951 281.305 341.257 279.699 341.191 277.037H349.705C349.771 276.729 349.837 276.311 349.837 275.871C349.837 273.143 347.879 271.031 344.865 271.031C341.433 271.031 339.277 273.649 339.277 277.015C339.277 280.249 341.587 282.999 345.327 282.999C347.395 282.999 349.045 282.119 350.079 280.733ZM344.821 272.615C346.779 272.615 347.901 273.979 347.967 275.607H341.323C341.719 273.693 342.995 272.615 344.821 272.615ZM264.321 305.711L266.895 302.059H264.783L262.495 305.711H264.321ZM268.545 316.733L267.159 315.655C266.433 316.645 265.223 317.305 263.793 317.305C261.417 317.305 259.723 315.699 259.657 313.037H268.171C268.237 312.729 268.303 312.311 268.303 311.871C268.303 309.143 266.345 307.031 263.331 307.031C259.899 307.031 257.743 309.649 257.743 313.015C257.743 316.249 260.053 318.999 263.793 318.999C265.861 318.999 267.511 318.119 268.545 316.733ZM263.287 308.615C265.245 308.615 266.367 309.979 266.433 311.607H259.789C260.185 309.693 261.461 308.615 263.287 308.615ZM271.473 318.559H273.343V302.059H271.473V318.559ZM287.151 316.733L285.765 315.655C285.039 316.645 283.829 317.305 282.399 317.305C280.023 317.305 278.329 315.699 278.263 313.037H286.777C286.843 312.729 286.909 312.311 286.909 311.871C286.909 309.143 284.951 307.031 281.937 307.031C278.505 307.031 276.349 309.649 276.349 313.015C276.349 316.249 278.659 318.999 282.399 318.999C284.467 318.999 286.117 318.119 287.151 316.733ZM281.893 308.615C283.851 308.615 284.973 309.979 285.039 311.607H278.395C278.791 309.693 280.067 308.615 281.893 308.615ZM295.139 317.239C292.741 317.239 291.047 315.391 291.047 313.015C291.047 310.661 292.741 308.791 295.117 308.791C296.503 308.791 297.625 309.451 298.307 310.419L299.781 309.297C298.747 307.933 297.119 307.031 295.117 307.031C291.443 307.031 289.089 309.781 289.089 313.015C289.089 316.249 291.443 318.999 295.117 318.999C297.141 318.999 298.747 318.119 299.781 316.733L298.307 315.611C297.625 316.579 296.503 317.239 295.139 317.239ZM302.941 314.841C302.941 317.547 304.327 318.779 306.791 318.779C307.583 318.779 308.177 318.691 308.705 318.471V316.799C308.287 316.975 307.781 317.063 307.055 317.063C305.713 317.063 304.833 316.579 304.833 314.841V309.165H308.683V307.471H304.833V304.699H302.941V307.471H300.851V309.165H302.941V314.841ZM311.541 318.559H313.411V310.947C314.093 309.825 315.039 309.077 316.491 309.077C316.931 309.077 317.261 309.121 317.591 309.209V307.383C317.327 307.295 316.997 307.251 316.645 307.251C315.237 307.251 314.225 307.889 313.411 308.857V307.471H311.541V318.559ZM324.679 307.031C321.093 307.031 318.673 309.781 318.673 313.015C318.673 316.249 321.093 318.999 324.679 318.999C328.243 318.999 330.685 316.249 330.685 313.015C330.685 309.781 328.243 307.031 324.679 307.031ZM324.701 317.239C322.325 317.239 320.631 315.325 320.631 313.015C320.631 310.705 322.325 308.791 324.701 308.791C327.011 308.791 328.705 310.705 328.705 313.015C328.705 315.303 327.011 317.239 324.701 317.239ZM333.691 318.559H335.561V310.881C336.265 309.715 337.277 308.791 338.883 308.791C340.599 308.791 341.721 309.935 341.721 311.915V318.559H343.591V311.849C343.591 308.703 341.743 307.031 339.257 307.031C337.607 307.031 336.463 307.735 335.561 308.725V307.471H333.691V318.559ZM348.301 304.589C349.027 304.589 349.599 303.995 349.599 303.269C349.599 302.565 349.027 301.971 348.301 301.971C347.575 301.971 346.981 302.565 346.981 303.269C346.981 303.995 347.575 304.589 348.301 304.589ZM347.355 318.559H349.225V307.471H347.355V318.559ZM352.232 313.015C352.232 316.249 354.454 318.999 357.93 318.999C359.58 318.999 360.878 318.361 361.868 317.217V323.971H363.738V307.471H361.868V308.813C360.878 307.669 359.58 307.031 357.93 307.031C354.454 307.031 352.232 309.781 352.232 313.015ZM354.19 313.015C354.19 310.661 355.796 308.791 358.128 308.791C359.668 308.791 361.01 309.517 361.868 310.859V315.171C361.032 316.491 359.69 317.239 358.128 317.239C355.796 317.239 354.19 315.369 354.19 313.015ZM375.423 313.807C375.423 315.985 374.235 317.239 372.387 317.239C370.495 317.239 369.329 315.985 369.329 313.807V307.471H367.459V313.741C367.459 317.063 369.373 318.999 372.365 318.999C375.379 318.999 377.293 317.063 377.293 313.741V307.471H375.423V313.807ZM390.835 316.733L389.449 315.655C388.723 316.645 387.513 317.305 386.083 317.305C383.707 317.305 382.013 315.699 381.947 313.037H390.461C390.527 312.729 390.593 312.311 390.593 311.871C390.593 309.143 388.635 307.031 385.621 307.031C382.189 307.031 380.033 309.649 380.033 313.015C380.033 316.249 382.343 318.999 386.083 318.999C388.151 318.999 389.801 318.119 390.835 316.733ZM385.577 308.615C387.535 308.615 388.657 309.979 388.723 311.607H382.079C382.475 309.693 383.751 308.615 385.577 308.615Z" fill="white"/>
<path d="M118.176 187.586H40.2554V190.454H118.176V187.586Z" fill="#F2F2F2"/>
<path d="M294.574 187.586H216.653V190.454H294.574V187.586Z" fill="#F2F2F2"/>
<path d="M414.564 187.586H336.643V190.454H414.564V187.586Z" fill="#F2F2F2"/>
<path d="M415.021 144.141C414.304 144.511 413.638 144.972 413.038 145.511C412.428 144.969 411.75 144.508 411.022 144.141C410.305 144.511 409.639 144.972 409.039 145.511C408.429 144.969 407.752 144.508 407.024 144.141C407.024 144.141 403.916 145.669 403.924 147.537C403.925 147.584 403.927 147.63 403.931 147.677C404.037 148.9 407.25 149.211 409.015 148.635C410.322 149.007 411.707 149.007 413.014 148.635C414.771 149.22 418.05 148.885 418.146 147.648C418.15 147.602 418.151 147.555 418.151 147.508C418.143 145.64 415.021 144.141 415.021 144.141Z" fill="#F2F2F2"/>
<path d="M3.33304 79.8831L0.575684 77.6774L16.0151 63.8926H55.1649V76.0234L29.8004 93.1168L3.33304 79.8831Z" fill="#3F3D56"/>
<path d="M62.3035 71.6249V64.1679H57.1057V65.9941L55.1653 63.8926L42.4833 77.6774L37.5208 80.986L29.8257 137.204L41.4302 148.809H68.3995V78.2291L62.3035 71.6249Z" fill="#CCCCCC"/>
<path d="M42.4826 77.6797H0.575684V148.811H42.4826V77.6797Z" fill="#F2F2F2"/>
<path d="M24.5615 131.441H16.8418V148.811H24.5615V131.441Z" fill="#CCCCCC"/>
<path d="M8.57075 136.403V133.646H5.26221V136.403H8.29492H8.57075Z" fill="#3F3D56"/>
<path d="M8.29492 138.609H5.26221V141.367H8.57075V138.609H8.29492Z" fill="#3F3D56"/>
<path d="M14.0853 133.646H10.7769V136.404H14.0853V133.646Z" fill="#3F3D56"/>
<path d="M14.0853 138.611H10.7769V141.368H14.0853V138.611Z" fill="#3F3D56"/>
<path d="M31.1787 136.403V133.646H27.8701V136.403H30.9028H31.1787Z" fill="#3F3D56"/>
<path d="M30.9028 138.609H27.8701V141.367H31.1787V138.609H30.9028Z" fill="#3F3D56"/>
<path d="M36.6927 133.646H33.3843V136.404H36.6927V133.646Z" fill="#3F3D56"/>
<path d="M36.6927 138.611H33.3843V141.368H36.6927V138.611Z" fill="#3F3D56"/>
<path d="M54.3383 81.2632V78.5059H51.0298V81.2632H54.063H54.3383Z" fill="#3F3D56"/>
<path d="M54.063 83.4688H51.0298V86.2256H54.3383V83.4688H54.063Z" fill="#3F3D56"/>
<path d="M59.8519 78.5059H56.5435V81.2629H59.8519V78.5059Z" fill="#3F3D56"/>
<path d="M59.8519 83.4688H56.5435V86.2258H59.8519V83.4688Z" fill="#3F3D56"/>
<path d="M54.3383 96.7022V93.9453H51.0298V96.7022H54.063H54.3383Z" fill="#3F3D56"/>
<path d="M54.063 98.9082H51.0298V101.665H54.3383V98.9082H54.063Z" fill="#3F3D56"/>
<path d="M59.8519 93.9453H56.5435V96.7023H59.8519V93.9453Z" fill="#3F3D56"/>
<path d="M59.8519 98.9082H56.5435V101.665H59.8519V98.9082Z" fill="#3F3D56"/>
<path d="M54.3383 112.142V109.385H51.0298V112.142H54.063H54.3383Z" fill="#3F3D56"/>
<path d="M54.063 114.348H51.0298V117.105H54.3383V114.348H54.063Z" fill="#3F3D56"/>
<path d="M59.8519 109.385H56.5435V112.142H59.8519V109.385Z" fill="#3F3D56"/>
<path d="M59.8519 114.348H56.5435V117.105H59.8519V114.348Z" fill="#3F3D56"/>
<path d="M54.3383 127.581V124.824H51.0298V127.581H54.063H54.3383Z" fill="#3F3D56"/>
<path d="M54.063 129.787H51.0298V132.544H54.3383V129.787H54.063Z" fill="#3F3D56"/>
<path d="M59.8519 124.824H56.5435V127.581H59.8519V124.824Z" fill="#3F3D56"/>
<path d="M59.8519 129.787H56.5435V132.544H59.8519V129.787Z" fill="#3F3D56"/>
<path d="M37.2438 81.2617H5.26221V87.8786H37.2438V81.2617Z" fill="#3F3D56"/>
<path d="M37.2438 94.498H5.26221V101.115H37.2438V94.498Z" fill="#3F3D56"/>
<path d="M37.2438 107.73H5.26221V114.347H37.2438V107.73Z" fill="#3F3D56"/>
<path d="M37.2438 120.965H5.26221V127.582H37.2438V120.965Z" fill="#3F3D56"/>
<path d="M66.0679 144.539C65.3512 144.91 64.6849 145.37 64.085 145.91C63.4753 145.368 62.7978 144.907 62.0695 144.539C61.3528 144.91 60.6865 145.37 60.0866 145.91C59.4769 145.368 58.7994 144.907 58.0712 144.539C58.0712 144.539 54.9631 146.068 54.9717 147.936C54.9719 147.982 54.974 148.029 54.9781 148.075C55.0841 149.298 58.2975 149.61 60.0628 149.033C61.3695 149.406 62.7544 149.406 64.0612 149.033C65.8189 149.619 69.0976 149.283 69.1934 148.046C69.197 148 69.1987 147.954 69.1985 147.907C69.19 146.039 66.0679 144.539 66.0679 144.539Z" fill="#6C63FF"/>
<path d="M51.7134 79.8831L48.9561 77.6774L64.3954 63.8926H103.545V76.0234L78.1808 93.1168L51.7134 79.8831Z" fill="#3F3D56"/>
<path d="M110.683 71.6249V64.1679H105.486V65.9941L103.545 63.8926L90.8632 77.6774L85.9006 80.986L78.2056 137.204L89.8101 148.809H116.779V78.2291L110.683 71.6249Z" fill="#CCCCCC"/>
<path d="M90.863 77.6797H48.9561V148.811H90.863V77.6797Z" fill="#F2F2F2"/>
<path d="M72.9424 131.441H65.2227V148.811H72.9424V131.441Z" fill="#CCCCCC"/>
<path d="M56.9516 136.403V133.646H53.6431V136.403H56.6758H56.9516Z" fill="#3F3D56"/>
<path d="M56.6758 138.609H53.6431V141.367H56.9516V138.609H56.6758Z" fill="#3F3D56"/>
<path d="M62.4657 133.646H59.1572V136.404H62.4657V133.646Z" fill="#3F3D56"/>
<path d="M62.4657 138.611H59.1572V141.368H62.4657V138.611Z" fill="#3F3D56"/>
<path d="M79.559 136.403V133.646H76.2505V136.403H79.2832H79.559Z" fill="#3F3D56"/>
<path d="M79.2832 138.609H76.2505V141.367H79.559V138.609H79.2832Z" fill="#3F3D56"/>
<path d="M85.0731 133.646H81.7646V136.404H85.0731V133.646Z" fill="#3F3D56"/>
<path d="M85.0731 138.611H81.7646V141.368H85.0731V138.611Z" fill="#3F3D56"/>
<path d="M102.718 81.2632V78.5059H99.4097V81.2632H102.443H102.718Z" fill="#3F3D56"/>
<path d="M102.443 83.4688H99.4097V86.2256H102.718V83.4688H102.443Z" fill="#3F3D56"/>
<path d="M108.232 78.5059H104.924V81.2629H108.232V78.5059Z" fill="#3F3D56"/>
<path d="M108.232 83.4688H104.924V86.2258H108.232V83.4688Z" fill="#3F3D56"/>
<path d="M102.718 96.7022V93.9453H99.4097V96.7022H102.443H102.718Z" fill="#3F3D56"/>
<path d="M102.443 98.9082H99.4097V101.665H102.718V98.9082H102.443Z" fill="#3F3D56"/>
<path d="M108.232 93.9453H104.924V96.7023H108.232V93.9453Z" fill="#3F3D56"/>
<path d="M108.232 98.9082H104.924V101.665H108.232V98.9082Z" fill="#3F3D56"/>
<path d="M102.718 112.142V109.385H99.4097V112.142H102.443H102.718Z" fill="#3F3D56"/>
<path d="M102.443 114.348H99.4097V117.105H102.718V114.348H102.443Z" fill="#3F3D56"/>
<path d="M108.232 109.385H104.924V112.142H108.232V109.385Z" fill="#3F3D56"/>
<path d="M108.232 114.348H104.924V117.105H108.232V114.348Z" fill="#3F3D56"/>
<path d="M102.718 127.581V124.824H99.4097V127.581H102.443H102.718Z" fill="#3F3D56"/>
<path d="M102.443 129.787H99.4097V132.544H102.718V129.787H102.443Z" fill="#3F3D56"/>
<path d="M108.232 124.824H104.924V127.581H108.232V124.824Z" fill="#3F3D56"/>
<path d="M108.232 129.787H104.924V132.544H108.232V129.787Z" fill="#3F3D56"/>
<path d="M85.6247 81.2617H53.6431V87.8786H85.6247V81.2617Z" fill="#3F3D56"/>
<path d="M85.6247 94.498H53.6431V101.115H85.6247V94.498Z" fill="#3F3D56"/>
<path d="M85.6247 107.73H53.6431V114.347H85.6247V107.73Z" fill="#3F3D56"/>
<path d="M85.6247 120.965H53.6431V127.582H85.6247V120.965Z" fill="#3F3D56"/>
<path d="M58.2008 27.3831C65.7625 27.3831 71.8924 21.2532 71.8924 13.6915C71.8924 6.12991 65.7625 0 58.2008 0C50.6392 0 44.5093 6.12991 44.5093 13.6915C44.5093 21.2532 50.6392 27.3831 58.2008 27.3831Z" fill="#FF6584"/>
<path d="M145.949 95.8223H144.614V148.559H145.949V95.8223Z" fill="#3F3D56"/>
<path d="M158.978 111.172C158.98 111.752 158.975 112.33 158.962 112.904C158.483 133.664 133.594 133.779 132.924 113.024C132.905 112.45 132.895 111.873 132.892 111.292C132.785 88.0868 145.741 69.2148 145.741 69.2148C145.741 69.2148 158.871 87.9666 158.978 111.172Z" fill="#E6E6E6"/>
<path d="M141.305 144.422C140.589 144.792 139.922 145.253 139.322 145.792C138.713 145.25 138.035 144.79 137.307 144.422C136.59 144.792 135.924 145.253 135.324 145.792C134.714 145.25 134.037 144.79 133.308 144.422C133.308 144.422 130.2 145.95 130.209 147.818C130.209 147.865 130.211 147.912 130.215 147.958C130.321 149.181 133.535 149.492 135.3 148.916C136.607 149.289 137.992 149.289 139.298 148.916C141.056 149.502 144.335 149.166 144.431 147.929C144.434 147.883 144.436 147.836 144.436 147.79C144.427 145.922 141.305 144.422 141.305 144.422Z" fill="#CCCCCC"/>
<path d="M178.663 126.204L177.009 123.447L192.449 98.2188H232.15V102.078L217.813 129.513L201.271 132.821L178.663 126.204Z" fill="#3F3D56"/>
<path d="M238.984 117.978V97.3555H233.786V100.076L232.15 98.2169L218.916 123.446L216.71 125.651L213.954 136.679L218.916 148.81H244.281V123.997L238.984 117.978Z" fill="#CCCCCC"/>
<path d="M218.916 123.445H177.009V148.81H218.916V123.445Z" fill="#F2F2F2"/>
<path d="M213.126 131.441H204.304V139.161H213.126V131.441Z" fill="#3F3D56"/>
<path d="M200.72 131.166H193V148.811H200.72V131.166Z" fill="#CCCCCC"/>
<path d="M184.178 133.923V131.166H180.869V133.923H183.902H184.178Z" fill="#3F3D56"/>
<path d="M183.902 136.129H180.869V138.886H184.178V136.129H183.902Z" fill="#3F3D56"/>
<path d="M189.692 131.166H186.383V133.923H189.692V131.166Z" fill="#3F3D56"/>
<path d="M189.692 136.129H186.383V138.886H189.692V136.129Z" fill="#3F3D56"/>
<path d="M230.771 134.599V131.842H227.463V134.599H230.496H230.771Z" fill="#3F3D56"/>
<path d="M230.496 136.805H227.463V139.562H230.771V136.805H230.496Z" fill="#3F3D56"/>
<path d="M236.285 131.842H232.977V134.599H236.285V131.842Z" fill="#3F3D56"/>
<path d="M236.285 136.805H232.977V139.562H236.285V136.805Z" fill="#3F3D56"/>
<path d="M196.015 108.586L195.58 107.861L199.642 101.223H210.088V102.238L206.316 109.456L201.963 110.327L196.015 108.586Z" fill="#3F3D56"/>
<path d="M210.087 101.223L206.606 107.861L206.025 108.441L205.3 111.343L206.606 114.534H213.279V108.006L210.087 101.223Z" fill="#CCCCCC"/>
<path d="M206.606 107.861H195.58V114.535H206.606V107.861Z" fill="#F2F2F2"/>
<path d="M200.251 110.736V109.42H198.671V110.736H200.119H200.251Z" fill="#3F3D56"/>
<path d="M200.119 111.791H198.671V113.107H200.251V111.791H200.119Z" fill="#3F3D56"/>
<path d="M202.884 109.42H201.304V110.736H202.884V109.42Z" fill="#3F3D56"/>
<path d="M202.884 111.791H201.304V113.107H202.884V111.791Z" fill="#3F3D56"/>
<path d="M228.644 126.204L226.989 123.447L242.429 98.2188H282.13V102.078L267.794 129.513L251.251 132.821L228.644 126.204Z" fill="#3F3D56"/>
<path d="M288.964 117.978V97.3555H283.766V100.076L282.13 98.2169L268.896 123.446L266.69 125.651L263.933 136.679L268.896 148.81H294.261V123.997L288.964 117.978Z" fill="#CCCCCC"/>
<path d="M268.896 123.445H226.989V148.81H268.896V123.445Z" fill="#F2F2F2"/>
<path d="M263.106 131.441H254.283V139.161H263.106V131.441Z" fill="#3F3D56"/>
<path d="M250.7 131.166H242.98V148.811H250.7V131.166Z" fill="#CCCCCC"/>
<path d="M234.157 133.923V131.166H230.849V133.923H233.882H234.157Z" fill="#3F3D56"/>
<path d="M233.882 136.129H230.849V138.886H234.157V136.129H233.882Z" fill="#3F3D56"/>
<path d="M239.671 131.166H236.363V133.923H239.671V131.166Z" fill="#3F3D56"/>
<path d="M239.671 136.129H236.363V138.886H239.671V136.129Z" fill="#3F3D56"/>
<path d="M280.751 134.199V131.441H277.442V134.199H280.475H280.751Z" fill="#3F3D56"/>
<path d="M280.475 136.404H277.442V139.162H280.751V136.404H280.475Z" fill="#3F3D56"/>
<path d="M286.265 131.441H282.957V134.198H286.265V131.441Z" fill="#3F3D56"/>
<path d="M286.265 136.404H282.957V139.161H286.265V136.404Z" fill="#3F3D56"/>
<path d="M277.024 126.204L275.37 123.447L290.809 98.2188H330.511V102.078L316.174 129.513L299.632 132.821L277.024 126.204Z" fill="#3F3D56"/>
<path d="M337.344 117.978V97.3555H332.147V100.076L330.51 98.2169L317.277 123.446L315.071 125.651L312.313 136.679L317.277 148.81H342.641V123.997L337.344 117.978Z" fill="#CCCCCC"/>
<path d="M317.277 123.445H275.37V148.81H317.277V123.445Z" fill="#F2F2F2"/>
<path d="M311.487 131.441H302.664V139.161H311.487V131.441Z" fill="#3F3D56"/>
<path d="M299.08 131.166H291.36V148.811H299.08V131.166Z" fill="#CCCCCC"/>
<path d="M282.538 133.923V131.166H279.23V133.923H282.263H282.538Z" fill="#3F3D56"/>
<path d="M282.263 136.129H279.23V138.886H282.538V136.129H282.263Z" fill="#3F3D56"/>
<path d="M288.052 131.166H284.743V133.923H288.052V131.166Z" fill="#3F3D56"/>
<path d="M288.052 136.129H284.743V138.886H288.052V136.129Z" fill="#3F3D56"/>
<path d="M329.132 134.199V131.441H325.823V134.199H328.856H329.132Z" fill="#3F3D56"/>
<path d="M328.856 136.404H325.823V139.162H329.132V136.404H328.856Z" fill="#3F3D56"/>
<path d="M334.646 131.441H331.337V134.198H334.646V131.441Z" fill="#3F3D56"/>
<path d="M334.646 136.404H331.337V139.161H334.646V136.404Z" fill="#3F3D56"/>
<path d="M244.795 108.987L244.36 108.261L248.422 101.623H258.868V102.639L255.096 109.857L250.744 110.727L244.795 108.987Z" fill="#3F3D56"/>
<path d="M258.868 101.623L255.386 108.261L254.806 108.842L254.081 111.743L255.386 114.935H262.06V108.406L258.868 101.623Z" fill="#CCCCCC"/>
<path d="M255.387 108.262H244.36V114.935H255.387V108.262Z" fill="#F2F2F2"/>
<path d="M249.031 111.137V109.82H247.451V111.137H248.899H249.031Z" fill="#3F3D56"/>
<path d="M248.899 112.189H247.451V113.506H249.031V112.189H248.899Z" fill="#3F3D56"/>
<path d="M251.664 109.82H250.084V111.137H251.664V109.82Z" fill="#3F3D56"/>
<path d="M251.664 112.189H250.084V113.506H251.664V112.189Z" fill="#3F3D56"/>
<path d="M293.576 108.586L293.14 107.861L297.203 101.223H307.648V102.238L303.876 109.456L299.524 110.327L293.576 108.586Z" fill="#3F3D56"/>
<path d="M307.648 101.223L304.166 107.861L303.586 108.441L302.861 111.343L304.166 114.534H310.84V108.006L307.648 101.223Z" fill="#CCCCCC"/>
<path d="M304.166 107.861H293.14V114.535H304.166V107.861Z" fill="#F2F2F2"/>
<path d="M297.811 110.736V109.42H296.232V110.736H297.68H297.811Z" fill="#3F3D56"/>
<path d="M297.68 111.791H296.232V113.107H297.811V111.791H297.68Z" fill="#3F3D56"/>
<path d="M300.444 109.42H298.865V110.736H300.444V109.42Z" fill="#3F3D56"/>
<path d="M300.444 111.791H298.865V113.107H300.444V111.791Z" fill="#3F3D56"/>
<path d="M327.003 126.204L325.349 123.447L340.788 98.2188H380.49V102.078L366.153 129.513L349.611 132.821L327.003 126.204Z" fill="#3F3D56"/>
<path d="M387.325 101.755V97.3555H382.127V100.076L380.491 98.2169L367.257 123.446L365.051 125.651L362.294 136.679L367.257 148.81H392.621V123.997L387.325 101.755Z" fill="#CCCCCC"/>
<path d="M367.256 123.445H325.349V148.81H367.256V123.445Z" fill="#F2F2F2"/>
<path d="M361.467 131.441H352.644V139.161H361.467V131.441Z" fill="#3F3D56"/>
<path d="M349.06 131.166H341.34V148.811H349.06V131.166Z" fill="#CCCCCC"/>
<path d="M332.518 133.923V131.166H329.209V133.923H332.242H332.518Z" fill="#3F3D56"/>
<path d="M332.242 136.129H329.209V138.886H332.518V136.129H332.242Z" fill="#3F3D56"/>
<path d="M338.032 131.166H334.723V133.923H338.032V131.166Z" fill="#3F3D56"/>
<path d="M338.032 136.129H334.723V138.886H338.032V136.129Z" fill="#3F3D56"/>
<path d="M379.112 134.199V131.441H375.803V134.199H378.836H379.112Z" fill="#3F3D56"/>
<path d="M378.836 136.404H375.803V139.162H379.112V136.404H378.836Z" fill="#3F3D56"/>
<path d="M384.625 131.441H381.317V134.198H384.625V131.441Z" fill="#3F3D56"/>
<path d="M384.625 136.404H381.317V139.161H384.625V136.404Z" fill="#3F3D56"/>
<path d="M342.355 108.987L341.92 108.261L345.982 101.623H356.429V102.639L352.656 109.857L348.304 110.727L342.355 108.987Z" fill="#3F3D56"/>
<path d="M356.429 101.623L352.947 108.261L352.366 108.842L351.641 111.743L352.947 114.935H359.62V108.406L356.429 101.623Z" fill="#CCCCCC"/>
<path d="M352.947 108.262H341.92V114.935H352.947V108.262Z" fill="#F2F2F2"/>
<path d="M346.592 111.137V109.82H345.012V111.137H346.46H346.592Z" fill="#3F3D56"/>
<path d="M346.46 112.189H345.012V113.506H346.592V112.189H346.46Z" fill="#3F3D56"/>
<path d="M349.225 109.82H347.645V111.137H349.225V109.82Z" fill="#3F3D56"/>
<path d="M349.225 112.189H347.645V113.506H349.225V112.189Z" fill="#3F3D56"/>
<path d="M440 148.535H0.399902V149.335H440V148.535Z" fill="#3F3D56"/>
<path d="M439.6 223.307H0V224.106H439.6V223.307Z" fill="#3F3D56"/>
<path d="M411.246 95.8164H409.912V148.538H411.246V95.8164Z" fill="#3F3D56"/>
<path d="M424.271 111.16C424.274 111.74 424.269 112.317 424.255 112.891C423.777 133.645 398.895 133.76 398.225 113.011C398.207 112.437 398.196 111.86 398.193 111.28C398.086 88.0812 411.039 69.2148 411.039 69.2148C411.039 69.2148 424.164 87.961 424.271 111.16Z" fill="#E6E6E6"/>
<path d="M146.992 200.168H132.924V202.401H146.992V200.168Z" fill="#3F3D56"/>
<path d="M248.705 200.668L245.802 201.34L135.492 201.399L134.5 199.088C132.77 195.123 132.177 190.756 132.785 186.474C133.261 183.282 134.451 180.111 137.155 178.733L142.05 146.129L203.079 146.02L226.691 165.064C226.691 165.064 237.829 164.864 243.88 172.397C245.795 174.783 247.201 177.944 247.578 182.135L247.817 186.054L248.705 200.668Z" fill="#6C63FF"/>
<path d="M224.476 213.744C231.999 213.744 238.097 207.646 238.097 200.123C238.097 192.6 231.999 186.502 224.476 186.502C216.953 186.502 210.855 192.6 210.855 200.123C210.855 207.646 216.953 213.744 224.476 213.744Z" fill="#3F3D56"/>
<path d="M224.476 207.291C228.436 207.291 231.645 204.082 231.645 200.122C231.645 196.163 228.436 192.953 224.476 192.953C220.517 192.953 217.307 196.163 217.307 200.122C217.307 204.082 220.517 207.291 224.476 207.291Z" fill="#CCCCCC"/>
<path d="M157.263 213.78C164.786 213.78 170.885 207.681 170.885 200.158C170.885 192.636 164.786 186.537 157.263 186.537C149.741 186.537 143.642 192.636 143.642 200.158C143.642 207.681 149.741 213.78 157.263 213.78Z" fill="#3F3D56"/>
<path d="M157.263 207.328C161.223 207.328 164.432 204.119 164.432 200.159C164.432 196.2 161.223 192.99 157.263 192.99C153.304 192.99 150.094 196.2 150.094 200.159C150.094 204.119 153.304 207.328 157.263 207.328Z" fill="#CCCCCC"/>
<path d="M217.31 162.838L184.36 162.852H180.337L173.546 162.857V162.361L173.541 156.39L173.536 149.684H178.054L182.076 149.679L189.202 149.675H193.224L201.45 149.67L217.31 162.838Z" fill="white"/>
<path d="M168.184 162.86L150.77 162.87L150.766 159.452V153.481L150.761 149.697H153.311L157.333 149.692L168.18 149.688L168.184 162.86Z" fill="white"/>
<path d="M175.784 172.684H173.551V176.926H175.784V172.684Z" fill="#3F3D56"/>
<path d="M212.625 168.868L212.624 166.635L208.381 166.637L208.382 168.87L212.625 168.868Z" fill="#3F3D56"/>
<path d="M209.941 158.285H210.187C211.425 158.285 212.612 158.777 213.487 159.652C214.362 160.527 214.854 161.714 214.854 162.952C214.854 164.19 214.362 165.377 213.487 166.252C212.612 167.127 211.425 167.619 210.187 167.619H209.941V158.285Z" fill="#3F3D56"/>
<path d="M247.817 186.054C246.129 186.237 244.429 185.819 243.019 184.873C241.608 183.927 240.577 182.513 240.106 180.881C239.635 179.249 239.756 177.503 240.446 175.951C241.137 174.399 242.353 173.14 243.88 172.396C245.795 174.783 247.201 177.944 247.578 182.135L247.817 186.054Z" fill="#3F3D56"/>
<path d="M182.076 149.68L173.545 162.362L173.54 156.39L178.053 149.684L182.076 149.68Z" fill="#F2F2F2"/>
<path d="M157.332 149.695L150.765 159.456V153.484L153.31 149.7L157.332 149.695Z" fill="#F2F2F2"/>
<path d="M193.224 149.674L184.359 162.851H180.337L189.201 149.674H193.224Z" fill="#F2F2F2"/>
<path d="M325.947 172.107L334.492 172.111L334.493 170.755L325.948 170.75L325.947 172.107Z" fill="#3F3D56"/>
<path d="M264.163 171.055L265.926 171.463L332.933 171.499L333.535 170.095C334.586 167.687 334.947 165.034 334.577 162.433C334.288 160.494 333.565 158.568 331.923 157.731L328.949 137.926L291.878 137.859L277.535 149.428C277.535 149.428 270.77 149.306 267.094 153.882C265.768 155.583 264.985 157.645 264.847 159.797L264.702 162.178L264.163 171.055Z" fill="#3F3D56"/>
<path d="M278.881 178.997C283.45 178.997 287.155 175.293 287.155 170.723C287.155 166.154 283.45 162.449 278.881 162.449C274.311 162.449 270.606 166.154 270.606 170.723C270.606 175.293 274.311 178.997 278.881 178.997Z" fill="#3F3D56"/>
<path d="M278.881 175.079C281.286 175.079 283.235 173.129 283.235 170.724C283.235 168.319 281.286 166.369 278.881 166.369C276.476 166.369 274.526 168.319 274.526 170.724C274.526 173.129 276.476 175.079 278.881 175.079Z" fill="#CCCCCC"/>
<path d="M319.709 179.021C324.278 179.021 327.983 175.316 327.983 170.747C327.983 166.177 324.278 162.473 319.709 162.473C315.139 162.473 311.435 166.177 311.435 170.747C311.435 175.316 315.139 179.021 319.709 179.021Z" fill="#3F3D56"/>
<path d="M319.708 175.1C322.113 175.1 324.063 173.15 324.063 170.745C324.063 168.34 322.113 166.391 319.708 166.391C317.303 166.391 315.354 168.34 315.354 170.745C315.354 173.15 317.303 175.1 319.708 175.1Z" fill="#CCCCCC"/>
<path d="M283.234 148.075L303.25 148.084H305.693L309.818 148.087V147.786L309.821 144.158L309.824 140.085H307.08L304.636 140.082L300.309 140.079H297.865L292.868 140.076L283.234 148.075Z" fill="white"/>
<path d="M313.075 148.089L323.653 148.095L323.656 146.019V142.392L323.659 140.094H322.11L319.666 140.091L313.078 140.088L313.075 148.089Z" fill="white"/>
<path d="M308.458 156.632L309.814 156.633L309.816 154.056L308.459 154.055L308.458 156.632Z" fill="#3F3D56"/>
<path d="M288.657 151.737L288.657 150.381L286.08 150.379L286.079 151.736L288.657 151.737Z" fill="#3F3D56"/>
<path d="M287.708 150.979L287.558 150.978C286.806 150.978 286.086 150.679 285.554 150.147C285.023 149.615 284.725 148.894 284.725 148.142C284.725 147.39 285.024 146.669 285.556 146.138C286.088 145.607 286.809 145.308 287.561 145.309L287.711 145.309L287.708 150.979Z" fill="#3F3D56"/>
<path d="M264.703 162.177C265.728 162.288 266.761 162.034 267.617 161.459C268.474 160.885 269.101 160.026 269.387 159.034C269.673 158.043 269.599 156.983 269.18 156.04C268.761 155.097 268.022 154.332 267.094 153.881C265.768 155.582 264.986 157.644 264.848 159.796L264.703 162.177Z" fill="#3F3D56"/>
<path d="M304.636 140.082L309.818 147.786L309.821 144.158L307.079 140.085L304.636 140.082Z" fill="#F2F2F2"/>
<path d="M319.667 140.09L323.656 146.019V142.391L322.11 140.093L319.667 140.09Z" fill="#F2F2F2"/>
<path d="M297.864 140.08L303.249 148.085H305.692L300.308 140.08H297.864Z" fill="#F2F2F2"/>
<path d="M76.5545 232.789C76.5545 232.789 76.5545 247.952 80.0345 251.929C80.0345 251.929 80.7802 253.918 81.0288 254.663C81.1678 255.088 81.3339 255.503 81.526 255.906V256.9C81.526 256.9 88.2374 256.155 88.9831 254.415L87.7402 252.923C87.7402 252.923 87.4916 252.675 87.7402 251.929C87.7828 251.848 87.8027 251.757 87.7979 251.665C87.7931 251.574 87.7637 251.485 87.7128 251.409C87.662 251.332 87.5915 251.271 87.5089 251.232C87.4262 251.192 87.3344 251.175 87.2431 251.183L85.5031 247.206L85.7517 230.801L84.5088 208.181L73.8203 207.684L76.5545 232.789Z" fill="#2F2E41"/>
<path d="M82.0228 255.406C82.0228 255.406 80.2829 260.626 82.0228 260.875C83.7628 261.123 98.9256 261.372 98.677 259.384C98.4285 257.395 93.4571 257.644 93.4571 257.644L88.2371 254.412L82.0228 255.406Z" fill="#2F2E41"/>
<path d="M66.6111 208.178C66.3976 210.516 66.919 212.862 68.1025 214.889C70.091 218.369 68.8482 230.052 68.8482 230.052L51.1997 245.463C51.1997 245.463 54.6797 251.429 55.9225 251.18C57.1654 250.932 76.8024 235.023 76.8024 235.023L84.5081 209.172L66.6111 208.178Z" fill="#2F2E41"/>
<path d="M51.4428 244.807C51.4428 244.807 46.1023 246.131 46.8239 247.734C47.5454 249.337 55.4528 262.277 56.9994 261.002C58.5459 259.728 55.6745 255.662 55.6745 255.662L55.6094 249.523L51.4428 244.807Z" fill="#2F2E41"/>
<path d="M76.306 167.663C79.4634 167.663 82.0231 165.103 82.0231 161.946C82.0231 158.788 79.4634 156.229 76.306 156.229C73.1485 156.229 70.5889 158.788 70.5889 161.946C70.5889 165.103 73.1485 167.663 76.306 167.663Z" fill="#FFB8B8"/>
<path d="M71.8076 163.963L72.0605 171.32L76.871 173.22C76.871 173.22 77.3428 165.688 78.0087 165.27C78.6746 164.852 71.8076 163.963 71.8076 163.963Z" fill="#FFB8B8"/>
<path d="M78.0456 174.124C78.0456 174.124 71.3342 167.412 69.5942 167.661C67.8542 167.91 67.8542 168.655 67.8542 169.152C67.8542 169.65 68.3514 169.898 67.8542 170.147C67.3571 170.395 66.86 170.147 66.86 170.892C66.86 171.638 62.3857 179.095 63.8771 187.298C65.3686 195.501 67.1085 199.478 66.3628 203.952C65.6171 208.427 66.1142 209.421 66.1142 209.421C66.1142 209.421 84.757 210.912 85.0056 209.172C85.2541 207.432 84.2599 208.427 85.5027 207.184C86.7455 205.941 86.2484 205.941 86.2484 205.195C86.2484 204.449 80.7799 174.124 78.0456 174.124Z" fill="#575A89"/>
<path d="M74.5659 207.93C74.5659 207.93 77.5488 215.139 79.7859 213.399C82.023 211.659 78.7916 205.693 78.7916 205.693L74.5659 207.93Z" fill="#FFB8B8"/>
<path d="M67.3569 174.622C67.3569 174.622 61.5168 175.29 63.6911 186.017C65.8655 196.744 74.3169 209.173 74.3169 209.173L80.034 206.438L72.5769 191.773L74.3169 182.576C74.3169 182.576 75.3112 173.876 67.3569 174.622Z" fill="#575A89"/>
<path opacity="0.2" d="M72.4526 191.898L80.6554 205.57L79.9101 206.315L72.4526 191.898Z" fill="black"/>
<path opacity="0.2" d="M68.1113 198.268L74.6902 209.048H72.4529L68.1113 198.268Z" fill="black"/>
<path d="M73.7183 165.381C74.2034 165.184 74.7061 165.035 75.2197 164.934C76.1093 164.633 76.8616 164.023 77.3404 163.215C77.8191 162.407 77.9926 161.455 77.8293 160.53C77.7585 160.295 77.7267 160.049 77.7352 159.804C77.8056 159.539 77.9529 159.301 78.1586 159.12C78.3642 158.939 78.619 158.823 78.8906 158.786C79.4336 158.723 79.9713 158.62 80.4996 158.48C80.886 158.306 81.2204 158.034 81.4698 157.691C81.7191 157.349 81.8748 156.947 81.9214 156.526C82.0027 155.678 81.814 154.827 81.3822 154.093L81.1897 154.647C80.8962 154.398 80.6783 154.072 80.5609 153.706C80.3422 153.743 80.1365 153.835 79.9637 153.974C79.7909 154.113 79.6566 154.294 79.5738 154.5C79.2649 154.682 79.2204 153.934 78.8791 153.824C78.7291 153.805 78.5774 153.842 78.4532 153.929C77.7657 154.249 76.9668 153.975 76.2293 153.797C74.9521 153.491 73.6207 153.489 72.3428 153.793C71.481 153.962 70.6846 154.372 70.0459 154.975C69.5708 155.514 69.2058 156.141 68.9715 156.821C68.2564 158.444 67.9584 160.219 68.1045 161.986C68.2837 163.42 68.8833 164.768 69.8277 165.86C70.3196 166.427 71.9248 168.405 72.8049 168.068C73.9108 167.644 72.4153 166.07 73.7183 165.381Z" fill="#2F2E41"/>
<path opacity="0.2" d="M82.9723 217.86L76.4312 235.01L76.7616 235.136L83.3027 217.986L82.9723 217.86Z" fill="black"/>
<path d="M78.0103 175.49C78.2056 175.49 78.364 175.332 78.364 175.137C78.364 174.942 78.2056 174.783 78.0103 174.783C77.8151 174.783 77.6567 174.942 77.6567 175.137C77.6567 175.332 77.8151 175.49 78.0103 175.49Z" fill="#D0CDE1"/>
<path d="M81.0164 185.037C80.9786 185.037 80.9419 185.025 80.9115 185.002C80.8811 184.98 80.8587 184.948 80.8476 184.912L77.8419 175.188C77.828 175.143 77.8325 175.095 77.8544 175.053C77.8763 175.012 77.9137 174.981 77.9585 174.967C78.0033 174.953 78.0518 174.958 78.0932 174.979C78.1347 175.001 78.1658 175.039 78.1796 175.084L81.1853 184.808C81.1934 184.834 81.1952 184.862 81.1906 184.89C81.1859 184.917 81.175 184.943 81.1585 184.965C81.1421 184.987 81.1207 185.005 81.096 185.018C81.0713 185.03 81.0441 185.037 81.0164 185.037Z" fill="#D0CDE1"/>
<path d="M398.609 171.226C401.907 171.226 404.58 168.553 404.58 165.255C404.58 161.958 401.907 159.285 398.609 159.285C395.312 159.285 392.639 161.958 392.639 165.255C392.639 168.553 395.312 171.226 398.609 171.226Z" fill="#2F2E41"/>
<path d="M390.123 201.422L389.217 203.232C389.217 203.232 386.321 207.939 388.312 208.482C390.304 209.025 390.937 204.952 390.937 204.952L391.299 202.78L390.123 201.422Z" fill="#A0616A"/>
<path d="M393.743 192.189L391.48 198.163L389.218 202.327L392.024 204.137L394.286 200.155L397.002 193.909L393.743 192.189Z" fill="#D0CDE1"/>
<path d="M400.17 220.158L404.696 224.955L412.662 238.442L416.101 237.356L412.028 229.3C412.028 229.3 409.675 223.145 408.498 222.33C407.321 221.515 405.33 216.175 405.33 216.175L403.157 214.455L400.17 220.158Z" fill="#A0616A"/>
<path d="M390.847 222.783L390.485 224.322C390.485 224.322 389.308 229.119 387.498 231.292L383.153 238.805L379.895 237.718L386.321 222.512L390.847 222.783Z" fill="#A0616A"/>
<path d="M397.591 172.231C400.29 172.231 402.478 170.042 402.478 167.343C402.478 164.643 400.29 162.455 397.591 162.455C394.891 162.455 392.703 164.643 392.703 167.343C392.703 170.042 394.891 172.231 397.591 172.231Z" fill="#A0616A"/>
<path d="M401.437 169.74L402.071 174.99L397.997 176.981C397.997 176.981 397.997 172.456 396.911 171.279L401.437 169.74Z" fill="#A0616A"/>
<path d="M414.2 203.594L414.653 205.133C414.653 205.133 417.64 211.016 415.105 211.016C412.571 211.016 412.118 205.585 412.118 205.585L411.847 204.227L414.2 203.594Z" fill="#A0616A"/>
<path d="M393.381 197.438L394.015 201.873L386.321 218.075L385.869 222.782L400.261 224.592L403.429 215.812L408.498 222.329L405.601 215.631C405.601 215.631 404.696 211.105 404.968 209.929C405.239 208.752 404.786 202.868 403.972 201.42C403.157 199.972 393.381 197.438 393.381 197.438Z" fill="#2F2E41"/>
<path d="M412.118 238.442L416.463 236.994L417.821 239.167C417.821 239.167 420.446 239.891 420.355 241.791C420.368 243.521 420.519 245.246 420.808 246.951L418.907 247.132L418.183 243.421L414.471 247.856C414.471 247.856 407.864 248.218 407.592 247.132C407.321 246.046 412.299 244.869 412.299 244.869L413.114 240.977L412.118 238.442Z" fill="#2F2E41"/>
<path d="M379.623 237.176L383.606 238.443V239.348C383.606 239.348 384.782 241.158 384.601 242.697C384.42 244.236 383.606 247.947 383.606 247.947H381.524L381.614 244.508L377.451 247.947C377.451 247.947 370.028 247.404 370.028 246.227C370.028 245.051 375.731 244.236 375.731 244.236L379.623 237.176Z" fill="#2F2E41"/>
<path d="M397.726 175.895C397.726 175.895 401.437 172.184 403.157 173.089V174.719C403.157 174.719 405.692 175.896 405.782 177.706C405.873 179.516 408.498 195.99 408.498 195.99L414.653 217.442C414.653 217.442 412.752 220.429 405.782 217.08L401.437 202.326C401.437 202.326 406.054 218.981 403.791 218.71C401.528 218.438 392.657 197.8 392.657 197.8L393.291 188.025C393.291 188.025 391.843 183.77 394.739 180.874L397.726 175.895Z" fill="#D0CDE1"/>
<path d="M404.063 176.439C404.063 176.439 405.601 176.983 406.688 179.336C407.774 181.689 413.205 198.254 413.205 198.254L414.653 204.137L410.58 205.133L408.588 199.068L401.166 185.31C401.166 185.31 399.989 178.069 404.063 176.439Z" fill="#D0CDE1"/>
<path d="M403.705 163.444C403.685 162.882 403.527 162.334 403.245 161.847C402.963 161.361 402.566 160.951 402.089 160.654C402.586 159.656 403.03 158.517 402.702 157.452C402.569 157.038 402.329 156.668 402.005 156.378C401.682 156.089 401.287 155.891 400.861 155.805C400.386 155.739 399.904 155.745 399.431 155.823L397.201 156.076C396.47 156.104 395.756 156.297 395.11 156.639C394.79 156.842 394.522 157.117 394.327 157.442C394.132 157.767 394.017 158.134 393.989 158.512C393.962 158.89 394.024 159.269 394.17 159.619C394.316 159.968 394.542 160.279 394.83 160.525C393.27 161.774 392.227 162.721 391.517 164.589C392.708 163.619 394.195 163.086 395.731 163.08C396.776 163.024 397.801 163.377 398.589 164.064C399.377 164.751 399.866 165.719 399.952 166.761C399.943 167.284 399.989 167.806 400.089 168.32C400.146 168.575 400.289 168.803 400.494 168.967C400.699 169.13 400.954 169.218 401.216 169.216C401.144 169.226 400.702 167.898 401.013 167.285L401.018 167.276C401.086 167.149 401.199 167.052 401.335 167.004C401.456 166.957 401.585 166.937 401.715 166.945C401.844 166.952 401.97 166.987 402.085 167.047C402.2 167.107 402.3 167.191 402.38 167.293C402.46 167.395 402.518 167.513 402.548 167.638C402.722 168.303 402.999 169.152 403.241 168.927C403.558 168.632 403.424 166.031 403.51 165.628C403.68 164.913 403.746 164.177 403.705 163.444Z" fill="#2F2E41"/>
<path d="M402.064 160.634C402.064 160.634 397.159 160.954 394.812 160.527L402.064 160.634Z" fill="#D0CDE1"/>
<path d="M401.786 159.979C402.283 158.981 402.727 157.842 402.399 156.777C402.246 156.297 401.947 155.876 401.543 155.574C401.852 155.716 402.127 155.92 402.352 156.174C402.578 156.428 402.748 156.726 402.852 157.049C403.179 158.114 402.735 159.253 402.238 160.251C401.844 160.192 402.775 160.506 401.786 159.979Z" fill="#2F2E41"/>
<path opacity="0.2" d="M400.215 185.355L407.276 197.847L409.991 204.635L406.189 198.118L400.215 185.355Z" fill="black"/>
<path d="M66.4617 256.352C66.4617 256.352 64.2485 261.169 62.4515 262.52C60.6319 261.166 58.3753 256.352 58.3753 256.352C58.3753 256.352 56.1621 261.169 54.365 262.52C52.5455 261.166 50.2889 256.352 50.2889 256.352C50.2889 256.352 44.0031 262.778 44.0205 265.821C44.021 265.897 44.0253 265.972 44.0334 266.048C44.248 268.04 50.7468 268.548 54.3168 267.609C56.9781 268.216 59.742 268.216 62.4032 267.609C65.9581 268.563 72.589 268.016 72.7828 266.001C72.7901 265.926 72.7936 265.85 72.7931 265.774C72.7758 262.731 66.4617 256.352 66.4617 256.352Z" fill="#6C63FF"/>
<path d="M198.516 256.352C198.516 256.352 196.303 261.169 194.506 262.52C192.687 261.166 190.43 256.352 190.43 256.352C190.43 256.352 188.217 261.169 186.42 262.52C184.6 261.166 182.344 256.352 182.344 256.352C182.344 256.352 176.058 262.778 176.075 265.821C176.076 265.897 176.08 265.972 176.088 266.048C176.303 268.04 182.801 268.548 186.372 267.609C189.033 268.216 191.797 268.216 194.458 267.609C198.013 268.563 204.644 268.016 204.838 266.001C204.845 265.926 204.848 265.85 204.848 265.774C204.83 262.731 198.516 256.352 198.516 256.352Z" fill="#E6E6E6"/>
<path d="M329.716 256.352C329.716 256.352 327.503 261.169 325.706 262.52C323.886 261.166 321.63 256.352 321.63 256.352C321.63 256.352 319.416 261.169 317.619 262.52C315.8 261.166 313.543 256.352 313.543 256.352C313.543 256.352 307.258 262.778 307.275 265.821C307.275 265.897 307.28 265.972 307.288 266.048C307.502 268.04 314.001 268.548 317.571 267.609C320.232 268.216 322.996 268.216 325.658 267.609C329.212 268.563 335.843 268.016 336.037 266.001C336.045 265.926 336.048 265.85 336.048 265.774C336.03 262.731 329.716 256.352 329.716 256.352Z" fill="#6C63FF"/>
<path d="M74.3907 22.607L74.3328 22.6385C73.7071 22.9807 73.0058 23.1613 72.2925 23.1638C71.5793 23.1663 70.8768 22.9907 70.2486 22.6528C70.2124 22.6333 70.1764 22.614 70.1406 22.595C69.5125 22.2597 68.8111 22.0855 68.0991 22.088C67.3871 22.0905 66.6868 22.2695 66.0611 22.6091L66.007 22.6385C65.3813 22.9808 64.68 23.1613 63.9667 23.1638C63.2535 23.1663 62.551 22.9907 61.9228 22.6529C61.8852 22.6326 61.8479 22.6126 61.8108 22.5928C61.19 22.2591 60.4965 22.0838 59.7918 22.0826C59.0871 22.0813 58.3929 22.2541 57.771 22.5857C55.8713 23.6087 53.3032 25.3579 53.3145 27.3333C53.3149 27.4114 53.3194 27.4895 53.3278 27.5671C53.5487 29.6186 60.2398 30.1413 63.9156 29.1745C66.6556 29.7997 69.5013 29.7997 72.2414 29.1745C75.9014 30.1568 82.7287 29.594 82.9283 27.519C82.9358 27.4413 82.9393 27.3632 82.9389 27.2851C82.9276 25.3086 80.3367 23.5778 78.4251 22.5692C77.8015 22.2429 77.107 22.0756 76.4032 22.0822C75.6994 22.0888 75.0081 22.2691 74.3907 22.607Z" fill="#E6E6E6"/>
<path d="M198.741 44.2886L198.683 44.3201C198.057 44.6624 197.356 44.8429 196.643 44.8454C195.929 44.8479 195.227 44.6723 194.599 44.3345C194.563 44.315 194.527 44.2957 194.491 44.2766C193.863 43.9414 193.161 43.7672 192.449 43.7696C191.737 43.7721 191.037 43.9511 190.411 44.2907L190.357 44.3202C189.731 44.6624 189.03 44.8429 188.317 44.8454C187.604 44.8479 186.901 44.6723 186.273 44.3345C186.235 44.3142 186.198 44.2942 186.161 44.2745C185.54 43.9407 184.847 43.7655 184.142 43.7642C183.437 43.763 182.743 43.9358 182.121 44.2673C180.221 45.2904 177.653 47.0395 177.665 49.0149C177.665 49.093 177.669 49.1711 177.678 49.2488C177.899 51.3002 184.59 51.8229 188.266 50.8561C191.006 51.4814 193.851 51.4814 196.591 50.8561C200.252 51.8384 207.079 51.2757 207.278 49.2007C207.286 49.1229 207.289 49.0449 207.289 48.9668C207.278 46.9903 204.687 45.2595 202.775 44.2508C202.152 43.9245 201.457 43.7573 200.753 43.7639C200.049 43.7704 199.358 43.9507 198.741 44.2886Z" fill="#E6E6E6"/>
<path d="M284.685 23.5464L284.627 23.578C284.001 23.9202 283.3 24.1007 282.587 24.1033C281.874 24.1058 281.171 23.9301 280.543 23.5923C280.507 23.5728 280.471 23.5535 280.435 23.5345C279.807 23.1992 279.106 23.025 278.394 23.0274C277.682 23.0299 276.981 23.2089 276.356 23.5485L276.301 23.578C275.676 23.9202 274.974 24.1008 274.261 24.1033C273.548 24.1058 272.845 23.9301 272.217 23.5923C272.18 23.572 272.142 23.552 272.105 23.5323C271.484 23.1986 270.791 23.0233 270.086 23.022C269.381 23.0208 268.687 23.1936 268.065 23.5251C266.166 24.5482 263.598 26.2973 263.609 28.2727C263.609 28.3509 263.614 28.4289 263.622 28.5066C263.843 30.558 270.534 31.0807 274.21 30.1139C276.95 30.7392 279.796 30.7392 282.536 30.1139C286.196 31.0962 293.023 30.5335 293.223 28.4585C293.23 28.3807 293.234 28.3027 293.233 28.2246C293.222 26.2481 290.631 24.5173 288.72 23.5086C288.096 23.1823 287.401 23.0151 286.698 23.0217C285.994 23.0283 285.303 23.2085 284.685 23.5464Z" fill="#E6E6E6"/>
</svg>
