<?xml version="1.0" encoding="UTF-8" standalone="no"?>
<svg
   width="288.91599"
   height="288.91599"
   viewBox="0 0 288.91599 288.91599"
   fill="none"
   version="1.1"
   id="svg944"
   sodipodi:docname="customer.svg"
   inkscape:version="1.2.2 (b0a8486541, 2022-12-01)"
   xmlns:inkscape="http://www.inkscape.org/namespaces/inkscape"
   xmlns:sodipodi="http://sodipodi.sourceforge.net/DTD/sodipodi-0.dtd"
   xmlns="http://www.w3.org/2000/svg"
   xmlns:svg="http://www.w3.org/2000/svg">
  <defs
     id="defs948" />
  <sodipodi:namedview
     id="namedview946"
     pagecolor="#ffffff"
     bordercolor="#000000"
     borderopacity="0.25"
     inkscape:showpageshadow="2"
     inkscape:pageopacity="0.0"
     inkscape:pagecheckerboard="0"
     inkscape:deskcolor="#d1d1d1"
     showgrid="false"
     inkscape:zoom="2.4229607"
     inkscape:cx="162.81733"
     inkscape:cy="127.52993"
     inkscape:window-width="1920"
     inkscape:window-height="1011"
     inkscape:window-x="0"
     inkscape:window-y="0"
     inkscape:window-maximized="1"
     inkscape:current-layer="svg944" />
  <g
     id="g320"
     transform="translate(53.289993)">
    <path
       d="m 2.949,135.54298 -0.344,0.998 81.273,30.32 0.345,-0.997 z"
       fill="#3f3d56"
       id="path884" />
    <path
       d="m 28.515,139.95498 1.234,2.491 c 0.011,0.023 0.013,0.05 0.005,0.074 -0.007,0.025 -0.024,0.045 -0.046,0.057 l -0.059,0.032 6.428,12.976 c 0.178,0.359 0.212,0.777 0.093,1.162 -0.119,0.384 -0.379,0.704 -0.725,0.889 l -7.805,4.173 c -0.172,0.092 -0.358,0.147 -0.55,0.164 -0.192,0.016 -0.385,-0.007 -0.568,-0.068 -0.184,-0.061 -0.354,-0.159 -0.5,-0.288 -0.147,-0.129 -0.268,-0.287 -0.356,-0.465 v 0 l -6.204,-12.521 -0.043,0.023 c -0.015,0.008 -0.034,0.01 -0.05,0.004 -0.017,-0.005 -0.031,-0.018 -0.039,-0.034 l -0.703,-1.418 c -0.004,-0.008 -0.006,-0.016 -0.007,-0.025 0,-0.009 10e-4,-0.019 0.003,-0.027 0.003,-0.009 0.007,-0.017 0.013,-0.024 0.005,-0.007 0.012,-0.012 0.02,-0.017 l 0.043,-0.023 -0.264,-0.534 -0.044,0.024 c -0.016,0.008 -0.035,0.01 -0.053,0.004 -0.017,-0.006 -0.032,-0.019 -0.04,-0.036 l -0.693,-1.398 c -0.009,-0.017 -0.01,-0.037 -0.005,-0.055 0.006,-0.018 0.018,-0.033 0.035,-0.042 l 0.043,-0.023 -0.361,-0.729 -0.044,0.023 c -0.015,0.008 -0.032,0.009 -0.047,0.004 -0.016,-0.005 -0.029,-0.016 -0.036,-0.031 v 0 l -0.378,-0.763 c -0.008,-0.016 -0.009,-0.033 -0.004,-0.049 0.005,-0.017 0.016,-0.03 0.03,-0.038 l 0.044,-0.024 -0.765,-1.545 c -0.178,-0.359 -0.211,-0.776 -0.093,-1.161 0.119,-0.384 0.38,-0.704 0.725,-0.889 l 7.806,-4.173 c 0.345,-0.185 0.747,-0.219 1.118,-0.096 0.37,0.123 0.678,0.394 0.856,0.753 l 1.799,3.632 0.06,-0.031 c 0.022,-0.012 0.048,-0.014 0.072,-0.007 0.023,0.008 0.043,0.026 0.055,0.049 z"
       fill="#3f3d56"
       id="path894" />
    <path
       d="m 26.036,136.90898 9.472,19.118 c 0.113,0.228 0.134,0.493 0.058,0.737 -0.075,0.244 -0.24,0.446 -0.46,0.564 l -7.471,3.994 c -0.219,0.118 -0.474,0.14 -0.708,0.062 -0.235,-0.077 -0.43,-0.249 -0.543,-0.476 l -0.002,-0.002 -9.471,-19.118 c -0.056,-0.113 -0.09,-0.236 -0.1,-0.363 -0.01,-0.126 0.004,-0.253 0.041,-0.374 0.037,-0.121 0.097,-0.233 0.176,-0.33 0.079,-0.097 0.175,-0.176 0.284,-0.235 v 0 l 1.118,-0.597 0.074,0.149 c 0.046,0.093 0.109,0.175 0.186,0.243 0.077,0.067 0.166,0.118 0.261,0.15 0.096,0.032 0.197,0.044 0.297,0.035 0.1,-0.008 0.198,-0.037 0.287,-0.085 l 3.8,-2.032 c 0.181,-0.096 0.317,-0.263 0.379,-0.464 0.062,-0.201 0.045,-0.419 -0.048,-0.607 l -0.074,-0.149 1.192,-0.637 c 0.219,-0.117 0.474,-0.139 0.709,-0.061 0.235,0.078 0.43,0.25 0.543,0.477 z"
       fill="#000091"
       id="path896" />
    <path
       d="m 126.613,251.15998 c 0.469,-0.887 1.022,-1.71 1.647,-2.454 0.258,-0.312 0.53,-0.607 0.811,-0.893 1.706,-1.775 3.785,-2.987 6.024,-3.51 2.239,-0.524 4.558,-0.342 6.716,0.529 2.159,0.87 4.081,2.397 5.567,4.423 1.487,2.026 2.485,4.479 2.892,7.105 1.884,-8.144 -3.021,-16.166 -7.952,-22.329 -4.934,-6.16 -10.573,-12.917 -10.545,-21.358 0.014,-4.697 1.98,-8.887 4.947,-11.993 0.092,-0.094 0.184,-0.188 0.277,-0.279 3.587,-3.594 8.202,-5.474 12.924,-5.264 8.771,0.549 16.429,7.439 21.748,15.612 8.561,13.151 12.313,31.61 6.319,46.58 -5.271,13.166 -16.515,20.984 -27.989,27.27 -1.603,0.877 -3.202,1.729 -4.798,2.554 -0.01,0.003 -0.022,0.012 -0.032,0.015 -0.077,0.04 -0.154,0.079 -0.226,0.12 -0.329,0.169 -0.659,0.339 -0.985,0.507 l 0.151,0.116 0.472,0.357 c -0.164,-0.116 -0.326,-0.228 -0.489,-0.344 -0.049,-0.035 -0.1,-0.068 -0.149,-0.103 -5.635,-3.953 -11.35,-8.134 -15.243,-14.304 -4.038,-6.407 -5.661,-15.584 -2.087,-22.357 z"
       fill="#f1f1f1"
       id="path898" />
    <path
       d="m 164.213,236.28398 c 1.248,3.319 2.075,6.832 2.456,10.429 0.299,3.208 0.187,6.449 -0.334,9.618 -1.119,6.512 -3.56,12.614 -7.117,17.794 -2.683,3.932 -5.781,7.452 -9.22,10.476 -1.602,0.878 -3.201,1.73 -4.797,2.555 -0.011,0.003 -0.022,0.012 -0.033,0.015 -0.077,0.039 -0.153,0.079 -0.225,0.119 -0.33,0.17 -0.659,0.34 -0.986,0.508 l 0.151,0.115 0.472,0.358 c -0.163,-0.116 -0.325,-0.229 -0.489,-0.344 -0.048,-0.035 -0.1,-0.068 -0.148,-0.104 1.24,-5.07 1.422,-10.414 0.531,-15.584 -0.89,-5.17 -2.829,-10.015 -5.651,-14.13 -2.838,-4.062 -6.458,-7.283 -10.563,-9.4 0.258,-0.312 0.53,-0.607 0.81,-0.894 1.581,0.849 3.096,1.86 4.525,3.02 5.111,4.129 8.949,10.072 10.945,16.948 1.783,6.239 2.006,12.943 0.642,19.324 0.283,-0.216 0.567,-0.438 0.843,-0.658 5.25,-4.139 10.089,-9.109 13.734,-15.203 3.143,-5.151 5.155,-11.126 5.857,-17.4 0.699,-6.853 -0.768,-13.592 -3.386,-19.706 -2.89,-6.542 -6.533,-12.591 -10.826,-17.98 -4.312,-5.537 -9.187,-10.436 -14.517,-14.589 -0.12,-0.095 -0.204,-0.24 -0.235,-0.405 -0.032,-0.165 -0.007,-0.338 0.068,-0.483 0.057,-0.132 0.156,-0.232 0.276,-0.279 0.061,-0.018 0.125,-0.02 0.187,-0.006 0.061,0.015 0.119,0.046 0.17,0.09 0.658,0.513 1.31,1.031 1.954,1.564 5.368,4.442 10.243,9.647 14.513,15.494 4.126,5.636 7.88,11.898 10.393,18.738 z"
       fill="#ffffff"
       id="path900" />
    <path
       d="m 151.19,106.41298 c 2.759,0 4.995,-2.614 4.995,-5.838 0,-3.225003 -2.236,-5.839003 -4.995,-5.839003 -2.759,0 -4.995,2.614 -4.995,5.839003 0,3.224 2.236,5.838 4.995,5.838 z"
       fill="#f1f1f1"
       id="path902" />
    <path
       d="m 4.995,122.42898 c 2.759,0 4.995,-2.614 4.995,-5.839 0,-3.224 -2.236,-5.838 -4.995,-5.838 -2.759,0 -4.995,2.614 -4.995,5.838 0,3.225 2.236,5.839 4.995,5.839 z"
       fill="#f1f1f1"
       id="path904" />
    <path
       d="m 7.816,288.91598 h 174.063 c 0.121,0 0.238,-0.057 0.323,-0.157 0.086,-0.1 0.134,-0.236 0.134,-0.377 0,-0.142 -0.048,-0.278 -0.134,-0.378 -0.085,-0.1 -0.202,-0.156 -0.323,-0.156 H 7.816 c -0.121,0 -0.237,0.056 -0.323,0.156 -0.086,0.1 -0.134,0.236 -0.134,0.378 0,0.141 0.048,0.277 0.134,0.377 0.086,0.1 0.202,0.157 0.323,0.157 z"
       fill="#cbcbcb"
       id="path906" />
    <path
       d="m 162.67,8.915077 c 0.228,-1.8966 -0.146,-3.8254 -1.053,-5.4207 -0.907,-1.5954 -2.283,-2.74659996 -3.867,-3.23529996 -1.585,-0.4888 -3.268,-0.2813 -4.73,0.5832 C 151.558,1.706777 150.417,3.168177 149.815,4.949677 l -14.124,18.9265 4.144,13.5294 14.205,-22.115 c 0.927,0.3471 1.908,0.4524 2.873,0.3084 0.966,-0.1439 1.893,-0.5335 2.715,-1.1413 0.823,-0.6079 1.522,-1.4192 2.047,-2.3768 0.526,-0.9576 0.865,-2.0382 0.995,-3.1658 z"
       fill="#ffb7b7"
       id="path908" />
    <path
       d="m 104.12,82.552977 46.887,-58.4867 -6.324,-11.7519 -58.808,58.1316 z"
       fill="#fecb40"
       id="path910" />
    <path
       d="m 93.655,47.020677 c 9.084,0 16.447,-8.6065 16.447,-19.2232 0,-10.6167 -7.363,-19.2233 -16.447,-19.2233 -9.083,0 -16.447,8.6066 -16.447,19.2233 0,10.6167 7.364,19.2232 16.447,19.2232 z"
       fill="#2f2e41"
       id="path912" />
    <path
       d="m 94.978,16.937377 c 3.539,-4.1947 7.822,-7.4317 12.547,-9.483 3.032,-1.3133 6.334,-2.1247 9.504,-1.3789 3.171,0.7458 6.17,3.3097 7.055,6.9459 0.723,2.9734 -0.024,6.1748 -1.147,8.9738 -1.122,2.799 -2.621,5.3945 -3.529,8.298 -0.926,2.9625 -1.205,6.1485 -0.81,9.2688 0.394,3.1203 1.449,6.076 3.069,8.5989 1.62,2.5229 3.753,4.533 6.206,5.8479 2.453,1.3149 5.148,1.893 7.84,1.6817 -3.115,0.4882 -5.987,2.1994 -9.032,3.1105 -3.046,0.911 -6.64,0.849 -8.903,-1.701 -2.394,-2.6979 -2.442,-7.0844 -2.326,-10.9693 0.172,-5.775 0.344,-11.5499 0.516,-17.3249 0.088,-2.9452 0.163,-5.9847 -0.746,-8.7336 -0.909,-2.7488 -3.068,-5.1559 -5.59,-5.1309 -1.91,0.019 -3.602,1.372 -5.134,2.7062 -1.532,1.3343 -3.154,2.7579 -5.058,2.9564 -1.903,0.1984 -4.076,-1.4479 -3.934,-3.6751 z"
       fill="#2f2e41"
       id="path914" />
    <path
       d="m 31.189,156.86798 c -1.579,0.513 -3.264,0.331 -4.736,-0.511 -1.471,-0.843 -2.628,-2.287 -3.249,-4.059 -0.622,-1.772 -0.666,-3.749 -0.124,-5.557 0.543,-1.807 1.633,-3.32 3.066,-4.25 l 14.208,-18.841 12.018,3.035 -16.903,19.35 c 0.416,1.029 0.633,2.152 0.637,3.29 0.004,1.137 -0.205,2.262 -0.613,3.295 -0.408,1.033 -1.005,1.948 -1.749,2.682 -0.743,0.734 -1.616,1.269 -2.555,1.566 z"
       fill="#ffb7b7"
       id="path916" />
    <path
       d="M 77.936,89.425977 42.522,141.38298 31.728,135.58998 73.352,59.847977 Z"
       fill="#fecb40"
       id="path918" />
    <path
       d="m 49.679,246.31098 -8.44,-0.155 1.015,33.623 h 7.423 z"
       fill="#ffb7b7"
       id="path920" />
    <path
       d="m 51.571,276.94598 -14.62,-0.001 v 0 c -2.471,0 -4.841,1.148 -6.588,3.19 -1.747,2.042 -2.729,4.812 -2.729,7.7 v 0.354 l 23.937,10e-4 z"
       fill="#2f2e41"
       id="path922" />
    <path
       d="m 105.56,237.39298 -9.219,6.918 18.442,25.933 6.247,-4.688 z"
       fill="#ffb7b7"
       id="path924" />
    <path
       d="m 121.315,261.97698 -12.303,9.231 -0.001,10e-4 c -2.079,1.56 -3.543,4.022 -4.069,6.844 -0.526,2.822 -0.072,5.772 1.263,8.203 l 0.163,0.297 20.144,-15.115 z"
       fill="#2f2e41"
       id="path926" />
    <path
       d="m 108.845,134.71998 c 0,0 -20.485,-79.524303 -27.069,-80.599003 -6.583,-1.0746 -17.191,20.405 -17.191,20.405 -13.752,20.509 -27.934,86.943003 -27.934,86.943003 0,0 23.641,1.729 40.923,12.476 17.281,10.746 37.676,-0.544 37.676,-0.544 z"
       fill="#fecb40"
       id="path928" />
    <path
       opacity="0.1"
       d="m 108.845,134.71898 c 0,0 -20.485,-79.523703 -27.069,-80.598303 -6.583,-1.0747 -14.497,20.6233 -14.497,20.6233 -6.852,33.106003 -30.628,86.725003 -30.628,86.725003 0,0 23.641,1.729 40.923,12.475 17.281,10.747 37.676,-0.544 37.676,-0.544 z"
       fill="#5770be"
       id="path930" />
    <path
       d="m 92.038,110.93398 v 39.961 l 4.024,57.885 20.101,43.787 -9.594,8.009 -27.411,-41.65 -10.842,-41.356 -17.027,91.55 -12.792,-1.068 8.884,-126.933 16.859,-35.728 z"
       fill="#eb574b"
       id="path932" />
    <path
       d="m 71.384,72.275977 c -6.396,7.476 -0.457,15.486 -0.457,15.486 l -7.31,19.223003 28.782,9.078 10.058,-52.532003 -6.852,-8.5439 c -13.706,-0.534 -13.714,-0.866 -13.714,-0.866 -2.401,2.7467 -10.507,18.1549 -10.507,18.1549 z"
       fill="#d5dbef"
       id="path934" />
    <path
       d="m 103.617,58.092977 c -1.307,-1.128 -2.793,-1.9414 -4.371,-2.3934 -1.578,-0.452 -3.217,-0.5335 -4.823,-0.2398 -1.605,0.2937 -3.144,0.9567 -4.529,1.9506 -1.384,0.9936 -2.586,2.2996 -3.536,3.8396 -7.236,11.776 -13.926,30.79 -4.708,54.505003 14.802,38.077 27.683,57.57 32.919,57.568 0.229,0.002 0.456,-0.039 0.673,-0.123 3.223,-1.278 7.884,-7.653 8.727,-13.271 0.302,-2.011 0.231,-4.812 -1.827,-6.735 -5.91,-5.525 -16.519,-22.727 -19.828,-45.369 -1.829,-12.511003 1.717,-23.907003 5.015,-31.264003 1.393,-3.044 1.8,-6.573 1.148,-9.94 -0.653,-3.367 -2.322,-6.346 -4.701,-8.391 z"
       fill="#fecb40"
       id="path936" />
    <path
       d="m 94.502,45.129377 c 5.867,-3.7486 8.023,-12.3465 4.816,-19.2039 -3.207,-6.8574 -10.563,-9.3776 -16.43,-5.629 -5.867,3.7486 -8.024,12.3465 -4.816,19.2039 3.207,6.8574 10.563,9.3776 16.43,5.629 z"
       fill="#ffb7b7"
       id="path938" />
    <path
       d="m 71.669,31.649377 h 17.482 l 0.179,-2.9336 0.896,2.9336 h 2.692 l 0.355,-5.8142 1.777,5.8142 h 5.209 v -0.288 c -0.004,-4.0478 -1.382,-7.9286 -3.831,-10.7908 -2.448,-2.8623 -5.769,-4.4723 -9.232,-4.4769 h -2.465 c -3.463,0.0046 -6.783,1.6146 -9.232,4.4769 -2.449,2.8622 -3.826,6.7429 -3.83,10.7908 z"
       fill="#2f2e41"
       id="path940" />
    <path
       d="m 97.617,42.196077 7.46,-2.8294 v -21.1753 H 90.986 l 0.348,0.4071 c 4.854,5.666 10.253,25.7683 6.283,23.5976 z"
       fill="#2f2e41"
       id="path942" />
  </g>
</svg>
