<?xml version="1.0" encoding="UTF-8" standalone="no"?>
<svg
   viewBox="0 0 143.75882 107.83449"
   version="1.1"
   id="svg9662"
   sodipodi:docname="taxi.svg"
   width="143.75882"
   height="107.8345"
   inkscape:version="1.2.2 (b0a8486541, 2022-12-01)"
   xmlns:inkscape="http://www.inkscape.org/namespaces/inkscape"
   xmlns:sodipodi="http://sodipodi.sourceforge.net/DTD/sodipodi-0.dtd"
   xmlns="http://www.w3.org/2000/svg"
   xmlns:svg="http://www.w3.org/2000/svg">
  <sodipodi:namedview
     id="namedview9664"
     pagecolor="#ffffff"
     bordercolor="#000000"
     borderopacity="0.25"
     inkscape:showpageshadow="2"
     inkscape:pageopacity="0.0"
     inkscape:pagecheckerboard="0"
     inkscape:deskcolor="#d1d1d1"
     showgrid="false"
     inkscape:zoom="3.3273763"
     inkscape:cx="10.067993"
     inkscape:cy="50.189694"
     inkscape:window-width="1920"
     inkscape:window-height="1011"
     inkscape:window-x="0"
     inkscape:window-y="0"
     inkscape:window-maximized="1"
     inkscape:current-layer="svg9662" />
  <defs
     id="defs9602">
    <style
       id="style9565">.cls-1{fill:#f2f2f2;}.cls-2,.cls-3,.cls-4{fill:none;stroke:#1b458f;stroke-width:2.59px;}.cls-11,.cls-2,.cls-3,.cls-4,.cls-8{stroke-miterlimit:10;}.cls-3{stroke-dasharray:3.09 7.72 3.09 7.72;}.cls-4{stroke-dasharray:3.09 7.72 3.09 7.72 3.09 7.72;}.cls-5{fill:#1b458f;}.cls-6{fill:#546389;}.cls-7{fill:#2f3133;}.cls-10,.cls-11,.cls-14,.cls-8{fill:#fff;}.cls-11,.cls-8{stroke:#5770be;}.cls-8{stroke-width:5.65px;}.cls-9{fill:#5770be;}.cls-11{stroke-width:3.95px;}.cls-12{fill:#ccdcff;}.cls-13{fill:#000091;}.cls-14{font-size:5.27px;font-family:MyriadPro-Regular, Myriad Pro;}.cls-15{letter-spacing:-0.08em;}.cls-16{letter-spacing:-0.01em;}.cls-17{fill:url(#Dégradé_sans_nom_47);}</style>
    <linearGradient
       id="Dégradé_sans_nom_47"
       x1="185.41"
       y1="89.800003"
       x2="191.14999"
       y2="89.800003"
       gradientUnits="userSpaceOnUse"
       gradientTransform="translate(-123.7134,-77.379999)">
      <stop
         offset="0.08"
         stop-color="#3fe946"
         id="stop9567" />
      <stop
         offset="0.14"
         stop-color="#43e94a"
         id="stop9569" />
      <stop
         offset="0.2"
         stop-color="#4eeb54"
         id="stop9571" />
      <stop
         offset="0.26"
         stop-color="#61ed66"
         id="stop9573" />
      <stop
         offset="0.32"
         stop-color="#7bf080"
         id="stop9575" />
      <stop
         offset="0.38"
         stop-color="#9df4a0"
         id="stop9577" />
      <stop
         offset="0.44"
         stop-color="#c6f9c8"
         id="stop9579" />
      <stop
         offset="0.49"
         stop-color="#f7fef7"
         id="stop9581" />
      <stop
         offset="0.5"
         stop-color="#fff"
         id="stop9583" />
      <stop
         offset="0.53"
         stop-color="#e4fce5"
         id="stop9585" />
      <stop
         offset="0.59"
         stop-color="#b6f7b9"
         id="stop9587" />
      <stop
         offset="0.65"
         stop-color="#8ef292"
         id="stop9589" />
      <stop
         offset="0.71"
         stop-color="#6dee73"
         id="stop9591" />
      <stop
         offset="0.78"
         stop-color="#54ec5b"
         id="stop9593" />
      <stop
         offset="0.84"
         stop-color="#42ea4a"
         id="stop9595" />
      <stop
         offset="0.91"
         stop-color="#37e83f"
         id="stop9597" />
      <stop
         offset="0.99"
         stop-color="#34e83c"
         id="stop9599" />
    </linearGradient>
  </defs>
  <polygon
     class="cls-6"
     points="182.79,86.04 176.79,91.25 182.79,91.25 "
     id="polygon9616"
     transform="translate(-123.7134,-77.379999)" />
  <polygon
     class="cls-6"
     points="209.63,86.04 215.63,91.25 209.63,91.25 "
     id="polygon9618"
     transform="translate(-123.7134,-77.379999)" />
  <path
     class="cls-7"
     d="m 123.5166,48.130001 h 2.66 v -6.12 c 0,0 14.78,-2.9 16.72,0 1.94,2.9 0,8.6 0,8.6 h -16.23 z"
     id="path9620" />
  <path
     class="cls-7"
     d="m 28.456598,107.83 h -4.73 a 6.14,6.14 0 0 1 -6.37,-5.89 V 91.860001 a 6.14,6.14 0 0 1 6.37,-5.89 h 4.73 a 6.14,6.14 0 0 1 6.36,5.89 V 101.94 a 6.14,6.14 0 0 1 -6.36,5.89 z"
     id="path9622" />
  <path
     class="cls-7"
     d="m 118.5966,107.83 h -5.24 c -3.9,0 -7.06,-2.64 -7.06,-5.89 V 91.860001 c 0,-3.25 3.16,-5.89 7.06,-5.89 h 5.24 c 3.89,0 7.05,2.64 7.05,5.89 V 101.94 c 0,3.25 -3.16,5.89 -7.05,5.89 z"
     id="path9624" />
  <path
     class="cls-8"
     d="M 123.3566,53.440001 H 20.606598 l 10.79,-27.44 c 2.18,-5.64 8.79,-9.43 16.43,-9.43 h 48.37 c 7.640002,0 14.240002,3.79 16.430002,9.43 z"
     id="path9626" />
  <path
     class="cls-9"
     d="m 136.3366,72.620001 v 10.56 H 7.6265979 v -10.56 c 0,-10.56 7.6400001,-19.14 17.0000001,-19.14 H 119.2866 c 9.4,-0.04 17.05,8.54 17.05,19.14 z"
     id="path9628" />
  <path
     class="cls-6"
     d="m 139.3866,87.620001 v 0 c 0,3.13 -3.19,5.66 -7.11,5.66 H 11.686598 c -3.9300001,0 -7.1100001,-2.53 -7.1100001,-5.66 v 0 c 0,-3.13 3.18,-5.66 7.1100001,-5.66 H 132.2866 c 3.91,0.02 7.1,2.55 7.1,5.66 z"
     id="path9630" />
  <polygon
     class="cls-10"
     points="233.31,147.55 233.31,154.86 249.47,154.86 249.47,144.1 "
     id="polygon9632"
     transform="translate(-123.7134,-77.379999)" />
  <polygon
     class="cls-10"
     points="158.28,147.55 158.28,154.86 142.12,154.86 142.12,144.1 "
     id="polygon9634"
     transform="translate(-123.7134,-77.379999)" />
  <path
     class="cls-7"
     d="m 19.996598,48.390001 -2.65,-0.22 0.5,-6.09 c 0,0 -14.4900001,-4.1 -16.6600001,-1.36 -2.17000004,2.74 -0.70000004,8.56 -0.70000004,8.56 l 16.17000014,1.34 z"
     id="path9636" />
  <path
     class="cls-11"
     d="M 123.3566,53.440001 H 20.606598 l 10.79,-27.44 c 2.18,-5.64 8.79,-9.43 16.43,-9.43 h 48.37 c 7.640002,0 14.240002,3.79 16.430002,9.43 z"
     id="path9638" />
  <path
     class="cls-12"
     d="m 48.726598,18.480001 c -7.34,0 -13.69,3.41 -15.78,8.47 l -10.37,24.67 h 14.35 l 13.24,-33.15 z"
     id="path9640" />
  <path
     class="cls-12"
     d="m 110.9666,26.950001 c -2.09,-5.06 -8.44,-8.47 -15.780002,-8.47 h -35 l -11.63,33.14 H 121.2866 Z"
     id="path9642" />
  <rect
     class="cls-10"
     x="45.926598"
     y="73.610008"
     width="52.119999"
     height="1.51"
     id="rect9644" />
  <path
     class="cls-13"
     d="m 87.076598,10.770001 h -13.95 a 1.72,1.72 0 0 0 -0.64,0 h -13.95 a 1.52,1.52 0 0 1 -1.4,-2.1199996 l 1.26,-2.92 a 1.53,1.53 0 0 1 1.4,-0.93 h 3.85 a 1.53,1.53 0 0 0 1.46,-1.08 l 0.79,-2.63 a 1.52,1.52 0 0 1 1.46,-1.0899999629676 h 10.93 A 1.52,1.52 0 0 1 79.736598,1.0900014 l 0.8,2.63 a 1.52,1.52 0 0 0 1.46,1.08 h 3.85 a 1.53,1.53 0 0 1 1.4,0.93 l 1.23,2.89 a 1.52,1.52 0 0 1 -1.4,2.1499996 z"
     id="path9646" />
  <text
     class="cls-14"
     id="text9654"
     x="67.986595"
     y="6.4000001"><tspan
       class="cls-15"
       id="tspan9648">T</tspan><tspan
       class="cls-16"
       x="70.206596"
       y="6.4000001"
       id="tspan9650">A</tspan><tspan
       x="73.356606"
       y="6.4000001"
       id="tspan9652">XI</tspan></text>
  <path
     class="cls-17"
     d="m 63.176598,9.4100014 -1.48,5.2099996 a 0.84,0.84 0 0 0 0.84,0.84 h 4.06 a 0.85,0.85 0 0 0 0.84,-0.84 l -1.47,-5.1699996 z"
     id="path9656"
     style="fill:url(#D%C3%A9grad%C3%A9_sans_nom_47)" />
  <rect
     class="cls-6"
     x="61.276604"
     y="9.0200033"
     width="23.07"
     height="0.77999997"
     id="rect9658" />
</svg>
