<svg width="178" height="173" viewBox="0 0 178 173" fill="none" xmlns="http://www.w3.org/2000/svg">
<rect width="55" height="20" transform="translate(20 20.002)" fill="white"/>
<path d="M37.7649 37.5907C37.7716 37.5907 37.7782 37.5809 37.7782 37.5809C37.8313 37.5417 37.8844 37.4927 37.9309 37.4338C37.9243 37.4338 37.9176 37.4338 37.911 37.424C37.8645 37.473 37.8114 37.5319 37.7649 37.5907Z" fill="#000091"/>
<path d="M45.1222 35.1118L45.006 35.2118C45.0724 35.1951 45.1222 35.1784 45.1222 35.1118Z" fill="#000091"/>
<path fill-rule="evenodd" clip-rule="evenodd" d="M42.7435 37.644C42.9566 37.4297 43.1697 37.2023 43.3828 36.9685H43.3764C43.7767 36.5138 44.1642 36.0786 44.6291 35.6824C44.7712 35.5525 44.9068 35.442 45.0359 35.3511C45.0549 35.332 45.0646 35.3036 45.0741 35.2757C45.084 35.2467 45.0937 35.2183 45.1134 35.2017C45.0214 35.2368 44.948 35.2924 44.8743 35.3482C44.7979 35.406 44.7211 35.4642 44.6227 35.5005C44.5839 35.5005 44.5452 35.4615 44.5839 35.4225C44.7195 35.3251 44.8551 35.2212 44.9843 35.1173H44.9585C44.9197 35.1173 44.9197 35.0783 44.9197 35.0393C44.439 34.9629 44.0698 35.2917 43.7392 35.586L43.7186 35.6044C43.6671 35.6303 43.6185 35.6046 43.5803 35.5845C43.561 35.5743 43.5444 35.5654 43.5313 35.5654C43.2389 35.6635 42.9867 35.8443 42.7329 36.0262C42.499 36.1938 42.2638 36.3624 41.9944 36.4683V36.3904C41.903 36.4219 41.8126 36.4631 41.7219 36.5043C41.5886 36.5649 41.4548 36.6258 41.3164 36.6567C41.0637 36.7154 40.8292 36.7078 40.602 36.7005C40.5274 36.6981 40.4535 36.6957 40.38 36.6957C39.9665 36.7367 39.5581 36.8253 39.1503 36.9138L39.0175 36.9425C39.011 36.9458 39.0046 36.9474 38.9981 36.949C38.9917 36.9506 38.9852 36.9523 38.9788 36.9555C38.7334 37.0205 38.5074 37.1114 38.2813 37.2413L38.2555 37.2543C38.2466 37.2662 38.2378 37.2768 38.2295 37.2866C38.2197 37.2981 38.2108 37.3087 38.2038 37.3193C38.1264 37.4102 38.0553 37.4882 37.9455 37.5466C37.7834 37.6282 37.6433 37.7539 37.5054 37.8777C37.4457 37.9313 37.3861 37.9847 37.3256 38.0338C37.3127 38.0468 37.2869 38.0533 37.2675 38.0533C37.0673 38.2481 36.8671 38.443 36.6605 38.6314C36.6476 38.6444 36.5895 38.6509 36.5443 38.6444C36.5443 38.6444 36.5507 38.6444 36.5507 38.6379L36.5701 38.5989L36.667 38.443C36.6863 38.4138 36.7041 38.3845 36.7218 38.3553C36.7396 38.3261 36.7574 38.2969 36.7767 38.2676C36.8283 38.1897 36.8801 38.1117 36.9382 38.0403C36.9511 38.0208 36.9511 38.0013 36.9382 37.9883C36.9253 37.9753 36.9059 37.9688 36.8865 37.9688C37.0738 37.787 37.2933 37.6311 37.5193 37.4946V37.4882C37.4935 37.4946 37.4548 37.4752 37.4741 37.4492C37.4931 37.4254 37.5086 37.398 37.5231 37.3724L37.5387 37.3452C37.5419 37.3388 37.5436 37.3339 37.5452 37.329C37.5468 37.3241 37.5484 37.3193 37.5516 37.3128C37.5484 37.3063 37.5436 37.3014 37.5387 37.2965C37.5339 37.2917 37.529 37.2868 37.5258 37.2803L37.4866 37.3061C37.4398 37.3368 37.3917 37.3683 37.3515 37.4037C37.3229 37.4283 37.2963 37.4619 37.2691 37.4965C37.2098 37.5714 37.1472 37.6505 37.0544 37.6505C37.0479 37.6505 37.0157 37.6505 36.9963 37.644C36.9769 37.644 36.964 37.6375 36.9575 37.6311C36.9575 37.6278 36.9575 37.6262 36.9583 37.6254C36.9592 37.6246 36.9608 37.6246 36.964 37.6246C36.964 37.6246 36.9705 37.6181 36.9705 37.6116C36.9705 37.6116 36.9705 37.6051 36.9769 37.6051C36.9801 37.5986 36.9834 37.5937 36.9866 37.5888C36.9898 37.584 36.9931 37.5791 36.9963 37.5726C36.9995 37.5661 37.0027 37.5612 37.006 37.5564C37.0092 37.5515 37.0124 37.5466 37.0157 37.5401C37.0189 37.5369 37.0205 37.532 37.0221 37.5271C37.0237 37.5223 37.0253 37.5174 37.0286 37.5141L37.0359 37.5007C37.0423 37.4893 37.0499 37.4758 37.0544 37.4622C37.0576 37.4557 37.0609 37.4508 37.0641 37.4459C37.0673 37.4411 37.0706 37.4362 37.0738 37.4297C37.0835 37.4167 37.0915 37.4021 37.0996 37.3875C37.1077 37.3729 37.1158 37.3582 37.1254 37.3452C37.1319 37.3323 37.1384 37.3193 37.1513 37.3063C37.1577 37.2933 37.1642 37.2819 37.1706 37.2705C37.1771 37.2592 37.1836 37.2478 37.19 37.2348C37.2094 37.2023 37.19 37.1764 37.1642 37.1699C37.2352 37.0789 37.3192 37.001 37.4225 36.9425H37.4096C37.4987 36.8977 37.5904 36.8452 37.6815 36.793C37.7352 36.7622 37.7896 36.7311 37.8422 36.7022C37.8616 36.6827 37.881 36.6632 37.9068 36.6502C37.6937 36.7217 37.5 36.8191 37.3127 36.949C37.3127 36.949 37.261 36.9685 37.2481 36.9815C37.2481 36.9815 37.2094 36.9945 37.1577 36.949C37.1513 36.9425 37.1513 36.936 37.1513 36.923C37.1737 36.8779 37.22 36.848 37.27 36.8157C37.3064 36.7922 37.3447 36.7674 37.3773 36.7347C37.416 36.7347 37.4483 36.7347 37.4483 36.7736C38.192 36.1904 39.1091 36.0555 40.0292 35.9201C40.5951 35.8369 41.1622 35.7534 41.6909 35.5654C41.7458 35.5265 41.8023 35.4891 41.8588 35.4518C41.9153 35.4144 41.9718 35.3771 42.0267 35.3381C42.1209 35.2989 42.2053 35.2318 42.2947 35.1607C42.383 35.0904 42.4762 35.0162 42.5885 34.9614C42.8856 34.734 43.1116 34.4742 43.2278 34.0909C43.2278 34.052 43.1891 34.013 43.1891 34.013C42.6983 34.5391 42.1365 34.9549 41.5359 35.2602C40.9633 35.5623 40.3497 35.6071 39.7423 35.6514C39.5141 35.6681 39.2867 35.6847 39.0627 35.7148C39.1014 35.6369 39.1789 35.6369 39.25 35.6369C39.25 35.5447 39.2942 35.505 39.3509 35.4541C39.366 35.4405 39.3821 35.426 39.3985 35.4096H39.5083C39.5276 35.4096 39.5373 35.3901 39.547 35.3706C39.5567 35.3511 39.5664 35.3316 39.5858 35.3316C39.6633 35.3316 39.773 35.2926 39.7343 35.2926C39.6751 35.2165 39.589 35.2466 39.494 35.2799C39.4027 35.3119 39.3031 35.3468 39.2112 35.2926C39.2454 35.2552 39.2556 35.2102 39.265 35.1693C39.2751 35.125 39.2841 35.0855 39.321 35.0653H39.4695C39.4695 34.9873 39.547 34.9159 39.547 34.9159C39.8838 34.7134 40.209 34.5366 40.5281 34.3631C40.7413 34.2472 40.952 34.1326 41.1614 34.013C41.119 34.013 41.0815 34.0304 41.045 34.0473C40.987 34.0742 40.9318 34.0998 40.8644 34.052C40.9031 34.052 40.9031 34.0244 40.9031 33.9968C40.9031 33.9692 40.9031 33.9415 40.9419 33.9415C41.1841 33.8768 41.3997 33.7719 41.62 33.6648C41.7754 33.5891 41.9332 33.5124 42.1042 33.4479C42.0534 33.4479 42.0065 33.4615 41.9607 33.4749C41.8725 33.5005 41.7887 33.5248 41.6909 33.4479C41.7166 33.435 41.7373 33.4185 41.7577 33.4023C41.799 33.3694 41.8392 33.3375 41.9169 33.3375V33.227C41.9169 33.1881 41.9557 33.1881 41.9944 33.1881C41.9557 33.1881 41.9169 33.1491 41.9169 33.1491C41.9375 33.1078 41.9779 33.0993 42.0229 33.0899C42.0629 33.0814 42.1065 33.0723 42.143 33.0387C42.1042 33.0387 42.0332 33.0387 42.0332 32.9997C42.143 32.8503 42.3302 32.8113 42.5175 32.7723C42.4981 32.7334 42.461 32.7334 42.4287 32.7334C42.3964 32.7334 42.369 32.7334 42.369 32.6944C42.369 32.6554 42.4077 32.6554 42.4465 32.6554H42.369C42.3082 32.6248 42.3189 32.5702 42.3264 32.5325C42.3284 32.5221 42.3302 32.513 42.3302 32.506C42.4819 32.3273 42.5318 32.1163 42.5814 31.9066C42.6057 31.8038 42.6299 31.7014 42.666 31.6031C42.6273 31.6031 42.5885 31.6031 42.5885 31.5641C42.2254 31.9672 41.6499 32.1199 41.1032 32.265L41.0516 32.2787H40.8644C40.6771 32.3566 40.4123 32.3566 40.2251 32.2397C40.136 32.193 40.0725 32.1346 40.0039 32.0715C39.9581 32.0293 39.91 31.9851 39.8505 31.9409C39.547 31.7525 39.25 31.6031 38.9142 31.4862C37.9778 31.1874 37.0027 31.0315 36.0277 31.0705C36.2999 30.9207 36.5891 30.8611 36.8821 30.8008C37.0338 30.7695 37.1865 30.7381 37.3385 30.6937C37.4344 30.6655 37.5294 30.6364 37.6239 30.6074C38.1595 30.4432 38.6791 30.2839 39.25 30.317C39.1753 30.2905 39.0796 30.3 38.9915 30.3089C38.9502 30.313 38.9105 30.317 38.8754 30.317C38.4438 30.2848 38.0078 30.3809 37.5528 30.4812C37.4564 30.5025 37.3592 30.5239 37.261 30.5443C37.0829 30.5814 36.9134 30.6347 36.7438 30.688C36.5568 30.7468 36.3695 30.8057 36.1697 30.8431C36.0831 30.873 36.0135 30.9239 35.9458 30.9734C35.8368 31.0532 35.7324 31.1295 35.5692 31.1095V30.9925C35.9437 30.5378 36.3957 30.0896 36.9963 30.0507C37.5768 29.9561 38.1242 30.0235 38.6952 30.0937C38.7911 30.1055 38.8877 30.1174 38.9852 30.1286C39.4533 30.1663 39.8912 30.2707 40.3632 30.3832L40.4123 30.3949C40.5157 30.3949 40.5738 30.4859 40.63 30.574C40.6758 30.6456 40.7203 30.7152 40.7869 30.7327C40.8788 30.7644 40.9707 30.7703 41.0627 30.7762C41.1968 30.7849 41.3308 30.7935 41.4649 30.8821C41.4649 30.8559 41.4605 30.8304 41.4562 30.8051C41.4476 30.7553 41.4392 30.7065 41.4649 30.6548C41.5482 30.571 41.6437 30.5934 41.7378 30.6156C41.8114 30.6329 41.884 30.65 41.9492 30.6158C42.154 30.4887 41.9619 30.2936 41.7697 30.0983C41.677 30.0042 41.5843 29.91 41.5359 29.8233C41.5359 29.7844 41.5747 29.7454 41.5747 29.7454C41.6595 29.8214 41.7385 29.9001 41.8168 29.9781C42.0129 30.1733 42.2047 30.3643 42.4723 30.4989C42.6596 30.5768 43.1116 30.6872 43.0341 30.4599C42.9015 30.1654 42.6749 29.9101 42.4461 29.6523C42.3519 29.5462 42.2573 29.4396 42.1688 29.3297V29.1803C42.1099 29.1803 42.0958 29.1578 42.0782 29.1299C42.0727 29.1211 42.0668 29.1117 42.059 29.1023V28.9529C41.9643 28.9032 41.9431 28.8245 41.9218 28.7454C41.9097 28.7004 41.8975 28.6552 41.8717 28.6151C41.807 28.5102 41.8024 28.3812 41.7976 28.2481C41.7937 28.1422 41.7898 28.0338 41.7555 27.9331C41.678 27.7058 41.6457 27.5174 41.607 27.29C41.5649 27.0574 41.5187 26.8351 41.4734 26.6173C41.3934 26.2331 41.3165 25.8633 41.2712 25.4778C41.2114 24.9266 41.4897 24.4605 41.7742 23.984C41.8586 23.8428 41.9435 23.7006 42.0203 23.5551C42.285 23.1004 42.5821 22.6522 43.0728 22.3469C43.1799 21.9034 43.4713 21.5341 43.7612 21.1666L43.7832 21.1387C44.0693 20.7821 44.5471 20.564 44.8993 20.4034L44.9391 20.3852C45.4621 20.1514 45.9335 20.002 45.94 20.002H20V40.002H38.404C38.8962 39.6451 39.3854 39.42 39.9677 39.152C40.2334 39.0297 40.5185 38.8985 40.8321 38.7418C40.8985 38.7084 40.9774 38.6696 41.065 38.6265C41.5906 38.3679 42.428 37.9558 42.7435 37.644ZM36.9037 34.9457C36.8307 34.9531 36.7533 34.9608 36.7825 34.9022C36.8096 34.7707 36.9442 34.7313 37.0757 34.6928C37.132 34.6763 37.1877 34.66 37.2341 34.6367L37.2554 34.6258L37.2709 34.6175C37.3437 34.5789 37.4328 34.5315 37.4986 34.559C37.543 34.6221 37.598 34.6384 37.6514 34.6542C37.6912 34.666 37.7301 34.6775 37.7631 34.7079C37.6236 34.848 37.4607 34.8618 37.2955 34.8758C37.1858 34.8851 37.0752 34.8945 36.9696 34.941C36.9506 34.941 36.9274 34.9434 36.9037 34.9457ZM31.1906 34.0323C31.1906 34.0713 31.2293 34.1103 31.2293 34.1103C32.1334 33.0904 32.9535 32.22 34.1159 31.499C34.147 31.486 34.1354 31.5023 34.12 31.5239C34.0971 31.5561 34.0657 31.6003 34.1546 31.577C34.5394 31.4892 34.7123 31.1595 34.8804 30.8388C34.9239 30.7559 34.967 30.6735 35.0135 30.5961C35.1898 30.3093 35.4403 30.1255 35.6927 29.9404C35.8747 29.8068 36.0577 29.6725 36.2146 29.4984C36.2146 29.5373 36.2146 29.5763 36.1758 29.6153C36.2146 29.6543 36.2533 29.6543 36.2921 29.6543C36.3602 29.6029 36.4346 29.5816 36.5058 29.5612C36.5967 29.5352 36.6826 29.5106 36.7441 29.4269C36.4471 29.31 36.0661 29.271 35.769 29.3879C34.9812 29.7647 34.3096 30.3688 33.6703 31.0508C33.2828 31.46 32.8825 31.8433 32.3917 32.1096C32.0559 32.7851 31.6814 33.3892 31.1906 34.0323ZM34.3432 31.6165C34.3229 31.6571 34.3027 31.6783 34.2834 31.6984C34.2658 31.7169 34.2489 31.7345 34.2335 31.7654C34.1948 31.8431 34.1561 31.8755 34.0851 31.9143C34.0464 31.9143 34.0077 31.9143 34.0077 31.8755C34.0464 31.7266 34.1561 31.5776 34.3045 31.5388C34.3432 31.5453 34.3432 31.5841 34.3432 31.6165ZM35.9945 37.385C36.0267 37.3525 36.0654 37.3136 36.0848 37.2746C36.1171 37.1966 35.9171 37.2161 35.8848 37.2356C35.8555 37.2592 35.8369 37.2828 35.8144 37.3112L35.8074 37.3201C35.7805 37.351 35.749 37.3797 35.717 37.4088C35.6953 37.4285 35.6734 37.4485 35.6526 37.4695C35.5622 37.5604 35.4719 37.6513 35.3751 37.7358C35.3106 37.7942 35.5171 37.8202 35.5622 37.7813C35.6138 37.7423 35.659 37.6968 35.7042 37.6513C35.7214 37.6513 35.7386 37.6485 35.75 37.6465L35.7579 37.6453L35.7622 37.6448C35.8692 37.609 35.9488 37.5345 36.0262 37.4621L36.0461 37.4435C36.0719 37.4175 36.0396 37.3915 35.9945 37.385ZM35.4106 36.9626C35.4099 36.9627 35.4094 36.9629 35.409 36.9633C35.4082 36.9641 35.4082 36.9657 35.4082 36.969C35.3686 36.9961 35.3295 37.0238 35.2905 37.0514C35.1895 37.1228 35.0891 37.1939 34.982 37.2548C34.8796 37.3125 34.7746 37.3623 34.6686 37.4126C34.6075 37.4416 34.5462 37.4708 34.4848 37.5016C34.4848 37.5016 34.4848 37.4951 34.4783 37.4951C34.4654 37.4756 34.4396 37.4691 34.4138 37.4821C34.2717 37.5601 34.149 37.664 34.0392 37.7744C34.0199 37.7874 34.0005 37.8069 33.9876 37.8264L33.9294 37.8849V37.8914C33.9036 37.9173 33.8778 37.9433 33.8455 37.9823C33.8388 37.989 33.8336 37.9958 33.8287 38.0023C33.8193 38.0145 33.8107 38.0258 33.7938 38.0343C33.768 38.0472 33.7034 38.0472 33.7099 38.0083V38.0018C33.6905 38.0148 33.6647 38.0278 33.6453 38.0343C33.6356 38.0408 33.6259 38.0456 33.6163 38.0505C33.6066 38.0554 33.5969 38.0602 33.5872 38.0667C33.5807 38.0602 33.5678 38.0602 33.5614 38.0602C33.5549 38.0602 33.542 38.0602 33.5355 38.0667C33.5205 38.0797 33.5054 38.092 33.4903 38.1043C33.4602 38.1288 33.4301 38.1533 33.3999 38.1837C33.3224 38.2551 33.2514 38.3331 33.1804 38.4175C33.1804 38.4175 33.1804 38.424 33.1739 38.424C33.1739 38.4272 33.1723 38.4289 33.1707 38.4305C33.1691 38.4321 33.1675 38.4337 33.1675 38.437L33.1545 38.45C33.1521 38.4525 33.1505 38.4549 33.1492 38.4571C33.1471 38.4605 33.1456 38.463 33.1416 38.463L33.1352 38.4695C33.1287 38.4825 33.1223 38.4954 33.1093 38.5084C33.1029 38.5149 33.09 38.5214 33.0771 38.5214C33.0706 38.5149 33.0641 38.5084 33.0641 38.5019C33.0609 38.4987 33.0593 38.4954 33.0577 38.4922C33.0561 38.4889 33.0544 38.4857 33.0512 38.4825C33.0448 38.4727 33.0399 38.463 33.0351 38.4532C33.0302 38.4435 33.0254 38.4337 33.0189 38.424V38.4175C33.0189 38.4142 33.0173 38.411 33.0157 38.4078C33.0141 38.4045 33.0125 38.4013 33.0125 38.398L33.1287 38.2616L33.1352 38.2551C33.1416 38.2486 33.1481 38.2405 33.1545 38.2324C33.161 38.2243 33.1675 38.2161 33.1739 38.2096C33.1836 38.1966 33.1949 38.1837 33.2062 38.1707C33.2175 38.1577 33.2288 38.1447 33.2385 38.1317C33.2417 38.1252 33.2449 38.1203 33.2482 38.1155C33.2514 38.1106 33.2546 38.1057 33.2579 38.0992C33.2966 38.0472 33.3354 37.9953 33.3741 37.9368V37.9303C33.3806 37.9238 33.387 37.9173 33.387 37.9043C33.4064 37.8784 33.4258 37.8524 33.4387 37.8264L33.4774 37.7484V37.742L33.4839 37.7355C33.4839 37.7322 33.4855 37.7306 33.4871 37.729C33.4887 37.7273 33.4903 37.7257 33.4903 37.7225C33.4968 37.7062 33.5032 37.6916 33.5097 37.677C33.5161 37.6624 33.5226 37.6478 33.5291 37.6315V37.625L33.5355 37.599C33.5388 37.5926 33.5404 37.5861 33.542 37.5796C33.5436 37.5731 33.5452 37.5666 33.5485 37.5601V37.5536C33.5517 37.5438 33.5533 37.5341 33.5549 37.5243C33.5565 37.5146 33.5581 37.5049 33.5614 37.4951C33.5614 37.4886 33.5614 37.4756 33.5549 37.4691C33.5937 37.3977 33.6453 37.3327 33.7034 37.2678C33.7002 37.2678 33.697 37.2694 33.6937 37.271C33.6919 37.272 33.69 37.2729 33.6882 37.2735C33.6868 37.274 33.6854 37.2743 33.6841 37.2743C33.6553 37.2923 33.6306 37.3164 33.6054 37.341C33.5853 37.3605 33.5649 37.3804 33.542 37.3977C33.5032 37.4302 33.4258 37.3782 33.4774 37.3392C33.5097 37.3132 33.5355 37.2873 33.5613 37.2613C33.5613 37.2613 33.5614 37.2548 33.5678 37.2548C33.5936 37.2315 33.6183 37.2051 33.6432 37.1785C33.6808 37.1383 33.7188 37.0976 33.7615 37.0664C33.8068 37.0339 33.839 37.0079 33.8778 36.9755C33.8842 36.969 33.8907 36.9625 33.8972 36.9625C33.923 36.93 33.9488 36.8975 33.9811 36.865C33.9811 36.865 33.9876 36.865 33.9876 36.8586C34.2093 36.6435 34.5209 36.5676 34.839 36.4901C35.0396 36.4413 35.2428 36.3918 35.4276 36.3064C35.532 36.263 35.6484 36.2801 35.7635 36.297C35.8548 36.3104 35.9453 36.3237 36.0282 36.3064C36.1379 36.3064 36.2542 36.3064 36.3639 36.3844C36.1086 36.5203 35.8649 36.6758 35.6238 36.8297C35.554 36.8742 35.4843 36.9187 35.4147 36.9625C35.4129 36.9625 35.4116 36.9625 35.4106 36.9626ZM36.2176 34.3152C36.1874 34.3187 36.1678 34.3209 36.1846 34.3378C36.2943 34.4482 36.5204 34.4092 36.6753 34.3248C36.7851 34.2469 36.9014 34.2469 37.0499 34.2469C37.0886 34.2469 37.0886 34.1754 37.0886 34.1364C37.1984 34.1754 37.2759 34.1754 37.3857 34.1754C38.2833 33.987 39.1486 33.7987 39.9751 33.3829C39.1388 32.7367 38.1077 32.4488 37.0978 32.1668C36.9302 32.12 36.7632 32.0734 36.5978 32.0254C36.6342 32.0254 36.6706 32.0375 36.7072 32.0497C36.781 32.0743 36.8559 32.0992 36.9336 32.0254C36.8312 31.9436 36.7171 31.928 36.6041 31.9125C36.5106 31.8997 36.4179 31.887 36.3331 31.837C36.3419 31.837 36.3525 31.839 36.3639 31.8412C36.4026 31.8487 36.4517 31.8582 36.4816 31.798C36.2855 31.6993 36.0893 31.6658 35.8913 31.632C35.7894 31.6146 35.6871 31.5971 35.584 31.5707C35.7713 31.5317 35.8875 31.3823 35.8875 31.1939C35.8875 31.1549 35.81 31.1549 35.7713 31.1549C35.3257 31.3823 35.0222 31.798 34.8349 32.2852C35.0038 32.3846 35.1857 32.3731 35.3641 32.3618C35.4654 32.3553 35.5656 32.349 35.6615 32.3631C35.5768 32.4436 35.4545 32.4654 35.3368 32.4864C35.293 32.4942 35.2498 32.5019 35.2095 32.5125C35.0932 32.5385 34.9835 32.6229 35.0222 32.7009C35.048 32.7334 35.0739 32.7464 35.1062 32.7529C35.0222 32.7788 34.9447 32.8178 34.8737 32.8893C34.98 32.973 35.0896 32.9568 35.1978 32.9409C35.2408 32.9345 35.2835 32.9282 35.3257 32.9282C35.3257 32.9754 35.3567 32.9914 35.3889 33.0081C35.4054 33.0167 35.4223 33.0254 35.4355 33.0387C35.2482 33.1101 35.0997 33.266 35.0609 33.3764C35.0147 33.489 34.9292 33.5621 34.8445 33.6346C34.7874 33.6834 34.7306 33.732 34.6864 33.7922V33.9091C34.5617 34.0197 34.4334 34.1184 34.307 34.2158C34.0472 34.4159 33.7949 34.6103 33.5951 34.8899C33.6338 34.8899 33.6338 34.9289 33.6338 34.9679C33.5981 35.0218 33.5473 35.0591 33.4991 35.0945C33.4427 35.1359 33.3899 35.1747 33.3691 35.2342C33.3691 35.2732 33.3691 35.3121 33.4078 35.3121C33.6448 35.2338 33.8498 35.1019 34.0508 34.9727C34.2332 34.8553 34.4123 34.7401 34.6089 34.6691C34.7696 34.6304 34.9095 34.5575 35.046 34.4865C35.1618 34.4261 35.2752 34.3671 35.3967 34.3313C35.4904 34.3118 35.5937 34.2842 35.697 34.2566C35.8003 34.229 35.9037 34.2014 35.9973 34.1819C35.9973 34.2209 35.9973 34.2598 36.036 34.2598H36.3331C36.3148 34.304 36.2571 34.3106 36.2176 34.3152Z" fill="#000091"/>
<path d="M75 20.002H53.4884C53.4884 20.002 53.5274 20.0085 53.69 20.093C53.8656 20.184 54.0932 20.3075 54.2297 20.3791C54.5094 20.5221 54.776 20.7042 54.9516 20.9837C55.0296 21.0943 55.1401 21.3218 55.0686 21.4714C54.9906 21.66 54.9516 21.9655 54.763 22.0371C54.5354 22.1541 54.2362 22.1541 53.9696 22.1151C53.8201 22.1151 53.6705 22.0761 53.5144 22.0371C54.0802 22.2646 54.6134 22.5312 54.9906 23.0579C55.0296 23.1359 55.1792 23.1684 55.3287 23.1684C55.3677 23.1684 55.3677 23.2464 55.3677 23.2789C55.2897 23.357 55.2182 23.396 55.2572 23.5065H55.3677C55.5563 23.4285 55.5173 23.0514 55.7839 23.1684C55.9725 23.2789 56.0505 23.5455 55.9335 23.7341C55.7839 23.8836 55.6344 24.0007 55.4783 24.1112C55.4393 24.1892 55.4393 24.2997 55.4783 24.3778C55.5888 24.5273 55.6279 24.6769 55.6669 24.8329C55.7839 25.0995 55.8164 25.3986 55.9335 25.6652C56.0831 26.2308 56.2326 26.7965 56.2001 27.3687C56.2001 27.6678 56.0505 27.9343 56.1611 28.2399C56.2391 28.539 56.4277 28.7666 56.5773 29.0332C56.7268 29.2607 56.8764 29.4103 56.9935 29.6378C57.2211 30.015 57.6373 30.3921 57.4487 30.8472C57.3381 31.1138 56.9219 31.0748 56.6553 31.2243C56.4277 31.4129 56.6163 31.7185 56.7334 31.907C56.9219 32.2451 56.5057 32.4727 56.2391 32.5897C56.3172 32.7068 56.4667 32.6678 56.5057 32.7393C56.5448 32.9278 56.7334 33.0384 56.6163 33.2334C56.4667 33.461 56.0115 33.5715 56.2391 33.9161C56.3887 34.1827 56.2912 34.4753 56.2001 34.7484C56.0896 35.0865 55.7839 35.236 55.5173 35.314C55.2897 35.3921 55.0231 35.3921 54.802 35.3531C54.724 35.314 54.6524 35.275 54.5744 35.275C53.9306 35.197 53.2868 35.015 52.6495 35.015C52.461 35.054 52.2724 35.0865 52.1228 35.1645C51.9537 35.288 51.7977 35.4246 51.6676 35.5676C51.6676 35.5676 51.6676 35.5676 51.6611 35.5741C51.6351 35.6066 51.6026 35.6326 51.5766 35.6652C51.5636 35.6847 51.544 35.7042 51.531 35.7237C51.518 35.7367 51.5115 35.7497 51.4985 35.7627C51.388 35.8992 51.2904 36.0488 51.1994 36.1983C51.1929 36.2113 51.1864 36.2178 51.1799 36.2243C51.1734 36.2438 51.1604 36.2568 51.1474 36.2763C51.0238 36.5039 50.9328 36.738 50.8612 36.972C50.6011 37.8368 50.7182 38.578 50.9003 38.7601C50.9523 38.8121 52.1488 39.1827 52.9812 39.5533C53.3714 39.7289 53.6445 39.8589 53.8721 40.002H74.9935V20.002H75Z" fill="#E1000F"/>
<path d="M54.7665 27.2965C54.9161 27.3355 55.1437 27.3355 55.1437 27.4134C55.0657 27.7121 54.6169 27.79 54.3892 28.0952H54.2722C54.1616 28.1731 54.1941 28.3614 54.0835 28.3614C53.973 28.3225 53.8559 28.3614 53.7453 28.4004C53.8949 28.5497 54.0835 28.6666 54.3112 28.6277C54.3502 28.6277 54.4218 28.7056 54.4218 28.777C54.4218 28.777 54.4608 28.777 54.4998 28.738C54.5388 28.738 54.5779 28.738 54.5779 28.777V28.9264C54.4673 29.0757 54.2722 29.0043 54.1226 29.0367C54.4283 29.1147 54.7275 29.1147 54.9941 29.0367C55.2218 28.9588 54.9941 28.5822 55.1437 28.3939C55.0657 28.3939 55.1437 28.277 55.0657 28.277C55.1437 28.1991 55.2153 28.0887 55.2933 28.0497C55.3714 28.0497 55.4819 28.0108 55.521 27.9329C55.521 27.8549 55.3714 27.8225 55.4039 27.7445C55.6315 27.5952 55.8202 27.3679 55.7421 27.1407C55.7031 27.0238 55.4039 27.0238 55.2153 26.9523C55.0267 26.8809 54.799 26.9523 54.5714 26.9913C54.3827 26.9913 54.1941 27.1082 54.0055 27.1407C53.7388 27.2186 53.5112 27.3679 53.29 27.5173C53.5567 27.4069 53.8169 27.3679 54.1226 27.29C54.3502 27.2965 54.5388 27.2445 54.7665 27.2965Z" fill="#808080"/>
<path d="M22.06 65.002H24.9V54.962L28.02 60.202H30.02L33.14 54.962V65.002H35.98V51.002H32.44L29.02 56.882L25.6 51.002H22.06V65.002ZM40.1873 65.002H43.0273V51.002H40.1873V65.002ZM47.2405 65.002H50.0805V54.882L56.3405 65.002H59.9805V51.002H57.1405V61.122L50.8805 51.002H47.2405V65.002ZM64.1959 65.002H67.0359V51.002H64.1959V65.002ZM69.9891 63.062C71.2291 64.542 72.8091 65.402 75.1691 65.402C77.7491 65.402 79.7891 63.822 79.8291 61.182C79.8291 56.382 73.4691 57.102 73.4691 54.562C73.4691 53.722 74.1291 53.082 75.1291 53.082C76.1891 53.082 77.1091 53.782 77.9291 54.842L80.0091 52.962C78.8091 51.542 77.2091 50.602 75.1091 50.602C72.4291 50.602 70.5891 52.442 70.5891 54.662C70.5891 59.402 76.9491 58.702 76.9491 61.282C76.9491 62.282 76.2691 62.882 75.1491 62.882C74.0091 62.882 72.8891 62.242 72.0491 61.162L69.9891 63.062ZM81.5692 53.582H85.8892V65.002H88.7292V53.582H93.0492V51.002H81.5692V53.582ZM98.6636 49.802H101.264L99.0036 47.102H96.0836L98.6636 49.802ZM95.8436 65.002H104.004V62.642H98.6836V59.042H103.204V56.682H98.6836V53.362H104.004V51.002H95.8436V65.002ZM107.604 65.002H110.444V59.342H111.904L115.644 65.002H118.984L114.604 58.802C116.044 58.142 116.864 56.882 116.864 55.182C116.864 52.582 114.964 51.002 111.884 51.002H107.604V65.002ZM112.044 53.362C113.244 53.362 113.944 54.082 113.944 55.142C113.944 56.282 113.244 56.982 112.044 56.982H110.444V53.362H112.044ZM121.083 65.002H129.243V62.642H123.923V59.042H128.443V56.682H123.923V53.362H129.243V51.002H121.083V65.002ZM28.3 83.742C25.66 83.742 23.78 81.682 23.78 79.002C23.78 76.322 25.66 74.262 28.3 74.262C29.9 74.262 31.16 75.042 31.96 76.182L34.2 74.442C32.92 72.742 30.84 71.602 28.3 71.602C23.88 71.602 20.86 75.002 20.86 79.002C20.86 83.002 23.88 86.402 28.3 86.402C30.84 86.402 32.92 85.282 34.2 83.542L31.96 81.822C31.16 82.962 29.9 83.742 28.3 83.742ZM36.9647 86.002H39.8047V80.162H46.8647V86.002H49.7047V72.002H46.8647V77.582H39.8047V72.002H36.9647V86.002ZM52.1602 86.002H55.1802L56.5202 82.362H62.1202L63.4602 86.002H66.4802L61.1802 72.002H57.4602L52.1602 86.002ZM57.4002 79.942L59.3202 74.682L61.2402 79.942H57.4002ZM68.942 86.002H71.782V80.342H73.242L76.982 86.002H80.322L75.942 79.802C77.382 79.142 78.202 77.882 78.202 76.182C78.202 73.582 76.302 72.002 73.222 72.002H68.942V86.002ZM73.382 74.362C74.582 74.362 75.282 75.082 75.282 76.142C75.282 77.282 74.582 77.982 73.382 77.982H71.782V74.362H73.382ZM88.6461 83.742C85.9061 83.742 83.9261 81.682 83.9261 79.002C83.9261 76.322 85.8061 74.262 88.4461 74.262C90.0461 74.262 91.3061 75.042 92.1061 76.182L94.3461 74.442C93.0661 72.742 90.9861 71.602 88.4461 71.602C84.0261 71.602 81.0061 75.002 81.0061 79.002C81.0061 83.002 84.1061 86.402 88.6461 86.402C91.2661 86.402 93.4461 85.282 94.7461 83.542V77.662H88.3461V80.082H91.9061V82.522C91.1061 83.282 89.9661 83.742 88.6461 83.742ZM103.545 70.802L106.145 68.102H103.225L100.965 70.802H103.545ZM98.2045 86.002H106.365V83.642H101.045V80.042H105.565V77.682H101.045V74.362H106.365V72.002H98.2045V86.002ZM115.455 86.002H120.955C125.395 86.002 128.395 82.782 128.395 79.002C128.395 75.222 125.395 72.002 120.955 72.002H115.455V86.002ZM120.995 74.582C123.595 74.582 125.475 76.502 125.475 79.002C125.475 81.482 123.595 83.422 120.995 83.422H118.295V74.582H120.995ZM131.434 86.002H139.594V83.642H134.274V80.042H138.794V77.682H134.274V74.362H139.594V72.002H131.434V86.002ZM141.934 84.062C143.174 85.542 144.754 86.402 147.114 86.402C149.694 86.402 151.734 84.822 151.774 82.182C151.774 77.382 145.414 78.102 145.414 75.562C145.414 74.722 146.074 74.082 147.074 74.082C148.134 74.082 149.054 74.782 149.874 75.842L151.954 73.962C150.754 72.542 149.154 71.602 147.054 71.602C144.374 71.602 142.534 73.442 142.534 75.662C142.534 80.402 148.894 79.702 148.894 82.282C148.894 83.282 148.214 83.882 147.094 83.882C145.954 83.882 144.834 83.242 143.994 82.162L141.934 84.062ZM20.62 95.582H24.94V107.002H27.78V95.582H32.1V93.002H20.62V95.582ZM34.8944 107.002H37.7344V101.342H39.1944L42.9344 107.002H46.2744L41.8944 100.802C43.3344 100.142 44.1544 98.882 44.1544 97.182C44.1544 94.582 42.2544 93.002 39.1744 93.002H34.8944V107.002ZM39.3344 95.362C40.5344 95.362 41.2344 96.082 41.2344 97.142C41.2344 98.282 40.5344 98.982 39.3344 98.982H37.7344V95.362H39.3344ZM47.2188 107.002H50.2388L51.5788 103.362H57.1788L58.5188 107.002H61.5388L56.2388 93.002H52.5188L47.2188 107.002ZM52.4588 100.942L54.3788 95.682L56.2988 100.942H52.4588ZM64.0006 107.002H66.8406V96.882L73.1006 107.002H76.7406V93.002H73.9006V103.122L67.6406 93.002H64.0006V107.002ZM79.6961 105.062C80.9361 106.542 82.5161 107.402 84.8761 107.402C87.4561 107.402 89.4961 105.822 89.5361 103.182C89.5361 98.382 83.1761 99.102 83.1761 96.562C83.1761 95.722 83.8361 95.082 84.8361 95.082C85.8961 95.082 86.8161 95.782 87.6361 96.842L89.7161 94.962C88.5161 93.542 86.9161 92.602 84.8161 92.602C82.1361 92.602 80.2961 94.442 80.2961 96.662C80.2961 101.402 86.6561 100.702 86.6561 103.282C86.6561 104.282 85.9761 104.882 84.8561 104.882C83.7161 104.882 82.5961 104.242 81.7561 103.162L79.6961 105.062ZM92.8139 107.002H95.6539V101.342H97.4339C100.514 101.342 102.394 99.762 102.394 97.182C102.394 94.582 100.514 93.002 97.4339 93.002H92.8139V107.002ZM97.5539 95.362C98.7539 95.362 99.4739 96.082 99.4739 97.142C99.4739 98.282 98.7539 98.982 97.5539 98.982H95.6539V95.362H97.5539ZM111.576 92.602C107.156 92.602 104.136 96.002 104.136 100.002C104.136 104.002 107.156 107.402 111.576 107.402C115.976 107.402 118.996 104.002 118.996 100.002C118.996 96.002 115.976 92.602 111.576 92.602ZM111.576 104.742C108.936 104.742 107.056 102.682 107.056 100.002C107.056 97.322 108.936 95.262 111.576 95.262C114.196 95.262 116.076 97.322 116.076 100.002C116.076 102.682 114.196 104.742 111.576 104.742ZM122.018 107.002H124.858V101.342H126.318L130.058 107.002H133.398L129.018 100.802C130.458 100.142 131.278 98.882 131.278 97.182C131.278 94.582 129.378 93.002 126.298 93.002H122.018V107.002ZM126.458 95.362C127.658 95.362 128.358 96.082 128.358 97.142C128.358 98.282 127.658 98.982 126.458 98.982H124.858V95.362H126.458ZM133.432 95.582H137.752V107.002H140.592V95.582H144.912V93.002H133.432V95.582ZM146.153 105.062C147.393 106.542 148.973 107.402 151.333 107.402C153.913 107.402 155.953 105.822 155.993 103.182C155.993 98.382 149.633 99.102 149.633 96.562C149.633 95.722 150.293 95.082 151.293 95.082C152.353 95.082 153.273 95.782 154.093 96.842L156.173 94.962C154.973 93.542 153.373 92.602 151.273 92.602C148.593 92.602 146.753 94.442 146.753 96.662C146.753 101.402 153.113 100.702 153.113 103.282C153.113 104.282 152.433 104.882 151.313 104.882C150.173 104.882 149.053 104.242 148.213 103.162L146.153 105.062Z" fill="#1E1E1E"/>
<path fill-rule="evenodd" clip-rule="evenodd" d="M71.96 142.703L70.1 144.403H69.62L70.72 142.463H71.96V142.703ZM70.62 149.282H70.22C69.72 149.882 69.16 150.362 68.62 150.362C68.06 150.362 67.78 150.022 67.78 149.282C67.78 148.982 67.82 148.662 67.88 148.382L71.14 147.302C71.78 145.782 71.02 145.122 70.12 145.122C68.58 145.122 66.82 147.822 66.82 149.982C66.82 151.002 67.3 151.562 68.06 151.562C68.94 151.542 69.86 150.682 70.62 149.282ZM69.5012 146.003C69.9412 146.003 70.3213 146.343 70.1213 147.123L68.1012 147.662C68.4212 146.703 69.0212 146.003 69.5012 146.003ZM63.1421 146.042H64.2221L62.5021 150.762C62.3421 151.162 62.5621 151.562 62.9821 151.562C64.2021 151.562 65.6621 150.522 66.2221 149.042H65.9221C65.4821 149.662 64.5221 150.342 63.8021 150.462L65.3821 146.042H67.0021L67.2021 145.362H65.6221L66.2221 143.662H65.6021L64.4821 145.362L63.1421 145.542V146.042ZM61.6409 145.143C61.8609 145.143 62.161 145.383 62.021 145.823L60.0809 150.523C60.5809 150.443 61.1009 149.963 61.4009 149.523H61.7209C61.2609 150.703 60.2209 151.563 59.3209 151.563C59.1009 151.563 58.7809 151.323 58.9409 150.883L60.7409 146.183C60.2409 146.263 59.7209 146.743 59.4209 147.183H59.1209C59.5809 145.983 60.7009 145.143 61.6409 145.143ZM62.2023 143.943C62.6023 143.943 62.9423 143.623 62.9423 143.203C62.9423 142.803 62.6023 142.463 62.2023 142.463C61.7823 142.463 61.4623 142.803 61.4623 143.203C61.4623 143.603 61.8023 143.943 62.2023 143.943ZM53.4619 147.843C53.9019 146.883 53.7419 146.443 53.4619 146.443C53.2219 146.443 52.9418 146.703 52.6618 147.183H52.3618C52.8218 146.163 53.4219 145.143 54.0819 145.143C54.6419 145.143 54.8419 145.703 54.8419 146.323V147.203C54.9319 147.098 55.0195 146.996 55.1051 146.895L55.1067 146.893L55.108 146.892C55.9529 145.9 56.5981 145.143 57.3419 145.143C57.9219 145.143 58.2219 145.503 58.2219 146.043C58.2219 146.363 58.1219 146.763 57.9019 147.183L56.2419 150.523C56.7419 150.443 57.2619 149.963 57.5619 149.523H57.8619C57.4019 150.723 56.2819 151.563 55.3419 151.563C54.9219 151.563 54.6819 151.123 54.8619 150.763L56.7819 147.063C57.0019 146.643 57.0419 146.363 56.7019 146.363C56.2419 146.363 55.1619 147.123 54.5819 147.823L53.3219 151.143C53.1819 151.483 53.0419 151.563 52.7218 151.563C52.2018 151.563 51.9418 151.223 52.1818 150.683L53.4619 147.843ZM52.1604 146.562C52.3804 145.802 52.2604 145.122 51.6803 145.122C50.957 145.122 50.7305 145.6 50.0296 147.078L49.9803 147.182V146.302C49.9803 145.682 49.7803 145.122 49.2203 145.122C48.5603 145.122 47.9603 146.142 47.5003 147.162H47.8003C48.1203 146.702 48.4203 146.422 48.6603 146.422C48.9403 146.422 49.1003 146.862 48.6603 147.822L47.3803 150.662C47.1403 151.202 47.4003 151.542 47.9203 151.542C48.2403 151.542 48.3803 151.462 48.5203 151.122L49.7803 147.802C50.1403 147.362 50.4603 146.982 50.8603 146.562H52.1604ZM45.8407 147.123C46.0407 146.343 45.6607 146.003 45.2207 146.003C44.7407 146.003 44.1407 146.703 43.8207 147.662L45.8407 147.123ZM46.3395 149.282H45.9395C45.4395 149.882 44.8795 150.362 44.3394 150.362C43.7794 150.362 43.4994 150.022 43.4994 149.282C43.4994 148.982 43.5394 148.662 43.5994 148.382L46.8595 147.302C47.4995 145.782 46.7395 145.122 45.8395 145.122C44.2994 145.122 42.5394 147.822 42.5394 149.982C42.5394 151.002 43.0194 151.562 43.7794 151.562C44.6595 151.542 45.5795 150.682 46.3395 149.282ZM39.9415 146.042H38.8615V145.542L40.2016 145.362L41.3216 143.662H41.9416L41.3416 145.362H42.9216L42.7216 146.042H41.1016L39.5215 150.462C40.2416 150.342 41.2016 149.662 41.6416 149.042H41.9416C41.3816 150.522 39.9215 151.562 38.7015 151.562C38.2815 151.562 38.0615 151.162 38.2215 150.762L39.9415 146.042ZM33.1424 149.702C33.1424 148.242 34.7625 146.283 35.6625 146.283C35.8625 146.283 36.0625 146.303 36.2225 146.363L35.2825 148.882C34.7425 149.542 33.9025 150.342 33.5024 150.342C33.2824 150.342 33.1424 150.142 33.1424 149.702ZM37.603 144.823L38.103 144.863L36.363 148.862C35.943 149.822 36.123 150.262 36.363 150.262C36.603 150.262 36.903 149.982 37.223 149.522H37.523C37.063 150.542 36.463 151.562 35.803 151.562C35.243 151.562 34.903 150.962 35.003 149.882L35.043 149.502L34.9341 149.655C34.2176 150.656 33.5693 151.562 32.9029 151.562C32.3229 151.562 32.0229 151.202 32.0229 150.662C32.0229 148.342 34.563 145.383 36.943 145.383H37.043L37.603 144.823ZM33.0217 146.562C33.2417 145.802 33.1217 145.122 32.5417 145.122C31.8183 145.122 31.5918 145.6 30.8909 147.078L30.8417 147.182V146.302C30.8417 145.682 30.6417 145.122 30.0816 145.122C29.4216 145.122 28.8216 146.142 28.3616 147.162H28.6616C28.9816 146.702 29.2816 146.422 29.5016 146.422C29.7816 146.422 29.9416 146.862 29.5016 147.822L28.2216 150.682C27.9816 151.222 28.2416 151.562 28.7616 151.562C29.0816 151.562 29.2216 151.482 29.3616 151.142L30.6217 147.822C30.9817 147.382 31.3017 147.002 31.7017 146.582H33.0217V146.562ZM24.7801 150.961L24.6601 151.321H20L20.12 150.941C21.56 150.681 21.8 150.561 22.4 148.941L23.7001 145.461C24.2801 143.841 24.1601 143.721 22.9 143.461L23.02 143.101H29.0801L28.7201 145.041H28.2801C28.2801 143.881 28.1601 143.581 27.0601 143.581H26.7801C25.7001 143.581 25.5601 143.741 25.2601 144.581L24.4001 146.921H25.6601C26.5001 146.921 26.8201 146.401 27.2001 145.721H27.6401L26.6001 148.561H26.1601C26.2601 147.701 26.2601 147.361 25.4801 147.361H24.2201L23.6401 148.961C23.0131 150.626 23.1923 150.66 24.6852 150.943C24.7163 150.948 24.7479 150.954 24.7801 150.961Z" fill="black"/>
<path fill-rule="evenodd" clip-rule="evenodd" d="M28.7397 127.402L26.8797 128.742V128.762H26.3997L27.4997 127.162H28.7397V127.402ZM41.7415 136.782L44.7214 128.862L44.6214 128.742L42.5615 128.982V129.222L42.9615 129.522C43.3029 129.788 43.2125 130.035 42.9292 130.811L42.8815 130.942L40.6015 137.022C40.4215 137.382 40.6615 137.822 41.0815 137.822C42.0215 137.822 43.0215 136.962 43.4815 135.782H43.1815C42.8615 136.222 42.2215 136.702 41.7415 136.782ZM55.4 130.682L57.26 128.982V128.742H56.02L54.92 130.682H55.4ZM55.5187 135.542H55.9187C55.1787 136.962 54.2587 137.822 53.3787 137.822C52.6187 137.822 52.1387 137.262 52.1387 136.242C52.1387 134.082 53.8987 131.382 55.4387 131.382C56.3187 131.382 57.0987 132.042 56.4587 133.562L53.1787 134.642C53.1187 134.922 53.0787 135.242 53.0787 135.542C53.0787 136.282 53.3587 136.622 53.9187 136.622C54.4587 136.622 55.0187 136.142 55.5187 135.542ZM55.4177 133.382C55.6177 132.622 55.2377 132.282 54.7977 132.282C54.3377 132.282 53.7377 132.982 53.3977 133.922L55.4177 133.382ZM49.5377 132.321H48.4577V131.821L49.7977 131.641L50.9177 129.941H51.5377L50.9377 131.641H52.5177L52.3177 132.321H50.6977L49.1177 136.741C49.8377 136.621 50.7977 135.941 51.2377 135.321H51.5377C50.9777 136.801 49.5177 137.841 48.2977 137.841C47.8777 137.841 47.6577 137.441 47.8177 137.041L49.5377 132.321ZM47.3376 132.081C47.4576 131.641 47.1776 131.401 46.9376 131.401C45.9976 131.401 44.8776 132.261 44.4176 133.441H44.7176C45.0176 133.001 45.5376 132.521 46.0376 132.441L44.2376 137.141C44.0776 137.581 44.3976 137.821 44.6176 137.821C45.5176 137.821 46.5576 136.961 47.0176 135.781H46.7176C46.4176 136.221 45.8976 136.701 45.3976 136.781L47.3376 132.081ZM48.2591 129.482C48.2591 129.882 47.9191 130.222 47.5191 130.222C47.1191 130.222 46.7791 129.882 46.7791 129.482C46.7791 129.082 47.0991 128.742 47.5191 128.742C47.9191 128.742 48.2591 129.082 48.2591 129.482ZM38.1612 132.562C37.2612 132.562 35.6412 134.522 35.6412 135.982C35.6412 136.422 35.7812 136.622 36.0212 136.622C36.4012 136.622 37.2412 135.822 37.7812 135.162L38.7212 132.642C38.5412 132.582 38.3612 132.562 38.1612 132.562ZM40.6017 131.142L40.1017 131.102L39.5417 131.662H39.4417C37.0617 131.662 34.5217 134.622 34.5217 136.942C34.5217 137.482 34.8217 137.842 35.4017 137.842C36.0681 137.842 36.7164 136.936 37.4328 135.934L37.5417 135.782L37.5017 136.162C37.4017 137.242 37.7417 137.842 38.3017 137.842C38.9617 137.842 39.5617 136.822 40.0217 135.802H39.7217C39.4017 136.262 39.1017 136.542 38.8617 136.542C38.6217 136.542 38.4417 136.102 38.8617 135.142L40.6017 131.142ZM30.5206 137.622C29.6606 137.962 29.0606 138.362 29.0606 138.982C29.0606 139.562 29.6006 139.802 30.7206 139.802C32.2206 139.802 33.0406 139.362 33.0406 138.782C33.0406 138.522 32.7006 138.402 31.8006 138.102C31.2206 137.922 30.8006 137.762 30.5206 137.622ZM31.5193 135.162C31.1193 135.162 30.9793 134.822 30.9793 134.462C30.9793 133.302 31.5393 131.862 32.4393 131.862C32.8393 131.862 32.9793 132.202 32.9793 132.562C32.9593 133.742 32.3993 135.162 31.5193 135.162ZM32.2813 137.042C33.3813 137.382 34.0613 137.642 34.0613 138.402C34.0613 139.382 32.2613 140.542 30.0813 140.522C28.8213 140.522 27.7413 140.182 27.7413 139.362C27.7413 138.582 28.4613 137.942 30.2213 137.422C29.9813 137.262 29.8813 137.062 29.8813 136.782C29.8813 136.302 30.3213 135.922 31.0813 135.562C30.3413 135.462 29.8613 134.902 29.8613 134.082C29.8613 132.822 30.9013 131.382 32.5413 131.382C32.8813 131.382 33.1813 131.462 33.4213 131.622H35.2213L35.0213 132.302H33.9613C34.0213 132.482 34.0613 132.682 34.0613 132.902C34.0613 134.122 33.0813 135.522 31.5213 135.602C31.1213 135.822 30.9213 136.122 30.9213 136.362C30.9213 136.644 31.2485 136.74 31.9715 136.951C32.0677 136.979 32.1709 137.009 32.2813 137.042ZM25.94 133.622C26.72 133.622 26.74 133.962 26.62 134.822H27.06L28.1 131.982H27.66C27.28 132.662 26.96 133.182 26.12 133.182H24.4L25.24 130.842C25.54 130.002 25.68 129.842 26.76 129.842H27.52C28.62 129.842 28.74 130.142 28.74 131.302H29.18L29.54 129.362H23.02L22.9 129.722C24.16 129.982 24.28 130.102 23.7 131.722L22.4 135.222C21.8 136.842 21.56 136.962 20.1 137.222L20 137.602H27.24L28.54 135.542H28.04C27.2 136.362 26.36 137.122 24.72 137.122C22.9161 137.122 22.9482 137.034 23.4895 135.547C23.5243 135.451 23.5613 135.35 23.6 135.242L24.2 133.642H25.94V133.622Z" fill="black"/>
<path fill-rule="evenodd" clip-rule="evenodd" d="M31.9182 116.482C32.3182 116.482 32.6582 116.142 32.6582 115.742C32.6582 115.342 32.3182 115.002 31.9182 115.002C31.4982 115.002 31.1782 115.342 31.1782 115.742C31.1782 116.162 31.4982 116.482 31.9182 116.482ZM37.8403 119.001C37.8403 118.041 37.6003 117.681 36.9203 117.681C36.0803 117.681 35.3003 118.581 34.5203 119.661L36.2003 115.161L36.1003 115.021L34.0403 115.261V115.501L34.4403 115.801C34.7886 116.072 34.6876 116.343 34.391 117.139L34.3603 117.221L32.5403 121.981C32.3803 122.381 32.2003 122.861 32.2003 122.981C32.2003 123.541 32.9603 124.081 33.6603 124.081C35.2203 124.101 37.8403 121.221 37.8403 119.001ZM55.18 116.961L57.04 115.261V115.021H55.8L54.7 116.961H55.18ZM55.3005 121.821H55.7005C54.9405 123.241 54.0205 124.101 53.1405 124.081C52.3805 124.081 51.9005 123.541 51.9005 122.521C51.9005 120.361 53.6605 117.661 55.2005 117.661C56.0805 117.661 56.8605 118.321 56.2205 119.841L52.9605 120.921C52.9005 121.201 52.8605 121.521 52.8605 121.821C52.8605 122.561 53.1405 122.901 53.7005 122.901C54.2405 122.901 54.8005 122.421 55.3005 121.821ZM55.1986 119.661C55.3985 118.901 55.0186 118.561 54.5786 118.561C54.0986 118.561 53.4986 119.261 53.1786 120.201L55.1986 119.661ZM49.2964 118.602H48.2164V118.102L49.5564 117.922L50.6764 116.223H51.2964L50.6964 117.922H52.2764L52.0764 118.602H50.4564L48.8764 123.022C49.5964 122.902 50.5564 122.222 50.9964 121.602H51.2964C50.7364 123.082 49.2764 124.122 48.0564 124.122C47.6364 124.122 47.4164 123.722 47.5764 123.322L49.2964 118.602ZM47.6602 119.122C47.8802 118.362 47.7602 117.682 47.1802 117.682C46.4569 117.682 46.2304 118.16 45.5295 119.638L45.4802 119.742V118.862C45.4802 118.242 45.2802 117.682 44.7202 117.682C44.0603 117.682 43.4603 118.702 43.0003 119.722H43.3003C43.6203 119.262 43.9203 118.982 44.1403 118.982C44.4203 118.982 44.5803 119.422 44.1403 120.382L42.8603 123.222C42.6203 123.762 42.8803 124.102 43.4003 124.102C43.7203 124.102 43.8603 124.022 44.0003 123.682L45.2602 120.362C45.6202 119.922 45.9402 119.542 46.3402 119.122H47.6602ZM41.3208 119.661C41.5208 118.901 41.1408 118.561 40.7008 118.561C40.2208 118.561 39.6408 119.261 39.3008 120.201L41.3208 119.661ZM41.8195 121.821H41.4195C40.9195 122.421 40.3595 122.901 39.8195 122.901C39.2595 122.901 38.9796 122.561 38.9796 121.821C38.9796 121.521 39.0196 121.201 39.0795 120.921L42.3395 119.841C42.9795 118.321 42.2195 117.661 41.3195 117.661C39.7795 117.661 38.0196 120.361 38.0196 122.521C38.0196 123.541 38.4996 124.081 39.2595 124.081C40.1395 124.101 41.0595 123.241 41.8195 121.821ZM33.4211 122.582C33.4211 122.842 33.8811 123.142 34.2011 123.142C35.5011 123.142 36.7211 120.802 36.7011 119.502C36.7011 119.062 36.4811 118.882 36.1811 118.882C35.7011 118.882 34.8211 119.602 34.2611 120.282L33.7411 121.682C33.5611 122.142 33.4211 122.502 33.4211 122.582ZM31.3215 117.682C31.5615 117.682 31.8415 117.922 31.7215 118.362L29.8015 123.062C30.3015 122.982 30.8215 122.502 31.1215 122.062H31.4215C30.9615 123.242 29.9215 124.102 29.0215 124.102C28.7815 124.102 28.4615 123.862 28.6215 123.422L30.4215 118.722C29.9215 118.802 29.4015 119.282 29.1015 119.722H28.8015C29.2615 118.542 30.3815 117.682 31.3215 117.682ZM23.02 115.602H27.3199L27.1999 115.982C25.7399 116.242 25.4999 116.362 24.8999 117.982L23.6199 121.502C23 123.182 23.16 123.382 24.2599 123.382C25.619 123.382 26.5101 122.394 27.2882 121.532C27.346 121.468 27.4032 121.404 27.4599 121.342H27.9599L26.5399 123.862H20L20.12 123.502C21.56 123.242 21.8 123.122 22.4 121.502L23.6999 117.962C24.2799 116.342 24.1599 116.222 22.9 115.962L23.02 115.602Z" fill="black"/>
</svg>
