<svg width="81" height="75" viewBox="0 0 81 75" fill="none" xmlns="http://www.w3.org/2000/svg">
<rect width="80.5851" height="75" fill="white"/>
<g clip-path="url(#clip0)">
<path d="M6.40906 23.8359H8.81158C10.5613 23.8359 11.6319 24.7271 11.6319 26.195C11.6319 27.1386 11.1619 27.8725 10.3784 28.2394L12.8593 31.7518H10.953L8.86381 28.554H8.00204V31.7518H6.40906V23.8359ZM8.00204 25.1989V27.1648H8.91604C9.59502 27.1648 9.98673 26.7978 9.98673 26.1687C9.98673 25.5659 9.59502 25.1989 8.91604 25.1989H8.00204Z" fill="black"/>
<path d="M13.8517 23.8365H18.4478V25.1995H15.4447V27.0343H18.0039V28.3973H15.4447V30.3893H18.4478V31.7523H13.8517V23.8365ZM15.4185 23.155L16.6982 21.6348H18.3434L16.881 23.155H15.4185Z" fill="black"/>
<path d="M20.328 23.8359H22.9394C24.6891 23.8359 25.7337 24.7271 25.7337 26.195C25.7337 27.6628 24.663 28.554 22.9394 28.554H21.9471V31.7518H20.3541L20.328 23.8359ZM21.921 25.1989V27.1648H22.9917C23.6706 27.1648 24.0624 26.7978 24.0624 26.1687C24.0624 25.5659 23.6445 25.1989 22.9917 25.1989H21.921Z" fill="black"/>
<path d="M31.714 23.8359H33.307V28.6588C33.307 30.7557 32.0796 31.9877 30.0949 31.9877C28.1102 31.9877 26.9089 30.7295 26.9089 28.6588V23.8359H28.5019V28.7899C28.5019 29.8645 29.1025 30.4674 30.0949 30.4674C31.0872 30.4674 31.6879 29.8383 31.6879 28.7899V23.8359H31.714Z" fill="black"/>
<path d="M35.2916 23.8359H37.5375C39.1827 23.8359 40.175 24.6485 40.175 25.9853C40.175 26.6143 39.8878 27.1648 39.3394 27.5579C40.175 27.9249 40.6451 28.6064 40.6451 29.4452C40.6451 30.8868 39.5222 31.778 37.7203 31.778H35.3177V23.8359H35.2916ZM36.8846 25.1989V26.9289H37.5636C38.1642 26.9289 38.5298 26.6143 38.5298 26.0639C38.5298 25.5397 38.1903 25.1989 37.5636 25.1989H36.8846ZM36.8846 28.3181V30.3888H37.7986C38.5559 30.3888 38.9999 29.9956 38.9999 29.3403C38.9999 28.685 38.5559 28.3181 37.7986 28.3181H36.8846Z" fill="black"/>
<path d="M42.2903 23.8359H43.8833V30.3101H46.8864V31.778H42.2903V23.8359Z" fill="black"/>
<path d="M48.2966 23.8359H49.8896V31.778H48.2966V23.8359Z" fill="black"/>
<path d="M60.3875 32.3037C60.5442 32.3037 60.7793 32.2775 60.9621 32.2251V33.5881C60.7009 33.6929 60.4659 33.7453 60.1264 33.7453C59.2385 33.7453 58.429 33.3784 57.6455 32.6969L56.7054 31.8581C56.3659 31.9368 56.0003 31.9892 55.6347 31.9892C53.1277 31.9892 51.4303 30.0758 51.4303 27.7954C51.4303 25.5412 53.1277 23.6016 55.6347 23.6016C58.1156 23.6016 59.813 25.515 59.813 27.7954C59.813 29.1321 59.2385 30.3379 58.2462 31.098L58.7162 31.5436C59.343 32.094 59.8914 32.3037 60.3875 32.3037ZM58.1678 27.7954C58.1678 26.2751 57.0971 25.1218 55.6347 25.1218C54.1462 25.1218 53.0755 26.3013 53.0755 27.7954C53.0755 29.3156 54.1462 30.4689 55.6347 30.4689C57.0971 30.4689 58.1678 29.3156 58.1678 27.7954Z" fill="black"/>
<path d="M66.0282 23.8359H67.6212V28.6588C67.6212 30.7557 66.3938 31.9877 64.4091 31.9877C62.4244 31.9877 61.2231 30.7295 61.2231 28.6588V23.8359H62.8161V28.7899C62.8161 29.8645 63.4168 30.4674 64.4091 30.4674C65.4015 30.4674 66.0021 29.8383 66.0021 28.7899L66.0282 23.8359Z" fill="black"/>
<path d="M69.606 23.8359H74.2021V25.1989H71.1989V27.0337H73.7582V28.3967H71.1989V30.3888H74.2021V31.7518H69.606V23.8359Z" fill="black"/>
<path d="M6.40906 35.2637H11.0052V36.6267H8.00204V38.4615H10.5612V39.8244H8.00204V43.1795H6.40906V35.2637Z" fill="black"/>
<path d="M12.4154 35.2637H14.8179C16.5676 35.2637 17.6383 36.1549 17.6383 37.6227C17.6383 38.5663 17.1682 39.3002 16.3848 39.6672L18.8657 43.1795H16.9593L14.8702 39.9817H14.0345V43.1795H12.4415L12.4154 35.2637ZM14.0345 36.6267V38.6187H14.9485C15.6275 38.6187 16.0192 38.2518 16.0192 37.6227C16.0192 37.0198 15.6275 36.6529 14.9485 36.6529L14.0345 36.6267Z" fill="black"/>
<path d="M22.2082 35.2637H24.2974L27.3005 43.2057H25.6031L24.8458 41.135H21.6598L20.9025 43.2057H19.2051L22.2082 35.2637ZM24.3235 39.7458L23.2528 36.7577L22.156 39.7458H24.3235Z" fill="black"/>
<path d="M28.5018 35.2637H30.5649L34.0903 40.9515V35.2637H35.6833V43.2057H33.6203L30.0948 37.5178V43.2057H28.5018V35.2637Z" fill="black"/>
<path d="M43.4916 40.822L44.7451 41.7918C44.1444 42.6306 43.1782 43.2072 42.0292 43.3645L41.0368 45.0158H39.6266L40.619 43.3383C38.5559 42.9713 37.198 41.2414 37.198 39.2231C37.198 36.9689 38.8954 35.0293 41.4024 35.0293C42.8387 35.0293 44.0139 35.6846 44.7189 36.6282L43.4655 37.6242C43.0215 36.9689 42.2903 36.5496 41.4024 36.5496C39.9139 36.5496 38.8432 37.7291 38.8432 39.2231C38.8432 40.7434 39.9139 41.8967 41.4024 41.8967C42.3425 41.8967 43.0476 41.4773 43.4916 40.822Z" fill="black"/>
<path d="M48.0876 35.2637H50.1768L53.1799 43.2057H51.4825L50.7252 41.135H47.5653L46.808 43.2057H45.1106L48.0876 35.2637ZM50.229 39.7458L49.1583 36.7577L48.0876 39.7458H50.229Z" fill="black"/>
<path d="M54.4073 35.2637H56.0003V43.2057H54.4073V35.2637Z" fill="black"/>
<path d="M58.6639 41.0043C59.134 41.6072 59.7607 41.9742 60.4136 41.9742C61.0403 41.9742 61.4321 41.6334 61.4321 41.0568C61.4321 39.6414 57.8283 39.9559 57.8283 37.3085C57.8283 36.0504 58.8467 35.002 60.3614 35.002C61.5365 35.002 62.4505 35.5262 63.1295 36.3387L61.9543 37.3872C61.4843 36.7843 60.962 36.3912 60.3614 36.3912C59.813 36.3912 59.4474 36.7581 59.4474 37.2299C59.4474 38.6453 63.0511 38.3046 63.0511 41.0043C63.025 42.4722 61.876 43.3896 60.4397 43.3896C59.1079 43.3896 58.1939 42.8916 57.5149 42.0528L58.6639 41.0043Z" fill="black"/>
<path d="M64.7487 35.2637H69.3448V36.6267H66.3416V38.4615H68.9009V39.8244H66.3416V41.8165H69.3448V43.1795H64.7487V35.2637Z" fill="black"/>
<path d="M32.1056 65.0933C32.3146 65.0933 32.4974 65.2506 32.419 65.67L31.4267 65.9059C31.6095 65.4341 31.8967 65.0933 32.1056 65.0933ZM32.6802 66.6922H32.4712C32.2101 66.9805 31.949 67.2164 31.6878 67.2164C31.4267 67.2164 31.27 67.0592 31.27 66.6922C31.27 66.5349 31.2961 66.3777 31.3222 66.2466L32.9152 65.7224C33.2286 64.9885 32.863 64.6477 32.419 64.6477C31.6617 64.6477 30.7999 65.9321 30.7999 67.0329C30.7999 67.531 31.035 67.8193 31.4006 67.8193C31.8445 67.8193 32.2884 67.3999 32.6802 66.6922ZM32.3407 64.3594L33.4636 63.3109V63.1799H32.863L32.1579 64.3594H32.3407ZM28.8936 65.0933H29.4159L28.5802 67.4261C28.5019 67.6358 28.6063 67.8193 28.8152 67.8193C29.2853 67.8193 30.0687 67.3475 30.356 66.6922H30.1993C29.9904 66.9281 29.5725 67.2164 29.2331 67.2951L30.0165 65.1195H30.7999L30.9044 64.7788H30.1209L30.4082 63.94H30.0948L29.5464 64.7788L28.8936 64.8836V65.0933ZM28.1624 64.9885C28.2146 64.7788 28.084 64.6477 27.9796 64.6477C27.5095 64.6477 26.9611 65.0671 26.7522 65.6437H26.9089C27.0656 65.4341 27.3267 65.1982 27.5617 65.1457L26.6738 67.4523C26.5955 67.662 26.7522 67.7931 26.8566 67.7931C27.3006 67.7931 27.8229 67.3737 28.0318 66.797H27.8751C27.7184 67.0067 27.4573 67.2426 27.2222 67.2951L28.1624 64.9885ZM28.319 63.8352C28.528 63.8352 28.7108 63.6779 28.7108 63.442C28.7108 63.2323 28.528 63.0488 28.319 63.0488C28.1101 63.0488 27.9273 63.2323 27.9273 63.442C27.9534 63.6517 28.1101 63.8352 28.319 63.8352ZM23.2267 67.3999C23.1223 67.662 23.2267 67.8193 23.4879 67.8193C23.6446 67.8193 23.7229 67.7669 23.7751 67.6096L24.4019 65.9845C24.6891 65.6437 25.2637 65.2506 25.4987 65.2506C25.6554 65.2506 25.6554 65.3816 25.5248 65.5913L24.5847 67.3999C24.4802 67.5834 24.6108 67.7931 24.8197 67.7931C25.2898 67.7931 25.8382 67.3737 26.0471 66.797H25.8904C25.7337 67.0067 25.4726 67.2426 25.2375 67.2951L26.0471 65.6437C26.1516 65.4341 26.2038 65.2244 26.2038 65.0671C26.2038 64.805 26.0471 64.6215 25.786 64.6215C25.3942 64.6215 24.9764 65.0671 24.5063 65.6437V65.2244C24.5063 64.9098 24.4019 64.6477 24.1407 64.6477C23.9579 64.6477 23.8013 64.805 23.6446 65.0147V65.0671C23.9579 65.0409 24.0885 65.5127 23.8535 65.9845L23.2267 67.3999ZM23.2267 65.3554C23.3312 64.9885 23.279 64.6477 22.9917 64.6477C22.6522 64.6477 22.5739 64.9098 22.2083 65.67V65.2506C22.2083 64.936 22.1038 64.6739 21.8427 64.6739C21.5293 64.6739 21.2159 65.1719 21.007 65.67H21.1637C21.3204 65.4341 21.4771 65.303 21.5815 65.303C21.7121 65.303 21.7904 65.5127 21.5815 65.9845L20.9548 67.3737C20.8503 67.6358 20.9548 67.7931 21.2159 67.7931C21.3726 67.7931 21.451 67.7406 21.5032 67.5834L22.1299 65.9583C22.3127 65.7486 22.4694 65.5651 22.6522 65.3554H23.2267ZM19.6491 65.0933C19.858 65.0933 20.0408 65.2506 19.9624 65.67L18.9701 65.9059C19.1268 65.4341 19.4402 65.0933 19.6491 65.0933ZM20.1975 66.6922H19.9886C19.7274 66.9805 19.4663 67.2164 19.2051 67.2164C18.944 67.2164 18.7873 67.0592 18.7873 66.6922C18.7873 66.5349 18.8134 66.3777 18.8395 66.2466L20.4325 65.7224C20.7459 64.9885 20.3803 64.6477 19.9363 64.6477C19.179 64.6477 18.3172 65.9321 18.3172 67.0329C18.3172 67.531 18.5523 67.8193 18.9179 67.8193C19.3879 67.8193 19.8319 67.3999 20.1975 66.6922ZM16.437 65.0933H16.9593L16.1236 67.4261C16.0453 67.6358 16.1497 67.8193 16.3586 67.8193C16.8287 67.8193 17.6121 67.3475 17.8994 66.6922H17.7427C17.5338 66.9281 17.116 67.2164 16.7765 67.2951L17.5599 65.1195H18.3433L18.4478 64.7788H17.6644L17.9516 63.94H17.6383L17.0899 64.7788L16.437 64.8836V65.0933ZM13.5122 66.9019C13.5122 66.1942 14.2956 65.2244 14.7396 65.2244C14.844 65.2244 14.9224 65.2244 15.0007 65.2506L14.5306 66.4825C14.2695 66.797 13.8517 67.2164 13.6689 67.2164C13.5644 67.2164 13.5122 67.1378 13.5122 66.9019ZM15.9408 64.5167L15.7058 64.4904L15.4446 64.7526H15.3924C14.0606 64.7526 12.9377 66.2466 12.9377 67.3213C12.9377 67.6358 13.1205 67.7931 13.4077 67.7931C13.7472 67.7931 14.0867 67.2951 14.4523 66.7708L14.4262 66.9543C14.374 67.4785 14.5306 67.7669 14.8179 67.7669C15.1313 67.7669 15.4446 67.2688 15.6536 66.7708H15.4969C15.3402 67.0067 15.1835 67.1378 15.079 67.1378C14.9485 67.1378 14.8701 66.9281 15.079 66.4563L15.9408 64.5167ZM13.1205 65.3554C13.2249 64.9885 13.1727 64.6477 12.8854 64.6477C12.5459 64.6477 12.4676 64.9098 12.102 65.67V65.2506C12.102 64.936 11.9975 64.6739 11.7364 64.6739C11.423 64.6739 11.1097 65.1719 10.9007 65.67H11.0574C11.2141 65.4341 11.3708 65.303 11.4753 65.303C11.6058 65.303 11.6842 65.5127 11.4753 65.9845L10.8485 67.3737C10.7441 67.6358 10.8485 67.7931 11.1097 67.7931C11.2663 67.7931 11.3447 67.7406 11.3969 67.5834L12.0237 65.9583C12.2065 65.7486 12.3631 65.5651 12.5459 65.3554H13.1205ZM8.68101 67.7144L8.73324 67.531C7.94981 67.3737 7.87146 67.3737 8.15872 66.5349L8.4721 65.67H9.33387C9.72559 65.67 9.72559 65.8272 9.67336 66.2466H9.88227L10.4046 64.8574H10.1956C10.0128 65.1982 9.85616 65.4341 9.43833 65.4341H8.57655L9.0205 64.2021C9.15107 63.809 9.22941 63.7303 9.7517 63.7303H10.1173C10.6657 63.7303 10.7179 63.8876 10.7179 64.4118H10.9269L11.1097 63.4682H7.94981L7.89758 63.6517C8.52433 63.7827 8.57655 63.8352 8.2893 64.6477L7.58421 66.5611C7.29695 67.3475 7.16638 67.4261 6.46129 67.5572L6.40906 67.7406L8.68101 67.7144Z" fill="black"/>
<path d="M24.3497 57.8054C24.5586 57.8054 24.7414 57.9627 24.663 58.3821L23.6707 58.618C23.8535 58.1724 24.1407 57.8054 24.3497 57.8054ZM24.9242 59.4305H24.7153C24.4541 59.7189 24.193 59.9548 23.9318 59.9548C23.6707 59.9548 23.514 59.7975 23.514 59.4305C23.514 59.2733 23.5401 59.116 23.5662 58.9849L25.1592 58.4607C25.4726 57.7268 25.107 57.3861 24.663 57.3861C23.9057 57.3861 23.0439 58.6704 23.0439 59.7713C23.0439 60.2693 23.279 60.5576 23.6446 60.5576C24.0885 60.5576 24.5325 60.112 24.9242 59.4305ZM24.5847 57.0977L25.7076 56.0493V55.9182H25.107L24.4019 57.0977H24.5847ZM21.1376 57.8316H21.6599L20.8242 60.1645C20.7459 60.3741 20.8503 60.5576 21.0592 60.5576C21.5293 60.5576 22.3127 60.0858 22.6 59.4305H22.4433C22.2344 59.6664 21.8166 59.9548 21.4771 60.0334L22.2605 57.8579H23.0439L23.1484 57.5171H22.365L22.6522 56.6783H22.3389L21.7904 57.5171L21.1376 57.622V57.8316ZM20.4064 57.7268C20.4586 57.5171 20.328 57.3861 20.2236 57.3861C19.7535 57.3861 19.2051 57.8054 18.9962 58.3821H19.1529C19.3096 58.1724 19.5707 57.9365 19.8058 57.8841L18.9179 60.1907C18.8395 60.4004 18.9962 60.5314 19.1007 60.5314C19.5446 60.5314 20.0669 60.112 20.2758 59.5354H20.1191C19.9624 59.7451 19.7013 59.981 19.4663 60.0334L20.4064 57.7268ZM20.5631 56.5735C20.772 56.5735 20.9548 56.4162 20.9548 56.1803C20.9548 55.9706 20.772 55.7872 20.5631 55.7872C20.3542 55.7872 20.1714 55.9706 20.1714 56.1803C20.1975 56.39 20.3542 56.5735 20.5631 56.5735ZM17.4816 60.0334L19.1007 55.7872L19.0484 55.7347L18.03 55.8396V55.9706L18.2389 56.1279C18.4217 56.259 18.3695 56.39 18.1867 56.8356L16.9332 60.1645C16.8287 60.3479 16.9593 60.5576 17.1682 60.5576C17.6383 60.5576 18.1344 60.1382 18.3433 59.5616H18.1867C18.03 59.7713 17.7427 60.0072 17.4816 60.0334ZM14.4262 59.6402C14.4262 58.9325 15.2096 57.9627 15.6536 57.9627C15.758 57.9627 15.8364 57.9627 15.9147 57.9889L15.4446 59.2208C15.1835 59.5354 14.7657 59.9548 14.5829 59.9548C14.5045 59.9548 14.4262 59.8499 14.4262 59.6402ZM16.8548 57.255L16.6198 57.2288L16.3587 57.4909H16.3064C14.9746 57.4909 13.8517 58.9849 13.8517 60.0596C13.8517 60.3741 14.0345 60.5314 14.3217 60.5314C14.6612 60.5314 15.0007 60.0334 15.3663 59.5092L15.3402 59.6927C15.288 60.2169 15.4446 60.5052 15.7319 60.5052C16.0453 60.5052 16.3587 60.0072 16.5676 59.5092H16.4109C16.2542 59.7451 16.0975 59.8761 15.993 59.8761C15.8625 59.8761 15.7841 59.6664 15.993 59.1946L16.8548 57.255ZM10.953 61.1081C10.953 60.7935 11.2402 60.61 11.6842 60.4266C11.8147 60.5052 12.0237 60.5838 12.3109 60.6625C12.7549 60.8197 12.9115 60.8722 12.9115 61.0032C12.9115 61.2915 12.4415 61.5012 11.7886 61.5012C11.2402 61.5274 10.953 61.3964 10.953 61.1081ZM12.1542 59.2471C11.9714 59.2471 11.8931 59.0898 11.8931 58.9063C11.8931 58.3821 12.1803 57.622 12.5982 57.622C12.781 57.622 12.8593 57.7792 12.8593 57.9627C12.8854 58.4607 12.5982 59.2471 12.1542 59.2471ZM13.4077 60.8197C13.4077 60.4528 13.0682 60.3217 12.5459 60.1382C12.0759 60.0072 11.867 59.9548 11.867 59.7975C11.867 59.6664 11.9714 59.5354 12.1542 59.4305C12.9115 59.3781 13.4077 58.6966 13.4077 58.12C13.4077 57.9889 13.3816 57.8841 13.3555 57.8054H14.0084L14.1128 57.4647H13.0943C12.9638 57.3861 12.8332 57.3598 12.6765 57.3598C11.867 57.3598 11.3447 58.0675 11.3447 58.6442C11.3447 59.0898 11.6319 59.3519 11.9714 59.4305C11.6058 59.5878 11.3969 59.7975 11.3969 60.0334C11.3969 60.1645 11.4491 60.2693 11.5536 60.3479C10.6918 60.61 10.3523 60.8984 10.3523 61.3178C10.3523 61.7109 10.8746 61.8944 11.5014 61.8944C12.5459 61.8944 13.4077 61.3178 13.4077 60.8197ZM9.35999 58.3297C9.7517 58.3297 9.7517 58.4869 9.69947 58.9063H9.90839L10.4307 57.5171H10.2218C10.039 57.8579 9.88227 58.0938 9.46444 58.0938H8.60267L9.0205 56.9142C9.15107 56.5211 9.22941 56.4424 9.7517 56.4424H10.1173C10.6657 56.4424 10.7179 56.5997 10.7179 57.1239H10.9269L11.1097 56.1803H7.94981L7.89758 56.3638C8.52433 56.4949 8.57655 56.5473 8.2893 57.3598L7.58421 59.2733C7.29695 60.0596 7.16638 60.1382 6.46129 60.2693L6.40906 60.4528H9.96062L10.5874 59.4305H10.3523C9.9345 59.8237 9.43833 60.1907 8.73324 60.1907C7.79312 60.1907 7.87146 60.1382 8.18484 59.2733L8.52433 58.3559L9.35999 58.3297ZM9.83005 55.892L10.953 55.1057V54.9746H10.274L9.64725 55.8658H9.83005V55.892Z" fill="black"/>
<path d="M23.9841 50.5461C24.193 50.5461 24.3758 50.7034 24.2974 51.1228L23.3051 51.3587C23.4618 50.8869 23.749 50.5461 23.9841 50.5461ZM24.5325 52.1712H24.3235C24.0624 52.4596 23.8013 52.6955 23.5401 52.6955C23.279 52.6955 23.1223 52.5382 23.1223 52.1712C23.1223 52.014 23.1484 51.8567 23.1745 51.7256L24.7675 51.2014C25.0809 50.4675 24.7153 50.1267 24.2713 50.1267C23.514 50.1267 22.6522 51.4111 22.6522 52.512C22.6522 53.01 22.8873 53.2983 23.2529 53.2983C23.7229 53.2721 24.1669 52.8527 24.5325 52.1712ZM24.2191 49.8122L25.342 48.7638V48.6327H24.7414L24.0363 49.8122H24.2191ZM20.9026 50.5723H21.3204L20.4847 52.9051C20.4064 53.1148 20.5108 53.2983 20.7198 53.2983C21.1898 53.2983 21.9733 52.8265 22.2605 52.1712H22.1038C21.8949 52.4071 21.4771 52.6955 21.1376 52.7741L21.921 50.5986H22.7045L22.8089 50.2578H22.0255L22.3127 49.419H21.9994L21.451 50.2578L20.9026 50.3626V50.5723ZM20.4847 50.8345C20.5892 50.4675 20.537 50.1267 20.2497 50.1267C19.9102 50.1267 19.8319 50.3889 19.4663 51.149V50.7296C19.4663 50.4151 19.3618 50.153 19.1007 50.153C18.7873 50.153 18.4739 50.651 18.265 51.149H18.3956C18.5523 50.9131 18.7089 50.782 18.8134 50.782C18.944 50.782 19.0223 50.9917 18.8134 51.4635L18.1867 52.8527C18.0822 53.1148 18.1867 53.2721 18.4478 53.2721C18.6045 53.2721 18.6828 53.2197 18.7351 53.0624L19.3618 51.4373C19.5446 51.2276 19.7013 51.0441 19.8841 50.8345H20.4847ZM16.9332 50.5461C17.1421 50.5461 17.3249 50.7034 17.2465 51.1228L16.2542 51.3587C16.4109 50.8869 16.6981 50.5461 16.9332 50.5461ZM17.4816 52.1712H17.2727C17.0115 52.4596 16.7504 52.6955 16.4892 52.6955C16.2281 52.6955 16.0714 52.5382 16.0714 52.1712C16.0714 52.014 16.0975 51.8567 16.1236 51.7256L17.7166 51.2014C18.03 50.4675 17.6644 50.1267 17.2204 50.1267C16.4631 50.1267 15.6013 51.4111 15.6013 52.512C15.6013 53.01 15.8364 53.2983 16.202 53.2983C16.6459 53.2721 17.116 52.8527 17.4816 52.1712ZM13.5383 52.8003C13.3816 52.8003 13.1466 52.643 13.1466 52.5382C13.1466 52.4858 13.2249 52.3285 13.3033 52.0926L13.5644 51.4111C13.8517 51.0704 14.2695 50.7296 14.5045 50.7296C14.6612 50.7296 14.7657 50.8345 14.7657 51.0441C14.7657 51.647 14.1912 52.8003 13.5383 52.8003ZM15.3663 50.7558C15.3663 50.284 15.1835 50.1005 14.8701 50.1005C14.4523 50.1005 14.0867 50.5199 13.695 51.0441L14.6612 48.5016L14.609 48.4492L13.5905 48.5541V48.6851L13.7994 48.8424C13.9822 48.9734 13.93 49.1307 13.7472 49.5501L12.7026 52.2499C12.6243 52.4596 12.5459 52.6692 12.5459 52.7479C12.5459 53.0362 12.9115 53.2983 13.2771 53.2983C14.0606 53.2721 15.3663 51.8567 15.3663 50.7558ZM12.2065 50.4675C12.2587 50.2578 12.1281 50.1267 12.0237 50.1267C11.5536 50.1267 11.0052 50.5461 10.7963 51.1228H10.953C11.1097 50.9131 11.3708 50.6772 11.6058 50.6248L10.7179 52.9314C10.6396 53.141 10.7963 53.2721 10.9007 53.2721C11.3447 53.2721 11.867 52.8527 12.0759 52.2761H11.9192C11.7625 52.4858 11.5014 52.7217 11.2663 52.7741L12.2065 50.4675ZM12.3893 49.288C12.5982 49.288 12.781 49.1307 12.781 48.8948C12.781 48.6851 12.5982 48.5016 12.3893 48.5016C12.1803 48.5016 11.9975 48.6851 11.9975 48.8948C11.9975 49.1307 12.1542 49.288 12.3893 49.288ZM10.039 48.921H7.92369L7.87147 49.1045C8.49821 49.2356 8.55044 49.288 8.26318 50.1005L7.58421 52.014C7.29695 52.8003 7.16638 52.8789 6.46129 53.01L6.40906 53.1935H9.62113L10.3262 51.9615H10.0912C9.69947 52.4071 9.22941 52.9314 8.52433 52.9314C7.97592 52.9314 7.92369 52.8265 8.21095 52.014L8.88993 50.1005C9.17719 49.3142 9.30776 49.2356 10.0128 49.1045L10.039 48.921Z" fill="black"/>
<path d="M18.3172 17.3097C18.4217 17.2049 18.5523 17.0738 18.6567 16.9428C18.8656 16.7069 19.0745 16.471 19.3096 16.2613C19.3879 16.1827 19.4663 16.1302 19.5185 16.0778C19.5446 16.0516 19.5446 16.0254 19.5707 15.9992C19.4663 16.0516 19.414 16.1302 19.3096 16.1564C19.2835 16.1564 19.2573 16.1302 19.2835 16.104C19.3618 16.0516 19.414 15.9992 19.4924 15.9468C19.4924 15.9468 19.4924 15.9468 19.4663 15.9468C19.4401 15.9468 19.4401 15.9205 19.4401 15.8943C19.179 15.8419 18.9962 16.0254 18.8134 16.1827C18.7612 16.2089 18.7351 16.1564 18.7089 16.1564C18.4217 16.2613 18.1867 16.5234 17.8994 16.6282C17.8994 16.602 17.8994 16.602 17.8994 16.5758C17.7688 16.6282 17.6644 16.6807 17.5338 16.7069C17.351 16.7593 17.1943 16.7331 17.0376 16.7331C16.8026 16.7593 16.5676 16.8117 16.3064 16.8642H16.2803C16.1497 16.8904 16.0192 16.9428 15.9147 17.0214C15.9147 17.0214 15.9147 17.0214 15.8886 17.0214L15.8625 17.0476C15.8102 17.1001 15.7841 17.1263 15.7319 17.1787C15.6013 17.2311 15.523 17.3622 15.3924 17.4408H15.3663C15.2618 17.5456 15.1574 17.6505 15.0529 17.7553C15.0529 17.7553 15.0268 17.7553 15.0007 17.7553C14.9746 17.7553 15.0007 17.7553 15.0007 17.7291C15.0268 17.7029 15.0268 17.6767 15.0529 17.6505C15.079 17.6243 15.079 17.5981 15.1052 17.5456C15.1313 17.4932 15.1574 17.467 15.1835 17.4146V17.3884H15.1574C15.2618 17.2835 15.3663 17.2049 15.4969 17.1263C15.4708 17.1263 15.4708 17.1263 15.4708 17.1001C15.4708 17.0738 15.4969 17.0738 15.4969 17.0476C15.4969 17.0476 15.4969 17.0476 15.4969 17.0214C15.4969 17.0214 15.4969 17.0214 15.4708 16.9952C15.4446 17.0214 15.3924 17.0476 15.3663 17.0476C15.3141 17.1001 15.288 17.1787 15.2096 17.1787H15.1835H15.1574C15.1574 17.1787 15.1574 17.1787 15.1574 17.1525C15.1574 17.1525 15.1574 17.1525 15.1574 17.1263C15.1574 17.1263 15.1574 17.1263 15.1574 17.1001C15.1574 17.1001 15.1574 17.0738 15.1835 17.0738C15.1835 17.0738 15.1835 17.0738 15.1835 17.0476C15.1835 17.0214 15.2096 17.0214 15.2096 16.9952V16.969L15.2357 16.9428C15.2357 16.9166 15.2357 16.9166 15.2096 16.9166C15.2357 16.8642 15.288 16.8379 15.3402 16.7855C15.4185 16.7593 15.4969 16.7069 15.5752 16.6545L15.6013 16.6282C15.4969 16.6545 15.3924 16.7069 15.288 16.7855C15.288 16.7855 15.2618 16.7855 15.2618 16.8117C15.2618 16.8117 15.2357 16.8117 15.2096 16.7855C15.2096 16.7855 15.2096 16.7855 15.2096 16.7593C15.2357 16.7069 15.288 16.7069 15.3402 16.6545C15.3663 16.6545 15.3924 16.6545 15.3924 16.6807C16.0192 16.1827 16.907 16.3137 17.6382 16.0516C17.6905 15.9992 17.7688 15.973 17.821 15.9205C17.9255 15.8681 18.0038 15.7895 18.1083 15.7109C18.265 15.5798 18.3956 15.4487 18.4478 15.2653C18.4478 15.239 18.4217 15.2128 18.4217 15.2128C18.1605 15.5012 17.8733 15.7109 17.5599 15.8681C17.1421 16.0778 16.6981 16.0516 16.2542 16.104C16.2803 16.0516 16.3064 16.0516 16.3586 16.0516C16.3586 15.9992 16.4109 15.973 16.437 15.9205H16.4892C16.5153 15.9205 16.5153 15.8681 16.5414 15.8681C16.5937 15.8681 16.6459 15.8419 16.6198 15.8419C16.5676 15.7633 16.437 15.8943 16.3325 15.8419C16.3848 15.7895 16.3586 15.7371 16.3848 15.7109H16.4631C16.4631 15.6584 16.5153 15.6322 16.5153 15.6322C16.8026 15.4487 17.0898 15.3177 17.3771 15.1604C17.3249 15.1604 17.2726 15.2128 17.2204 15.1866C17.2726 15.1866 17.2204 15.1342 17.2726 15.1342C17.4816 15.0818 17.6644 14.9507 17.8994 14.8721C17.821 14.8721 17.7688 14.9245 17.6905 14.8721C17.7427 14.8459 17.7427 14.8197 17.821 14.8197C17.821 14.7935 17.821 14.7672 17.821 14.7672C17.821 14.741 17.8472 14.741 17.8733 14.741C17.8472 14.741 17.821 14.7148 17.821 14.7148C17.8472 14.6624 17.8994 14.6886 17.9516 14.6624C17.9255 14.6624 17.8994 14.6624 17.8994 14.6362C17.9516 14.5576 18.0561 14.5313 18.1605 14.5051C18.1344 14.4527 18.0822 14.5051 18.0822 14.4527C18.0822 14.4265 18.1083 14.4265 18.1344 14.4265C18.1083 14.4265 18.1083 14.4265 18.0822 14.4265C18.03 14.4003 18.0561 14.3741 18.0561 14.3479C18.1867 14.2168 18.1867 14.0333 18.2389 13.8761C18.2128 13.8761 18.1867 13.8761 18.1867 13.8498C17.9777 14.0595 17.6644 14.1382 17.3771 14.2168C17.351 14.2168 17.2988 14.2168 17.2726 14.2168C17.1682 14.2692 17.0376 14.2692 16.9332 14.1906C16.8548 14.1382 16.8026 14.0858 16.7242 14.0333C16.5676 13.9285 16.4109 13.8498 16.2281 13.7974C15.7841 13.9285 15.2618 13.8498 14.7395 13.8761C14.9485 13.745 15.2096 13.745 15.4446 13.6664C15.7841 13.5615 16.0975 13.4567 16.4631 13.4567C16.4109 13.4305 16.3325 13.4567 16.2542 13.4567C15.9669 13.4305 15.7058 13.5091 15.3924 13.5877C15.1835 13.6402 15.0268 13.7188 14.8179 13.745C14.6873 13.7974 14.6351 13.9023 14.5045 13.8761V13.8236C14.7134 13.5877 14.9485 13.3518 15.2618 13.3256C15.6274 13.2732 15.9669 13.3256 16.3064 13.378C16.5676 13.4043 16.8026 13.4567 17.0637 13.5091C17.1682 13.5091 17.1943 13.6664 17.2726 13.6926C17.4032 13.745 17.5077 13.6926 17.6382 13.7712C17.6382 13.7188 17.6121 13.6926 17.6382 13.6402C17.7166 13.5615 17.821 13.6664 17.8994 13.6139C18.0561 13.5091 17.7688 13.3256 17.6905 13.1946C17.6905 13.1684 17.7166 13.1421 17.7166 13.1421C17.8733 13.2732 18.0038 13.4305 18.1867 13.5353C18.2911 13.5877 18.5261 13.6402 18.4739 13.5091C18.3695 13.2994 18.1867 13.1159 18.03 12.9062C18.03 12.88 18.03 12.8538 18.03 12.8276C17.9777 12.8276 17.9777 12.8014 17.9777 12.7752C17.9777 12.749 17.9777 12.7228 17.9777 12.6966C17.8994 12.6441 17.9255 12.5655 17.8733 12.5131C17.821 12.4082 17.8472 12.2772 17.821 12.1461C17.7949 12.0151 17.7688 11.9364 17.7427 11.8054C17.6905 11.4646 17.6121 11.1763 17.5599 10.8618C17.5077 10.4948 17.7688 10.1803 17.9516 9.83952C18.0822 9.60362 18.2389 9.36772 18.5 9.21045C18.5523 8.97455 18.7089 8.76485 18.8656 8.58138C19.0223 8.3979 19.2835 8.26684 19.4663 8.18821C19.7535 8.05715 19.9885 7.97852 19.9885 7.97852H6.38293V18.5155H16.0192C16.3848 18.2534 16.7765 18.1223 17.2988 17.8602C17.5599 17.7815 18.1083 17.5194 18.3172 17.3097ZM15.2618 15.8943C15.2096 15.8943 15.1313 15.9205 15.1574 15.8681C15.1835 15.7633 15.3141 15.7633 15.3924 15.7371C15.4446 15.7109 15.4969 15.6846 15.523 15.6846C15.5752 15.7371 15.6274 15.7371 15.6536 15.7633C15.5491 15.8943 15.3924 15.8419 15.2618 15.8943ZM12.2326 15.4487C12.2326 15.4487 12.2064 15.4225 12.2064 15.3963C12.4676 15.0556 12.6504 14.741 12.8332 14.3741C13.0943 14.243 13.3033 14.0333 13.5122 13.8236C13.8517 13.4567 14.2173 13.1421 14.6351 12.9587C14.7918 12.9062 15.0007 12.9062 15.1574 12.9849C15.1051 13.0635 15.0007 13.0373 14.9223 13.1159C14.8962 13.1159 14.8701 13.1159 14.8701 13.0897C14.8962 13.0635 14.8962 13.0373 14.8962 13.0373C14.6873 13.247 14.4262 13.3518 14.2695 13.6139C14.1389 13.8236 14.0606 14.0595 13.8255 14.1382C13.7472 14.1644 13.8517 14.0858 13.7994 14.0858C13.1466 14.4527 12.7026 14.9245 12.2326 15.4487ZM13.8778 14.1382C13.8517 14.1906 13.8255 14.1906 13.8255 14.2168C13.7994 14.2692 13.7733 14.2692 13.7472 14.2954C13.7211 14.2954 13.695 14.2954 13.695 14.2692C13.7211 14.1906 13.7733 14.112 13.8517 14.0858C13.8778 14.112 13.8778 14.112 13.8778 14.1382ZM14.7918 17.1263C14.7918 17.1525 14.7657 17.1787 14.7395 17.1787C14.7657 17.1787 14.7918 17.2049 14.7657 17.2049C14.7134 17.2573 14.6873 17.2835 14.609 17.3097H14.5829C14.5567 17.336 14.5306 17.3622 14.5045 17.3884C14.4784 17.4146 14.3739 17.3884 14.4001 17.3622C14.4523 17.3097 14.5045 17.2573 14.5567 17.2311C14.5829 17.2049 14.609 17.1787 14.6351 17.1525L14.6873 17.1001C14.7134 17.1001 14.8179 17.0738 14.7918 17.1263ZM14.4262 16.969C14.3478 17.0214 14.2695 17.0738 14.1911 17.1263C14.1128 17.1787 14.0083 17.2049 13.93 17.2573C13.8517 17.3097 13.9039 17.2311 13.9039 17.2573C13.8255 17.3097 13.7733 17.3622 13.695 17.4146L13.6689 17.4408L13.6427 17.467C13.6166 17.4932 13.6166 17.4932 13.5905 17.5194L13.5644 17.5456C13.5644 17.5456 13.5122 17.5456 13.5122 17.5194C13.5122 17.4932 13.4861 17.5194 13.4861 17.5456C13.4861 17.5456 13.4599 17.5456 13.4599 17.5719C13.4599 17.5719 13.4599 17.5719 13.4338 17.5719C13.4338 17.5719 13.4338 17.5719 13.4077 17.5719C13.3816 17.5981 13.3555 17.6243 13.3294 17.6243C13.2771 17.6505 13.251 17.7029 13.2249 17.7553C13.1988 17.8078 13.2249 17.7815 13.1988 17.7815C13.1727 17.7815 13.1988 17.7815 13.1727 17.7815C13.1466 17.7815 13.1727 17.7553 13.1466 17.7553C13.1727 17.7291 13.1988 17.7029 13.1988 17.6767L13.2249 17.6505C13.2249 17.6243 13.251 17.6243 13.251 17.5981C13.251 17.5981 13.251 17.5981 13.251 17.5719C13.2771 17.5456 13.3033 17.5194 13.3033 17.4932C13.3033 17.467 13.3294 17.467 13.3294 17.4408C13.3294 17.4408 13.3555 17.4146 13.3555 17.3884C13.3555 17.3622 13.3816 17.3622 13.3816 17.336V17.3097V17.2835C13.3816 17.2835 13.3816 17.2835 13.3816 17.2573C13.4077 17.2311 13.4338 17.1787 13.4599 17.1525C13.4338 17.1787 13.4077 17.2049 13.3816 17.2049C13.3555 17.2311 13.3294 17.2049 13.3555 17.1787C13.3816 17.1787 13.3816 17.1525 13.4077 17.1263C13.4338 17.1001 13.4599 17.0476 13.5122 17.0214C13.5383 16.9952 13.5644 16.9952 13.5644 16.969C13.5905 16.9428 13.5905 16.9428 13.6166 16.9166C13.7994 16.7331 14.1128 16.7331 14.3739 16.6282C14.4784 16.5758 14.5829 16.6545 14.6873 16.6282C14.7395 16.6282 14.8179 16.6282 14.8701 16.6807C14.7657 16.7593 14.609 16.8642 14.4262 16.969ZM14.844 15.5798C14.8179 15.5536 14.8962 15.5798 14.9223 15.5274C14.8701 15.5274 14.8179 15.5274 14.7657 15.5274C14.7395 15.5274 14.7395 15.5012 14.7395 15.475C14.6351 15.5012 14.5306 15.5274 14.4262 15.5536C14.2956 15.606 14.165 15.6846 14.0083 15.7371C13.7994 15.8157 13.6166 15.9992 13.3816 16.0778C13.3555 16.0778 13.3555 16.0516 13.3555 16.0254C13.3816 15.973 13.4599 15.9468 13.4861 15.8943C13.4861 15.8681 13.4861 15.8419 13.4599 15.8419C13.6166 15.6322 13.8255 15.5012 14.0345 15.3177C14.0345 15.2915 14.0345 15.2653 14.0345 15.2653C14.0867 15.1866 14.1911 15.1342 14.2434 15.0556C14.2695 15.0031 14.3478 14.9245 14.4523 14.8721C14.4262 14.8459 14.4001 14.8459 14.4001 14.8197C14.3217 14.8197 14.2434 14.8721 14.165 14.7935C14.1911 14.7672 14.2434 14.741 14.2956 14.7148C14.2695 14.7148 14.2695 14.7148 14.2434 14.6886C14.2173 14.6362 14.2695 14.61 14.3478 14.5838C14.4262 14.5576 14.5306 14.5576 14.5829 14.5051C14.4523 14.4789 14.2956 14.5576 14.1389 14.4527C14.2434 14.1906 14.4001 13.9809 14.6351 13.8498C14.6612 13.8498 14.6873 13.8498 14.6873 13.8761C14.6873 13.9809 14.6351 14.0595 14.5306 14.0858C14.6873 14.1382 14.844 14.1382 15.0007 14.2168C14.9746 14.2692 14.9485 14.243 14.9223 14.243C15.0268 14.2954 15.1313 14.2692 15.2357 14.3479C15.1835 14.4003 15.1052 14.3479 15.0529 14.3479C15.6797 14.5313 16.3325 14.6624 16.8287 15.0556C16.3848 15.2653 15.9408 15.3701 15.4708 15.475C15.4185 15.475 15.3663 15.475 15.3141 15.4487C15.3141 15.475 15.3141 15.5012 15.288 15.5012C15.2096 15.5012 15.1574 15.5012 15.079 15.5536C15.0268 15.606 14.8962 15.6322 14.844 15.5798Z" fill="#000091"/>
<path d="M35.2394 8.03125H23.9579C23.9579 8.03125 23.9841 8.03125 24.0624 8.08367C24.1669 8.1361 24.2713 8.18852 24.3497 8.24094C24.5063 8.31957 24.6369 8.42442 24.7153 8.55548C24.7675 8.6079 24.8197 8.73896 24.7675 8.81759C24.7153 8.92243 24.7153 9.0797 24.6108 9.10591C24.4802 9.15834 24.3235 9.15834 24.193 9.15834C24.1146 9.15834 24.0363 9.13213 23.9579 9.10591C24.2452 9.23697 24.5325 9.36803 24.7414 9.63014C24.7675 9.68256 24.8458 9.68256 24.9242 9.68256V9.7612C24.8719 9.81362 24.8458 9.81362 24.8719 9.89225H24.9242C25.0286 9.83983 25.0025 9.65635 25.1331 9.70877C25.2375 9.7612 25.2637 9.91846 25.2114 9.9971C25.1331 10.0757 25.0547 10.1282 24.9764 10.2068C24.9503 10.2592 24.9503 10.3116 24.9764 10.3378C25.0286 10.4165 25.0547 10.4951 25.0809 10.5737C25.1331 10.7048 25.1592 10.8621 25.2114 11.0193C25.2898 11.3077 25.3681 11.6222 25.342 11.9105C25.342 12.0678 25.2637 12.1988 25.3159 12.3561C25.3681 12.5134 25.4465 12.6444 25.5248 12.7755C25.6031 12.9066 25.6815 12.9852 25.7337 13.09C25.8643 13.2997 26.0732 13.4832 25.9687 13.7191C25.9165 13.8502 25.6815 13.8502 25.5509 13.9288C25.4203 14.0336 25.5248 14.1909 25.6031 14.2958C25.7076 14.4792 25.4726 14.5841 25.342 14.6627C25.3942 14.7151 25.4726 14.7151 25.4726 14.7413C25.4987 14.8462 25.6031 14.8986 25.5248 15.0035C25.4465 15.1345 25.2114 15.1869 25.3159 15.3704C25.3942 15.5015 25.342 15.6587 25.2898 15.816C25.2375 15.9995 25.0809 16.0781 24.9242 16.1043C24.7936 16.1568 24.663 16.1568 24.5586 16.1305C24.5063 16.1043 24.4802 16.0781 24.428 16.0781C24.0885 16.0257 23.749 15.9471 23.4095 15.9471C23.3051 15.9733 23.2006 15.9995 23.1223 16.0257C23.0439 16.1043 22.9656 16.1568 22.8872 16.2354C22.8611 16.2616 22.8611 16.2616 22.835 16.2878L22.8089 16.314C22.8089 16.314 22.8089 16.3402 22.7828 16.3402C22.7306 16.4189 22.6783 16.4975 22.6261 16.5761V16.6023C22.6261 16.6023 22.6261 16.6286 22.6 16.6286C22.5478 16.7596 22.4955 16.8645 22.4433 16.9955C22.3127 17.4411 22.365 17.8343 22.4694 17.9391C22.4955 17.9653 23.1223 18.1488 23.5662 18.3585C23.7751 18.4371 23.9057 18.5158 24.0363 18.5944H35.1088V8.03125H35.2394Z" fill="#E1000F"/>
<path d="M24.6108 11.8836C24.6892 11.9099 24.8198 11.9099 24.8198 11.9361C24.7675 12.0933 24.5325 12.1458 24.428 12.303H24.3758C24.3236 12.3554 24.3236 12.4341 24.2714 12.4341C24.2191 12.4079 24.1408 12.4341 24.0886 12.4603C24.1669 12.5389 24.2714 12.5913 24.3758 12.5913C24.4019 12.5913 24.428 12.6438 24.428 12.67C24.428 12.67 24.4542 12.67 24.4803 12.6438C24.5064 12.6438 24.5325 12.6438 24.5325 12.67V12.7486C24.4803 12.8273 24.3758 12.801 24.2975 12.801C24.4542 12.8535 24.6108 12.8535 24.7414 12.801C24.872 12.7486 24.7414 12.5651 24.8198 12.4603C24.7675 12.4603 24.8198 12.4079 24.7675 12.4079C24.8198 12.3554 24.8459 12.303 24.8981 12.2768C24.9503 12.2768 25.0026 12.2506 25.0287 12.2244C25.0287 12.172 24.9503 12.172 24.9764 12.1195C25.107 12.0409 25.1854 11.9099 25.1592 11.805C25.1331 11.7526 24.9764 11.7526 24.872 11.7002C24.7675 11.6477 24.6631 11.7002 24.5325 11.7264C24.428 11.7264 24.3236 11.7788 24.2452 11.805C24.1147 11.8574 23.9841 11.9361 23.8796 12.0147C24.0102 11.9623 24.1669 11.9361 24.3236 11.8836C24.4019 11.8836 24.5064 11.8312 24.6108 11.8836Z" fill="#9D9D9C"/>
</g>
<defs>
<clipPath id="clip0">
<rect width="67.8191" height="59.8404" fill="white" transform="translate(6.38293 7.97852)"/>
</clipPath>
</defs>
</svg>
