<?xml version="1.0" encoding="UTF-8" standalone="no"?>
<svg
   width="440"
   height="324"
   viewBox="0 0 440 324"
   fill="none"
   version="1.1"
   id="svg226"
   sodipodi:docname="illustration-city.svg"
   inkscape:version="1.3 (0e150ed6c4, 2023-07-21)"
   xmlns:inkscape="http://www.inkscape.org/namespaces/inkscape"
   xmlns:sodipodi="http://sodipodi.sourceforge.net/DTD/sodipodi-0.dtd"
   xmlns="http://www.w3.org/2000/svg"
   xmlns:svg="http://www.w3.org/2000/svg">
  <defs
     id="defs226" />
  <sodipodi:namedview
     id="namedview226"
     pagecolor="#ffffff"
     bordercolor="#000000"
     borderopacity="0.25"
     inkscape:showpageshadow="2"
     inkscape:pageopacity="0.0"
     inkscape:pagecheckerboard="0"
     inkscape:deskcolor="#d1d1d1"
     inkscape:zoom="1.875"
     inkscape:cx="220"
     inkscape:cy="161.86667"
     inkscape:window-width="1920"
     inkscape:window-height="1011"
     inkscape:window-x="0"
     inkscape:window-y="0"
     inkscape:window-maximized="1"
     inkscape:current-layer="svg226" />
  <path
     d="M118.176 187.586H40.2554V190.454H118.176V187.586Z"
     fill="#F2F2F2"
     id="path2" />
  <path
     d="M294.574 187.586H216.653V190.454H294.574V187.586Z"
     fill="#F2F2F2"
     id="path3" />
  <path
     d="M414.564 187.586H336.643V190.454H414.564V187.586Z"
     fill="#F2F2F2"
     id="path4" />
  <path
     d="M415.021 144.141C414.304 144.511 413.638 144.972 413.038 145.511C412.428 144.969 411.75 144.508 411.022 144.141C410.305 144.511 409.639 144.972 409.039 145.511C408.429 144.969 407.752 144.508 407.024 144.141C407.024 144.141 403.916 145.669 403.924 147.537C403.925 147.584 403.927 147.63 403.931 147.677C404.037 148.9 407.25 149.211 409.015 148.635C410.322 149.007 411.707 149.007 413.014 148.635C414.771 149.22 418.05 148.885 418.146 147.648C418.15 147.602 418.151 147.555 418.151 147.508C418.143 145.64 415.021 144.141 415.021 144.141Z"
     fill="#F2F2F2"
     id="path5" />
  <path
     d="M3.33304 79.8831L0.575684 77.6774L16.0151 63.8926H55.1649V76.0234L29.8004 93.1168L3.33304 79.8831Z"
     fill="#3F3D56"
     id="path6" />
  <path
     d="M62.3035 71.6249V64.1679H57.1057V65.9941L55.1653 63.8926L42.4833 77.6774L37.5208 80.986L29.8257 137.204L41.4302 148.809H68.3995V78.2291L62.3035 71.6249Z"
     fill="#CCCCCC"
     id="path7" />
  <path
     d="M42.4826 77.6797H0.575684V148.811H42.4826V77.6797Z"
     fill="#F2F2F2"
     id="path8" />
  <path
     d="M24.5615 131.441H16.8418V148.811H24.5615V131.441Z"
     fill="#CCCCCC"
     id="path9" />
  <path
     d="M8.57075 136.403V133.646H5.26221V136.403H8.29492H8.57075Z"
     fill="#3F3D56"
     id="path10" />
  <path
     d="M8.29492 138.609H5.26221V141.367H8.57075V138.609H8.29492Z"
     fill="#3F3D56"
     id="path11" />
  <path
     d="M14.0853 133.646H10.7769V136.404H14.0853V133.646Z"
     fill="#3F3D56"
     id="path12" />
  <path
     d="M14.0853 138.611H10.7769V141.368H14.0853V138.611Z"
     fill="#3F3D56"
     id="path13" />
  <path
     d="M31.1787 136.403V133.646H27.8701V136.403H30.9028H31.1787Z"
     fill="#3F3D56"
     id="path14" />
  <path
     d="M30.9028 138.609H27.8701V141.367H31.1787V138.609H30.9028Z"
     fill="#3F3D56"
     id="path15" />
  <path
     d="M36.6927 133.646H33.3843V136.404H36.6927V133.646Z"
     fill="#3F3D56"
     id="path16" />
  <path
     d="M36.6927 138.611H33.3843V141.368H36.6927V138.611Z"
     fill="#3F3D56"
     id="path17" />
  <path
     d="M54.3383 81.2632V78.5059H51.0298V81.2632H54.063H54.3383Z"
     fill="#3F3D56"
     id="path18" />
  <path
     d="M54.063 83.4688H51.0298V86.2256H54.3383V83.4688H54.063Z"
     fill="#3F3D56"
     id="path19" />
  <path
     d="M59.8519 78.5059H56.5435V81.2629H59.8519V78.5059Z"
     fill="#3F3D56"
     id="path20" />
  <path
     d="M59.8519 83.4688H56.5435V86.2258H59.8519V83.4688Z"
     fill="#3F3D56"
     id="path21" />
  <path
     d="M54.3383 96.7022V93.9453H51.0298V96.7022H54.063H54.3383Z"
     fill="#3F3D56"
     id="path22" />
  <path
     d="M54.063 98.9082H51.0298V101.665H54.3383V98.9082H54.063Z"
     fill="#3F3D56"
     id="path23" />
  <path
     d="M59.8519 93.9453H56.5435V96.7023H59.8519V93.9453Z"
     fill="#3F3D56"
     id="path24" />
  <path
     d="M59.8519 98.9082H56.5435V101.665H59.8519V98.9082Z"
     fill="#3F3D56"
     id="path25" />
  <path
     d="M54.3383 112.142V109.385H51.0298V112.142H54.063H54.3383Z"
     fill="#3F3D56"
     id="path26" />
  <path
     d="M54.063 114.348H51.0298V117.105H54.3383V114.348H54.063Z"
     fill="#3F3D56"
     id="path27" />
  <path
     d="M59.8519 109.385H56.5435V112.142H59.8519V109.385Z"
     fill="#3F3D56"
     id="path28" />
  <path
     d="M59.8519 114.348H56.5435V117.105H59.8519V114.348Z"
     fill="#3F3D56"
     id="path29" />
  <path
     d="M54.3383 127.581V124.824H51.0298V127.581H54.063H54.3383Z"
     fill="#3F3D56"
     id="path30" />
  <path
     d="M54.063 129.787H51.0298V132.544H54.3383V129.787H54.063Z"
     fill="#3F3D56"
     id="path31" />
  <path
     d="M59.8519 124.824H56.5435V127.581H59.8519V124.824Z"
     fill="#3F3D56"
     id="path32" />
  <path
     d="M59.8519 129.787H56.5435V132.544H59.8519V129.787Z"
     fill="#3F3D56"
     id="path33" />
  <path
     d="M37.2438 81.2617H5.26221V87.8786H37.2438V81.2617Z"
     fill="#3F3D56"
     id="path34" />
  <path
     d="M37.2438 94.498H5.26221V101.115H37.2438V94.498Z"
     fill="#3F3D56"
     id="path35" />
  <path
     d="M37.2438 107.73H5.26221V114.347H37.2438V107.73Z"
     fill="#3F3D56"
     id="path36" />
  <path
     d="M37.2438 120.965H5.26221V127.582H37.2438V120.965Z"
     fill="#3F3D56"
     id="path37" />
  <path
     d="M66.0679 144.539C65.3512 144.91 64.6849 145.37 64.085 145.91C63.4753 145.368 62.7978 144.907 62.0695 144.539C61.3528 144.91 60.6865 145.37 60.0866 145.91C59.4769 145.368 58.7994 144.907 58.0712 144.539C58.0712 144.539 54.9631 146.068 54.9717 147.936C54.9719 147.982 54.974 148.029 54.9781 148.075C55.0841 149.298 58.2975 149.61 60.0628 149.033C61.3695 149.406 62.7544 149.406 64.0612 149.033C65.8189 149.619 69.0976 149.283 69.1934 148.046C69.197 148 69.1987 147.954 69.1985 147.907C69.19 146.039 66.0679 144.539 66.0679 144.539Z"
     fill="#6C63FF"
     id="path38" />
  <path
     d="M51.7134 79.8831L48.9561 77.6774L64.3954 63.8926H103.545V76.0234L78.1808 93.1168L51.7134 79.8831Z"
     fill="#3F3D56"
     id="path39" />
  <path
     d="M110.683 71.6249V64.1679H105.486V65.9941L103.545 63.8926L90.8632 77.6774L85.9006 80.986L78.2056 137.204L89.8101 148.809H116.779V78.2291L110.683 71.6249Z"
     fill="#CCCCCC"
     id="path40" />
  <path
     d="M90.863 77.6797H48.9561V148.811H90.863V77.6797Z"
     fill="#F2F2F2"
     id="path41" />
  <path
     d="M72.9424 131.441H65.2227V148.811H72.9424V131.441Z"
     fill="#CCCCCC"
     id="path42" />
  <path
     d="M56.9516 136.403V133.646H53.6431V136.403H56.6758H56.9516Z"
     fill="#3F3D56"
     id="path43" />
  <path
     d="M56.6758 138.609H53.6431V141.367H56.9516V138.609H56.6758Z"
     fill="#3F3D56"
     id="path44" />
  <path
     d="M62.4657 133.646H59.1572V136.404H62.4657V133.646Z"
     fill="#3F3D56"
     id="path45" />
  <path
     d="M62.4657 138.611H59.1572V141.368H62.4657V138.611Z"
     fill="#3F3D56"
     id="path46" />
  <path
     d="M79.559 136.403V133.646H76.2505V136.403H79.2832H79.559Z"
     fill="#3F3D56"
     id="path47" />
  <path
     d="M79.2832 138.609H76.2505V141.367H79.559V138.609H79.2832Z"
     fill="#3F3D56"
     id="path48" />
  <path
     d="M85.0731 133.646H81.7646V136.404H85.0731V133.646Z"
     fill="#3F3D56"
     id="path49" />
  <path
     d="M85.0731 138.611H81.7646V141.368H85.0731V138.611Z"
     fill="#3F3D56"
     id="path50" />
  <path
     d="M102.718 81.2632V78.5059H99.4097V81.2632H102.443H102.718Z"
     fill="#3F3D56"
     id="path51" />
  <path
     d="M102.443 83.4688H99.4097V86.2256H102.718V83.4688H102.443Z"
     fill="#3F3D56"
     id="path52" />
  <path
     d="M108.232 78.5059H104.924V81.2629H108.232V78.5059Z"
     fill="#3F3D56"
     id="path53" />
  <path
     d="M108.232 83.4688H104.924V86.2258H108.232V83.4688Z"
     fill="#3F3D56"
     id="path54" />
  <path
     d="M102.718 96.7022V93.9453H99.4097V96.7022H102.443H102.718Z"
     fill="#3F3D56"
     id="path55" />
  <path
     d="M102.443 98.9082H99.4097V101.665H102.718V98.9082H102.443Z"
     fill="#3F3D56"
     id="path56" />
  <path
     d="M108.232 93.9453H104.924V96.7023H108.232V93.9453Z"
     fill="#3F3D56"
     id="path57" />
  <path
     d="M108.232 98.9082H104.924V101.665H108.232V98.9082Z"
     fill="#3F3D56"
     id="path58" />
  <path
     d="M102.718 112.142V109.385H99.4097V112.142H102.443H102.718Z"
     fill="#3F3D56"
     id="path59" />
  <path
     d="M102.443 114.348H99.4097V117.105H102.718V114.348H102.443Z"
     fill="#3F3D56"
     id="path60" />
  <path
     d="M108.232 109.385H104.924V112.142H108.232V109.385Z"
     fill="#3F3D56"
     id="path61" />
  <path
     d="M108.232 114.348H104.924V117.105H108.232V114.348Z"
     fill="#3F3D56"
     id="path62" />
  <path
     d="M102.718 127.581V124.824H99.4097V127.581H102.443H102.718Z"
     fill="#3F3D56"
     id="path63" />
  <path
     d="M102.443 129.787H99.4097V132.544H102.718V129.787H102.443Z"
     fill="#3F3D56"
     id="path64" />
  <path
     d="M108.232 124.824H104.924V127.581H108.232V124.824Z"
     fill="#3F3D56"
     id="path65" />
  <path
     d="M108.232 129.787H104.924V132.544H108.232V129.787Z"
     fill="#3F3D56"
     id="path66" />
  <path
     d="M85.6247 81.2617H53.6431V87.8786H85.6247V81.2617Z"
     fill="#3F3D56"
     id="path67" />
  <path
     d="M85.6247 94.498H53.6431V101.115H85.6247V94.498Z"
     fill="#3F3D56"
     id="path68" />
  <path
     d="M85.6247 107.73H53.6431V114.347H85.6247V107.73Z"
     fill="#3F3D56"
     id="path69" />
  <path
     d="M85.6247 120.965H53.6431V127.582H85.6247V120.965Z"
     fill="#3F3D56"
     id="path70" />
  <path
     d="M58.2008 27.3831C65.7625 27.3831 71.8924 21.2532 71.8924 13.6915C71.8924 6.12991 65.7625 0 58.2008 0C50.6392 0 44.5093 6.12991 44.5093 13.6915C44.5093 21.2532 50.6392 27.3831 58.2008 27.3831Z"
     fill="#FF6584"
     id="path71" />
  <path
     d="M145.949 95.8223H144.614V148.559H145.949V95.8223Z"
     fill="#3F3D56"
     id="path72" />
  <path
     d="M158.978 111.172C158.98 111.752 158.975 112.33 158.962 112.904C158.483 133.664 133.594 133.779 132.924 113.024C132.905 112.45 132.895 111.873 132.892 111.292C132.785 88.0868 145.741 69.2148 145.741 69.2148C145.741 69.2148 158.871 87.9666 158.978 111.172Z"
     fill="#E6E6E6"
     id="path73" />
  <path
     d="M141.305 144.422C140.589 144.792 139.922 145.253 139.322 145.792C138.713 145.25 138.035 144.79 137.307 144.422C136.59 144.792 135.924 145.253 135.324 145.792C134.714 145.25 134.037 144.79 133.308 144.422C133.308 144.422 130.2 145.95 130.209 147.818C130.209 147.865 130.211 147.912 130.215 147.958C130.321 149.181 133.535 149.492 135.3 148.916C136.607 149.289 137.992 149.289 139.298 148.916C141.056 149.502 144.335 149.166 144.431 147.929C144.434 147.883 144.436 147.836 144.436 147.79C144.427 145.922 141.305 144.422 141.305 144.422Z"
     fill="#CCCCCC"
     id="path74" />
  <path
     d="M178.663 126.204L177.009 123.447L192.449 98.2188H232.15V102.078L217.813 129.513L201.271 132.821L178.663 126.204Z"
     fill="#3F3D56"
     id="path75" />
  <path
     d="M238.984 117.978V97.3555H233.786V100.076L232.15 98.2169L218.916 123.446L216.71 125.651L213.954 136.679L218.916 148.81H244.281V123.997L238.984 117.978Z"
     fill="#CCCCCC"
     id="path76" />
  <path
     d="M218.916 123.445H177.009V148.81H218.916V123.445Z"
     fill="#F2F2F2"
     id="path77" />
  <path
     d="M213.126 131.441H204.304V139.161H213.126V131.441Z"
     fill="#3F3D56"
     id="path78" />
  <path
     d="M200.72 131.166H193V148.811H200.72V131.166Z"
     fill="#CCCCCC"
     id="path79" />
  <path
     d="M184.178 133.923V131.166H180.869V133.923H183.902H184.178Z"
     fill="#3F3D56"
     id="path80" />
  <path
     d="M183.902 136.129H180.869V138.886H184.178V136.129H183.902Z"
     fill="#3F3D56"
     id="path81" />
  <path
     d="M189.692 131.166H186.383V133.923H189.692V131.166Z"
     fill="#3F3D56"
     id="path82" />
  <path
     d="M189.692 136.129H186.383V138.886H189.692V136.129Z"
     fill="#3F3D56"
     id="path83" />
  <path
     d="M230.771 134.599V131.842H227.463V134.599H230.496H230.771Z"
     fill="#3F3D56"
     id="path84" />
  <path
     d="M230.496 136.805H227.463V139.562H230.771V136.805H230.496Z"
     fill="#3F3D56"
     id="path85" />
  <path
     d="M236.285 131.842H232.977V134.599H236.285V131.842Z"
     fill="#3F3D56"
     id="path86" />
  <path
     d="M236.285 136.805H232.977V139.562H236.285V136.805Z"
     fill="#3F3D56"
     id="path87" />
  <path
     d="M196.015 108.586L195.58 107.861L199.642 101.223H210.088V102.238L206.316 109.456L201.963 110.327L196.015 108.586Z"
     fill="#3F3D56"
     id="path88" />
  <path
     d="M210.087 101.223L206.606 107.861L206.025 108.441L205.3 111.343L206.606 114.534H213.279V108.006L210.087 101.223Z"
     fill="#CCCCCC"
     id="path89" />
  <path
     d="M206.606 107.861H195.58V114.535H206.606V107.861Z"
     fill="#F2F2F2"
     id="path90" />
  <path
     d="M200.251 110.736V109.42H198.671V110.736H200.119H200.251Z"
     fill="#3F3D56"
     id="path91" />
  <path
     d="M200.119 111.791H198.671V113.107H200.251V111.791H200.119Z"
     fill="#3F3D56"
     id="path92" />
  <path
     d="M202.884 109.42H201.304V110.736H202.884V109.42Z"
     fill="#3F3D56"
     id="path93" />
  <path
     d="M202.884 111.791H201.304V113.107H202.884V111.791Z"
     fill="#3F3D56"
     id="path94" />
  <path
     d="M228.644 126.204L226.989 123.447L242.429 98.2188H282.13V102.078L267.794 129.513L251.251 132.821L228.644 126.204Z"
     fill="#3F3D56"
     id="path95" />
  <path
     d="M288.964 117.978V97.3555H283.766V100.076L282.13 98.2169L268.896 123.446L266.69 125.651L263.933 136.679L268.896 148.81H294.261V123.997L288.964 117.978Z"
     fill="#CCCCCC"
     id="path96" />
  <path
     d="M268.896 123.445H226.989V148.81H268.896V123.445Z"
     fill="#F2F2F2"
     id="path97" />
  <path
     d="M263.106 131.441H254.283V139.161H263.106V131.441Z"
     fill="#3F3D56"
     id="path98" />
  <path
     d="M250.7 131.166H242.98V148.811H250.7V131.166Z"
     fill="#CCCCCC"
     id="path99" />
  <path
     d="M234.157 133.923V131.166H230.849V133.923H233.882H234.157Z"
     fill="#3F3D56"
     id="path100" />
  <path
     d="M233.882 136.129H230.849V138.886H234.157V136.129H233.882Z"
     fill="#3F3D56"
     id="path101" />
  <path
     d="M239.671 131.166H236.363V133.923H239.671V131.166Z"
     fill="#3F3D56"
     id="path102" />
  <path
     d="M239.671 136.129H236.363V138.886H239.671V136.129Z"
     fill="#3F3D56"
     id="path103" />
  <path
     d="M280.751 134.199V131.441H277.442V134.199H280.475H280.751Z"
     fill="#3F3D56"
     id="path104" />
  <path
     d="M280.475 136.404H277.442V139.162H280.751V136.404H280.475Z"
     fill="#3F3D56"
     id="path105" />
  <path
     d="M286.265 131.441H282.957V134.198H286.265V131.441Z"
     fill="#3F3D56"
     id="path106" />
  <path
     d="M286.265 136.404H282.957V139.161H286.265V136.404Z"
     fill="#3F3D56"
     id="path107" />
  <path
     d="M277.024 126.204L275.37 123.447L290.809 98.2188H330.511V102.078L316.174 129.513L299.632 132.821L277.024 126.204Z"
     fill="#3F3D56"
     id="path108" />
  <path
     d="M337.344 117.978V97.3555H332.147V100.076L330.51 98.2169L317.277 123.446L315.071 125.651L312.313 136.679L317.277 148.81H342.641V123.997L337.344 117.978Z"
     fill="#CCCCCC"
     id="path109" />
  <path
     d="M317.277 123.445H275.37V148.81H317.277V123.445Z"
     fill="#F2F2F2"
     id="path110" />
  <path
     d="M311.487 131.441H302.664V139.161H311.487V131.441Z"
     fill="#3F3D56"
     id="path111" />
  <path
     d="M299.08 131.166H291.36V148.811H299.08V131.166Z"
     fill="#CCCCCC"
     id="path112" />
  <path
     d="M282.538 133.923V131.166H279.23V133.923H282.263H282.538Z"
     fill="#3F3D56"
     id="path113" />
  <path
     d="M282.263 136.129H279.23V138.886H282.538V136.129H282.263Z"
     fill="#3F3D56"
     id="path114" />
  <path
     d="M288.052 131.166H284.743V133.923H288.052V131.166Z"
     fill="#3F3D56"
     id="path115" />
  <path
     d="M288.052 136.129H284.743V138.886H288.052V136.129Z"
     fill="#3F3D56"
     id="path116" />
  <path
     d="M329.132 134.199V131.441H325.823V134.199H328.856H329.132Z"
     fill="#3F3D56"
     id="path117" />
  <path
     d="M328.856 136.404H325.823V139.162H329.132V136.404H328.856Z"
     fill="#3F3D56"
     id="path118" />
  <path
     d="M334.646 131.441H331.337V134.198H334.646V131.441Z"
     fill="#3F3D56"
     id="path119" />
  <path
     d="M334.646 136.404H331.337V139.161H334.646V136.404Z"
     fill="#3F3D56"
     id="path120" />
  <path
     d="M244.795 108.987L244.36 108.261L248.422 101.623H258.868V102.639L255.096 109.857L250.744 110.727L244.795 108.987Z"
     fill="#3F3D56"
     id="path121" />
  <path
     d="M258.868 101.623L255.386 108.261L254.806 108.842L254.081 111.743L255.386 114.935H262.06V108.406L258.868 101.623Z"
     fill="#CCCCCC"
     id="path122" />
  <path
     d="M255.387 108.262H244.36V114.935H255.387V108.262Z"
     fill="#F2F2F2"
     id="path123" />
  <path
     d="M249.031 111.137V109.82H247.451V111.137H248.899H249.031Z"
     fill="#3F3D56"
     id="path124" />
  <path
     d="M248.899 112.189H247.451V113.506H249.031V112.189H248.899Z"
     fill="#3F3D56"
     id="path125" />
  <path
     d="M251.664 109.82H250.084V111.137H251.664V109.82Z"
     fill="#3F3D56"
     id="path126" />
  <path
     d="M251.664 112.189H250.084V113.506H251.664V112.189Z"
     fill="#3F3D56"
     id="path127" />
  <path
     d="M293.576 108.586L293.14 107.861L297.203 101.223H307.648V102.238L303.876 109.456L299.524 110.327L293.576 108.586Z"
     fill="#3F3D56"
     id="path128" />
  <path
     d="M307.648 101.223L304.166 107.861L303.586 108.441L302.861 111.343L304.166 114.534H310.84V108.006L307.648 101.223Z"
     fill="#CCCCCC"
     id="path129" />
  <path
     d="M304.166 107.861H293.14V114.535H304.166V107.861Z"
     fill="#F2F2F2"
     id="path130" />
  <path
     d="M297.811 110.736V109.42H296.232V110.736H297.68H297.811Z"
     fill="#3F3D56"
     id="path131" />
  <path
     d="M297.68 111.791H296.232V113.107H297.811V111.791H297.68Z"
     fill="#3F3D56"
     id="path132" />
  <path
     d="M300.444 109.42H298.865V110.736H300.444V109.42Z"
     fill="#3F3D56"
     id="path133" />
  <path
     d="M300.444 111.791H298.865V113.107H300.444V111.791Z"
     fill="#3F3D56"
     id="path134" />
  <path
     d="M327.003 126.204L325.349 123.447L340.788 98.2188H380.49V102.078L366.153 129.513L349.611 132.821L327.003 126.204Z"
     fill="#3F3D56"
     id="path135" />
  <path
     d="M387.325 101.755V97.3555H382.127V100.076L380.491 98.2169L367.257 123.446L365.051 125.651L362.294 136.679L367.257 148.81H392.621V123.997L387.325 101.755Z"
     fill="#CCCCCC"
     id="path136" />
  <path
     d="M367.256 123.445H325.349V148.81H367.256V123.445Z"
     fill="#F2F2F2"
     id="path137" />
  <path
     d="M361.467 131.441H352.644V139.161H361.467V131.441Z"
     fill="#3F3D56"
     id="path138" />
  <path
     d="M349.06 131.166H341.34V148.811H349.06V131.166Z"
     fill="#CCCCCC"
     id="path139" />
  <path
     d="M332.518 133.923V131.166H329.209V133.923H332.242H332.518Z"
     fill="#3F3D56"
     id="path140" />
  <path
     d="M332.242 136.129H329.209V138.886H332.518V136.129H332.242Z"
     fill="#3F3D56"
     id="path141" />
  <path
     d="M338.032 131.166H334.723V133.923H338.032V131.166Z"
     fill="#3F3D56"
     id="path142" />
  <path
     d="M338.032 136.129H334.723V138.886H338.032V136.129Z"
     fill="#3F3D56"
     id="path143" />
  <path
     d="M379.112 134.199V131.441H375.803V134.199H378.836H379.112Z"
     fill="#3F3D56"
     id="path144" />
  <path
     d="M378.836 136.404H375.803V139.162H379.112V136.404H378.836Z"
     fill="#3F3D56"
     id="path145" />
  <path
     d="M384.625 131.441H381.317V134.198H384.625V131.441Z"
     fill="#3F3D56"
     id="path146" />
  <path
     d="M384.625 136.404H381.317V139.161H384.625V136.404Z"
     fill="#3F3D56"
     id="path147" />
  <path
     d="M342.355 108.987L341.92 108.261L345.982 101.623H356.429V102.639L352.656 109.857L348.304 110.727L342.355 108.987Z"
     fill="#3F3D56"
     id="path148" />
  <path
     d="M356.429 101.623L352.947 108.261L352.366 108.842L351.641 111.743L352.947 114.935H359.62V108.406L356.429 101.623Z"
     fill="#CCCCCC"
     id="path149" />
  <path
     d="M352.947 108.262H341.92V114.935H352.947V108.262Z"
     fill="#F2F2F2"
     id="path150" />
  <path
     d="M346.592 111.137V109.82H345.012V111.137H346.46H346.592Z"
     fill="#3F3D56"
     id="path151" />
  <path
     d="M346.46 112.189H345.012V113.506H346.592V112.189H346.46Z"
     fill="#3F3D56"
     id="path152" />
  <path
     d="M349.225 109.82H347.645V111.137H349.225V109.82Z"
     fill="#3F3D56"
     id="path153" />
  <path
     d="M349.225 112.189H347.645V113.506H349.225V112.189Z"
     fill="#3F3D56"
     id="path154" />
  <path
     d="M440 148.535H0.399902V149.335H440V148.535Z"
     fill="#3F3D56"
     id="path155" />
  <path
     d="M439.6 223.307H0V224.106H439.6V223.307Z"
     fill="#3F3D56"
     id="path156" />
  <path
     d="M411.246 95.8164H409.912V148.538H411.246V95.8164Z"
     fill="#3F3D56"
     id="path157" />
  <path
     d="M424.271 111.16C424.274 111.74 424.269 112.317 424.255 112.891C423.777 133.645 398.895 133.76 398.225 113.011C398.207 112.437 398.196 111.86 398.193 111.28C398.086 88.0812 411.039 69.2148 411.039 69.2148C411.039 69.2148 424.164 87.961 424.271 111.16Z"
     fill="#E6E6E6"
     id="path158" />
  <path
     d="M146.992 200.168H132.924V202.401H146.992V200.168Z"
     fill="#3F3D56"
     id="path159" />
  <path
     d="M248.705 200.668L245.802 201.34L135.492 201.399L134.5 199.088C132.77 195.123 132.177 190.756 132.785 186.474C133.261 183.282 134.451 180.111 137.155 178.733L142.05 146.129L203.079 146.02L226.691 165.064C226.691 165.064 237.829 164.864 243.88 172.397C245.795 174.783 247.201 177.944 247.578 182.135L247.817 186.054L248.705 200.668Z"
     fill="#6C63FF"
     id="path160" />
  <path
     d="M224.476 213.744C231.999 213.744 238.097 207.646 238.097 200.123C238.097 192.6 231.999 186.502 224.476 186.502C216.953 186.502 210.855 192.6 210.855 200.123C210.855 207.646 216.953 213.744 224.476 213.744Z"
     fill="#3F3D56"
     id="path161" />
  <path
     d="M224.476 207.291C228.436 207.291 231.645 204.082 231.645 200.122C231.645 196.163 228.436 192.953 224.476 192.953C220.517 192.953 217.307 196.163 217.307 200.122C217.307 204.082 220.517 207.291 224.476 207.291Z"
     fill="#CCCCCC"
     id="path162" />
  <path
     d="M157.263 213.78C164.786 213.78 170.885 207.681 170.885 200.158C170.885 192.636 164.786 186.537 157.263 186.537C149.741 186.537 143.642 192.636 143.642 200.158C143.642 207.681 149.741 213.78 157.263 213.78Z"
     fill="#3F3D56"
     id="path163" />
  <path
     d="M157.263 207.328C161.223 207.328 164.432 204.119 164.432 200.159C164.432 196.2 161.223 192.99 157.263 192.99C153.304 192.99 150.094 196.2 150.094 200.159C150.094 204.119 153.304 207.328 157.263 207.328Z"
     fill="#CCCCCC"
     id="path164" />
  <path
     d="M217.31 162.838L184.36 162.852H180.337L173.546 162.857V162.361L173.541 156.39L173.536 149.684H178.054L182.076 149.679L189.202 149.675H193.224L201.45 149.67L217.31 162.838Z"
     fill="white"
     id="path165" />
  <path
     d="M168.184 162.86L150.77 162.87L150.766 159.452V153.481L150.761 149.697H153.311L157.333 149.692L168.18 149.688L168.184 162.86Z"
     fill="white"
     id="path166" />
  <path
     d="M175.784 172.684H173.551V176.926H175.784V172.684Z"
     fill="#3F3D56"
     id="path167" />
  <path
     d="M212.625 168.868L212.624 166.635L208.381 166.637L208.382 168.87L212.625 168.868Z"
     fill="#3F3D56"
     id="path168" />
  <path
     d="M209.941 158.285H210.187C211.425 158.285 212.612 158.777 213.487 159.652C214.362 160.527 214.854 161.714 214.854 162.952C214.854 164.19 214.362 165.377 213.487 166.252C212.612 167.127 211.425 167.619 210.187 167.619H209.941V158.285Z"
     fill="#3F3D56"
     id="path169" />
  <path
     d="M247.817 186.054C246.129 186.237 244.429 185.819 243.019 184.873C241.608 183.927 240.577 182.513 240.106 180.881C239.635 179.249 239.756 177.503 240.446 175.951C241.137 174.399 242.353 173.14 243.88 172.396C245.795 174.783 247.201 177.944 247.578 182.135L247.817 186.054Z"
     fill="#3F3D56"
     id="path170" />
  <path
     d="M182.076 149.68L173.545 162.362L173.54 156.39L178.053 149.684L182.076 149.68Z"
     fill="#F2F2F2"
     id="path171" />
  <path
     d="M157.332 149.695L150.765 159.456V153.484L153.31 149.7L157.332 149.695Z"
     fill="#F2F2F2"
     id="path172" />
  <path
     d="M193.224 149.674L184.359 162.851H180.337L189.201 149.674H193.224Z"
     fill="#F2F2F2"
     id="path173" />
  <path
     d="M325.947 172.107L334.492 172.111L334.493 170.755L325.948 170.75L325.947 172.107Z"
     fill="#3F3D56"
     id="path174" />
  <path
     d="M264.163 171.055L265.926 171.463L332.933 171.499L333.535 170.095C334.586 167.687 334.947 165.034 334.577 162.433C334.288 160.494 333.565 158.568 331.923 157.731L328.949 137.926L291.878 137.859L277.535 149.428C277.535 149.428 270.77 149.306 267.094 153.882C265.768 155.583 264.985 157.645 264.847 159.797L264.702 162.178L264.163 171.055Z"
     fill="#3F3D56"
     id="path175" />
  <path
     d="M278.881 178.997C283.45 178.997 287.155 175.293 287.155 170.723C287.155 166.154 283.45 162.449 278.881 162.449C274.311 162.449 270.606 166.154 270.606 170.723C270.606 175.293 274.311 178.997 278.881 178.997Z"
     fill="#3F3D56"
     id="path176" />
  <path
     d="M278.881 175.079C281.286 175.079 283.235 173.129 283.235 170.724C283.235 168.319 281.286 166.369 278.881 166.369C276.476 166.369 274.526 168.319 274.526 170.724C274.526 173.129 276.476 175.079 278.881 175.079Z"
     fill="#CCCCCC"
     id="path177" />
  <path
     d="M319.709 179.021C324.278 179.021 327.983 175.316 327.983 170.747C327.983 166.177 324.278 162.473 319.709 162.473C315.139 162.473 311.435 166.177 311.435 170.747C311.435 175.316 315.139 179.021 319.709 179.021Z"
     fill="#3F3D56"
     id="path178" />
  <path
     d="M319.708 175.1C322.113 175.1 324.063 173.15 324.063 170.745C324.063 168.34 322.113 166.391 319.708 166.391C317.303 166.391 315.354 168.34 315.354 170.745C315.354 173.15 317.303 175.1 319.708 175.1Z"
     fill="#CCCCCC"
     id="path179" />
  <path
     d="M283.234 148.075L303.25 148.084H305.693L309.818 148.087V147.786L309.821 144.158L309.824 140.085H307.08L304.636 140.082L300.309 140.079H297.865L292.868 140.076L283.234 148.075Z"
     fill="white"
     id="path180" />
  <path
     d="M313.075 148.089L323.653 148.095L323.656 146.019V142.392L323.659 140.094H322.11L319.666 140.091L313.078 140.088L313.075 148.089Z"
     fill="white"
     id="path181" />
  <path
     d="M308.458 156.632L309.814 156.633L309.816 154.056L308.459 154.055L308.458 156.632Z"
     fill="#3F3D56"
     id="path182" />
  <path
     d="M288.657 151.737L288.657 150.381L286.08 150.379L286.079 151.736L288.657 151.737Z"
     fill="#3F3D56"
     id="path183" />
  <path
     d="M287.708 150.979L287.558 150.978C286.806 150.978 286.086 150.679 285.554 150.147C285.023 149.615 284.725 148.894 284.725 148.142C284.725 147.39 285.024 146.669 285.556 146.138C286.088 145.607 286.809 145.308 287.561 145.309L287.711 145.309L287.708 150.979Z"
     fill="#3F3D56"
     id="path184" />
  <path
     d="M264.703 162.177C265.728 162.288 266.761 162.034 267.617 161.459C268.474 160.885 269.101 160.026 269.387 159.034C269.673 158.043 269.599 156.983 269.18 156.04C268.761 155.097 268.022 154.332 267.094 153.881C265.768 155.582 264.986 157.644 264.848 159.796L264.703 162.177Z"
     fill="#3F3D56"
     id="path185" />
  <path
     d="M304.636 140.082L309.818 147.786L309.821 144.158L307.079 140.085L304.636 140.082Z"
     fill="#F2F2F2"
     id="path186" />
  <path
     d="M319.667 140.09L323.656 146.019V142.391L322.11 140.093L319.667 140.09Z"
     fill="#F2F2F2"
     id="path187" />
  <path
     d="M297.864 140.08L303.249 148.085H305.692L300.308 140.08H297.864Z"
     fill="#F2F2F2"
     id="path188" />
  <path
     d="M76.5545 232.789C76.5545 232.789 76.5545 247.952 80.0345 251.929C80.0345 251.929 80.7802 253.918 81.0288 254.663C81.1678 255.088 81.3339 255.503 81.526 255.906V256.9C81.526 256.9 88.2374 256.155 88.9831 254.415L87.7402 252.923C87.7402 252.923 87.4916 252.675 87.7402 251.929C87.7828 251.848 87.8027 251.757 87.7979 251.665C87.7931 251.574 87.7637 251.485 87.7128 251.409C87.662 251.332 87.5915 251.271 87.5089 251.232C87.4262 251.192 87.3344 251.175 87.2431 251.183L85.5031 247.206L85.7517 230.801L84.5088 208.181L73.8203 207.684L76.5545 232.789Z"
     fill="#2F2E41"
     id="path189" />
  <path
     d="M82.0228 255.406C82.0228 255.406 80.2829 260.626 82.0228 260.875C83.7628 261.123 98.9256 261.372 98.677 259.384C98.4285 257.395 93.4571 257.644 93.4571 257.644L88.2371 254.412L82.0228 255.406Z"
     fill="#2F2E41"
     id="path190" />
  <path
     d="M66.6111 208.178C66.3976 210.516 66.919 212.862 68.1025 214.889C70.091 218.369 68.8482 230.052 68.8482 230.052L51.1997 245.463C51.1997 245.463 54.6797 251.429 55.9225 251.18C57.1654 250.932 76.8024 235.023 76.8024 235.023L84.5081 209.172L66.6111 208.178Z"
     fill="#2F2E41"
     id="path191" />
  <path
     d="M51.4428 244.807C51.4428 244.807 46.1023 246.131 46.8239 247.734C47.5454 249.337 55.4528 262.277 56.9994 261.002C58.5459 259.728 55.6745 255.662 55.6745 255.662L55.6094 249.523L51.4428 244.807Z"
     fill="#2F2E41"
     id="path192" />
  <path
     d="M76.306 167.663C79.4634 167.663 82.0231 165.103 82.0231 161.946C82.0231 158.788 79.4634 156.229 76.306 156.229C73.1485 156.229 70.5889 158.788 70.5889 161.946C70.5889 165.103 73.1485 167.663 76.306 167.663Z"
     fill="#FFB8B8"
     id="path193" />
  <path
     d="M71.8076 163.963L72.0605 171.32L76.871 173.22C76.871 173.22 77.3428 165.688 78.0087 165.27C78.6746 164.852 71.8076 163.963 71.8076 163.963Z"
     fill="#FFB8B8"
     id="path194" />
  <path
     d="M78.0456 174.124C78.0456 174.124 71.3342 167.412 69.5942 167.661C67.8542 167.91 67.8542 168.655 67.8542 169.152C67.8542 169.65 68.3514 169.898 67.8542 170.147C67.3571 170.395 66.86 170.147 66.86 170.892C66.86 171.638 62.3857 179.095 63.8771 187.298C65.3686 195.501 67.1085 199.478 66.3628 203.952C65.6171 208.427 66.1142 209.421 66.1142 209.421C66.1142 209.421 84.757 210.912 85.0056 209.172C85.2541 207.432 84.2599 208.427 85.5027 207.184C86.7455 205.941 86.2484 205.941 86.2484 205.195C86.2484 204.449 80.7799 174.124 78.0456 174.124Z"
     fill="#575A89"
     id="path195" />
  <path
     d="M74.5659 207.93C74.5659 207.93 77.5488 215.139 79.7859 213.399C82.023 211.659 78.7916 205.693 78.7916 205.693L74.5659 207.93Z"
     fill="#FFB8B8"
     id="path196" />
  <path
     d="M67.3569 174.622C67.3569 174.622 61.5168 175.29 63.6911 186.017C65.8655 196.744 74.3169 209.173 74.3169 209.173L80.034 206.438L72.5769 191.773L74.3169 182.576C74.3169 182.576 75.3112 173.876 67.3569 174.622Z"
     fill="#575A89"
     id="path197" />
  <path
     opacity="0.2"
     d="M72.4526 191.898L80.6554 205.57L79.9101 206.315L72.4526 191.898Z"
     fill="black"
     id="path198" />
  <path
     opacity="0.2"
     d="M68.1113 198.268L74.6902 209.048H72.4529L68.1113 198.268Z"
     fill="black"
     id="path199" />
  <path
     d="M73.7183 165.381C74.2034 165.184 74.7061 165.035 75.2197 164.934C76.1093 164.633 76.8616 164.023 77.3404 163.215C77.8191 162.407 77.9926 161.455 77.8293 160.53C77.7585 160.295 77.7267 160.049 77.7352 159.804C77.8056 159.539 77.9529 159.301 78.1586 159.12C78.3642 158.939 78.619 158.823 78.8906 158.786C79.4336 158.723 79.9713 158.62 80.4996 158.48C80.886 158.306 81.2204 158.034 81.4698 157.691C81.7191 157.349 81.8748 156.947 81.9214 156.526C82.0027 155.678 81.814 154.827 81.3822 154.093L81.1897 154.647C80.8962 154.398 80.6783 154.072 80.5609 153.706C80.3422 153.743 80.1365 153.835 79.9637 153.974C79.7909 154.113 79.6566 154.294 79.5738 154.5C79.2649 154.682 79.2204 153.934 78.8791 153.824C78.7291 153.805 78.5774 153.842 78.4532 153.929C77.7657 154.249 76.9668 153.975 76.2293 153.797C74.9521 153.491 73.6207 153.489 72.3428 153.793C71.481 153.962 70.6846 154.372 70.0459 154.975C69.5708 155.514 69.2058 156.141 68.9715 156.821C68.2564 158.444 67.9584 160.219 68.1045 161.986C68.2837 163.42 68.8833 164.768 69.8277 165.86C70.3196 166.427 71.9248 168.405 72.8049 168.068C73.9108 167.644 72.4153 166.07 73.7183 165.381Z"
     fill="#2F2E41"
     id="path200" />
  <path
     opacity="0.2"
     d="M82.9723 217.86L76.4312 235.01L76.7616 235.136L83.3027 217.986L82.9723 217.86Z"
     fill="black"
     id="path201" />
  <path
     d="M78.0103 175.49C78.2056 175.49 78.364 175.332 78.364 175.137C78.364 174.942 78.2056 174.783 78.0103 174.783C77.8151 174.783 77.6567 174.942 77.6567 175.137C77.6567 175.332 77.8151 175.49 78.0103 175.49Z"
     fill="#D0CDE1"
     id="path202" />
  <path
     d="M81.0164 185.037C80.9786 185.037 80.9419 185.025 80.9115 185.002C80.8811 184.98 80.8587 184.948 80.8476 184.912L77.8419 175.188C77.828 175.143 77.8325 175.095 77.8544 175.053C77.8763 175.012 77.9137 174.981 77.9585 174.967C78.0033 174.953 78.0518 174.958 78.0932 174.979C78.1347 175.001 78.1658 175.039 78.1796 175.084L81.1853 184.808C81.1934 184.834 81.1952 184.862 81.1906 184.89C81.1859 184.917 81.175 184.943 81.1585 184.965C81.1421 184.987 81.1207 185.005 81.096 185.018C81.0713 185.03 81.0441 185.037 81.0164 185.037Z"
     fill="#D0CDE1"
     id="path203" />
  <path
     d="M398.609 171.226C401.907 171.226 404.58 168.553 404.58 165.255C404.58 161.958 401.907 159.285 398.609 159.285C395.312 159.285 392.639 161.958 392.639 165.255C392.639 168.553 395.312 171.226 398.609 171.226Z"
     fill="#2F2E41"
     id="path204" />
  <path
     d="M390.123 201.422L389.217 203.232C389.217 203.232 386.321 207.939 388.312 208.482C390.304 209.025 390.937 204.952 390.937 204.952L391.299 202.78L390.123 201.422Z"
     fill="#A0616A"
     id="path205" />
  <path
     d="M393.743 192.189L391.48 198.163L389.218 202.327L392.024 204.137L394.286 200.155L397.002 193.909L393.743 192.189Z"
     fill="#D0CDE1"
     id="path206" />
  <path
     d="M400.17 220.158L404.696 224.955L412.662 238.442L416.101 237.356L412.028 229.3C412.028 229.3 409.675 223.145 408.498 222.33C407.321 221.515 405.33 216.175 405.33 216.175L403.157 214.455L400.17 220.158Z"
     fill="#A0616A"
     id="path207" />
  <path
     d="M390.847 222.783L390.485 224.322C390.485 224.322 389.308 229.119 387.498 231.292L383.153 238.805L379.895 237.718L386.321 222.512L390.847 222.783Z"
     fill="#A0616A"
     id="path208" />
  <path
     d="M397.591 172.231C400.29 172.231 402.478 170.042 402.478 167.343C402.478 164.643 400.29 162.455 397.591 162.455C394.891 162.455 392.703 164.643 392.703 167.343C392.703 170.042 394.891 172.231 397.591 172.231Z"
     fill="#A0616A"
     id="path209" />
  <path
     d="M401.437 169.74L402.071 174.99L397.997 176.981C397.997 176.981 397.997 172.456 396.911 171.279L401.437 169.74Z"
     fill="#A0616A"
     id="path210" />
  <path
     d="M414.2 203.594L414.653 205.133C414.653 205.133 417.64 211.016 415.105 211.016C412.571 211.016 412.118 205.585 412.118 205.585L411.847 204.227L414.2 203.594Z"
     fill="#A0616A"
     id="path211" />
  <path
     d="M393.381 197.438L394.015 201.873L386.321 218.075L385.869 222.782L400.261 224.592L403.429 215.812L408.498 222.329L405.601 215.631C405.601 215.631 404.696 211.105 404.968 209.929C405.239 208.752 404.786 202.868 403.972 201.42C403.157 199.972 393.381 197.438 393.381 197.438Z"
     fill="#2F2E41"
     id="path212" />
  <path
     d="M412.118 238.442L416.463 236.994L417.821 239.167C417.821 239.167 420.446 239.891 420.355 241.791C420.368 243.521 420.519 245.246 420.808 246.951L418.907 247.132L418.183 243.421L414.471 247.856C414.471 247.856 407.864 248.218 407.592 247.132C407.321 246.046 412.299 244.869 412.299 244.869L413.114 240.977L412.118 238.442Z"
     fill="#2F2E41"
     id="path213" />
  <path
     d="M379.623 237.176L383.606 238.443V239.348C383.606 239.348 384.782 241.158 384.601 242.697C384.42 244.236 383.606 247.947 383.606 247.947H381.524L381.614 244.508L377.451 247.947C377.451 247.947 370.028 247.404 370.028 246.227C370.028 245.051 375.731 244.236 375.731 244.236L379.623 237.176Z"
     fill="#2F2E41"
     id="path214" />
  <path
     d="M397.726 175.895C397.726 175.895 401.437 172.184 403.157 173.089V174.719C403.157 174.719 405.692 175.896 405.782 177.706C405.873 179.516 408.498 195.99 408.498 195.99L414.653 217.442C414.653 217.442 412.752 220.429 405.782 217.08L401.437 202.326C401.437 202.326 406.054 218.981 403.791 218.71C401.528 218.438 392.657 197.8 392.657 197.8L393.291 188.025C393.291 188.025 391.843 183.77 394.739 180.874L397.726 175.895Z"
     fill="#D0CDE1"
     id="path215" />
  <path
     d="M404.063 176.439C404.063 176.439 405.601 176.983 406.688 179.336C407.774 181.689 413.205 198.254 413.205 198.254L414.653 204.137L410.58 205.133L408.588 199.068L401.166 185.31C401.166 185.31 399.989 178.069 404.063 176.439Z"
     fill="#D0CDE1"
     id="path216" />
  <path
     d="M403.705 163.444C403.685 162.882 403.527 162.334 403.245 161.847C402.963 161.361 402.566 160.951 402.089 160.654C402.586 159.656 403.03 158.517 402.702 157.452C402.569 157.038 402.329 156.668 402.005 156.378C401.682 156.089 401.287 155.891 400.861 155.805C400.386 155.739 399.904 155.745 399.431 155.823L397.201 156.076C396.47 156.104 395.756 156.297 395.11 156.639C394.79 156.842 394.522 157.117 394.327 157.442C394.132 157.767 394.017 158.134 393.989 158.512C393.962 158.89 394.024 159.269 394.17 159.619C394.316 159.968 394.542 160.279 394.83 160.525C393.27 161.774 392.227 162.721 391.517 164.589C392.708 163.619 394.195 163.086 395.731 163.08C396.776 163.024 397.801 163.377 398.589 164.064C399.377 164.751 399.866 165.719 399.952 166.761C399.943 167.284 399.989 167.806 400.089 168.32C400.146 168.575 400.289 168.803 400.494 168.967C400.699 169.13 400.954 169.218 401.216 169.216C401.144 169.226 400.702 167.898 401.013 167.285L401.018 167.276C401.086 167.149 401.199 167.052 401.335 167.004C401.456 166.957 401.585 166.937 401.715 166.945C401.844 166.952 401.97 166.987 402.085 167.047C402.2 167.107 402.3 167.191 402.38 167.293C402.46 167.395 402.518 167.513 402.548 167.638C402.722 168.303 402.999 169.152 403.241 168.927C403.558 168.632 403.424 166.031 403.51 165.628C403.68 164.913 403.746 164.177 403.705 163.444Z"
     fill="#2F2E41"
     id="path217" />
  <path
     d="M402.064 160.634C402.064 160.634 397.159 160.954 394.812 160.527L402.064 160.634Z"
     fill="#D0CDE1"
     id="path218" />
  <path
     d="M401.786 159.979C402.283 158.981 402.727 157.842 402.399 156.777C402.246 156.297 401.947 155.876 401.543 155.574C401.852 155.716 402.127 155.92 402.352 156.174C402.578 156.428 402.748 156.726 402.852 157.049C403.179 158.114 402.735 159.253 402.238 160.251C401.844 160.192 402.775 160.506 401.786 159.979Z"
     fill="#2F2E41"
     id="path219" />
  <path
     opacity="0.2"
     d="M400.215 185.355L407.276 197.847L409.991 204.635L406.189 198.118L400.215 185.355Z"
     fill="black"
     id="path220" />
  <path
     d="M66.4617 256.352C66.4617 256.352 64.2485 261.169 62.4515 262.52C60.6319 261.166 58.3753 256.352 58.3753 256.352C58.3753 256.352 56.1621 261.169 54.365 262.52C52.5455 261.166 50.2889 256.352 50.2889 256.352C50.2889 256.352 44.0031 262.778 44.0205 265.821C44.021 265.897 44.0253 265.972 44.0334 266.048C44.248 268.04 50.7468 268.548 54.3168 267.609C56.9781 268.216 59.742 268.216 62.4032 267.609C65.9581 268.563 72.589 268.016 72.7828 266.001C72.7901 265.926 72.7936 265.85 72.7931 265.774C72.7758 262.731 66.4617 256.352 66.4617 256.352Z"
     fill="#6C63FF"
     id="path221" />
  <path
     d="M198.516 256.352C198.516 256.352 196.303 261.169 194.506 262.52C192.687 261.166 190.43 256.352 190.43 256.352C190.43 256.352 188.217 261.169 186.42 262.52C184.6 261.166 182.344 256.352 182.344 256.352C182.344 256.352 176.058 262.778 176.075 265.821C176.076 265.897 176.08 265.972 176.088 266.048C176.303 268.04 182.801 268.548 186.372 267.609C189.033 268.216 191.797 268.216 194.458 267.609C198.013 268.563 204.644 268.016 204.838 266.001C204.845 265.926 204.848 265.85 204.848 265.774C204.83 262.731 198.516 256.352 198.516 256.352Z"
     fill="#E6E6E6"
     id="path222" />
  <path
     d="M329.716 256.352C329.716 256.352 327.503 261.169 325.706 262.52C323.886 261.166 321.63 256.352 321.63 256.352C321.63 256.352 319.416 261.169 317.619 262.52C315.8 261.166 313.543 256.352 313.543 256.352C313.543 256.352 307.258 262.778 307.275 265.821C307.275 265.897 307.28 265.972 307.288 266.048C307.502 268.04 314.001 268.548 317.571 267.609C320.232 268.216 322.996 268.216 325.658 267.609C329.212 268.563 335.843 268.016 336.037 266.001C336.045 265.926 336.048 265.85 336.048 265.774C336.03 262.731 329.716 256.352 329.716 256.352Z"
     fill="#6C63FF"
     id="path223" />
  <path
     d="M74.3907 22.607L74.3328 22.6385C73.7071 22.9807 73.0058 23.1613 72.2925 23.1638C71.5793 23.1663 70.8768 22.9907 70.2486 22.6528C70.2124 22.6333 70.1764 22.614 70.1406 22.595C69.5125 22.2597 68.8111 22.0855 68.0991 22.088C67.3871 22.0905 66.6868 22.2695 66.0611 22.6091L66.007 22.6385C65.3813 22.9808 64.68 23.1613 63.9667 23.1638C63.2535 23.1663 62.551 22.9907 61.9228 22.6529C61.8852 22.6326 61.8479 22.6126 61.8108 22.5928C61.19 22.2591 60.4965 22.0838 59.7918 22.0826C59.0871 22.0813 58.3929 22.2541 57.771 22.5857C55.8713 23.6087 53.3032 25.3579 53.3145 27.3333C53.3149 27.4114 53.3194 27.4895 53.3278 27.5671C53.5487 29.6186 60.2398 30.1413 63.9156 29.1745C66.6556 29.7997 69.5013 29.7997 72.2414 29.1745C75.9014 30.1568 82.7287 29.594 82.9283 27.519C82.9358 27.4413 82.9393 27.3632 82.9389 27.2851C82.9276 25.3086 80.3367 23.5778 78.4251 22.5692C77.8015 22.2429 77.107 22.0756 76.4032 22.0822C75.6994 22.0888 75.0081 22.2691 74.3907 22.607Z"
     fill="#E6E6E6"
     id="path224" />
  <path
     d="M198.741 44.2886L198.683 44.3201C198.057 44.6624 197.356 44.8429 196.643 44.8454C195.929 44.8479 195.227 44.6723 194.599 44.3345C194.563 44.315 194.527 44.2957 194.491 44.2766C193.863 43.9414 193.161 43.7672 192.449 43.7696C191.737 43.7721 191.037 43.9511 190.411 44.2907L190.357 44.3202C189.731 44.6624 189.03 44.8429 188.317 44.8454C187.604 44.8479 186.901 44.6723 186.273 44.3345C186.235 44.3142 186.198 44.2942 186.161 44.2745C185.54 43.9407 184.847 43.7655 184.142 43.7642C183.437 43.763 182.743 43.9358 182.121 44.2673C180.221 45.2904 177.653 47.0395 177.665 49.0149C177.665 49.093 177.669 49.1711 177.678 49.2488C177.899 51.3002 184.59 51.8229 188.266 50.8561C191.006 51.4814 193.851 51.4814 196.591 50.8561C200.252 51.8384 207.079 51.2757 207.278 49.2007C207.286 49.1229 207.289 49.0449 207.289 48.9668C207.278 46.9903 204.687 45.2595 202.775 44.2508C202.152 43.9245 201.457 43.7573 200.753 43.7639C200.049 43.7704 199.358 43.9507 198.741 44.2886Z"
     fill="#E6E6E6"
     id="path225" />
  <path
     d="M284.685 23.5464L284.627 23.578C284.001 23.9202 283.3 24.1007 282.587 24.1033C281.874 24.1058 281.171 23.9301 280.543 23.5923C280.507 23.5728 280.471 23.5535 280.435 23.5345C279.807 23.1992 279.106 23.025 278.394 23.0274C277.682 23.0299 276.981 23.2089 276.356 23.5485L276.301 23.578C275.676 23.9202 274.974 24.1008 274.261 24.1033C273.548 24.1058 272.845 23.9301 272.217 23.5923C272.18 23.572 272.142 23.552 272.105 23.5323C271.484 23.1986 270.791 23.0233 270.086 23.022C269.381 23.0208 268.687 23.1936 268.065 23.5251C266.166 24.5482 263.598 26.2973 263.609 28.2727C263.609 28.3509 263.614 28.4289 263.622 28.5066C263.843 30.558 270.534 31.0807 274.21 30.1139C276.95 30.7392 279.796 30.7392 282.536 30.1139C286.196 31.0962 293.023 30.5335 293.223 28.4585C293.23 28.3807 293.234 28.3027 293.233 28.2246C293.222 26.2481 290.631 24.5173 288.72 23.5086C288.096 23.1823 287.401 23.0151 286.698 23.0217C285.994 23.0283 285.303 23.2085 284.685 23.5464Z"
     fill="#E6E6E6"
     id="path226" />
</svg>
