<?xml version="1.0" encoding="UTF-8"?>
<svg width="246px" height="227px" viewBox="0 0 246 227" version="1.1" xmlns="http://www.w3.org/2000/svg" xmlns:xlink="http://www.w3.org/1999/xlink">
    <title>Slice 1</title>
    <g id="Page-1" stroke="none" stroke-width="1" fill="none" fill-rule="evenodd">
        <g id="Frame" transform="translate(0.992675, 0.000000)">
            <circle id="Oval" fill="#FFFFFF" fill-rule="nonzero" cx="119.507325" cy="113.5" r="113.5"></circle>
            <path d="M239.544325,219.26 C241.614325,217.188 239.222325,211.433 234.201325,206.407 C229.180325,201.381 223.430325,198.987 221.360325,201.06 C219.289325,203.132 221.681325,208.887 226.702325,213.913 C231.724325,218.939 237.473325,221.333 239.544325,219.26 Z" id="Path" fill="#6C63FF" fill-rule="nonzero" opacity="0.1"></path>
            <path d="M231.377325,210.979 C232.943325,210.979 234.213325,209.316 234.213325,207.264 C234.213325,205.212 232.943325,203.549 231.377325,203.549 C229.810325,203.549 228.540325,205.212 228.540325,207.264 C228.540325,209.316 229.810325,210.979 231.377325,210.979 Z" id="Path" fill="#3F3D56" fill-rule="nonzero"></path>
            <path d="M231.377325,206.414 C232.943325,206.414 234.213325,204.751 234.213325,202.699 C234.213325,200.648 232.943325,198.984 231.377325,198.984 C229.810325,198.984 228.540325,200.648 228.540325,202.699 C228.540325,204.751 229.810325,206.414 231.377325,206.414 Z" id="Path" fill="#3F3D56" fill-rule="nonzero"></path>
            <path d="M231.377325,201.875 C232.943325,201.875 234.213325,200.212 234.213325,198.16 C234.213325,196.109 232.943325,194.445 231.377325,194.445 C229.810325,194.445 228.540325,196.109 228.540325,198.16 C228.540325,200.212 229.810325,201.875 231.377325,201.875 Z" id="Path" fill="#3F3D56" fill-rule="nonzero"></path>
            <path d="M231.377325,197.313 C232.943325,197.313 234.213325,195.65 234.213325,193.598 C234.213325,191.546 232.943325,189.883 231.377325,189.883 C229.810325,189.883 228.540325,191.546 228.540325,193.598 C228.540325,195.65 229.810325,197.313 231.377325,197.313 Z" id="Path" fill="#3F3D56" fill-rule="nonzero"></path>
            <path d="M231.377325,192.748 C232.943325,192.748 234.213325,191.085 234.213325,189.033 C234.213325,186.982 232.943325,185.318 231.377325,185.318 C229.810325,185.318 228.540325,186.982 228.540325,189.033 C228.540325,191.085 229.810325,192.748 231.377325,192.748 Z" id="Path" fill="#3F3D56" fill-rule="nonzero"></path>
            <path d="M231.377325,188.184 C232.943325,188.184 234.213325,186.521 234.213325,184.469 C234.213325,182.417 232.943325,180.754 231.377325,180.754 C229.810325,180.754 228.540325,182.417 228.540325,184.469 C228.540325,186.521 229.810325,188.184 231.377325,188.184 Z" id="Path" fill="#3F3D56" fill-rule="nonzero"></path>
            <path d="M231.377325,183.647 C232.943325,183.647 234.213325,181.984 234.213325,179.932 C234.213325,177.88 232.943325,176.217 231.377325,176.217 C229.810325,176.217 228.540325,177.88 228.540325,179.932 C228.540325,181.984 229.810325,183.647 231.377325,183.647 Z" id="Path" fill="#3F3D56" fill-rule="nonzero"></path>
            <path d="M242.008325,148.751 C242.406325,148.247 242.751325,147.742 243.069325,147.185 L235.592325,145.965 L243.678325,146.018 C245.243325,142.595 245.349325,138.694 243.944325,135.218 L233.100325,140.843 L243.095325,133.493 C239.331325,126.965 231.006325,124.736 224.484325,128.504 C217.962325,132.272 215.735325,140.604 219.500325,147.132 C219.818325,147.689 220.189325,148.247 220.587325,148.751 C219.977325,149.52 219.447325,150.343 219.022325,151.245 L228.726325,156.287 L218.386325,152.811 C216.901325,157.189 217.750325,161.992 220.587325,165.628 C215.920325,171.545 216.954325,180.116 222.867325,184.786 C228.779325,189.457 237.342325,188.422 242.008325,182.504 C245.905325,177.569 245.905325,170.59 242.008325,165.628 C245.905325,160.665 245.905325,153.686 242.008325,148.751 Z" id="Path" fill="#6C63FF" fill-rule="nonzero"></path>
            <path d="M217.670325,157.189 C217.670325,160.241 218.704325,163.213 220.587325,165.628 C215.920325,171.545 216.954325,180.116 222.867325,184.787 C228.779325,189.457 237.342325,188.422 242.008325,182.504 C245.905325,177.569 245.905325,170.59 242.008325,165.628 C243.838325,163.293 217.670325,155.65 217.670325,157.189 Z" id="Path" fill="#000000" fill-rule="nonzero" opacity="0.1"></path>
            <polygon id="Path" fill="#444053" fill-rule="nonzero" points="224.563325 20 224.563325 211.057 159.874325 202.035 81.2398253 218.089 80.6036253 218.222 18.0354253 200.974 18.0354253 34.86 82.9896253 20 154.041325 34.86 156.746325 34.2762"></polygon>
            <polygon id="Path" fill="#FFFFFF" fill-rule="nonzero" points="213.693325 30.4277 213.693325 201.371 155.818325 193.304 85.4552253 207.687 84.8985253 207.793 28.9052253 192.349 28.9052253 43.7221 87.0194253 30.4277 150.595325 43.7221 153.007325 43.218"></polygon>
            <polygon id="Path" fill="#000000" fill-rule="nonzero" opacity="0.1" points="159.874325 202.035 81.2400253 218.089 82.9898253 20 154.041325 34.86 156.746325 34.2762"></polygon>
            <g id="Group" opacity="0.3" transform="translate(23.337925, 56.619100)" stroke="#444053" stroke-width="3">
                <polyline id="Path" points="128.6894 1.42108547e-14 128.7154 55.5925 151.7804 55.5925 151.7804 32.7717 191.2834 32.7717 195.9234 26.8277"></polyline>
                <polyline id="Path" points="0.2651 17.6461 86.0314 17.6461 91.3334 15.2579 93.4544 15.2579 93.4544 68.8599 130.5714 68.8599 132.1624 73.6369 132.1624 97.7839 160.7954 97.7839 160.7954 127.6369"></polyline>
                <line x1="104.7754" y1="127.6359" x2="104.7754" y2="68.8599" id="Path"></line>
                <line x1="195.9234" y1="111.9019" x2="104.7754" y2="111.9019" id="Path"></line>
                <line x1="173.0964" y1="1.42108547e-14" x2="173.0964" y2="127.6369" id="Path"></line>
                <line x1="-3.55271368e-15" y1="100.5979" x2="195.9234" y2="100.5979" id="Path"></line>
                <line x1="23.8342" y1="127.6369" x2="23.8342" y2="1.42108547e-14" id="Path"></line>
                <line x1="69.3816" y1="1.42108547e-14" x2="69.3816" y2="127.6369" id="Path"></line>
                <line x1="0.2651" y1="32.2403" x2="151.7804" y2="32.771" id="Path"></line>
                <line x1="44.3545" y1="0.2383" x2="44.3545" y2="127.6369" id="Path"></line>
                <polyline id="Path" points="-3.55271368e-15 61.7754 69.3817 61.7754 104.7754 100.5969"></polyline>
                <line x1="112.4634" y1="1.42108547e-14" x2="112.4634" y2="68.8599" id="Path"></line>
                <line x1="104.7754" y1="81.1989" x2="195.9234" y2="81.1989" id="Path"></line>
            </g>
            <path d="M142.111325,76.7871 C134.025325,76.7871 127.450325,83.3414 127.450325,91.4614 C127.450325,99.5548 142.111325,125.878 142.111325,125.878 C142.111325,125.878 156.772325,99.5813 156.772325,91.4614 C156.772325,83.3414 150.197325,76.7871 142.111325,76.7871 Z M142.111325,97.7238 C138.558325,97.7238 135.669325,94.8314 135.669325,91.2756 C135.669325,87.7198 138.558325,84.8274 142.111325,84.8274 C145.664325,84.8274 148.553325,87.7198 148.553325,91.2756 C148.553325,94.8314 145.664325,97.7238 142.111325,97.7238 Z" id="Shape" fill="#6C63FF" fill-rule="nonzero"></path>
            <path d="M142.111325,78.9102 C134.025325,78.9102 127.450325,85.4645 127.450325,93.5844 C127.450325,101.6778 142.111325,128.001 142.111325,128.001 C142.111325,128.001 156.772325,101.7044 156.772325,93.5844 C156.772325,85.4645 150.197325,78.9102 142.111325,78.9102 Z M142.111325,99.8469 C138.558325,99.8469 135.669325,96.9545 135.669325,93.3987 C135.669325,89.8429 138.558325,86.9505 142.111325,86.9505 C145.664325,86.9505 148.553325,89.8429 148.553325,93.3987 C148.553325,96.9545 145.664325,99.8469 142.111325,99.8469 Z" id="Shape" fill="#6C63FF" fill-rule="nonzero"></path>
            <path d="M188.348325,47.332 C180.262325,47.332 173.687325,53.8864 173.687325,62.0063 C173.687325,70.0997 188.348325,96.4232 188.348325,96.4232 C188.348325,96.4232 203.009325,70.1263 203.009325,62.0063 C203.009325,53.8864 196.434325,47.332 188.348325,47.332 Z M188.348325,68.2687 C184.795325,68.2687 181.905325,65.3764 181.905325,61.8206 C181.905325,58.2648 184.795325,55.3724 188.348325,55.3724 C191.900325,55.3724 194.790325,58.2648 194.790325,61.8206 C194.790325,65.3764 191.900325,68.2687 188.348325,68.2687 Z" id="Shape" fill="#EB574B" fill-rule="nonzero"></path>
            <path d="M51.4404253,60.2559 C43.3542253,60.2559 36.7793253,66.8102 36.7793253,74.9301 C36.7793253,83.0235 51.4404253,109.347 51.4404253,109.347 C51.4404253,109.347 66.1015253,83.0501 66.1015253,74.9301 C66.1015253,66.8367 59.5265253,60.2559 51.4404253,60.2559 Z M51.4404253,81.1926 C47.8878253,81.1926 44.9980253,78.3002 44.9980253,74.7444 C44.9980253,71.1886 47.8878253,68.2962 51.4404253,68.2962 C54.9930253,68.2962 57.8828253,71.1886 57.8828253,74.7444 C57.8828253,78.3002 54.9930253,81.1926 51.4404253,81.1926 Z" id="Shape" fill="#E8AB31" fill-rule="nonzero"></path>
            <path d="M73.7104253,120.438 C65.6243253,120.438 59.0493253,126.992 59.0493253,135.112 C59.0493253,143.205 73.7104253,169.529 73.7104253,169.529 C73.7104253,169.529 88.3715253,143.232 88.3715253,135.112 C88.3715253,126.992 81.7965253,120.438 73.7104253,120.438 Z M73.7104253,141.374 C70.1578253,141.374 67.2680253,138.482 67.2680253,134.926 C67.2680253,131.37 70.1578253,128.478 73.7104253,128.478 C77.2630253,128.478 80.1528253,131.37 80.1528253,134.926 C80.1528253,138.482 77.2630253,141.374 73.7104253,141.374 Z" id="Shape" fill="#FECB40" fill-rule="nonzero"></path>
            <path d="M137.125325,217.976 C141.630325,216.034 144.634325,212.955 143.835325,211.097 C143.036325,209.24 138.736325,209.308 134.231325,211.25 C129.726325,213.192 126.722325,216.271 127.521325,218.129 C128.321325,219.986 132.620325,219.918 137.125325,217.976 Z" id="Path" fill="#6C63FF" fill-rule="nonzero" opacity="0.1"></path>
            <path d="M135.589325,215.753 C136.673325,215.753 137.551325,214.601 137.551325,213.179 C137.551325,211.758 136.673325,210.605 135.589325,210.605 C134.505325,210.605 133.627325,211.758 133.627325,213.179 C133.627325,214.601 134.505325,215.753 135.589325,215.753 Z" id="Path" fill="#3F3D56" fill-rule="nonzero"></path>
            <path d="M135.589325,212.597 C136.673325,212.597 137.551325,211.445 137.551325,210.023 C137.551325,208.602 136.673325,207.449 135.589325,207.449 C134.505325,207.449 133.627325,208.602 133.627325,210.023 C133.627325,211.445 134.505325,212.597 135.589325,212.597 Z" id="Path" fill="#3F3D56" fill-rule="nonzero"></path>
            <path d="M135.589325,209.466 C136.673325,209.466 137.551325,208.314 137.551325,206.892 C137.551325,205.471 136.673325,204.318 135.589325,204.318 C134.505325,204.318 133.627325,205.471 133.627325,206.892 C133.627325,208.314 134.505325,209.466 135.589325,209.466 Z" id="Path" fill="#3F3D56" fill-rule="nonzero"></path>
            <path d="M135.589325,206.334 C136.673325,206.334 137.551325,205.181 137.551325,203.76 C137.551325,202.338 136.673325,201.186 135.589325,201.186 C134.505325,201.186 133.627325,202.338 133.627325,203.76 C133.627325,205.181 134.505325,206.334 135.589325,206.334 Z" id="Path" fill="#3F3D56" fill-rule="nonzero"></path>
            <path d="M135.589325,203.175 C136.673325,203.175 137.551325,202.023 137.551325,200.601 C137.551325,199.18 136.673325,198.027 135.589325,198.027 C134.505325,198.027 133.627325,199.18 133.627325,200.601 C133.627325,202.023 134.505325,203.175 135.589325,203.175 Z" id="Path" fill="#3F3D56" fill-rule="nonzero"></path>
            <path d="M135.589325,200.044 C136.673325,200.044 137.551325,198.892 137.551325,197.47 C137.551325,196.049 136.673325,194.896 135.589325,194.896 C134.505325,194.896 133.627325,196.049 133.627325,197.47 C133.627325,198.892 134.505325,200.044 135.589325,200.044 Z" id="Path" fill="#3F3D56" fill-rule="nonzero"></path>
            <path d="M135.589325,196.914 C136.673325,196.914 137.551325,195.761 137.551325,194.34 C137.551325,192.918 136.673325,191.766 135.589325,191.766 C134.505325,191.766 133.627325,192.918 133.627325,194.34 C133.627325,195.761 134.505325,196.914 135.589325,196.914 Z" id="Path" fill="#3F3D56" fill-rule="nonzero"></path>
            <path d="M128.245325,172.847 C127.980325,172.502 127.741325,172.157 127.503325,171.785 L132.646325,170.936 L127.079325,170.989 C125.992325,168.627 125.939325,165.947 126.893325,163.533 L134.369325,167.407 L127.476325,162.339 C130.074325,157.854 135.828325,156.315 140.308325,158.915 C144.789325,161.516 146.326325,167.274 143.728325,171.759 C143.516325,172.157 143.251325,172.528 142.986325,172.873 C143.410325,173.404 143.755325,173.988 144.046325,174.598 L137.365325,178.074 L144.497325,175.686 C145.504325,178.685 144.948325,182.028 142.986325,184.522 C146.194325,188.609 145.478325,194.526 141.422325,197.737 C137.339325,200.948 131.427325,200.232 128.219325,196.172 C125.541325,192.749 125.541325,187.946 128.219325,184.549 C125.567325,181.073 125.567325,176.27 128.245325,172.847 Z" id="Path" fill="#6C63FF" fill-rule="nonzero"></path>
            <path d="M145.027325,178.631 C145.027325,180.728 144.311325,182.797 143.012325,184.443 C146.220325,188.529 145.505325,194.447 141.448325,197.658 C137.365325,200.868 131.453325,200.152 128.245325,196.092 C125.568325,192.669 125.568325,187.866 128.245325,184.469 C126.999325,182.877 145.027325,177.596 145.027325,178.631 Z" id="Path" fill="#000000" fill-rule="nonzero" opacity="0.1"></path>
            <path d="M21.8830253,213.421 C23.9536253,211.348 21.5616253,205.593 16.5402253,200.568 C11.5187253,195.542 5.76947525,193.147 3.69878525,195.22 C1.62809525,197.293 4.02013525,203.047 9.04156525,208.073 C14.0630253,213.099 19.8123253,215.493 21.8830253,213.421 Z" id="Path" fill="#6C63FF" fill-rule="nonzero" opacity="0.1"></path>
            <path d="M13.7140253,205.141 C15.2807253,205.141 16.5507253,203.478 16.5507253,201.426 C16.5507253,199.374 15.2807253,197.711 13.7140253,197.711 C12.1472253,197.711 10.8772253,199.374 10.8772253,201.426 C10.8772253,203.478 12.1472253,205.141 13.7140253,205.141 Z" id="Path" fill="#3F3D56" fill-rule="nonzero"></path>
            <path d="M13.7140253,200.576 C15.2807253,200.576 16.5507253,198.913 16.5507253,196.861 C16.5507253,194.81 15.2807253,193.146 13.7140253,193.146 C12.1472253,193.146 10.8772253,194.81 10.8772253,196.861 C10.8772253,198.913 12.1472253,200.576 13.7140253,200.576 Z" id="Path" fill="#3F3D56" fill-rule="nonzero"></path>
            <path d="M13.7140253,196.037 C15.2807253,196.037 16.5507253,194.374 16.5507253,192.322 C16.5507253,190.271 15.2807253,188.607 13.7140253,188.607 C12.1472253,188.607 10.8772253,190.271 10.8772253,192.322 C10.8772253,194.374 12.1472253,196.037 13.7140253,196.037 Z" id="Path" fill="#3F3D56" fill-rule="nonzero"></path>
            <path d="M13.7140253,191.475 C15.2807253,191.475 16.5507253,189.812 16.5507253,187.76 C16.5507253,185.708 15.2807253,184.045 13.7140253,184.045 C12.1472253,184.045 10.8772253,185.708 10.8772253,187.76 C10.8772253,189.812 12.1472253,191.475 13.7140253,191.475 Z" id="Path" fill="#3F3D56" fill-rule="nonzero"></path>
            <path d="M13.7140253,186.91 C15.2807253,186.91 16.5507253,185.247 16.5507253,183.195 C16.5507253,181.144 15.2807253,179.48 13.7140253,179.48 C12.1472253,179.48 10.8772253,181.144 10.8772253,183.195 C10.8772253,185.247 12.1472253,186.91 13.7140253,186.91 Z" id="Path" fill="#3F3D56" fill-rule="nonzero"></path>
            <path d="M13.7140253,182.346 C15.2807253,182.346 16.5507253,180.683 16.5507253,178.631 C16.5507253,176.579 15.2807253,174.916 13.7140253,174.916 C12.1472253,174.916 10.8772253,176.579 10.8772253,178.631 C10.8772253,180.683 12.1472253,182.346 13.7140253,182.346 Z" id="Path" fill="#3F3D56" fill-rule="nonzero"></path>
            <path d="M13.7140253,177.809 C15.2807253,177.809 16.5507253,176.146 16.5507253,174.094 C16.5507253,172.042 15.2807253,170.379 13.7140253,170.379 C12.1472253,170.379 10.8772253,172.042 10.8772253,174.094 C10.8772253,176.146 12.1472253,177.809 13.7140253,177.809 Z" id="Path" fill="#3F3D56" fill-rule="nonzero"></path>
            <path d="M24.3454253,142.913 C24.7431253,142.409 25.0877253,141.905 25.4059253,141.347 L17.9295253,140.127 L26.0157253,140.18 C27.5799253,136.757 27.6859253,132.856 26.2808253,129.38 L15.4374253,135.005 L25.4324253,127.655 C21.6677253,121.127 13.3429253,118.8981 6.82103525,122.666 C0.299096253,126.434 -1.92790475,134.766 1.83678525,141.294 C2.15493525,141.852 2.52609525,142.409 2.92377525,142.913 C2.31400525,143.682 1.78376525,144.505 1.35957525,145.407 L11.0629253,150.449 L0.723287253,146.973 C-0.761381747,151.351 0.087000653,156.154 2.92377525,159.79 C-1.74232475,165.707 -0.708356747,174.278 5.20380525,178.948 C11.1159253,183.619 19.6793253,182.584 24.3454253,176.666 C28.2427253,171.731 28.2427253,164.752 24.3454253,159.79 C28.2427253,154.827 28.2427253,147.849 24.3454253,142.913 Z" id="Path" fill="#6C63FF" fill-rule="nonzero"></path>
            <path d="M0.00746484204,151.351 C0.00746484204,154.403 1.04143525,157.375 2.92377525,159.79 C-1.74232475,165.707 -0.708356747,174.278 5.20380525,178.949 C11.1159253,183.619 19.6793253,182.584 24.3454253,176.667 C28.2427253,171.731 28.2427253,164.752 24.3454253,159.79 C26.1747253,157.455 0.00746484204,149.812 0.00746484204,151.351 Z" id="Path" fill="#000000" fill-rule="nonzero" opacity="0.1"></path>
        </g>
    </g>
</svg>