<svg width="389" height="305" viewBox="0 0 389 305" fill="none" xmlns="http://www.w3.org/2000/svg">
<path d="M89.7259 147.465C88.4087 147.466 87.1459 147.992 86.2145 148.927C85.2832 149.862 84.7593 151.13 84.7578 152.452V164.12C84.7593 165.443 85.2832 166.71 86.2145 167.645C87.1459 168.58 88.4087 169.106 89.7259 169.108H96.0273C97.3445 169.106 98.6073 168.58 99.5386 167.645C100.47 166.71 100.994 165.443 100.995 164.12V152.452C100.994 151.13 100.47 149.862 99.5386 148.927C98.6073 147.992 97.3445 147.466 96.0273 147.465H89.7259Z" fill="#3F3D56"/>
<path d="M206.211 169.495H199.909C198.49 169.494 197.129 168.927 196.125 167.919C195.121 166.911 194.556 165.545 194.555 164.12V152.452C194.556 151.027 195.121 149.66 196.125 148.652C197.129 147.645 198.49 147.078 199.909 147.076H206.211C207.63 147.078 208.991 147.645 209.995 148.652C210.999 149.66 211.564 151.027 211.565 152.452V164.12C211.564 165.545 210.999 166.911 209.995 167.919C208.991 168.927 207.63 169.494 206.211 169.495Z" fill="#3F3D56"/>
<path d="M202.03 160.158H93.5208C88.5825 160.158 84.5649 157.235 84.5649 153.643V132.696L89.9508 127.002H206.648L210.986 132.708V153.643C210.986 157.235 206.968 160.158 202.03 160.158Z" fill="#5770BE"/>
<path d="M206.142 137.477H90.5699L89.3955 119.398L90.1429 117.548L94.4871 106.816H201.442L207.316 119.003L206.142 137.477Z" fill="#5770BE"/>
<path d="M207.119 119.043L206.257 132.627H180.83V122.536L206.396 117.545L207.119 119.043Z" fill="white"/>
<path d="M115.494 122.538V132.629H90.4492L89.5908 119.433L90.3217 117.625L115.494 122.538Z" fill="white"/>
<path d="M200.797 109.935H95.1299L106.4 72.2215C106.86 70.6639 107.806 69.2961 109.1 68.3203C110.394 67.3444 111.966 66.8122 113.584 66.8023L183.563 66.1332C185.254 66.1167 186.902 66.6688 188.244 67.7014C189.586 68.7341 190.546 70.1879 190.969 71.8313L200.797 109.935Z" fill="#5770BE"/>
<path d="M192.663 106.361L103.247 105.297C103.134 105.295 103.023 105.267 102.923 105.215C102.822 105.163 102.736 105.088 102.67 104.996C102.603 104.903 102.56 104.797 102.542 104.685C102.524 104.573 102.533 104.458 102.568 104.35L111.14 77.502C111.186 77.3556 111.278 77.228 111.402 77.1374C111.525 77.0469 111.675 76.998 111.828 76.998H183.746C183.899 76.998 184.048 77.0468 184.172 77.1373C184.296 77.2278 184.387 77.3554 184.434 77.5017L193.359 105.414C193.394 105.524 193.403 105.64 193.384 105.753C193.365 105.867 193.32 105.974 193.252 106.067C193.184 106.159 193.095 106.234 192.993 106.285C192.89 106.337 192.777 106.363 192.663 106.361Z" fill="white"/>
<path d="M160.014 70.7204H135.914C135.71 70.7204 135.526 70.5197 135.433 70.1964C135.34 69.8654 135.353 69.5133 135.471 69.1905L137.459 64.145C137.56 63.8879 137.725 63.7344 137.901 63.7344H158.027C158.203 63.7344 158.368 63.8879 158.469 64.145L160.457 69.1905C160.575 69.5133 160.588 69.8654 160.495 70.1964C160.402 70.5197 160.217 70.7204 160.014 70.7204Z" fill="#000091"/>
<path d="M95.1971 109.151H79.3462V105.653C79.3474 104.523 79.7954 103.439 80.5918 102.639C81.3883 101.84 82.4681 101.39 83.5944 101.389H95.1971V109.151Z" fill="#D5DBEF"/>
<path d="M216.591 109.151H200.74V101.389H212.343C213.469 101.39 214.549 101.84 215.346 102.639C216.142 103.439 216.59 104.523 216.591 105.653V109.151Z" fill="#D5DBEF"/>
<path d="M77.5172 163.738L0 191.613L0.329794 192.532L77.847 164.657L77.5172 163.738Z" fill="#3F3D56"/>
<path d="M217.958 163.673L217.629 164.592L295.122 192.53L295.451 191.611L217.958 163.673Z" fill="#3F3D56"/>
<path d="M152.274 183.93H147.636V177.916H152.274V183.93ZM152.274 171.901H147.636V165.887H152.274V171.901Z" fill="#E6E6E6"/>
<path d="M152.274 208.85H147.636V202.836H152.274V208.85ZM152.274 196.821H147.636V190.807H152.274V196.821Z" fill="#E6E6E6"/>
<path d="M147.829 46.2023C160.538 46.2023 170.841 35.8595 170.841 23.1011C170.841 10.3427 160.538 0 147.829 0C135.12 0 124.817 10.3427 124.817 23.1011C124.817 35.8595 135.12 46.2023 147.829 46.2023Z" fill="#459C99"/>
<path d="M145.636 32.8544L138.749 23.9642L142.754 20.8368L146.015 25.0462L157.032 13.3711L160.716 16.8751L145.636 32.8544Z" fill="white"/>
<path d="M242.334 167.74L243.51 170.036C243.521 170.057 243.523 170.082 243.516 170.104C243.509 170.127 243.493 170.146 243.472 170.157L243.415 170.186L249.545 182.143C249.715 182.474 249.746 182.859 249.633 183.213C249.52 183.568 249.271 183.863 248.942 184.033L241.499 187.878C241.336 187.962 241.158 188.013 240.975 188.029C240.792 188.044 240.608 188.023 240.434 187.966C240.259 187.91 240.097 187.82 239.957 187.701C239.817 187.582 239.701 187.436 239.617 187.272L239.617 187.272L233.703 175.735L233.661 175.756C233.647 175.764 233.629 175.765 233.613 175.76C233.597 175.755 233.584 175.744 233.576 175.729L232.907 174.423C232.903 174.415 232.9 174.407 232.9 174.399C232.899 174.39 232.9 174.382 232.903 174.374C232.905 174.366 232.909 174.359 232.915 174.352C232.92 174.346 232.926 174.341 232.934 174.337L232.975 174.316L232.723 173.824L232.681 173.845C232.666 173.853 232.647 173.854 232.631 173.849C232.614 173.844 232.6 173.832 232.592 173.816L231.931 172.527C231.923 172.512 231.922 172.494 231.927 172.477C231.933 172.46 231.944 172.446 231.96 172.438L232.001 172.417L231.657 171.745L231.615 171.767C231.601 171.774 231.585 171.775 231.57 171.77C231.555 171.766 231.543 171.755 231.536 171.741L231.536 171.741L231.175 171.038C231.168 171.024 231.167 171.008 231.172 170.993C231.176 170.978 231.187 170.966 231.201 170.958L231.243 170.937L230.513 169.513C230.343 169.182 230.311 168.797 230.425 168.443C230.538 168.089 230.786 167.794 231.116 167.624L238.558 163.779C238.888 163.608 239.271 163.576 239.624 163.69C239.977 163.803 240.271 164.053 240.44 164.384L242.156 167.731L242.213 167.702C242.234 167.691 242.259 167.689 242.281 167.696C242.304 167.703 242.323 167.719 242.334 167.74Z" fill="#3F3D56"/>
<path d="M239.971 164.932L249.002 182.548C249.11 182.758 249.13 183.002 249.058 183.227C248.986 183.452 248.829 183.639 248.62 183.747L241.495 187.428C241.287 187.536 241.044 187.556 240.82 187.485C240.597 187.413 240.41 187.256 240.303 187.046L240.301 187.044L231.27 169.428C231.217 169.324 231.185 169.21 231.175 169.094C231.165 168.977 231.179 168.86 231.214 168.749C231.25 168.637 231.307 168.534 231.382 168.445C231.457 168.356 231.549 168.282 231.653 168.229L231.653 168.229L232.719 167.678L232.79 167.815C232.833 167.901 232.894 167.977 232.967 168.039C233.04 168.101 233.125 168.148 233.216 168.178C233.307 168.207 233.403 168.218 233.499 168.21C233.595 168.202 233.688 168.176 233.773 168.132L237.396 166.26C237.568 166.171 237.698 166.017 237.757 165.832C237.816 165.646 237.8 165.445 237.711 165.272L237.641 165.135L238.777 164.548C238.986 164.44 239.229 164.42 239.453 164.492C239.677 164.564 239.863 164.722 239.971 164.932L239.971 164.932Z" fill="#000091"/>
<path d="M335.869 270.207C336.316 269.39 336.843 268.632 337.44 267.946C337.685 267.658 337.945 267.387 338.212 267.123C339.839 265.487 341.822 264.371 343.957 263.888C346.092 263.406 348.302 263.574 350.36 264.376C352.419 265.178 354.251 266.585 355.668 268.452C357.086 270.319 358.037 272.578 358.425 274.999C360.222 267.494 355.545 260.102 350.843 254.424C346.139 248.748 340.762 242.521 340.789 234.744C340.802 230.416 342.676 226.555 345.506 223.692C345.594 223.606 345.681 223.519 345.77 223.435C349.19 220.124 353.591 218.392 358.092 218.585C366.456 219.091 373.758 225.44 378.829 232.971C386.992 245.088 390.569 262.097 384.855 275.891C379.828 288.023 369.108 295.227 358.167 301.019C356.639 301.828 355.114 302.612 353.593 303.372C353.583 303.375 353.572 303.383 353.562 303.386C353.488 303.423 353.415 303.459 353.346 303.497C353.032 303.653 352.718 303.81 352.407 303.964L352.551 304.071L353.001 304.4C352.845 304.293 352.691 304.189 352.535 304.083C352.488 304.05 352.439 304.02 352.393 303.988C347.02 300.346 341.571 296.493 337.859 290.807C334.009 284.904 332.461 276.448 335.869 270.207Z" fill="#F1F1F1"/>
<path d="M371.72 256.5C372.91 259.557 373.699 262.794 374.062 266.109C374.348 269.065 374.24 272.052 373.744 274.972C372.677 280.972 370.349 286.595 366.958 291.367C364.399 294.991 361.445 298.234 358.167 301.021C356.639 301.83 355.114 302.614 353.593 303.375C353.583 303.378 353.572 303.386 353.561 303.389C353.488 303.425 353.415 303.461 353.346 303.499C353.032 303.655 352.718 303.812 352.407 303.966L352.551 304.073L353.001 304.402C352.845 304.295 352.691 304.192 352.535 304.085C352.488 304.053 352.439 304.022 352.393 303.99C353.575 299.318 353.749 294.393 352.9 289.629C352.05 284.866 350.203 280.401 347.511 276.61C344.805 272.867 341.354 269.899 337.439 267.949C337.685 267.66 337.945 267.389 338.212 267.125C339.72 267.907 341.164 268.838 342.526 269.907C347.4 273.712 351.059 279.188 352.963 285.524C354.662 291.273 354.875 297.45 353.575 303.33C353.844 303.131 354.115 302.926 354.378 302.723C359.384 298.91 363.998 294.331 367.473 288.715C370.47 283.968 372.388 278.463 373.058 272.682C373.724 266.367 372.326 260.158 369.83 254.523C367.074 248.496 363.601 242.922 359.507 237.957C355.396 232.855 350.748 228.34 345.665 224.513C345.551 224.426 345.471 224.292 345.441 224.14C345.411 223.988 345.434 223.828 345.506 223.695C345.56 223.573 345.655 223.481 345.77 223.438C345.828 223.421 345.889 223.419 345.947 223.433C346.006 223.446 346.061 223.474 346.109 223.515C346.737 223.988 347.359 224.465 347.973 224.957C353.091 229.05 357.739 233.846 361.81 239.233C365.744 244.427 369.325 250.197 371.72 256.5Z" fill="white"/>
<path d="M359.303 136.828C361.933 136.828 364.065 134.419 364.065 131.448C364.065 128.477 361.933 126.068 359.303 126.068C356.672 126.068 354.54 128.477 354.54 131.448C354.54 134.419 356.672 136.828 359.303 136.828Z" fill="#F1F1F1"/>
<path d="M219.908 151.59C222.538 151.59 224.671 149.181 224.671 146.21C224.671 143.239 222.538 140.83 219.908 140.83C217.277 140.83 215.145 143.239 215.145 146.21C215.145 149.181 217.277 151.59 219.908 151.59Z" fill="#F1F1F1"/>
<path d="M222.597 305H388.564C388.679 305 388.79 304.948 388.872 304.856C388.954 304.763 389 304.638 389 304.508C389 304.377 388.954 304.252 388.872 304.16C388.79 304.067 388.679 304.016 388.564 304.016H222.597C222.482 304.016 222.371 304.067 222.289 304.16C222.208 304.252 222.162 304.377 222.162 304.508C222.162 304.638 222.208 304.763 222.289 304.856C222.371 304.948 222.482 305 222.597 305Z" fill="#CBCBCB"/>
<path d="M370.248 46.9941C370.466 45.2464 370.109 43.4692 369.244 41.9992C368.38 40.5291 367.068 39.4684 365.557 39.018C364.046 38.5676 362.442 38.7588 361.047 39.5554C359.653 40.352 358.566 41.6987 357.992 43.3402L344.524 60.7799L348.476 73.2464L362.02 52.8687C362.904 53.1885 363.839 53.2855 364.76 53.1529C365.68 53.0203 366.564 52.6613 367.348 52.1012C368.133 51.5412 368.799 50.7936 369.3 49.9112C369.801 49.0288 370.125 48.033 370.248 46.9941Z" fill="#FFB7B7"/>
<path d="M314.422 114.847L359.128 60.9556L353.098 50.127L297.025 103.692L314.422 114.847Z" fill="#FECB40"/>
<path d="M304.444 82.106C313.105 82.106 320.126 74.1755 320.126 64.3928C320.126 54.6101 313.105 46.6797 304.444 46.6797C295.783 46.6797 288.762 54.6101 288.762 64.3928C288.762 74.1755 295.783 82.106 304.444 82.106Z" fill="#2F2E41"/>
<path d="M305.705 54.388C309.08 50.5228 313.163 47.5401 317.668 45.6499C320.56 44.4398 323.708 43.6921 326.731 44.3794C329.754 45.0666 332.614 47.429 333.457 50.7796C334.147 53.5194 333.435 56.4693 332.364 59.0484C331.294 61.6275 329.865 64.0192 328.999 66.6945C328.116 69.4243 327.85 72.3601 328.227 75.2352C328.603 78.1104 329.609 80.834 331.153 83.1586C332.697 85.4833 334.731 87.3355 337.07 88.5472C339.409 89.7588 341.978 90.2914 344.546 90.0967C341.575 90.5466 338.837 92.1234 335.933 92.9627C333.03 93.802 329.603 93.7451 327.445 91.3955C325.162 88.9095 325.116 84.8676 325.227 81.2879C325.391 75.9666 325.555 70.6453 325.719 65.324C325.803 62.6102 325.874 59.8095 325.008 57.2765C324.141 54.7436 322.082 52.5256 319.678 52.5487C317.856 52.5661 316.244 53.8129 314.783 55.0423C313.321 56.2718 311.775 57.5835 309.96 57.7664C308.145 57.9493 306.073 56.4323 306.209 54.38L305.705 54.388Z" fill="#2F2E41"/>
<path d="M244.884 183.329C243.378 183.802 241.772 183.634 240.369 182.858C238.965 182.081 237.863 180.751 237.27 179.118C236.677 177.485 236.635 175.663 237.152 173.998C237.67 172.332 238.709 170.939 240.075 170.081L253.623 152.721L265.081 155.517L248.965 173.347C249.361 174.295 249.569 175.33 249.573 176.378C249.576 177.426 249.377 178.463 248.988 179.414C248.599 180.366 248.03 181.21 247.321 181.886C246.611 182.563 245.78 183.055 244.884 183.329H244.884Z" fill="#FFB7B7"/>
<path d="M289.456 121.181L255.69 169.056L245.397 163.718L285.085 93.9258L289.456 121.181Z" fill="#FECB40"/>
<path d="M262.513 265.738L254.466 265.596L255.434 296.577H262.512L262.513 265.738Z" fill="#FFB7B7"/>
<path d="M264.318 293.967L250.378 293.967H250.377C248.021 293.967 245.762 295.024 244.096 296.906C242.43 298.788 241.494 301.34 241.494 304.001V304.327L264.317 304.328L264.318 293.967Z" fill="#2F2E41"/>
<path d="M315.795 257.521L307.004 263.896L324.589 287.792L330.545 283.472L315.795 257.521Z" fill="#FFB7B7"/>
<path d="M330.817 280.176L319.086 288.682L319.086 288.683C317.103 290.121 315.708 292.389 315.206 294.989C314.704 297.589 315.137 300.308 316.41 302.548L316.566 302.822L335.772 288.894L330.817 280.176Z" fill="#2F2E41"/>
<path d="M318.927 162.915C318.927 162.915 299.394 89.6375 293.117 88.6473C286.84 87.6571 276.726 107.449 276.726 107.449C263.613 126.347 250.091 187.562 250.091 187.562C250.091 187.562 272.633 189.156 289.11 199.058C305.588 208.96 325.034 198.557 325.034 198.557L318.927 162.915Z" fill="#FECB40"/>
<path opacity="0.1" d="M318.927 162.914C318.927 162.914 299.394 89.6372 293.117 88.6469C286.84 87.6567 279.295 107.65 279.295 107.65C272.761 138.156 250.091 187.562 250.091 187.562C250.091 187.562 272.633 189.155 289.11 199.058C305.588 208.96 325.034 198.556 325.034 198.556L318.927 162.914Z" fill="#5770BE"/>
<path d="M302.902 140.997V177.818L306.739 231.156L325.905 271.503L316.758 278.883L290.621 240.505L280.284 202.398L264.049 286.756L251.852 285.772L260.323 168.811L276.397 135.889L302.902 140.997Z" fill="#EB574B"/>
<path d="M283.209 105.381C277.11 112.27 282.773 119.65 282.773 119.65L275.803 137.363L303.247 145.728L312.837 97.3228L306.303 89.4503C293.235 88.9583 293.228 88.6523 293.228 88.6523C290.938 91.1833 283.209 105.381 283.209 105.381Z" fill="#D5DBEF"/>
<path d="M313.942 92.308C312.696 91.2688 311.279 90.5192 309.775 90.1028C308.27 89.6863 306.707 89.6112 305.177 89.8818C303.646 90.1524 302.178 90.7633 300.858 91.6792C299.538 92.5951 298.392 93.7977 297.486 95.2174C290.587 106.068 284.208 123.589 292.998 145.44C307.111 180.527 319.392 198.488 324.385 198.486C324.603 198.488 324.82 198.45 325.027 198.372C328.1 197.195 332.544 191.321 333.348 186.144C333.636 184.291 333.568 181.71 331.606 179.938C325.971 174.848 315.855 158.997 312.7 138.133C310.956 126.605 314.338 116.104 317.482 109.325C318.81 106.52 319.198 103.268 318.576 100.166C317.954 97.0638 316.363 94.3188 314.094 92.4341L313.942 92.308Z" fill="#FECB40"/>
<path d="M305.251 80.3622C310.846 76.9081 312.901 68.9857 309.843 62.6669C306.785 56.3482 299.772 54.026 294.177 57.4801C288.583 60.9343 286.527 68.8567 289.585 75.1754C292.643 81.4941 299.657 83.8163 305.251 80.3622Z" fill="#FFB7B7"/>
<path d="M283.48 67.9411H300.149L300.32 65.238L301.174 67.9411H303.741L304.08 62.5836L305.774 67.9411H310.74V67.6757C310.736 63.9458 309.423 60.37 307.088 57.7326C304.753 55.0952 301.587 53.6116 298.285 53.6074H295.935C292.633 53.6116 289.467 55.0952 287.132 57.7326C284.797 60.37 283.484 63.9458 283.48 67.6757V67.9411Z" fill="#2F2E41"/>
<path d="M308.222 77.658L315.335 75.0509V55.5391H301.899L302.232 55.9142C306.86 61.1351 312.007 79.6582 308.222 77.658Z" fill="#2F2E41"/>
</svg>
