<svg width="390" height="331" viewBox="0 0 390 331" fill="none" xmlns="http://www.w3.org/2000/svg">
<path d="M87.7097 133.2C83.5914 82.6714 93.4376 33.1433 144.365 10.1085C164.478 1.02358 187.614 -0.854295 209.047 4.19205C226.339 8.25958 256.726 21.7455 247.692 45.2951C239.579 66.4521 209.33 71.4767 191.508 80.0975C186.926 82.3089 182.372 85.0496 179.516 89.2622C174.658 96.4329 176.847 107.852 184.678 111.543C202.159 119.794 229.631 94.468 244.683 88.0368C265.934 78.9302 292.899 75.0077 315.375 82.0842C330.841 86.971 337.192 102.197 328.238 116.111C323.728 123.115 316.978 128.306 311.04 134.15C305.101 139.994 299.685 147.201 299.149 155.488C298.184 170.395 313.012 181.59 327.317 185.861C341.622 190.131 357.399 190.733 369.986 198.766C386.147 209.091 393.441 230.502 385.662 248.309C379.629 262.085 366.027 271.511 351.584 275.789C332.813 281.379 314.201 279.225 295.61 285.468" stroke="#000091" stroke-width="2" stroke-miterlimit="10" stroke-dasharray="5.01 5.01"/>
<path d="M24.8765 236.927C24.9997 235.252 25.6015 234.353 27.3924 234.505C28.8857 234.629 30.3864 234.634 31.8804 234.519C33.5988 234.382 34.3674 235.121 34.4834 236.941L24.8765 236.927Z" fill="white"/>
<path d="M25.2098 227.203C26.1741 228.537 27.2545 229.378 27.1312 230.016C26.9797 230.484 26.7193 230.91 26.3714 231.258C26.0235 231.606 25.5981 231.866 25.1301 232.017C24.6298 232.126 23.3029 230.857 23.2884 230.19C23.2667 229.393 24.26 228.573 25.2098 227.203Z" fill="white"/>
<path d="M34.2952 233.069C33.2656 231.742 32.1781 230.937 32.2723 230.314C32.4028 229.502 33.4614 228.827 34.1139 228.088C34.839 228.711 36.0063 229.291 36.0571 229.966C36.1151 230.742 35.1798 231.619 34.2952 233.069Z" fill="white"/>
<path d="M56.6265 136.594L50.8696 141.589H56.6265V136.594Z" fill="#546389"/>
<path d="M82.3511 136.594L88.108 141.589H82.3511V136.594Z" fill="#546389"/>
<path d="M118.408 174.435H120.96V168.54C120.96 168.54 135.128 165.756 136.984 168.54C138.84 171.324 136.984 176.777 136.984 176.777H121.424L118.408 174.435Z" fill="#2F3133"/>
<path d="M27.2546 231.67H22.7231C19.3516 231.67 16.6182 229.146 16.6182 226.029V216.393C16.6182 213.282 19.3516 210.752 22.7231 210.752H27.2546C30.6261 210.752 33.3596 213.282 33.3596 216.393V226.065C33.3306 229.146 30.6261 231.67 27.2546 231.67Z" fill="#2F3133"/>
<path d="M113.688 231.67H108.664C104.93 231.67 101.899 229.146 101.899 226.029V216.393C101.899 213.282 104.93 210.752 108.664 210.752H113.688C117.422 210.752 120.453 213.282 120.453 216.393V226.065C120.453 229.146 117.437 231.67 113.688 231.67Z" fill="#2F3133"/>
<path d="M118.248 179.523H19.7358L30.0823 153.211C32.1704 147.81 38.5074 144.17 45.8304 144.17H92.2336C99.5566 144.17 105.894 147.795 107.982 153.211L118.248 179.523Z" fill="white" stroke="#5770BE" stroke-width="7.47" stroke-miterlimit="10"/>
<path d="M130.69 197.874V208.025H7.29395V197.874C7.29395 187.724 14.617 179.523 23.6366 179.523H114.348C123.367 179.523 130.69 187.753 130.69 197.874Z" fill="#5770BE"/>
<path d="M133.62 212.319C133.62 215.321 130.567 217.75 126.804 217.75H11.188C7.41769 217.75 4.36523 215.321 4.36523 212.319C4.36523 209.318 7.41769 206.889 11.188 206.889H126.804C130.567 206.889 133.62 209.318 133.62 212.319Z" fill="#546389"/>
<path d="M120.554 202.571V192.254L105.06 195.56V202.571H120.554Z" fill="white"/>
<path d="M17.626 202.571V192.254L33.1203 195.56V202.571H17.626Z" fill="white"/>
<path d="M19.1559 174.688L16.611 174.478L17.0895 168.634C17.0895 168.634 3.19759 164.704 1.13845 167.329C-0.920695 169.954 0.442398 175.537 0.442398 175.537L15.9295 176.806L19.1559 174.688Z" fill="#2F3133"/>
<path d="M118.248 179.523H19.7358L30.0823 153.211C32.1704 147.81 38.5074 144.17 45.8304 144.17H92.2336C99.5566 144.17 105.894 147.795 107.982 153.211L118.248 179.523Z" fill="white" stroke="#5770BE" stroke-width="5.22" stroke-miterlimit="10"/>
<path d="M46.6929 146.006C39.6599 146.006 33.5768 149.276 31.5611 154.134L21.6279 177.792H35.4039L48.1068 146.006H46.6929Z" fill="#CCDCFF"/>
<path d="M106.372 154.134C104.364 149.276 98.2805 146.006 91.2475 146.006H57.685L46.5337 177.792H116.254L106.372 154.134Z" fill="#CCDCFF"/>
<path d="M93.9812 198.869H44.0107V200.319H93.9812V198.869Z" fill="white"/>
<path d="M83.4684 138.614H70.0912C69.89 138.575 69.6833 138.575 69.4822 138.614H56.0977C55.8565 138.615 55.6189 138.555 55.4064 138.441C55.1939 138.327 55.0133 138.162 54.8808 137.96C54.7484 137.758 54.6683 137.527 54.6478 137.287C54.6273 137.046 54.6672 136.805 54.7636 136.584L55.9672 133.778C56.0787 133.514 56.2655 133.29 56.5042 133.133C56.7428 132.975 57.0227 132.892 57.3086 132.893H61.0063C61.3192 132.894 61.6237 132.793 61.8746 132.606C62.1255 132.419 62.3093 132.156 62.3984 131.856L63.1235 129.326C63.213 129.025 63.3978 128.761 63.6502 128.574C63.9025 128.387 64.2087 128.287 64.5228 128.289H75.0215C75.3344 128.289 75.639 128.389 75.8899 128.576C76.1407 128.763 76.3245 129.026 76.4136 129.326L77.1387 131.856C77.2282 132.157 77.413 132.421 77.6654 132.608C77.9177 132.795 78.224 132.895 78.538 132.893H82.2285C82.5156 132.891 82.7971 132.973 83.0372 133.131C83.2772 133.288 83.4652 133.513 83.5771 133.778L84.7735 136.584C84.869 136.802 84.909 137.042 84.89 137.28C84.871 137.518 84.7934 137.747 84.6643 137.948C84.5352 138.149 84.3585 138.315 84.1498 138.431C83.9412 138.547 83.7071 138.61 83.4684 138.614Z" fill="#000091"/>
<path d="M66.1897 131.385H65.1528V131.016H67.676V131.385H66.6319V134.416H66.1897V131.385Z" fill="white"/>
<path d="M68.2203 133.343L67.8722 134.416H67.4082L68.5683 131.016H69.0976L70.2576 134.416H69.7864L69.4238 133.343H68.2203ZM69.3368 133.002L69.0106 132.023C68.9308 131.799 68.8801 131.596 68.8293 131.4C68.7785 131.603 68.7205 131.813 68.6553 132.016L68.3145 133.01L69.3368 133.002Z" fill="white"/>
<path d="M72.5562 134.419L72.1212 133.694C71.9471 133.411 71.8384 133.222 71.7296 133.027C71.6281 133.222 71.5339 133.404 71.3598 133.701L70.9466 134.426H70.4463L71.4831 132.708L70.4825 131.025H70.9973L71.4469 131.823C71.5701 132.04 71.6644 132.214 71.7586 132.396C71.8529 132.193 71.9399 132.04 72.0631 131.823L72.5272 131.025H73.0347L71.9979 132.679L73.0637 134.426L72.5562 134.419Z" fill="white"/>
<path d="M74.0132 131.016V134.416H73.5781V131.016H74.0132Z" fill="white"/>
<path d="M60.5561 137.303L59.106 142.269C59.106 142.485 59.1915 142.691 59.3438 142.844C59.4961 142.996 59.7026 143.081 59.918 143.081H63.8043C64.0196 143.081 64.2262 142.996 64.3785 142.844C64.5308 142.691 64.6163 142.485 64.6163 142.269L63.1662 137.31L60.5561 137.303Z" fill="url(#paint0_linear)"/>
<path d="M80.8503 136.934H58.729V137.673H80.8503V136.934Z" fill="#546389"/>
<path d="M186.418 304.582L178.704 311.688L184.867 301.399C180.031 292.633 172.128 285.057 172.128 285.057C172.128 285.057 155.727 300.768 155.727 313.116C155.727 325.464 163.072 329.792 172.128 329.792C181.184 329.792 188.521 325.485 188.521 313.116C188.41 310.158 187.695 307.253 186.418 304.582Z" fill="#F2F2F2"/>
<path d="M176.716 312.101V312.71C176.716 319.786 175.483 325.311 173.141 329.198C173.141 329.256 173.076 329.306 173.04 329.364L172.779 329.205L172.525 329.045C175.128 324.847 176.041 318.895 176.078 312.746C176.078 312.543 176.078 312.347 176.078 312.144C176.078 309.527 175.911 306.888 175.657 304.321C175.657 304.118 175.614 303.922 175.599 303.719C175.244 300.333 174.729 297.092 174.207 294.294C174.171 294.098 174.127 293.902 174.091 293.706C173.185 288.95 172.257 285.506 172.046 284.738C172.035 284.686 172.021 284.635 172.003 284.585L172.293 284.506L172.583 284.426C172.583 284.426 172.634 284.607 172.721 284.926C173.047 286.122 173.881 289.363 174.707 293.627L174.816 294.221C175.244 296.498 175.664 299.05 175.991 301.725C176.078 302.4 176.15 303.06 176.223 303.712C176.223 303.915 176.266 304.118 176.281 304.314C176.564 307.026 176.701 309.65 176.716 312.101Z" fill="white"/>
<path d="M174.715 293.58L174.099 293.66C173.533 293.718 172.964 293.747 172.395 293.747C169.977 293.748 167.588 293.208 165.406 292.166L165.021 292.645C167.318 293.766 169.84 294.349 172.395 294.348C173.003 294.347 173.611 294.313 174.215 294.247L174.824 294.174C176.491 293.936 178.111 293.448 179.631 292.724L179.247 292.239C177.81 292.904 176.283 293.356 174.715 293.58Z" fill="white"/>
<path d="M176.223 303.669H175.6H175.44C172.819 303.67 170.237 303.036 167.914 301.823C165.591 300.61 163.596 298.852 162.099 296.701C161.976 296.875 161.853 297.056 161.737 297.238C163.298 299.414 165.355 301.188 167.738 302.411C170.121 303.634 172.762 304.271 175.44 304.271H175.694C175.904 304.271 176.115 304.271 176.318 304.271C179.538 304.113 182.643 303.025 185.257 301.138L184.96 300.609C182.408 302.459 179.372 303.522 176.223 303.669Z" fill="white"/>
<path d="M176.716 312.1C176.506 312.1 176.296 312.136 176.078 312.143H175.404C171.881 312.14 168.455 310.995 165.638 308.88C162.821 306.765 160.765 303.794 159.779 300.412C159.641 300.659 159.504 300.898 159.373 301.137C160.487 304.51 162.635 307.446 165.513 309.529C168.391 311.611 171.852 312.734 175.404 312.738C175.629 312.738 175.853 312.738 176.078 312.738L176.716 312.702C180.975 312.37 184.949 310.431 187.831 307.278C187.773 307.054 187.701 306.836 187.628 306.611C184.843 309.79 180.929 311.758 176.716 312.1Z" fill="white"/>
<path d="M328.498 330.711H146.511C146.384 330.711 146.262 330.661 146.172 330.571C146.083 330.481 146.032 330.359 146.032 330.232C146.032 330.106 146.083 329.984 146.172 329.894C146.262 329.804 146.384 329.754 146.511 329.754H328.498C328.625 329.754 328.747 329.804 328.837 329.894C328.926 329.984 328.977 330.106 328.977 330.232C328.977 330.359 328.926 330.481 328.837 330.571C328.747 330.661 328.625 330.711 328.498 330.711Z" fill="#CACACA"/>
<path d="M274.047 141.205C269.551 134.876 260.648 134.578 260.648 134.578C260.648 134.578 251.947 133.658 246.415 143.279C241.231 152.27 248.532 163.45 248.532 163.45C249.982 163.537 256.225 163.573 274.801 161.275L275.635 156.779L278.02 160.876L281.13 160.499C280.608 155.764 278.346 147.303 274.047 141.205Z" fill="#2F2E41"/>
<path d="M284.618 229.836L283.429 188.842L275.316 192.387L279.231 230.278C278.388 230.933 277.78 231.843 277.496 232.872C277.212 233.901 277.268 234.994 277.656 235.988C278.044 236.983 278.743 237.825 279.649 238.39C280.554 238.955 281.618 239.212 282.682 239.124C283.745 239.035 284.752 238.605 285.551 237.898C286.351 237.19 286.9 236.244 287.118 235.199C287.335 234.154 287.21 233.067 286.759 232.099C286.309 231.131 285.558 230.335 284.618 229.829V229.836Z" fill="#FFB8B8"/>
<path d="M274.047 194.171C279.34 194.686 283.139 192.496 285.713 188.088L283.937 179.96C283.937 177.315 283.093 174.74 281.528 172.608C279.963 170.476 277.759 168.898 275.236 168.105L274.294 167.801L274.047 194.171Z" fill="#E6E6E6"/>
<path d="M229.914 182.896C229.847 182.903 229.779 182.903 229.711 182.896L219.923 182.736V182.49L220.735 162.319C220.754 161.903 220.937 161.511 221.244 161.23C221.551 160.948 221.957 160.8 222.374 160.818L230.211 161.173C230.627 161.192 231.019 161.375 231.3 161.682C231.582 161.989 231.73 162.396 231.712 162.812L230.936 181.968C230.925 182.225 230.815 182.469 230.628 182.647C230.442 182.825 230.194 182.925 229.936 182.925L229.914 182.896Z" fill="#FECB40"/>
<path d="M228.848 182.909H228.776L221.09 182.569C220.874 182.559 220.662 182.507 220.466 182.416C220.269 182.325 220.093 182.195 219.947 182.036C219.801 181.876 219.688 181.689 219.614 181.486C219.54 181.282 219.507 181.066 219.517 180.85L220.336 162.434C220.355 162.018 220.538 161.626 220.845 161.345C221.152 161.063 221.559 160.915 221.975 160.933L229.82 161.288C230.026 161.297 230.229 161.346 230.416 161.433C230.603 161.52 230.772 161.643 230.911 161.795C231.051 161.948 231.159 162.126 231.229 162.32C231.299 162.514 231.33 162.721 231.321 162.927L230.501 181.336C230.481 181.759 230.299 182.158 229.992 182.451C229.686 182.744 229.279 182.908 228.855 182.909H228.848Z" fill="#2F2E41"/>
<path d="M225.404 166.873C226.024 166.873 226.527 166.369 226.527 165.749C226.527 165.128 226.024 164.625 225.404 164.625C224.783 164.625 224.28 165.128 224.28 165.749C224.28 166.369 224.783 166.873 225.404 166.873Z" fill="#FECB40"/>
<path d="M234.735 187.903V195.305L227.586 184.038C228.096 183.167 228.311 182.155 228.199 181.152C228.087 180.149 227.653 179.21 226.963 178.473C226.272 177.737 225.362 177.244 224.369 177.068C223.375 176.892 222.351 177.042 221.449 177.495C220.548 177.949 219.817 178.682 219.367 179.585C218.916 180.488 218.77 181.512 218.95 182.506C219.13 183.499 219.626 184.407 220.364 185.095C221.103 185.783 222.044 186.213 223.047 186.322L233.038 204.064C233.56 204.987 234.362 205.719 235.329 206.155C236.295 206.59 237.375 206.706 238.412 206.485C239.449 206.264 240.388 205.718 241.093 204.927C241.799 204.136 242.233 203.14 242.333 202.085L243.595 188.838L234.735 187.903Z" fill="#FFB8B8"/>
<path d="M244.523 193.642C239.542 194.12 235.96 192.061 233.546 187.914L235.214 180.257C235.214 177.768 236.007 175.343 237.479 173.335C238.951 171.327 241.025 169.841 243.399 169.091L244.284 168.809L244.523 193.642Z" fill="#E6E6E6"/>
<path d="M256.081 326.273L250.628 325.388L251.448 303.941L259.489 305.246L256.081 326.273Z" fill="#FFB6B6"/>
<path d="M257.306 330.393H239.491V330.226C239.49 329.316 239.669 328.414 240.016 327.573C240.364 326.731 240.873 325.967 241.516 325.322C242.159 324.678 242.923 324.167 243.763 323.818C244.604 323.468 245.505 323.288 246.415 323.287H257.291L257.306 330.393Z" fill="#2F2E41"/>
<path d="M282.132 313.782L277.201 316.269L265.26 298.432L272.539 294.764L282.132 313.782Z" fill="#FFB6B6"/>
<path d="M285.801 317.899L269.901 325.947L269.799 325.751C268.974 324.111 268.833 322.21 269.408 320.465C269.983 318.721 271.227 317.277 272.866 316.449L282.582 311.555L285.801 317.899Z" fill="#2F2E41"/>
<path d="M260.011 161.624C265.365 161.624 269.705 157.284 269.705 151.93C269.705 146.576 265.365 142.236 260.011 142.236C254.657 142.236 250.317 146.576 250.317 151.93C250.317 157.284 254.657 161.624 260.011 161.624Z" fill="#FFB8B8"/>
<path d="M272.032 142.154L263.237 137.543L251.1 139.428L248.584 150.529C260.982 152.305 269.567 153.335 272.453 150.318L272.032 142.154Z" fill="#2F2E41"/>
<path d="M244.371 212.551C244.371 212.551 236.983 227.668 245.169 250.036L267.79 307.75L278.601 301.355L267.58 276.522L276.549 246.12C278.609 239.222 279.238 231.976 278.398 224.826C277.752 219.482 276.222 214.044 272.989 211.311C265.347 204.858 244.371 212.551 244.371 212.551Z" fill="#2F2E41"/>
<path d="M256.74 272.098L248.54 313.672L259.459 315.731L266.326 279.74L256.74 272.098Z" fill="#2F2E41"/>
<path d="M267.159 166.363L254.623 166.53L243.653 169.053L244.306 212.998C244.306 212.998 264.143 218.618 272.858 210.823L278.601 169.691C275.051 167.82 271.159 166.688 267.159 166.363Z" fill="#E4E4E4"/>
<path d="M266.05 142.004C269.482 142.004 272.264 139.222 272.264 135.79C272.264 132.358 269.482 129.576 266.05 129.576C262.618 129.576 259.836 132.358 259.836 135.79C259.836 139.222 262.618 142.004 266.05 142.004Z" fill="#2F2E41"/>
<path d="M259.844 134.361C259.841 133.442 260.042 132.534 260.433 131.703C260.825 130.871 261.396 130.137 262.106 129.554C262.816 128.971 263.647 128.554 264.539 128.331C265.431 128.109 266.36 128.088 267.261 128.27C265.78 127.615 264.101 127.565 262.583 128.131C261.065 128.697 259.829 129.834 259.138 131.299C258.447 132.765 258.356 134.442 258.885 135.973C259.414 137.504 260.52 138.768 261.968 139.494C262.43 139.712 262.917 139.872 263.418 139.973C262.351 139.474 261.447 138.681 260.814 137.687C260.181 136.693 259.845 135.539 259.844 134.361Z" fill="#2F2E41"/>
<defs>
<linearGradient id="paint0_linear" x1="59.1277" y1="140.196" x2="64.6381" y2="140.196" gradientUnits="userSpaceOnUse">
<stop offset="0.08" stop-color="#3FE946"/>
<stop offset="0.14" stop-color="#43E94A"/>
<stop offset="0.2" stop-color="#4EEB54"/>
<stop offset="0.26" stop-color="#61ED66"/>
<stop offset="0.32" stop-color="#7BF080"/>
<stop offset="0.38" stop-color="#9DF4A0"/>
<stop offset="0.44" stop-color="#C6F9C8"/>
<stop offset="0.49" stop-color="#F7FEF7"/>
<stop offset="0.5" stop-color="white"/>
<stop offset="0.53" stop-color="#E4FCE5"/>
<stop offset="0.59" stop-color="#B6F7B9"/>
<stop offset="0.65" stop-color="#8EF292"/>
<stop offset="0.71" stop-color="#6DEE73"/>
<stop offset="0.78" stop-color="#54EC5B"/>
<stop offset="0.84" stop-color="#42EA4A"/>
<stop offset="0.91" stop-color="#37E83F"/>
<stop offset="0.99" stop-color="#34E83C"/>
</linearGradient>
</defs>
</svg>
